<?xml version="1.0" encoding="UTF-8"?>
<svg version="1.1" viewBox="0 0 900 900" width="225" height="225" xmlns="http://www.w3.org/2000/svg">
<path transform="translate(0)" d="m0 0h900v900h-900z" fill="#033B6B"/>
<path transform="translate(0)" d="m0 0h900v900h-900zm430 81-25 2-29 5-25 6-23 7-25 10-29 14-16 9-24 16-13 10-13 11-8 7-3 2v2l-4 2-12 12-7 8-14 17-12 16-13 20-12 21-8 17-6 13-9 24-7 23-6 27-4 25-2 23v39l3 31 4 24 6 25 6 19 10 27 14 29 8 14 12 19 13 18 14 17 14 15 18 18 8 7 14 11 18 13 19 12 18 10 25 12 26 10 27 8 34 7 36 4h44l30-3 31-6 23-6 24-8 26-11 22-11 20-12 19-13 13-10 14-12 10-9 8-7 14-15 11-13 10-13 10-14 12-19 14-26 10-23 10-28 7-26 5-26 4-36 1-25-2-31-4-29-6-29-8-27-11-28-13-27-14-24-15-22-13-16-9-11-29-29-11-9-15-12-27-18-16-9-23-12-19-8-22-8-29-8-27-5-34-4z" fill="#FEFEFE"/>
<path transform="translate(430,114)" d="m0 0h46l31 4 24 5 25 7 28 11 27 13 17 10 15 10 16 12 14 12 8 7 18 18 7 8 13 16 13 19 8 13 10 18 10 21 9 24 7 23 6 28 4 33 1 26-2 32-3 22-5 24-6 22-8 22-8 21-5-2-20-13-19-12-14-9-15-10-43-30-20-14-19-13-17-12-23-16-15-10-11-7-8-7 1-3 24-13 17-10 50-30 26-15 15-9 23-14 9-6 11-6 31-20 11-7 3-3v-2l-7 3-31 16-22 12-33 17-16 8-21 10-41 18-24 10-24 9-9 4h-3l-4-66v-15l1-19 1-6-10-19-13-26v-2h-4l-5 10-1 6v73l1 31v46l-11 5-13 4-17 8-10 3-3-6-5-13-10-22-7-15-15-31-16-36-19-42-7-12-4-5-7-4h-12l-7 4-7 7-10 19-11 24-96 204-12 25-12 28-11 25-5 14-3 1-12-25-11-30-6-22-4-18-4-27-1-13v-39l2-24 5-30 5-20 8-25 10-24 8-16 8-15 13-20 12-16 11-13 11-12 7-8 4-4h2v-2l11-9 10-9 19-14 19-12 16-9 23-11 20-8 26-8 34-7 17-2z" fill="#FEFEFE"/>
<path transform="translate(326,318)" d="m0 0 4 1 5 5 8 20 8 18 16 34 9 17 11 25 7 15v2l-6 2h-6l-10-23-15-33-7-15-13-29-7-15-4-9-5-1 9 21 13 27 14 31 13 29 8 19-7 3-54 17-53 16 2 6 9 15 17 29 9 15 16 27 24 40 10 16 4-1 17-12 16-12 5-4h2l-2-11-12-44-11-41 4-4 18-8 4-2h3l8 18 18 40 6 14 8 18 11 24 6 8 7 5-5-10-6-9-11-26-7-15-9-20-7-15-15-32v-3l4-2h5l9 17 11 25 15 34 7 15 8 17 4 7 8 5 11 2h10l10-3h5l8-14 2-8v-48l-1-33v-37l4 2 12 10 11 7 10 7 12 8 11 8 19 13 24 16 16 10 11 7 12 8 19 12 13 8 12 8 7 5 11 6 4 2h4l-14-8-12-8-19-12-9-6-19-12-14-10-15-10-21-13-22-15-11-8-16-11-24-16-14-10-1-3 5 1 14 9 29 20 10 8 16 10 16 11 48 32 10 7 7 4 7 6 26 16 21 13 2 2 9-1 5-1-2 7-11 17-12 17-11 14-9 10-11 12-11 11-8 7-16 13-16 11-17 11-18 10-24 11-24 9-24 7-25 5-26 3-10 1h-40l-22-2-30-5-26-7-24-8-29-13-17-9-15-10-11-7-12-9-10-8-10-9-7-6-5-5-14-15-9-11-10-12-14-21-6-10 1-2 5 1h12l8-3 6-9 9-20 12-27 9-21 6-12 9-20 8-16 16-35 12-27 19-42 15-33 11-21 7-11z" fill="#FDFDFD"/>
<path transform="translate(430,81)" d="m0 0h43l34 4 31 6 31 9 21 8 24 11 26 14 24 16 16 12 11 9 13 12 22 22 9 11 13 16 17 26 14 25 13 28 10 27 6 21 7 34 3 24 2 31-1 25-4 36-6 30-7 25-10 28-14 30-12 21-11 17-14 19-13 15-7 8-14 15-10 9-11 9-12 10-17 12-19 12-18 10-25 12-20 8-26 8-30 7-17 3-30 3h-44l-36-4-34-7-29-9-24-9-33-16-20-12-16-11-12-9-14-11-16-15-18-18-7-8-13-16-12-17-10-16-10-17-11-22-11-28-5-15-8-30-4-23-3-23-1-14v-39l3-30 5-28 7-28 10-29 8-19 8-16 11-20 13-20 14-19 12-14 7-8 9-10 7-7h2v-2l8-7 13-11 20-15 17-11 17-10 24-12 24-10 27-9 24-6 28-5 16-2zm-3 28-21 2-29 5-27 7-21 7-24 10-19 10-19 11-13 9-16 12-13 11-10 9-22 22-11 14-10 13-10 15-9 15-8 14-11 24-10 27-8 30-5 30-2 21v44l3 28 5 27 6 23 10 29 12 26 12 22 16 24 10 13 12 14 12 13 13 13 11 9 12 10 17 12 21 13 25 13 24 10 27 9 25 6 25 4 18 2 27 1 21-1 27-3 31-6 25-7 24-9 18-8 25-13 23-15 17-13 11-9 10-9 5-4v-2l4-2 12-13 8-9 10-13 13-18 9-15 7-12 11-23 10-26 8-27 6-28 3-23 1-12v-46l-3-27-3-17-6-25-10-30-10-23-10-20-11-18-11-16-10-13-9-11-3-4h-2l-2-4-24-24-5-4h-2l-1-3-16-12-13-9-19-12-22-12-25-11-24-8-28-7-22-4-28-3z" fill="#033B6B"/>
<path transform="translate(487,256)" d="m0 0h4l8 16 16 31-1 6-1 19v15l3 52v14l20-8 31-12 65-29 21-10 51-27 28-15 11-6 5-1-1 4-7 6-10 6-19 12-17 11-11 6-19 12-15 9-26 15-22 13-50 30-17 9-7 4-1 2-16 8-23 13-3 2 1 53 2 35v9l-3-3-12-25-14-30-8-19-3-1-23 11-12 6-9 2 18 40 7 15 13 29 7 15 6 14 7 10 2 7-4-2-5-5-6-8-12-26-8-19-7-16-7-15-14-31-1-5-12 5-16 8 9 35 13 47 2 7v8l-38 28-3 2-4-1-8-13-27-45-32-54-13-22-7-12 1-3 111-34 2-2-9-20-14-31-9-20-11-24-11-23-2-8 3-1 3 2 10 23 7 14 13 30 21 45 4 10v2l16-4 35-12 21-9 9-4 13-4 6-2-2-77v-73l2-8z" fill="#71AA43"/>
<path transform="translate(420,96)" d="m0 0h58l33 4 28 6 24 7 26 10 16 7 22 12 20 12 16 12 13 10 14 12 28 28 11 14 10 13 12 18 13 22 11 23 10 25 8 26 6 26 4 27 2 31v20l-2 30-5 30-6 25-6 20-11 28-8 16-10 19-10 16-10 14-10 13-12 14-15 16-15 14-10 9-13 10-22 15-15 9-16 9-27 12-19 7-28 8-31 6-29 3h-51l-29-3-26-5-23-6-28-10-24-11-21-11-19-12-17-12-16-13-14-12-19-19-9-11-11-13-12-17-11-17-9-16-14-29-11-30-8-30-5-29-3-34v-27l2-27 4-27 6-26 8-25 8-21 15-31 12-20 11-16 12-16 11-13 15-16 13-13 8-7 14-11 12-9 15-10 19-11 21-11 27-11 25-8 25-6 23-4zm7 13-21 2-29 5-27 7-21 7-24 10-19 10-19 11-13 9-16 12-13 11-10 9-22 22-11 14-10 13-10 15-9 15-8 14-11 24-10 27-8 30-5 30-2 21v44l3 28 5 27 6 23 10 29 12 26 12 22 16 24 10 13 12 14 12 13 13 13 11 9 12 10 17 12 21 13 25 13 24 10 27 9 25 6 25 4 18 2 27 1 21-1 27-3 31-6 25-7 24-9 18-8 25-13 23-15 17-13 11-9 10-9 5-4v-2l4-2 12-13 8-9 10-13 13-18 9-15 7-12 11-23 10-26 8-27 6-28 3-23 1-12v-46l-3-27-3-17-6-25-10-30-10-23-10-20-11-18-11-16-10-13-9-11-3-4h-2l-2-4-24-24-5-4h-2l-1-3-16-12-13-9-19-12-22-12-25-11-24-8-28-7-22-4-28-3z" fill="#FEFEFE"/>
<path transform="translate(523,440)" d="m0 0 5 1 10 8 18 11 11 8 23 16 19 13 14 10 16 11 43 30 15 10 16 10 17 11 23 15 2 1 2-9 4-8 2 3v7l-8 17-11 20-3-2-4 3 2-5 4-6 2-5-8 3h-6l-10-7-15-9-13-8-11-7-11-9-9-5-10-7-66-44-16-11-10-8-11-7-13-9-13-8h-2l5 5 48 32 5 4 17 12 20 13 19 12 16 11 18 12 16 10 9 6 11 7 12 8 8 5 6 3 1 2-7-1-10-6-9-5-10-7-12-8-9-5-14-9-12-8-21-13-45-30-11-8-14-10-11-7-10-7-13-10-5-4 2 70v48l-2 8-6 11-3 4-8 1-7 2h-10l-13-3-6-4-4-5-7-16-8-18-7-15-16-35-8-18-4-8 1-3 22-10 12-6 4 2 14 32 12 26 9 18-1-22-1-21-1-53 8-5 23-13z" fill="#033C6B"/>
<path transform="translate(427,109)" d="m0 0h45l34 4 29 6 28 8 25 10 21 10 22 13 18 12 13 10 8 6v2l4 2 10 9 19 19v2h2l9 11 14 18 15 23 10 18 11 23 8 21 7 21 6 25 4 25 2 19v46l-3 28-6 31-8 28-9 24-1 2h-2l-1-9 7-18 6-20 5-21 4-23 2-22 1-27-2-30-4-28-6-25-6-20-9-24-14-29-10-17-10-15-9-12-13-16-14-15-14-14-10-8-12-10-19-13-13-8-18-10-19-9-23-9-22-7-26-6-19-3-18-2h-46l-24 2-23 4-22 5-25 8-20 8-25 12-12 7-19 12-16 12-13 11-9 8h-2v2l-8 7-11 12-7 8-13 16-11 16-13 21-8 15-11 25-7 20-6 20-6 29-3 23-1 15v39l2 21 4 25 5 20 6 20 10 26 10 21 3 9 4 6 4 4 10 16 12 16 12 14 9 10 7 8 10 9 8 8 14 11 18 13 10 6 13 8 19 10 28 12 25 8 24 6 34 5 14 1h40l29-3 27-5 25-7 18-6 28-12 22-12 16-10 12-8 14-11 11-9 15-14 9-9 7-8 10-12 12-16 11-17 4-4 3 1-1 5-9 14-10 14-12 15-7 8-7 7-6 7h-2l-2 4-8 7-13 11-16 12-13 9-18 11-27 14-25 10-24 8-26 6-24 4-20 2-28 1-20-1-31-4-25-5-25-7-24-9-24-11-22-12-24-16-13-10-14-12-10-9-14-14-7-8-11-13-13-18-12-19-13-24-11-25-12-36-6-28-4-29-1-11v-44l3-29 5-26 7-26 10-27 7-16 12-22 12-20 13-18 13-16 9-10 22-22 11-9 15-12 16-11 22-13 28-14 26-10 32-9 27-5 15-2z" fill="#042C78"/>
<path transform="translate(487,256)" d="m0 0h4l8 16 16 31-1 6-1 19v15l3 52v14l-5 3-27 10h-2l-2-77v-73l2-8z" fill="#033C6A"/>
<path transform="translate(446,126)" d="m0 0h12l6 4 6 10 2 7v16l-3 10-6 8-5 3-10 1-8-4-6-9-2-7v-19l4-11 6-7z" fill="#033B6B"/>
<path transform="translate(480,464)" d="m0 0 4 1 1 51 2 35v9l-3-3-12-25-14-30-8-19v-3l8-5 19-9z" fill="#FEFEFE"/>
<path transform="translate(740,622)" d="m0 0 3 1-1 5-9 14-10 14-12 15-7 8-7 7-6 7h-2l-2 4-8 7-13 11-16 12-13 9-18 11-27 14-25 10-24 8-26 6h-8l-13 2-4-2 10-2h4v-2l28-6 27-8 27-11 17-8 21-12 15-10 14-10 17-14 15-14 9-9 7-8 10-12 12-16 11-17z" fill="#042B79"/>
<path transform="translate(230,710)" d="m0 0 4 1 3-1 19 14 28 18 21 11 28 12 25 8 24 6 34 5 14 1h40l29-3h7l-4 2-8 1 3 1 13-2 1 2-18 3-20 2-28 1-20-1-31-4-25-5-25-7-24-9-24-11-22-12-24-16-13-10-7-6z" fill="#042C78"/>
<path transform="translate(377,116)" d="m0 0h8l2 2-4 3-22 5-25 8-20 8-25 12-12 7-19 12-16 12-13 11-9 8h-2v2l-8 7-11 12-7 8-13 16-10 14h-4l-1-3 12-17 13-16 9-10 22-22 11-9 15-12 16-11 22-13 28-14 26-10 32-9z" fill="#042B79"/>
<path transform="translate(588,157)" d="m0 0 5 2 7 3-1 8-7 30-5 22-10-4 1-5 2-9-7-2-5-3-6 1-4 6-9-3 2-4 12-13 7-8 10-11z" fill="#033B6B"/>
<path transform="translate(300,163)" d="m0 0h2l6 8 29 29 5 7-9 5-7-8-5 1-10 6 1 8 1 4-8 4-3-9-11-42-2-5v-3z" fill="#033C6B"/>
<path transform="translate(168,420)" d="m0 0 2 2 5 16 2 4h22l-2 4-8 6-6 4h-2l4 14 3 10-4-1-9-7-7-4-9 5-9 7h-2l1-5 5-14-1-5-10-7-7-6 3-1h20l5-12z" fill="#033B6B"/>
<path transform="translate(759,306)" d="m0 0 3 4 9 23 8 24 6 25 4 25 2 19v46l-3 28-6 31-8 28-9 24-1 2h-2l-1-9 7-18 6-20 5-21 4-23 2-22 1-27-2-30-4-28-6-25-6-20-2-9-1-5-2-4-1-8h-2l-1-7z" fill="#03386E"/>
<path transform="translate(189,257)" d="m0 0 5 2 19 7 26 9 7 3-2 4-5 5-7-3-5 1-6 9 1 7 5 4-4 8-3-1-7-9-11-12-8-10-8-9-4-3 2-4z" fill="#033B6B"/>
<path transform="translate(742,421)" d="m0 0h2l8 21h22l-2 4-12 9-3 2 1 5 5 15v3l-4-2-13-9h-6l-14 11h-2l1-7 5-15-11-9-6-4v-2l21-1 4-8z" fill="#033B6B"/>
<path transform="translate(670,213)" d="m0 0 4 2 11 11 7 8 4 4-1 3-7 5-3-1-6-7v-2l-3-1-5-5-4 2-2 3 1 5 7 6 1 4-5 3-2 3-3-1-7-9-4-1-4 5-2 1 1 5 10 11 4 2-1 3-5 4-1 2h-3l-7-8-8-8-4-5-4-4 6-5h2l2-4 10-9 7-7 8-7 5-6z" fill="#033B6B"/>
<path transform="translate(397,129)" d="m0 0h9l9 1-1 12-2 2-5-2h-9l-3 1-1 7 9 2 10 2 6 4 3 9v9l-4 8-8 4h-15l-6-1v-14l9 3h13v-8l-2-1-16-2-7-6-2-5v-13l3-6 5-4z" fill="#033C6A"/>
<path transform="translate(353,140)" d="m0 0h13v14l-2-1h-12l-4 2-1 8h19l7 3 4 7 1 3v13l-4 6-9 4-12 1-5-1-2-13 4 1h13l4-2 1-5-1-3h-16l-7-2-6-8-1-5v-9l4-8 7-4z" fill="#033C6B"/>
<path transform="translate(239,203)" d="m0 0 2 1 3 17 2 7 8 4 24 11 2 1v3l-8 6-4-2-17-9-3-1 2 10 4 6 7 6-6 7h-3l-11-12-29-29 7-7 4 1 4 6 11 11 2 1-3-11-3-14-3-5 6-7z" fill="#033B6B"/>
<path transform="translate(701,259)" d="m0 0h9l8 7 6 14v3l-9 3h-4l-1-9-4-6-3-2-6 1 2 9 3 8v8l-4 6-8 5-5 2h-7l-5-3-5-6-4-9-1-7 4-3 6-3h2v9l4 9 3 2 5-1 1-1-1-9-3-9 1-8 8-7z" fill="#033B6B"/>
<path transform="translate(165,261)" d="m0 0 3 1v2l2 1-13 21-8 15-11 25-7 20-6 20-6 29-3 23-1 15v49l-4-2-1 2-1-11v-44l3-29 5-26 7-26 10-27 7-16 12-22z" fill="#03396D"/>
<path transform="translate(499,131)" d="m0 0h13l10 5 2 2-1 5-4 10-7-6-4-2h-6l-5 3-4 8v13l5 6 5 1 7-2 4-6 2 2 3 10-1 5-9 4-7 1-10-3-6-5-3-5-1-4v-16l2-8 5-10 8-7z" fill="#033C6B"/>
<path transform="translate(625,178)" d="m0 0 6 2 9 7 16 11-2 5-5 7-4-2-5-4-4 1-22 32-1 2-5-2-4-2 1-5 4-5 11-16 8-11v-4l-9-3-1-2 5-7z" fill="#033B6B"/>
<path transform="translate(524,479)" d="m0 0 5 2 27 18 19 13 15 11 26 17 19 12 16 11 18 12 16 10 9 6 11 7 12 8 8 5 6 3 1 2-7-1-10-6-9-5-10-7-12-8-9-5-14-9-12-8-21-13-45-30-11-8-14-10-11-7-10-7-13-10z" fill="#033570"/>
<path transform="translate(401,502)" d="m0 0h2l17 36 9 20 12 27 7 15 6 14 7 10 2 7-4-2-5-5-6-8-12-26-8-19-7-16-7-15-14-31-1-6z" fill="#033273"/>
<path transform="translate(323,331)" d="m0 0 4 2 10 23 7 14 13 30 21 45 4 10v2l2 1-6 1-8-16-9-21-11-24-15-33-12-25-2-8z" fill="#03366F"/>
<path transform="translate(688,208)" d="m0 0 4 1 11 11v2h2l9 11 14 18 15 23 10 18 6 12 1 10 3 2 2 10 2 4v3h-2l-11-26-13-25-15-24-10-13-13-16-14-15-1-3z" fill="#043075"/>
<path transform="translate(547,141)" d="m0 0 9 2 3 1-2 5-12 31-5 15-1 4-6-1-6-2 2-5 7-18 10-28z" fill="#033B6B"/>
<path transform="translate(450,139)" d="m0 0 7 1 5 7 1 3v8l-2 7-5 6-7 1-5-4-3-7v-11l4-8z" fill="#FEFEFE"/>
<path transform="translate(788,478)" d="m0 0h1v15l-4 24-6 25-8 26-7 17h-2l-1-9 7-18 6-20 5-21 4-23 1-10 3-2z" fill="#033173"/>
<path transform="translate(427,109)" d="m0 0h45l19 2-1 2h-5v2h-55l-24 2-18 3-4-1 1-2-3-2 32-5z" fill="#033B6B"/>
<path transform="translate(499,782)" d="m0 0h7l-4 2-8 1 3 1 13-2 1 2-18 3-20 2-28 1-20-1-18-2 1-2 7-1 1-1h54z" fill="#033C6B"/>
<path transform="translate(244,676)" d="m0 0 5 2 7 8v8l-7 8-5 1-8-4-5-4 1-5 8-10z" fill="#042D77"/>
<path transform="translate(635,553)" d="m0 0 9 5 14 10 19 12 9 6 19 12 12 8 8 5 6 3 1 2-7-1-10-6-9-5-10-7-12-8-9-5-14-9-12-8-16-10z" fill="#033372"/>
<path transform="translate(184,656)" d="m0 0 5 5 9 10 7 8 9 10 8 7 14 14-3 2-8-5-13-12-13-13-14-16-1-4-1-3z" fill="#033A6C"/>
<path transform="translate(788,407)" d="m0 0h1l2 19v46l-1 12-2-2-3 2v-12l1-27-1-28 2-6z" fill="#033C6B"/>
<path transform="translate(218,640)" d="m0 0h3l-1 7-8 17-3 5-3 1 1-4 1-5-1-4-3-1-4-5-10 1-1-3 18-6z" fill="#03396D"/>
<path transform="translate(433,755)" d="m0 0 3 3 2 6 2 9 4 1 5-5v-5l-6-7v-2l5 2 1 3 6 3 3 7 5 7v2l-4-2-4-5v-2l-5 3-5 5-4 1-4-5v-2h-10l-4 4-3-1 11-19z" fill="#033273"/>
<path transform="translate(313,723)" d="m0 0 5 1 9 5 2 2-1 7-5 5v7l-4 1v-9l-6-5-4 1-3 6h-2l1-7 6-12z" fill="#033C6B"/>
<path transform="translate(675,655)" d="m0 0 3 1-4 5 2 4 10 10 1 3-5-2-10-9-5 1-2 3 1 4 9 10 1 3-15-1-4-2 3 6 3 3 1 5-7-6-6-7v-2l-3-1v-2l8 1 11 2-2-5-5-6 4-7z" fill="#03386D"/>
<path transform="translate(323,331)" d="m0 0 4 2 10 23 7 14 6 14-1 5-3-4-1-3-2 1-8-18-12-25-2-8z" fill="#03386E"/>
<path transform="translate(519,749)" d="m0 0h7l6 5 1 6-3 5-6 3-5-1-6-5-1-5 5-7z" fill="#FEFEFE"/>
<path transform="translate(436,581)" d="m0 0 2 2 2-1 14 32 7 10 2 7-4-2-5-5-6-8-12-26-2-6z" fill="#03376E"/>
<path transform="translate(551,770)" d="m0 0h5l-2 5-8 3-24 6-5 1h-8l-13 2-4-2 10-2h4v-2l28-6z" fill="#042E76"/>
<path transform="translate(291,715)" d="m0 0 6 1 4 4v10l-6 4-8-2-4-6 2-7 3-3z" fill="#FEFEFE"/>
<path transform="translate(288,712)" d="m0 0h9l6 4 2 4v8l-3 6-6 3h-7l-6-4-3-5v-8l6-7zm3 3-5 3-2 2-1 6 4 6 8 2 6-4v-10l-4-4z" fill="#033074"/>
<path transform="translate(490,744)" d="m0 0h9l6 5v2l-5-1-1-1h-9l-4 4-1 2v8l3 6 3 2h8l8-7 2-2-1 5-7 8-9 1-6-4-4-5-2-5v-7l4-7z" fill="#042C78"/>
<path transform="translate(165,261)" d="m0 0 3 1v2l2 1-13 21-8 15-1 3h-2l-2-3 1-6 13-23z" fill="#033174"/>
<path transform="translate(688,208)" d="m0 0 4 1 11 11v2h2l9 11 9 12-4 1-4-2-11-14-15-16-1-3z" fill="#042D77"/>
<path transform="translate(521,745)" d="m0 0 7 1 5 4 2 3v10l-5 6-5 2h-6l-6-4-3-6-1-3 5-10zm-2 4-5 5-2 5 3 5 6 4 6-1 5-5 1-6-5-6-2-1z" fill="#03376E"/>
<path transform="translate(245,681)" d="m0 0 4 1 3 3 1 6-3 6-4 3-4-1-6-5 1-5 6-7z" fill="#FEFEFE"/>
<path transform="translate(157,624)" d="m0 0h3l1 2 4 1 10 16 9 12 1 7 1 2-4-2-12-16-11-17z" fill="#043075"/>
<path transform="translate(336,734)" d="m0 0 9 1 6 5v3l-4-2-5-3-5-1v5l6 2 5 5v6l-5 5h-6l-8-5-1-4h4l5 4h6l1-4-3-3-9-5 1-5z" fill="#033471"/>
<path transform="translate(263,693)" d="m0 0 4 1 11 7 6 5v2l-4-1-5-2-2 5-5 9-3 1-2-1 2-5 6-9 1-5-4-2h-4l-10 12h-3l1-4 9-12z" fill="#033174"/>
<path transform="translate(637,690)" d="m0 0 5 2 13 7 5 2v2h-11l-4 4-1 7-3 1-2-13-2-5z" fill="#03376F"/>
<path transform="translate(550,737)" d="m0 0 4 2 5 16 1 5-4-1-8-5-6-3 3 14h-2l-3-6-3-10-1-6 4 1 11 7 3 1-4-12z" fill="#033372"/>
<path transform="translate(570,730)" d="m0 0 5 1v3l-12 2v4l14-1 3 1 2 3v6l-6 5-5 2h-5l-2-4 13-3 2-4-6-2-3 1h-8l-2-2v-7l6-4z" fill="#033A6C"/>
<path transform="translate(226,658)" d="m0 0 2 1-1 4-10 9 1 6 4 3 5-1 7-6 3-3 3 1-2 4-7 7-6 3-5-1-5-5-3-4 1-5 5-6 5-5z" fill="#033B6B"/>
<path transform="translate(191,231)" d="m0 0h1v5l-8 9-10 14-4 5-4-1 1-5 12-16 4-5 5-2v-2z" fill="#042C78"/>
<path transform="translate(788,478)" d="m0 0h1v15l-4 24-1 5-3-2-2 2 1-11 3-17 1-10 3-2z" fill="#033372"/>
<path transform="translate(596,717)" d="m0 0h2l7 14 1 6-2 4-8 4-7-1-6-9-3-6v-4h2l7 13v2h8l4-2-1-8-5-11z" fill="#03386D"/>
<path transform="translate(404,745)" d="m0 0h9l17 3 2 3h-7l-5-1-4 24-1 2h-3l2-16 2-11-10-1-2-1z" fill="#033471"/>
<path transform="translate(198,271)" d="m0 0 6 1 15 6-1 5-4 5-5-1-8-10-3-4z" fill="#FEFEFE"/>
<path transform="translate(781,519)" d="m0 0 2 2-1 10-7 25h-2l-1-6 3-16 3-12h2z" fill="#042F75"/>
<path transform="translate(586,173)" d="m0 0h1l-1 11-3 11-5-1-6-4 3-5z" fill="#FEFEFE"/>
<path transform="translate(694,647)" d="m0 0h8l3 3v8l-4 5h-2v2l-3 2h-4l1-4 7-5 1-5-4-2-9 7h-4l1-3 8-7z" fill="#03376F"/>
<path transform="translate(635,553)" d="m0 0 9 5 14 10 13 8-4 3-18-12-16-10z" fill="#03386D"/>
<path transform="translate(759,306)" d="m0 0 3 4 9 23 4 11-1 4-3 3-5-15v-6l-3-6-1-8h-2l-1-7z" fill="#033571"/>
<path transform="translate(301,180)" d="m0 0 4 2 12 12v3l-6 3-5-1-2-6-3-10z" fill="#FEFEFE"/>
<path transform="translate(524,479)" d="m0 0 5 2 27 18 2 1-1 2-4 1-16-11-13-10z" fill="#033372"/>
<path transform="translate(603,713)" d="m0 0 4 1 7 12 5 1 10-5h2l-2 4-8 5-4 2-4-1-8-13-2-3z" fill="#033B6B"/>
<path transform="translate(377,116)" d="m0 0h8l2 2-4 3-19 4-4-1-3-3z" fill="#043075"/>
<path transform="translate(629,696)" d="m0 0h3l-2 4-3 1 2 7 7 9-1 3-4-2-8-12-4 2h-4l2-4 11-7z" fill="#042F75"/>
<path transform="translate(401,502)" d="m0 0h2l9 19-1 8h-2l-9-20-1-6z" fill="#042F76"/>
<path transform="translate(406,111)" d="m0 0 4 1-1 4-21 4-4-1 1-2-3-2z" fill="#03376F"/>
<path transform="translate(374,748)" d="m0 0 2 2 2 6v4l3 7 4 2v2h-5l-4-3-1-11-6 4 1 4 3 4-7-2-1-4 5-7 2-1z" fill="#033570"/>
<path transform="translate(678,177)" d="m0 0 4 2 24 22 2 4 3 1 5 6 5 5 5 7h-3l-9-11-28-28-8-7z" fill="#042D77"/>
<path transform="translate(648,681)" d="m0 0 8 1 11 2 2-2v2h2l-1 3h-9l-4-2 3 6 3 3 1 5-7-6-6-7v-2l-3-1z" fill="#03396C"/>
<path transform="translate(369,436)" d="m0 0h3l3 5 3 4 4 10v2l2 1-6 1-8-16z" fill="#042B79"/>
<path transform="translate(344,381)" d="m0 0 2 1 2 5 3-1 8 18-2 4-5-6-8-17z" fill="#033372"/>
<path transform="translate(550,737)" d="m0 0 4 2 5 16 1 5-4-1-8-5 1-3 5 1-4-12z" fill="#03366F"/>
<path transform="translate(240,682)" d="m0 0 2 2-2 3h-2l-1 7 6 5 6 2-3 2-7-2-8-6 1-5 5-5 2 1z" fill="#03386D"/>
<path transform="translate(773,347)" d="m0 0 3 1 3 9 1 12-3 1-3-8-2-8z" fill="#033074"/>
<path transform="translate(151,284)" d="m0 0 4 4-2 6-5 10h-2l-2-3 1-6z" fill="#033174"/>
<path transform="translate(196,676)" d="m0 0 5 5h3l3 6 5 4 2 3h3v3l4 2 1 2h3l1 4 3 2v2l-4-2-13-12-13-13-3-4z" fill="#042D77"/>
<path transform="translate(786,392)" d="m0 0h1l1 7v14l-3 4-2-10-1-13 4 1z" fill="#03396D"/>
<path transform="translate(751,298)" d="m0 0 3 3 1 4 4-1 1 10 3 2 2 10 2 4v3h-2l-11-26-3-6z" fill="#042B79"/>
<path transform="translate(191,231)" d="m0 0h1v5l-8 9-3 3-4-2 2-4 4-5 5-2v-2z" fill="#042F75"/>
<path transform="translate(314,727)" d="m0 0 7 2 5 4-1 4-7-1-6-4v-4z" fill="#FEFEFE"/>
<path transform="translate(329,750)" d="m0 0 4 2 4 3h6l2-5h2v7l-4 3h-6l-8-5-1-4z" fill="#033A6C"/>
<path transform="translate(212,644)" d="m0 0 4 1-1 5-4 6-4-2-3-3 2-4z" fill="#FEFEFE"/>
<path transform="translate(433,762)" d="m0 0h2l1 5-6 2-3-1v2h8v1l-8 1-4 4-3-1 7-12z" fill="#033B6B"/>
<path transform="translate(313,723)" d="m0 0 5 1-1 3-5 1v7h-2l-2 6-2 3h-2l1-7 6-12z" fill="#042E76"/>
<path transform="translate(708,601)" d="m0 0 8 4 9 6 6 3 1 2-7-1-10-6-9-5z" fill="#033B6B"/>
<path transform="translate(508,762)" d="m0 0 1 3-4 6-4 4-9 1-5-3 1-3 3 1h8l8-7z" fill="#03366F"/>
<path transform="translate(784,503)" d="m0 0 2 4-1 10-1 5-3-2-2 2 1-11 2-7z" fill="#03376F"/>
<path transform="translate(555,501)" d="m0 0 5 1 14 9-2 4-4-2-13-9z" fill="#03376E"/>
<path transform="translate(433,755)" d="m0 0 3 3 2 6v6l-3 1-8-1v-2l8-1v-5l-4 2h-3l1-4 2-4z" fill="#033174"/>
<path transform="translate(416,750)" d="m0 0 3 2-3 22-1 2h-3l2-16z" fill="#033A6C"/>
<path transform="translate(718,245)" d="m0 0 7 2 6 9-1 4h-3l-9-13z" fill="#042B79"/>
<path transform="translate(777,535)" d="m0 0 2 3-1 8-3 10h-2l-1-6 2-12h2z" fill="#042D77"/>
<path transform="translate(704,650)" d="m0 0h1v8l-4 5h-2v2l-3 2h-4l1-4 7-5 1-6z" fill="#033C6B"/>
<path transform="translate(432,567)" d="m0 0 3 4 4 9-1 5-2-2-1 2-4-6-1-5h2l-1-4z" fill="#033471"/>
<path transform="translate(263,693)" d="m0 0h3v2h-2l-1 4-9 11h-3l1-4 9-12z" fill="#042D78"/>
<path transform="translate(283,726)" d="m0 0 4 5 8 2 4-1v3l-3 2h-7l-6-4-2-4z" fill="#033C6B"/>
<path transform="translate(527,747)" d="m0 0 4 1 4 5v10l-4 5h-2l2-6 1-6-4-5-2-1z" fill="#042F76"/>
<path transform="translate(712,232)" d="m0 0 5 5 6 8-4 1-4-2-4-5z" fill="#033174"/>
<path transform="translate(412,523)" d="m0 0 2 2 4 9-2 5-2 1-4-9v-7z" fill="#03376F"/>
<path transform="translate(689,641)" d="m0 0h3l-2 4-5 5-2 7-4-1 1-6 7-8z" fill="#042E76"/>
<path transform="translate(438,766)" d="m0 0h1l1 7 4 1 6-5 2 2-5 6-6 2-4-5v-2l-2-1 2-1z" fill="#033C6B"/>
<path transform="translate(580,725)" d="m0 0h2l7 13v2h2l1 4-4-1-6-10-2-4z" fill="#042E77"/>
<path transform="translate(303,718)" d="m0 0 2 2v8l-3 6-5 1 3-5 1-10z" fill="#033570"/>
<path transform="translate(661,670)" d="m0 0 2 1v4l4 1 9 11v1h-6l1-4h-2v-2h-2l-7-8z" fill="#042D77"/>
<path transform="translate(570,730)" d="m0 0 5 1v3l-12 2-1 4-2 2v-7l6-4z" fill="#033B6B"/>
<path transform="translate(506,781)" d="m0 0h10l-1 3-6 1-13 2-4-2 10-2h4z" fill="#04277C"/>
<path transform="translate(746,611)" d="m0 0 1 3 1 1-1 5-4 5-2-2-4 3 2-5 4-6 1-3z" fill="#033372"/>
<path transform="translate(318,725)" d="m0 0 6 2 5 4-1 7-4 1 1-6-5-4-5-1z" fill="#03386D"/>
<path transform="translate(214,642)" d="m0 0h6l-2 9-3 7-3-1 1-6 2-2z" fill="#042C78"/>
<path transform="translate(377,116)" d="m0 0h8l2 2-4 3-11 1-1-3 6-1z" fill="#042A7A"/>
<path transform="translate(176,651)" d="m0 0h5l3 4 1 7 1 2-4-2-6-8z" fill="#042E77"/>
<path transform="translate(674,664)" d="m0 0 7 6 6 7h-3l-10-8-2-3z" fill="#03366F"/>
<path transform="translate(335,740)" d="m0 0h2v2l6 2 5 5v6h-1v-5l-3 1-3-3-6-4z" fill="#033C6B"/>
<path transform="translate(455,618)" d="m0 0 5 4 3 9-4-2-7-7v-3h2l2 4z" fill="#033174"/>
<path transform="translate(627,706)" d="m0 0 4 5 5 6-1 3-4-2-6-9v-2z" fill="#03396C"/>
<path transform="translate(623,547)" d="m0 0 8 2 4 3-1 4-4-1-5-3z" fill="#033273"/>
<path transform="translate(784,491)" d="m0 0 1 4h2v12h-2l-3-3 1-10z" fill="#033174"/>
<path transform="translate(515,764)" d="m0 0 6 3 6-1h3v3l-5 2h-6l-3-2z" fill="#033B6B"/>
<path transform="translate(481,754)" d="m0 0 2 2 1 10h2l2 3v3l-4-2-4-8v-7z" fill="#042C78"/>
<path transform="translate(393,113)" d="m0 0m-6 1h6l2 2 3 2-10 2-4-1 1-2-3-2z" fill="#03396D"/>
<path transform="translate(575,750)" d="m0 0h2l1 3-7 3h-5l-2-4z" fill="#033C6B"/>
<path transform="translate(751,290)" d="m0 0 3 4 4 8-1 3h-2l-3-6h-2l-1-4 1-2z" fill="#033A6C"/>
<path transform="translate(759,306)" d="m0 0 3 4 5 12-1 3-2 1-2-10h-2l-1-7z" fill="#033B6B"/>
<path transform="translate(237,671)" d="m0 0 3 1-2 4-6 6h-2l1-5 4-5z" fill="#042E77"/>
<path transform="translate(691,592)" d="m0 0 4 1v2l9 2 4 3-1 3-5-2-10-7z" fill="#042E76"/>
<path transform="translate(208,655)" d="m0 0h4l2 4-4 9-4 2 1-4 4-9h-3z" fill="#033A6C"/>
<path transform="translate(612,541)" d="m0 0h6l9 6-3 1 2 2h-4l-5-5z" fill="#03396C"/>
<path transform="translate(157,277)" d="m0 0 3 1-1 5-3 5-4-2 1-5 4-2z" fill="#042B79"/>
<path transform="translate(539,749)" d="m0 0h2l4 16h-2l-3-6-2-9z" fill="#0E3B75"/>
<path transform="translate(596,717)" d="m0 0h2l5 10-2 4-6-12z" fill="#033670"/>
<path transform="translate(226,702)" d="m0 0 4 2 6 5-3 3-4-2-1-3-4-4z" fill="#033670"/>
<path transform="translate(215,693)" d="m0 0 2 1v3l4 2 1 2h3l1 4 3 2v2l-4-2-10-9z" fill="#042A7A"/>
<path transform="translate(784,382)" d="m0 0 2 4v9l-3 1-2-3v-5l2-4z" fill="#03386D"/>
<path transform="translate(483,112)" d="m0 0h9l6 2-2 2h-11v-3z" fill="#04297B"/>
<path transform="translate(784,402)" d="m0 0h3l1 11-3 4-1-2z" fill="#04277C"/>
<path transform="translate(419,746)" d="m0 0 11 2 2 3h-7l-5-1-1 2z" fill="#033C6B"/>
<path transform="translate(642,696)" d="m0 0 5 1 1 5-5 1-3-3v-3z" fill="#FEFEFE"/>
<path transform="translate(545,496)" d="m0 0h6l7 4-1 2-4 1-8-6z" fill="#042E76"/>
<path transform="translate(218,640)" d="m0 0h3l-1 7-1-3 1-2-5 1-4 3-4 1v-2l-2-1z" fill="#033C6B"/>
<path transform="translate(364,417)" d="m0 0 3 4 3 9-3 1-5-11z" fill="#03396D"/>
<path transform="translate(771,336)" d="m0 0 2 3 2 5-1 4-3 3-1-9z" fill="#033A6C"/>
<path transform="translate(486,746)" d="m0 0 2 1-2 2-1 6v11l-2-2-2-12z" fill="#033570"/>
<path transform="translate(521,745)" d="m0 0 7 1-2 3-9 1-1-3z" fill="#03396D"/>
<path transform="translate(778,529)" d="m0 0 3 2-1 8-3-3-2 2 1-8z" fill="#033273"/>
<path transform="translate(370,430)" d="m0 0 3 4 3 6-1 2-3-2-2-3-2 1-1-5h2z" fill="#033A6C"/>
<path transform="translate(163,270)" d="m0 0 3 1-5 8-4-2 1 3-2 1-2-2 4-5v2l3-2z" fill="#033A6C"/>
<path transform="translate(703,222)" d="m0 0h2l7 9-2 3-5-5v-3l-3-1z" fill="#033A6C"/>
<path transform="translate(282,717)" d="m0 0 2 1-1 10h-3v-8z" fill="#042D77"/>
<path transform="translate(762,574)" d="m0 0 5 2-3 9h-2l-1-9z" fill="#033471"/>
<path transform="translate(782,376)" d="m0 0 2 2-1 11-3-2v-8h2z" fill="#04287B"/>
<path transform="translate(511,780)" d="m0 0h6l1 1h9v2l-10 2-4-1v-2z" fill="#033B6B"/>
<path transform="translate(433,762)" d="m0 0h2l1 5-6 2-2-1 2-4z" fill="#FEFEFE"/>
<path transform="translate(369,757)" d="m0 0 2 2-2 2 1 4 3 4-7-2-1-4z" fill="#033C6B"/>
<path transform="translate(561,738)" d="m0 0 1 2h8l3 1v2l-3 1h-8l-1-1z" fill="#042C78"/>
<path transform="translate(637,690)" d="m0 0 5 2 2 1v2h-2v2l-4 1-1-1z" fill="#033273"/>
<path transform="translate(772,546)" d="m0 0 1 4 1 9h-4l-2 2 2-9z" fill="#03366F"/>
<path transform="translate(360,417)" d="m0 0 3 3 5 10 2 1-1 2h-3l-6-13z" fill="#042B79"/>
<path transform="translate(629,696)" d="m0 0h3l-2 4-3 1v5l-3-3-1-3z" fill="#033570"/>
<path transform="translate(202,651)" d="m0 0 4 1 2 2v3h3l-1 4h-2l-1-4-3-1z" fill="#042B79"/>
<path transform="translate(590,525)" d="m0 0 5 1 4 4-1 3-7-4z" fill="#03386D"/>
<path transform="translate(687,588)" d="m0 0 5 2 8 5-2 2-3-2v-2l-7-1-3-3z" fill="#033C6B"/>
<path transform="translate(406,519)" d="m0 0 6 2-1 8h-2l-3-7z" fill="#042B79"/>
<path transform="translate(740,274)" d="m0 0h3l1 6-1 2-3-1-2-6z" fill="#04297A"/>
<path transform="translate(550,737)" d="m0 0 4 2 1 10-3-3z" fill="#033471"/>
<path transform="translate(766,567)" d="m0 0 2 3v6l-4-1-1 2 1-8h2z" fill="#042C78"/>
<path transform="translate(429,562)" d="m0 0h2l1 8v4l-3-1-1-8z" fill="#042A7A"/>
<path transform="translate(539,489)" d="m0 0 5 2 6 4-3 2-4-1-4-5z" fill="#03396D"/>
<path transform="translate(677,233)" d="m0 0 7 5 3 5v2h-2l-6-7v-2h-2z" fill="#042A7A"/>
<path transform="translate(566,508)" d="m0 0 5 1 3 3-2 3-4-2-3-3z" fill="#033A6C"/>
<path transform="translate(759,471)" d="m0 0 2 1 2 5v3l-4-2-3-2 1-3h2z" fill="#042E76"/>
<path transform="translate(492,112)" d="m0 0h8l6 1v1l-5 1v2h-7l3-3-5-1z" fill="#033B6B"/>
<path transform="translate(288,712)" d="m0 0h5l-4 2 2 2-5 3h-3l1-4z" fill="#03386E"/>
<path transform="translate(658,180)" d="m0 0 4 2 8 6v2l3 1-2 2-8-8z" fill="#033C6B"/>
<path transform="translate(461,754)" d="m0 0 1 3-5 6h-2l2-7z" fill="#033A6C"/>
<path transform="translate(313,723)" d="m0 0 5 1-1 3-5 1-1 3-1-4z" fill="#043075"/>
<path transform="translate(275,700)" d="m0 0 4 2 5 4v2l-4-1-5-2z" fill="#033570"/>
<path transform="translate(417,536)" d="m0 0h2l1 6h-2l1 3-3-1-1-5z" fill="#042C78"/>
<path transform="translate(572,512)" d="m0 0 4 1 3 2v4l-4-1-3-2z" fill="#042C78"/>
<path transform="translate(323,331)" d="m0 0 4 2v3h-3l1 4h-2l-2-8z" fill="#033471"/>
<path transform="translate(151,284)" d="m0 0 4 4-2 4-4 1 1-7z" fill="#033A6C"/>
<path transform="translate(580,725)" d="m0 0h2l4 7v2l-3 1-3-6z" fill="#033273"/>
<path transform="translate(254,703)" d="m0 0 4 1-3 5-4 1 1-4z" fill="#033670"/>
<path transform="translate(689,652)" d="m0 0 4 2-5 4h-4l1-3z" fill="#033471"/>
<path transform="translate(716,213)" d="m0 0 3 1 7 10h-3l-7-9z" fill="#04297A"/>
<path transform="translate(663,572)" d="m0 0 8 4-4 3-5-4z" fill="#033B6B"/>
<path transform="translate(428,558)" d="m0 0 2 4-1 9-2-3-1-5 1-4z" fill="#033B6B"/>
<path transform="translate(748,288)" d="m0 0h3v8l-3-1-2-6z" fill="#04297B"/>
<path transform="translate(345,750)" d="m0 0h2v7l-2 2h-4v-2h3z" fill="#04297B"/>
<path transform="translate(239,697)" d="m0 0 10 4-3 2-7-2-1-2z" fill="#033C6B"/>
</svg>
