<?xml version="1.0" encoding="UTF-8"?>
<svg version="1.1" viewBox="0 0 800 800" width="200" height="200" xmlns="http://www.w3.org/2000/svg">
<path transform="translate(0)" d="m0 0h800v800h-800z" fill="#FDFDFD"/>
<path transform="translate(377,174)" d="m0 0h10l17 3 8 3 10 5 12 9 14 14 7 8 9 9 6 7 5 5 15 16 11 12 8 8 7 8 28 30 6 7 13 10 10 6 11 5 16 4 6 1h24l1 3-1 63-2 1-11 1h-12l-18-2-20-4-16-5-18-8-14-8-16-11-11-9-12-11-7-7-7-8-15-16-9-10-8-8-7-8-10-10-7-8-8-8-7-8-31-33-7-7-7-8-8-8-7-8-7-7 3-3 16-8 14-5z" fill="#0667B2"/>
<path transform="translate(208,149)" d="m0 0 15 1 26 5 24 8 22 11 16 11 16 13 16 16 7 8 16 17 14 14v2l3 1 7 8 15 16 9 10 11 12 11 11 7 8 7 7 7 8 7 7 7 8 10 10 7 9-3 3-25 10-16 4h-19l-19-5-12-6-9-7-10-9-7-8-9-9-7-8-15-16-11-12-10-10-7-8-15-16-11-12-14-15-10-9-14-9-13-6-14-4-7-1-24-1-1-1v-63l4-2z" fill="#A9ABAE"/>
<path transform="translate(308,298)" d="m0 0 5 1 11 12 7 8 5 5v2h2l7 8 10 10 5 7-10 7-26 15-27 14-26 11-22 7-23 5-10 1h-27l-3-1v-64l26-3 18-4 26-10 21-11 21-13z" fill="#A9ABAE"/>
<path transform="translate(601,149)" d="m0 0h22l7 2v65l-23 1-18 4-18 6-23 11-16 9-22 14-5 2-24-26-15-16-9-9 1-4 11-6 7-5 11-6 14-8 15-8 26-11 23-8 29-6z" fill="#0667B2"/>
<path transform="translate(141,471)" d="m0 0h16l10 3 7 8 2 5 1 6 1 41 4 1 1 2v10l-1 1h-7l-11-4-8 1-10 3h-12l-10-5-5-7-2-9 1-11 3-6 9-6 29-5v-8l-1-4-7-1-29 1-1-1v-9l6-3z" fill="#0B69B2"/>
<path transform="translate(438,471)" d="m0 0h16l10 4 5 5 3 6 1 11v31l1 6 5 2v11l-1 1h-9l-9-4-8 1-10 3h-12l-7-3-5-5-4-6-1-3v-13l4-8 9-6 29-5v-9l-3-3-14-1h-20l-1-9 6-3z" fill="#0B69B2"/>
<path transform="translate(552,471)" d="m0 0h13l11 4 5 5 5 8 2 5 1 15-1 8-11 1h-35l3 10 6 5 10 1 25-1 1 2-1 9-2 2-16 3h-19l-10-4-7-6-4-7-3-14v-12l3-14 5-10 6-5 8-4z" fill="#0C6AB2"/>
<path transform="translate(626,471)" d="m0 0h13l11 4 5 4 6 10 2 7v19l-1 1-9 1h-36l2 9 4 5 7 2 29-1 1 1v11l-12 3-6 1h-18l-11-4-6-5-6-12-1-5v-22l4-13 4-6 6-6 7-3z" fill="#0C69B2"/>
<path transform="translate(347,442)" d="m0 0 8 1v33l14-5h12l10 4 5 6 3 9 1 9v47h-16l-1-41-2-13-4-4-2-1h-12l-7 2-1 52v5h-17v-103z" fill="#0B69B2"/>
<path transform="translate(265,443)" d="m0 0h17l1 59 7-2 8-12 7-11 4-4h16l-3 7-15 24-1 3 8 16 12 21v2h-17l-6-9-10-17-3-3-8-1v30h-16l-1-1z" fill="#0C6AB2"/>
<path transform="translate(198,442)" d="m0 0h16v104h-16l-2-3v-100z" fill="#0B69B2"/>
<path transform="translate(678,473)" d="m0 0h17v71l-2 13-4 8-7 7-12 7-3-1-4-9 2-4 6-4 5-7 1-6z" fill="#0C6AB2"/>
<path transform="translate(493,442)" d="m0 0h16l1 1v103h-17l-1-5z" fill="#0868B2"/>
<path transform="translate(371,588)" d="m0 0h12l6 5 4 11v6l-2 1h-33v-8l5-10 5-4z" fill="#FDFDFD"/>
<path transform="translate(452,588)" d="m0 0h10l6 4 4 8 1 10-5 1h-30v-8l5-10 6-4z" fill="#FDFDFD"/>
<path transform="translate(449,585)" d="m0 0h14l7 4 4 5 3 9 1 10-1 1-10 1h-28l1 11 4 6 5 3h27l-1 3-12 2h-13l-7-3-5-5-4-8-1-14 2-10 4-8 5-5zm3 3-8 4-5 8-1 3v8h30l5-1-1-10-4-8-6-4z" fill="#A6A9AE"/>
<path transform="translate(369,585)" d="m0 0h14l6 3 4 5 3 7 1 6v8l-38 1 1 11 4 7 5 2h27l-1 3-13 2h-11l-9-3v-2h-2l-5-8-2-9v-10l4-13 7-8zm2 3-7 4-5 8-1 3v8h33l2-1-1-10-4-8-5-4z" fill="#A4A8AE"/>
<path transform="translate(578,585)" d="m0 0 18 1 4 1v3h-26l-5 2-2 5v7l9 4 18 4 6 4 1 3v10l-4 6-6 4-4 1h-13l-11-2-1-4 13 1h11l9-3 1-4v-8l-3-3-5-2-19-4-6-4-1-2v-10l4-6 6-3z" fill="#A4A8AE"/>
<path transform="translate(230,585)" d="m0 0 20 1 4 2-1 2h-27l-5 5-1 6 3 5 9 3 16 3 5 5 1 2v9l-3 6-5 4-7 2h-10l-13-2-1-3 4-1 7 1h15l6-3 2-4v-7l-2-4-4-2-18-3-6-3-3-5-1-6 3-7 4-4z" fill="#A7AAAE"/>
<path transform="translate(627,485)" d="m0 0h10l6 3 4 8v7l-2 1h-28l-1-1v-6l5-8z" fill="#FDFDFD"/>
<path transform="translate(151,513)" d="m0 0h8l1 1v14l-1 3-13 4h-7l-4-4-2-6 1-7h2v-2l7-2z" fill="#FDFDFD"/>
<path transform="translate(552,485)" d="m0 0h10l5 2 4 4 1 3v9l-2 1h-27l-1-1v-6l4-8z" fill="#FDFDFD"/>
<path transform="translate(448,513)" d="m0 0h7l1 1v16l-2 2-13 3h-6l-4-5-1-3v-7l5-5z" fill="#FDFDFD"/>
<path transform="translate(299,567)" d="m0 0 3 1v18h18v4h-17l-2-1 1 37 1 7 3 2h16l-1 4h-18l-4-3-2-11v-36l-8 1-1-4h9v-18z" fill="#A2A8AE"/>
<path transform="translate(517,560)" d="m0 0h5v79l-4 1-1-1z" fill="#A4A9AE"/>
<path transform="translate(679,444)" d="m0 0h15l1 1v10l-1 5-5 1h-10l-1-1v-15z" fill="#166EB2"/>
<path transform="translate(578,585)" d="m0 0 18 1 4 1v3l-22-1-2-2z" fill="#A4A9AE"/>
<path transform="translate(572,586)" d="m0 0h5l1 3-9 3-2 5h-2v5h-3v-7l4-6z" fill="#819AAF"/>
<path transform="translate(303,586)" d="m0 0h17v4h-17l-1-3z" fill="#A9ABAE"/>
</svg>
