<svg class="svg-icon" style="width: 1em;height: 1em;vertical-align: middle;fill: currentColor;overflow: hidden;" viewBox="0 0 1024 1024" version="1.1" xmlns="http://www.w3.org/2000/svg"><path d="M119.84241 1017.770568l285.367323-302.720742a36.338355 36.338355 0 0 1 48.797219-3.114716l115.986096 97.891078a36.338355 36.338355 0 0 0 49.242178-2.966397l334.312862-368.426419-4.449594 584.973349z" fill="#D4E6FF" /><path d="M874.938586 200.528389l-740.264194-5.636153a56.21321 56.21321 0 0 0-59.327926 53.246814L70.451912 925.219003A56.36153 56.36153 0 0 0 128.741599 978.910776l740.264195 5.636153a56.21321 56.21321 0 0 0 59.327926-53.246813l5.191193-677.079954a56.36153 56.36153 0 0 0-58.289687-54.136732z m24.62109 731.068367a29.663963 29.663963 0 0 1-29.663963 27.439165l-741.005794-5.636153a29.663963 29.663963 0 0 1-29.663963-27.884125v-84.987254L384.741599 548.783314a10.679027 10.679027 0 0 1 7.267671-3.263036 12.903824 12.903824 0 0 1 7.71263 2.521437l122.363847 101.302433a41.381228 41.381228 0 0 0 29.663963 9.047509 40.639629 40.639629 0 0 0 27.142526-12.903824l253.775203-284.180765v34.558517a13.497103 13.497103 0 0 0 14.090383 13.052144 13.645423 13.645423 0 0 0 14.831981-12.903824v-73.121669a3.707995 3.707995 0 0 0 0-1.186558v-1.928158l-0.889919-1.334878-0.741599-0.741599-0.889919-0.741599H779.717265a13.052144 13.052144 0 1 0 0 26.104287h43.457706L556.347625 628.727694a10.382387 10.382387 0 0 1-7.415991 3.559676 11.568946 11.568946 0 0 1-7.86095-2.521437l-122.363847-101.154114a41.974508 41.974508 0 0 0-28.180765-9.195828 40.491309 40.491309 0 0 0-26.994206 11.865585L100.115875 800.926999l4.301274-552.787949a29.663963 29.663963 0 0 1 30.405562-27.439166l740.264195 5.636153a29.663963 29.663963 0 0 1 29.663963 27.884125l-5.191193 677.376594z" fill="#369AFF" /><path d="M496.426419 510.961761a253.923523 253.923523 0 0 1-252.143684-255.40672A253.923523 253.923523 0 0 1 496.426419 0a253.923523 253.923523 0 0 1 252.143685 255.555041 253.923523 253.923523 0 0 1-252.143685 255.40672z" fill="#369AFF" /><path d="M496.426419 36.338355a219.216686 219.216686 0 1 0 220.403245 219.216686A219.809965 219.809965 0 0 0 496.426419 36.338355z" fill="#FFFFFF" /><path d="M588.236385 142.535342a12.607184 12.607184 0 0 0-17.205099 0l-8.305909 8.15759-19.874856 19.429895-24.02781 23.434531-20.913093 20.319815-1.334879 1.334878-19.429895-18.836616-24.02781-23.434531-20.913094-20.319815-10.085748-9.937427a12.607184 12.607184 0 0 0-17.205098 0 11.717265 11.717265 0 0 0-3.411356 8.305909 12.310545 12.310545 0 0 0 3.411356 8.30591L485.747393 237.311703a10.085747 10.085747 0 0 0 0 2.076478h-62.442642a13.052144 13.052144 0 0 0-8.602549 3.411356 11.717265 11.717265 0 0 0 8.602549 20.171494H485.747393v29.663963h-61.256084a13.052144 13.052144 0 0 0-8.602549 3.411356 12.013905 12.013905 0 0 0-3.559675 8.30591 12.310545 12.310545 0 0 0 12.162224 11.865585H485.747393v44.495944a11.717265 11.717265 0 0 0 12.013905 11.717265 12.162225 12.162225 0 0 0 12.162225-11.717265v-44.495944h59.772885a12.755504 12.755504 0 0 0 8.454229-3.411356 11.865585 11.865585 0 0 0 3.559676-8.30591 12.162225 12.162225 0 0 0-12.013905-11.717265h-60.514484v-29.663963h59.327925a12.458864 12.458864 0 0 0 8.60255-3.559675 11.568946 11.568946 0 0 0 3.559675-8.30591 12.162225 12.162225 0 0 0-12.162225-11.717265h-59.327925a8.602549 8.602549 0 0 0 0-2.818077l24.324449-23.73117 24.02781-23.434531 20.913094-20.319815c3.411356-3.263036 6.822711-6.526072 10.085747-9.937427a11.865585 11.865585 0 0 0 3.559676-8.30591 11.272306 11.272306 0 0 0-3.411356-8.305909z" fill="#EE7D59" /></svg>