<?xml version="1.0" encoding="UTF-8"?>
<svg version="1.1" viewBox="0 0 900 900" width="225" height="225" xmlns="http://www.w3.org/2000/svg">
<path transform="translate(0)" d="m0 0h900v900h-900z" fill="#FDFDFD"/>
<path transform="translate(325,349)" d="m0 0 9 5 10 7 44 28 20 12 14 9 7 8 13 34 4 10 5-1 3 1 10-28 7-18 5-5 23-15 22-14 26-16 14-9 11-7 1 3-9 15-6 8-7 6-32 17-27 13-8 4-3 1v3l34-15 35-14 10-3-2 5-11 14-5 4-19 6-41 10-2 1 13-1 32-6 18-3h6l-3 5-9 10-4 5-37-1h-20v1l21 3 34 3-2 4-16 10-16-4-20-6h-6l15 7 15 6 4 2v2l-5 1-16 1-11-7-6-5-4-1 3 9 9 25v2l-4-2-11-8-4-1-5 9h-4l-3-9-5 1-10 8-4 1-1-2 10-25 2-9-17 12-2 1h-10l-12-1-1-2 18-8 14-6 1-2-21 6-16 5-9-3-13-9v-2l41-4 14-3h-57l-5-5-6-7-4-4-1-3h7l21 4 24 4 16 3h3l-7-3-50-13-9-4-9-10-7-10 4-1 16 7 34 14 29 12-5-4-23-12-16-8-21-10-12-7-7-8-9-14-4-7z" fill="#F49D2B"/>
<path transform="translate(444,399)" d="m0 0h10l7 6 2 4-1 5-9 22-2 5h-3l-11-28v-6l5-7z" fill="#F49D2B"/>
<path transform="translate(255,708)" d="m0 0h7l3 5 3 13v10l-3 2-15 1-7-3-2-2v-6l5-5 6-3 8-1-2-6-8 2h-4l1-5z" fill="#F49D2B"/>
<path transform="translate(421,709)" d="m0 0 3 3 5 11h2l7-12h4l7 11 5-5 4-6 1-1h5l-1 8-6 12-3 4-5-1-7-14-7 14-5 1-6-8-4-16z" fill="#F49D2B"/>
<path transform="translate(379,715)" d="m0 0h11l3 4 1 10-1 11-3 5-6 4h-8l2-4 8-3 1-5-10-2-5-5-1-5 3-7z" fill="#F49D2B"/>
<path transform="translate(681,707)" d="m0 0 3 1 1 7v22l-1 1-13 1-7-2-4-5 1-5 5-5 3-2 8-2 1-9z" fill="#F49D2B"/>
<path transform="translate(297,707)" d="m0 0 5 1 2 29-1 1h-18l-5-2-1-2 1-9 6-5 9-2 1-10z" fill="#F49D2B"/>
<path transform="translate(576,707)" d="m0 0 4 1 1 1v28l-1 1h-17l-5-3-1-1v-6l3-5 5-3 9-1v-11z" fill="#F49D2B"/>
<path transform="translate(182,707)" d="m0 0 25 1v4h-9l1 11v16h-7l-3-2v-25h-8l-1-4z" fill="#F29C2A"/>
<path transform="translate(484,659)" d="m0 0 7 1 5 9v9l-6 6h-5l-7-8-1-8 3-6z" fill="#FEFEFE"/>
<path transform="translate(192,412)" d="m0 0h8l6 7v7l-5 6-2 1-9-1-4-5-1-7z" fill="#6A4422"/>
<path transform="translate(700,412)" d="m0 0h7l5 4 2 4-1 7-5 5-7 1-5-3-3-5 1-7 5-5z" fill="#6A4522"/>
<path transform="translate(648,559)" d="m0 0 6 1 10 9 1 5-6 8-5-2-14-10 2-5 4-5z" fill="#FEFEFE"/>
<path transform="translate(591,713)" d="m0 0 4 1 3 8h6l1-8 4 1 2 6v4l4-2 6-9 5-1-1 6-7 13-7-1-2-3-4 1-3 3-5-1-4-9z" fill="#F49D2B"/>
<path transform="translate(691,305)" d="m0 0h4l4 10v5l-6 3-10 1-3 2-2 4h-3l1-4 4-4v-7l-11 3 2-4 16-7z" fill="#6D4622"/>
<path transform="translate(485,155)" d="m0 0 7 1 3 3 1 3v8l-3 7-3 2h-5l-6-7v-9l3-5z" fill="#FEFEFE"/>
<path transform="translate(364,644)" d="m0 0 10 5 2 7-3 5-4 3h-2l1 9h2v2l-5-1-1-12-5 1-4 8h-3l3-9 4-10 3-6z" fill="#6D4722"/>
<path transform="translate(660,260)" d="m0 0 5 1 3 4 1 7-5 6-4 2h-8l-7-6 3-5 10-8z" fill="#FEFEFE"/>
<path transform="translate(361,164)" d="m0 0 6 3 2 9-1 7 5 2 2 5-4-1-4-4-7-2 2 11-3-1-7-19-1-5z" fill="#6B4522"/>
<path transform="translate(480,713)" d="m0 0h9l4 3v2h2l1 5-4 5-6 3-8-1-4-4-1-4 3-6z" fill="#F49D2B"/>
<path transform="translate(672,513)" d="m0 0 4 1 6 5 2 6 2 1-2 2h-3v3l7 3v3l-5-1-19-9 1-6z" fill="#6C4622"/>
<path transform="translate(706,719)" d="m0 0 6 1 3 3v10l-2 4-4 1h-7l-5-4-1-4 3-7 4-3z" fill="#F49D2B"/>
<path transform="translate(204,305)" d="m0 0h10l21 4-1 2h-10l-3 7v3l4 5v2l-4-1-5-5-1-3-4-2-6-6z" fill="#6C4622"/>
<path transform="translate(231,260)" d="m0 0 4 2 7 9 8 11v2l-16-1 3 5 5 7-1 2-15-2-13-4-1-3 16 4 9 1-6-9-7-4-4-2v-2l8 1 12 3 5 1-6-8-8-11z" fill="#694422"/>
<path transform="translate(339,713)" d="m0 0 5 1 15 1 1 1v13l-2 2h-4v-11l-8 1-1 9-5 1-2-2v-15z" fill="#F49D2B"/>
<path transform="translate(551,171)" d="m0 0 4 1v15l-1 7v5h-4l1-6-8-5-6 2-4 1v-2l6-5 7-9z" fill="#6A4522"/>
<path transform="translate(647,237)" d="m0 0 3 1-1 5-8 14-3 7-3-1 1-10-4-4v-2l-10 3v-3l17-7z" fill="#6B4522"/>
<path transform="translate(422,660)" d="m0 0h5l2 11 3 13v3h-4v-8l-11 1-4 5-3-1 5-10z" fill="#694422"/>
<path transform="translate(420,152)" d="m0 0 4 1 6 14 4 9-1 3-5-7h-11l-1 7-3 1 1-9 4-16z" fill="#6E4722"/>
<path transform="translate(541,642)" d="m0 0 7 6 11 12 2 5-4-1-2-4-4-1-5 4h-3l1 8-3 1-2-19v-8z" fill="#6E4722"/>
<path transform="translate(297,607)" d="m0 0h3v26l9-13 4-2 1 2-10 13-4 6-4 1-1-5 2-21-5 5-7 8-4 1 2-5 12-13z" fill="#6A4522"/>
<path transform="translate(486,152)" d="m0 0 7 1 5 4 2 5v7l-5 10-4 2h-7l-6-4-2-3-1-8 2-7 5-5zm-1 3-5 5-1 3v9l6 7 7-1 3-4 1-4v-8l-3-5-3-2z" fill="#6D4722"/>
<path transform="translate(397,155)" d="m0 0h2l4 16 1 11-4-1-8-7-5-4-3-3 1 9 2 6v5l-3-2-4-16-1-5-1-4 3-1 8 7 9 9 2 1-4-17z" fill="#6C4723"/>
<path transform="translate(522,649)" d="m0 0 3 3 5 17 1 7h-5l-15-14-3-1 4 13 1 7-4-1-2-12-3-11 1-4 8 6 8 7 7 6-4-10-2-9z" fill="#6E4722"/>
<path transform="translate(660,256)" d="m0 0 5 1 5 6 2 4v6l-4 6-8 4-6 1-6-3-6-8 1-4 13-10zm0 4-11 8-4 5 5 6 2 1h8l6-4 3-4-1-7-4-5z" fill="#6F4722"/>
<path transform="translate(292,200)" d="m0 0 4 1 13 18 1 3-3 1-23-8 4 6 8 11v2l-4-2-9-11-5-7 1-3 13 3 11 3-7-10-4-5z" fill="#6C4522"/>
<path transform="translate(512,158)" d="m0 0 4 2 7 20 2-2 4-15 3 1-2 10-3 14h-5l-4-10-4-12-1-1-4 16-3 3-1-3 5-16z" fill="#6D4722"/>
<path transform="translate(386,653)" d="m0 0 4 1 7 21v2h2l2-11 3-9h2l-1 7-5 20-4-1-3-8-4-13v-3h-2l-2 11-2 9h-3l2-12z" fill="#6C4622"/>
<path transform="translate(648,556)" d="m0 0 7 1 9 7 3 5v6l-6 8-2 2-4-1-14-10-5-5 7-9zm0 3-5 5-3 4v2l14 10 5 2 6-8-2-6-9-8z" fill="#6C4622"/>
<path transform="translate(509,712)" d="m0 0 5 1 2 4h3l3-4h5l-3 5-5 5-3 9-5 1-3-2v-18z" fill="#F49D2B"/>
<path transform="translate(539,707)" d="m0 0h4l1 30-1 1h-7v-21l1-9z" fill="#F49D2B"/>
<path transform="translate(484,657)" d="m0 0h6l6 4 3 7v9l-4 6-5 3h-7l-6-5-2-5v-10l3-6zm0 2-5 4-2 5 2 10 6 6h5l6-6v-9l-5-9z" fill="#6A4422"/>
<path transform="translate(218,488)" d="m0 0h5l-1 3-10 3 1 7 2 6 8-1 5-1v3l-12 4-11 3h-5l1-3 11-2-3-10v-4l-14 2 1-3z" fill="#6B4522"/>
<path transform="translate(218,712)" d="m0 0h5l2 6 8-6h2l-1 5-6 6-3 9-5 1-2-1z" fill="#F49D2B"/>
<path transform="translate(610,599)" d="m0 0h5l4 5 1 8 11 4v2l-9-2h-8l2-4-1-8-5-1-5 2 2 5 5 6 3 3 5 7v2l-4-2-12-14-3-5 1-3z" fill="#694422"/>
<path transform="translate(230,522)" d="m0 0 6 1-1 4-14 14-6 4-2-1 2-4 11-9 6-7-7 2h-6v10l-2-1v-8h-12v-2z" fill="#6A4522"/>
<path transform="translate(624,583)" d="m0 0 9 2 19 8v2l-7-1-6-2-6-4-5-1 5 10h3l3-3 2 1-5 5 3 12-5-5-10-21z" fill="#6C4622"/>
<path transform="translate(679,283)" d="m0 0 5 1 5 10-1 2-3-3-3-5-7 1 2 10-4-2-2-5-8 5 2 5 3 3v3l-4-2-5-8 1-4 11-7z" fill="#6B4522"/>
<path transform="translate(339,173)" d="m0 0 3 1-9 6v5l2 3 4-1 4-3-1 5-4 2 1 5 2 3 6-1 3-2 3 1-3 3-7 3h-4l-5-8-6-12 1-4z" fill="#6F4722"/>
<path transform="translate(437,660)" d="m0 0h18l1 3-6 1-2-1v25h-4v-25h-7z" fill="#6B4522"/>
<path transform="translate(249,549)" d="m0 0h2l-2 4-9 10-4 7 16-4 8-1v2l-9 3-19 4-2-3 8-11 2-4z" fill="#6D4724"/>
<path transform="translate(621,212)" d="m0 0 6 4 5 6v5l-5 4-5 1 1-3 4-2v-6l-4-4-3 1-3 5-1 5-5 3-4 4h-2l2-5 9-11z" fill="#694422"/>
<path transform="translate(341,635)" d="m0 0 7 2 8 5-4 1-7-3-4 4-4 9-2 6 6 3 3 4h-3l-9-5-2-3 8-16z" fill="#6B4522"/>
<path transform="translate(697,332)" d="m0 0h6l4 5 1 6h-3l-3-7h-5l-2 11-6 5-6-2-3-6-1-7h3l3 10 4 1 3-1 1-10z" fill="#6D4722"/>
<path transform="translate(661,533)" d="m0 0v3l-4 6 1 3 7 3 5-5-1 4-1 5 5 2 4 1 2-4 3-5 1 4-6 9-5-1-11-7-8-4 1-4 5-8z" fill="#6A4522"/>
<path transform="translate(676,492)" d="m0 0h3l-1 4-1 5 2 2 5-1 8-6h6l4 5-1 7-2 4-3 1-1-2 3-4v-6l-4-1-7 4-6 4-7-6z" fill="#6E4722"/>
<path transform="translate(438,149)" d="m0 0h14l3 1v2h-7v25h-4v-24l-7-2z" fill="#6C4622"/>
<path transform="translate(317,722)" d="m0 0h7l1 16-6 1-3-2v-13z" fill="#F49D2B"/>
<path transform="translate(690,308)" d="m0 0 4 2 2 3v5l-8 3-5-1-1-7z" fill="#FEFEFE"/>
<path transform="translate(621,216)" d="m0 0 4 2 3 3v6l-5 3-2 2-2-4h-3v-5z" fill="#FEFEFE"/>
<path transform="translate(640,721)" d="m0 0 5 1 1 16h-8v-14z" fill="#F49D2B"/>
<path transform="translate(319,622)" d="m0 0 10 5 7 5-2 1-8-2-2 5-6 11-2 4-3 1-1-2 11-19v-3l-4-4z" fill="#6B4522"/>
<path transform="translate(672,516)" d="m0 0 4 1 5 5v5l-2 1h-7l-5-3 1-4z" fill="#FEFEFE"/>
<path transform="translate(593,612)" d="m0 0 3 1-3 3h-2l3 7 10 14v3l-4-1-7-11-5-8-8 4 1-4 11-7z" fill="#6C4622"/>
<path transform="translate(242,536)" d="m0 0 1 2-9 11-6 7h10v2l-2 1-13 1v-3l10-13 7-7z" fill="#6B4522"/>
<path transform="translate(194,328)" d="m0 0 10 1 18 6v2l-14-1-2 10-2 1v-8l2-4-3-2-9-3z" fill="#6C4622"/>
<path transform="translate(358,167)" d="m0 0 5 1 3 4-1 7-3 2-5-1-1-2v-9z" fill="#FEFEFE"/>
<path transform="translate(365,647)" d="m0 0 4 1 3 4v6l-5 3-7-1 1-5z" fill="#FEFEFE"/>
<path transform="translate(382,719)" d="m0 0 6 1 1 2-1 9h-9l-1-1v-6z" fill="#FEFEFE"/>
<path transform="translate(252,724)" d="m0 0h6l2 2v5l-5 3h-6l-2-1-1-5 3-3z" fill="#FEFEFE"/>
<path transform="translate(598,196)" d="m0 0 5 1 11 9-3 1-5-3-7 11-7 8h-2l2-5 8-11 3-4v-2z" fill="#6A4422"/>
<path transform="translate(317,184)" d="m0 0h2l-1 3-3 2 1 6 8 13 1 5-4-2-9-16-2-3-4 3-3-1 8-6z" fill="#6C4622"/>
<path transform="translate(573,180)" d="m0 0h2l-1 5-6 10-4 9 4 1 4 4-3 1-9-6 2-5 9-17z" fill="#6C4622"/>
<path transform="translate(291,723)" d="m0 0 5 3v5l-2 2h-7l-4-2v-5l2-2z" fill="#FEFEFE"/>
<path transform="translate(564,724)" d="m0 0h9l1 6-3 3h-7l-3-2v-5z" fill="#FEFEFE"/>
<path transform="translate(668,724)" d="m0 0h9l1 5-1 3-2 1h-7l-3-2 1-6z" fill="#FEFEFE"/>
<path transform="translate(557,635)" d="m0 0 4 1 8 16 2 3 4-1 2-2 4 1v2l-9 4h-3l-6-12z" fill="#6A4422"/>
<path transform="translate(464,151)" d="m0 0 4 1v26l-4-1z" fill="#6A4422"/>
<path transform="translate(287,598)" d="m0 0 3 1-8 10-9 9-4 1 2-5z" fill="#694422"/>
<path transform="translate(258,583)" d="m0 0h15l2 1v2h-13l-2-1-2 10-3 8h-3l3-9z" fill="#694422"/>
<path transform="translate(263,572)" d="m0 0h3v3l-8 6-5 5-6 5h-4l2-4 11-9z" fill="#6A4422"/>
<path transform="translate(465,660)" d="m0 0h2l1 28h-4v-27z" fill="#694422"/>
<path transform="translate(485,716)" d="m0 0 5 2 2 5-5 3h-5l-2-2v-5z" fill="#FEFEFE"/>
<path transform="translate(189,344)" d="m0 0 8 2 7 1 8 4 5 3v1h-6l-11-4-12-5z" fill="#6C4622"/>
<path transform="translate(207,308)" d="m0 0h10l4 1-1 8-3 1-8-7z" fill="#FEFEFE"/>
<path transform="translate(239,251)" d="m0 0 6 1 9 7 7 7v3l-5-2-8-8-8-5z" fill="#694422"/>
<path transform="translate(628,587)" d="m0 0 7 1 6 5-5 5h-3l-5-8z" fill="#FEFEFE"/>
<path transform="translate(644,241)" d="m0 0 4 1-4 5-5 6-5-5v-4z" fill="#FEFEFE"/>
<path transform="translate(605,602)" d="m0 0m-1 1 1 4 7 9 3 3 5 7v2l-4-2-12-14-3-5 1-3z" fill="#6C4622"/>
<path transform="translate(550,175)" d="m0 0 3 1-1 12-8-1v-5z" fill="#FEFEFE"/>
<path transform="translate(706,723)" d="m0 0 4 1 1 1v6l1 2-1 2h-5l-3-3 1-7z" fill="#FEFEFE"/>
<path transform="translate(422,663)" d="m0 0 3 1 2 9v4h-9l1-6z" fill="#FEFEFE"/>
<path transform="translate(541,647)" d="m0 0 4 1 6 9-5 4h-3l-2-10z" fill="#FEFEFE"/>
<path transform="translate(265,221)" d="m0 0 4 2 16 16v3l-4-2-14-14z" fill="#694422"/>
<path transform="translate(449,411)" d="m0 0h6l-1 5-3 5-4-1-3-5 1-3z" fill="#FEFEFE"/>
<path transform="translate(249,240)" d="m0 0h2l1 10 1 2 4 1 14 1v2l-7 1-10-2-5-3z" fill="#764C22"/>
<path transform="translate(647,243)" d="m0 0 1 2-7 12-3 7-3-1 2-10 5-4z" fill="#694422"/>
<path transform="translate(421,156)" d="m0 0 3 3 3 9-1 1h-7l-1-3 2-9z" fill="#FEFEFE"/>
<path transform="translate(540,651)" d="m0 0h2l1 10 5-2-2 4h-3l1 8-3 1-2-19z" fill="#6B4522"/>
<path transform="translate(381,166)" d="m0 0h2l4 16v5l-3-2-4-16z" fill="#6B4522"/>
<path transform="translate(616,228)" d="m0 0h3l2 4-1 8v4l-4-1z" fill="#714922"/>
<path transform="translate(316,709)" d="m0 0 7 1 1 5-1 1h-6l-1-1z" fill="#F49D2B"/>
<path transform="translate(510,165)" d="m0 0h2l-1 10-3 8-3 1 1-6z" fill="#714922"/>
<path transform="translate(637,710)" d="m0 0h7l1 5h-8z" fill="#F49D2B"/>
<path transform="translate(263,583)" d="m0 0h10l2 1v2h-13z" fill="#704822"/>
<path transform="translate(256,565)" d="m0 0h4v2l-9 3h-5l3-3z" fill="#714922"/>
<path transform="translate(249,240)" d="m0 0h2l1 10 2 4-4-1-1-1z" fill="#6D4622"/>
</svg>
