<?xml version="1.0" encoding="UTF-8"?>
<svg version="1.1" viewBox="0 0 2048 1075" width="1200" height="630" xmlns="http://www.w3.org/2000/svg">
<path transform="translate(641,451)" d="m0 0h111l2 2 7 2 3 2 4 1v2l4 2 3 3 1 5 2 1 1 8 2 1v9l-3 1v9l-5 4-3 5-9 5-1 2 5 2 6 3 3 2 4 2 3 2v6l3 1 2 7 2 5v2l6 1-2-21 1-7-2-17 2-7h-2v-3l2-1 1-5h42l3 3v6h13l1 1v5l7-2 6-4h3l1-3h5l1-3 8-1 2-2h50l4 4v4h9l1-2 4 2 6 7 5 4 5 5 3 4 1 5 2 2v31l-1 2h-3v6h-2v5l-7 6-8 8h-5l-2 4h-4l-2 3-9 1-5 2-10 1h-23l-1 5-4-2-11-1-4-4v-5l-4-2-5-3-9-7-1-4-3-1v-2h-8l-5 4-1 17-6 5h-32l-5-3-4-5v-5l-4-1-1-5v-3h-5l-4 2v2l-8 8h-5l-1 3h-7l-2 3h-26v2l-6 2h-78l-6-5v-134zm51 29-1 1v21h32l6-5v-11l-8-6zm211 35-7 4-4 5-2 10v8l2 10 6 7 3 2 11 1 9-2 7-9 2-4v-17l-6-11-6-4zm-211 18-1 1v21l4 2h20l15-4 5-5v-8l-5-5-6-2z" fill="#24258D"/>
<path transform="translate(1067,451)" d="m0 0h47l2 2v98l73 1v2l4-1 4-8 3-3h2v-5l-3-2 2-4 4-3 1 1v6l9-1 5-6 4 3 4-2 14-1 7-2 13-2 6-2 5-2v-6l-5-2h-15l-7 2-6 7-2 1h-13l-2-3h-22l-5-4-1-3 6-7 2-5 7-7 5-1 1-2h9l1-3h67l1 2 8 1 6 5h4l1-2h3l3 3v6l4 2-3 3v63l3 5v7l3 4-5 4-4 1h-24l-7-2v-2h-5l-3-7-4-2-7 8-1 1-8 1-2 2-14 2-1 1h-6v-2h-12l-7-1-1-3-7-1-6-4-2-4h-6l-2 9-5 4h-114l-6-5zm202 94-17 4-10 5 2 4 4 4 1 5h6l5-2 7-2 6-8 1-3v-7z" fill="#24258D"/>
<path transform="translate(1334,451)" d="m0 0h43l1 1v40l6 1 1-3 5-1 1-2h38l1 2 6 2 11 10 5 6v4l3 2 1 8 3 3 1 22-1 7-4 2v5l-3 1v5l-2 2-2 6h-2l-2 4h-2l-1 3h-2l-1 3h-4l-2 3-12 4h-20l-6-2-1-1-7-1-6-5h-5l-2 5-5 4h-30l-6-5v-14l1-4-4-1 1-3 2-1v-91l1-4-4-1v-3l4-1-1-10zm64 67-5 1h-8l-1 3-3 1-2 6-1 1v16l4 8 9 6 6-1 9-4 4-5v-24l-3-2-1-4z" fill="#24258D"/>
<path transform="translate(1491,487)" d="m0 0h58l1 3h8l11 8 3 2 2 6 2 3-1 6-1 1h-21v5l-2-4h-16l-4 5 23 4 2 1-2-5 5 4 1 2 5 1 5 5 6 7 2 1 1 5 3 2v14l-3 2-1 5-10 10-7 4h-2l-1 3h-11l-1 3-6 1h-42l-7-1-1-2-10-2-6-4v-2l-4 1-6-7-6-9 4-7 21-2 6-1h13l9 8 6 3h13l6-4 1-7-9-1-8-2-15-1-3-2-7-1-8-2-12-6-7-6-3-5 1-3-4-1v-15l3-2 1-5 5-4 2-3h2l1-3h5l1-3 8-2zm18 23-1 1v5l2 2 14 3 5-1 3-2v-3l-7-5z" fill="#24258D"/>
<path transform="translate(1067,451)" d="m0 0h47l2 2v98l6 1-1 3h68v32h-119l-2-2h-1z" fill="#353796"/>
<path transform="translate(539,448)" d="m0 0h14l6 5 17 8 5 5 6 3 11 5 8 7v2l3 1v76l-8 5h-2v2l-8 4-3 3-5 2-12 6-14 9-8 3-1 2-4-1-16-8-20-12-18-8-4-4v-2h-6v-77l4-4 10-7 3-1 3-5h9l1-3 5-1 3-3 5-2 4-4 5-2 6-3zm10 6-1 3v11l1 5 11 2 8 4 7 7 5 1v15l-3 4-2 4-2 2-5 2v7l2 2v5l-2 2-1 5 3 4v11l-6 4h-22l-7-3h-8l-3 3-5 2 1 5 3 3 12 6 11 7 1 3h-7l-2 3 1 4 3 3h7l14-9 12-6 14-8 10-7 6-5 1-2v-65l-5-5-9-6-16-9-19-10-6-4zm-14 20-14 8-11 6-13 8h-5v-9h-5l-2 3v64l2 3h5l-2-7 1-3 9 2 2 2h3l1-2v-6l-6-1v-9l5-4 6-2 10 1 6-12 4-9 1-7 6-12-4-2 3-7 1-4zm14 42-3 7-1 1v13l1 1h5l6-5 4-8-7-9z" fill="#2D2E91"/>
<path transform="translate(907,496)" d="m0 0h5v2l10 5 10 3 3 1 7 10 5 2h7l2-5h5l5 6 3 10v14l-3 10-2 1v3l-6 8-4 2-9 5-4 2-5 1-13 6h-16l-3-5-10-5h-5-1l3 2v3l-6 2-7-1-7-4-13-11-2-2v-4h8l2 1v-2h3v-2l-3 1-1-10h-3-2l-3-6-5 2v-12l4-13h3l1-2-2-1 4-3 13-1v2l10-5h5l3-3 6-1 4-4 1 2v2h3zm-4 19-7 4-4 5-2 10v8l2 10 6 7 3 2 11 1 9-2 7-9 2-4v-17l-6-11-6-4z" fill="#343695"/>
<path transform="translate(648,460)" d="m0 0h15l2 1v2l15 2 4 1 4-1 6 2 4-3 5 2 1 2 3 2-14 1-8 4-2 2-1 4v14l1 11-1 3h-2v4h-2l-2 7 2 7h2l1 3-2 3h2l1 23 1 10h-6l3 5v2l5 2 3 1h12l7-1 1-1h5v2l8-2 3-2 12-1 3-3v-7l4-1v2h2l1-6 6-1 1-4h-2v-2l4-1v-9l-1-3 10-4 7 1 2 2 1 2h3v2h-3l1 4 4 4-1 9-3 9-7 7-11 6-9 2-12 1h-79l-6-1h-3z" fill="#343695"/>
<path transform="translate(886,487)" d="m0 0h50l4 4v4h9l1-2 4 2 6 7 5 4 5 5 3 4 1 5 2 2v31l-1 2h-3v6h-2v5l-7 6-8 8h-5l-2 4h-4l-2 3-9 1-5 2-10 1h-23l-1 5-4-2-11-1-4-4v-5l-4-2-5-3-9-7-1-4-3-1v-2h-8l-6 4-1-6v-66l2-1h12l1 1v5l7-2 6-4h3l1-3h5l1-3 8-1zm21 9v6h-4l1-4-5 3v1l-7 2-2 2h-6l-9 5-1-2-12 1-4 4h2l-1 2h-3l-4 13v12l5-2 3 6 5-1v7l2 4 2-1v2h-3v2l-2-1h-8l1 5 10 9 8 6 5 2 8-1 3-1v-3l-2-2 7 1 8 4 3 5h16l14-7h5l10-6 5-2 5-6 3-5v-2l2-2 2-8v-14l-4-12-4-4h-5l-2 5h-8l-6-4-5-8-9-3-11-4-3-2v-2z" fill="#26278E"/>
<path transform="translate(797,491)" d="m0 0h40v2h2l1 4h-2l1 66v23l-3 1h-39l-1-6v-25l1-14z" fill="#353796"/>
<path transform="translate(1118,408)" d="m0 0h8l2 7-1 1v5l4 1v-8l5-5 2-1h9l2 3v4l-2 1 1 6-2 2-6 1v3h10l4-6 4-10 2-2 6 1 3 8 3 6 2-1v-11l4-4 2-1h8l8 7 4-2 7-5 6 2 4 4 3-1 4-4 3 4v5h6l1-7 3-1 5-1v24l-2 2-4-1-5-9-2-1-1 7h-2l-1 3-12-2-1 2-6 1h-15l-1-3h-7l-1 3h-18v6l-4-1v-5h-43l-5 2-3 1-1-4-15 1h-13l-1 6h-3v-6h-9l-1-25 1-1h15l1 2h7l3-2h15v2l7 1 1-3z" fill="#40429B"/>
<path transform="translate(539,448)" d="m0 0h14l6 5 17 8 5 5 6 3 11 5 8 7v2l3 1v76l-8 5h-2v2l-8 4-3 3-5 2-12 6-14 9-8 3-1 2-4-1-16-8-20-12-18-8-4-4v-2h-6v-77l4-4 10-7 3-1 3-5h9l1-3 5-1 3-3 5-2 4-4 5-2 6-3zm10 6-1 3v11l1 5 11 1v3h-7v2h3v7h-11l-6 5v-6h3l4-2v-2h4v-2l2-1h-10l-2 1-3-5-5 2-17 9-13 8-5 3h-5v-9h-5l-2 3v64l2 3h6v-3l16 9 19 11 9 5 1 7 4 4h7l14-9 12-6 14-8 10-7 6-5 1-2v-65l-5-5-9-6-16-9-19-10-6-4z" fill="#A0A1C5"/>
<path transform="translate(1067,451)" d="m0 0h47l2 2-1 17h-1v-14h-2v96l-1 2h-2l-1-3-1-14v-12l-1-5 1-25v-32l-8-2h-25v28l1 89 4 1v-2h2v2l29 1h69v-4l-4-1-3 1-1-3-7 1-2-5-7-2-14-1h-8l-7-2h-4v-2h-6l-2-5 1-2h5v-2l-3-1h5l-1 3h68v32h-119l-2-2h-1z" fill="#23248D"/>
<path transform="translate(1345,459)" d="m0 0 10 1 12-1 1 4v19l-1 15 3 4 4 1v4h-2l-1 11-1 6-2 6v13l2 12h2v2h-2l-1 9 2 1v6l-5 1h-4l-1 7-5 1-5-1 2-6 1-4-9-2-3-4-1-17v-22l-1-13 1-5v-23l-1-19 2-4z" fill="#343695"/>
<path transform="translate(1332,408)" d="m0 0 9 1 4 5v9l4 1v-13l5-3h9l6 1 1-1h22 4 23l6 3h4l1-2h15l1 3 3 1v8l-3 3 3 4v5l-4 2-6-5v-2h-3v6l-2 1h-26l-1-1v-19h-7v19l-4 1-5-5 1-4 2-6-4-4h-9v18l-5 1-2-2h-6l-1 2h-17l-4-3h-3l-1 2-16 1v-5l-1-1v-15l5-5z" fill="#DBDCE6"/>
<path transform="translate(989,523)" d="m0 0h64l1 1v25l-3 5-2 1h-56l-4-4-1-3v-21z" fill="#23248D"/>
<path transform="translate(903,506)" d="m0 0h14l8 4 5 4 3 3 5 1 1 2v8l2 5 2 4 1 14 1 7-1 3h-2l1 2 5 1 2 4-8 3h-8l-5 1v-2l-4 1-2-2-5 2h-15l-10-5-5-4-6-8h-2l-2-3h-3l-1-6h2l-2-3 1-7 2-6 7-11 3-1 2-4 8-5zm0 9-7 4-4 5-2 10v8l2 10 6 7 3 2 11 1 9-2 7-9 2-4v-17l-6-11-6-4z" fill="#23248D"/>
<path transform="translate(797,491)" d="m0 0h40v2h2l1 4h-2l1 66v23l-3 1h-39l-1-6v-25l1-14zm29 5-3 4v2l-5-1h-10l-4-2-1-2-2 1v75l1-2h2l3-8 1-1 3 3h7l2-7h2l1 11 1 4-1 3 1 4 5 1 1-1v-83z" fill="#23248D"/>
<path transform="translate(1488,408)" d="m0 0h8l4 2-1 5-1 3 1 4-1 2-6 1v3h8l4-3 5-13 2-2 6 1 4 10 1 5h3l1-14 2-2 5 1 1 2v14l7 1 2 5-1 1-12 1h-12l-1-5v-1h-6l-4 5-3 1h-27l-6-5v-4h-2l-2 7-4 2-4-1v-21l4-3 3 1 1 7h6l1-7h4 6z" fill="#363896"/>
<path transform="translate(1282,505)" d="m0 0 4 1 2 5 7 3 14-1 1-3h2v46l-2 5-4 1-3 3-1-2-4 1-1 4-2-1 1-4-4 1v-3h-2l-3-7-3-5v-9h-2l-1-5v-3-2h2l2-9-5-10-1-5z" fill="#353796"/>
<path transform="translate(1257,408)" d="m0 0h9l2 4 3 1 8-5 7 1 6 5 3-1 3-4 3-1h7l6 5 1 5-3 5 5 12h-5l-6-6-3-1-2 5-1 1h-6l-1-6h-3l-2 5-1 1-12 1-1-3-3-1-1-2h-5l-2 3h-6l-1 3-5-1v-25z" fill="#5354A3"/>
<path transform="translate(1204,528)" d="m0 0 2 1v6l7 1-4 3-6 4-5 5v20l3 9 6 5 10 4 6 1h30l12-4 5-3 2 1-6 6-8 1-2 2-14 2-1 1h-6v-2h-12l-7-1-1-3-7-1-6-4-2-4h-6l-2 9-5 4h-114l-6-5 2-2 1 3h119v-32h-68l1-3h67v2l4-1 4-8 3-3h2v-5l-3-2 2-4z" fill="#3F419A"/>
<path transform="translate(1067,409)" d="m0 0h15l1 2h7l3-2h15v2h2v2l3 1-1 3 5 5 6 4v2l-6 1-5-2 1 3 5 2-1 3-5 2-3 1-1-4-15 1h-13l-1 6h-3v-6h-9l-1-25z" fill="#B1B2CD"/>
<path transform="translate(796,451)" d="m0 0h43v25l-6 3-2-1-30-1-1 3h-2l-6-8v-17z" fill="#25278E"/>
<path transform="translate(549,451)" d="m0 0 1 2h-2l1 4v16h8l3 1v3h-7v2h3l1 5-3 3h-9l-7 5v-9l3 2 4-2 1-2h4v-2h-8l-3 1-2-5-5 2-17 9-13 8-5 3-5-1-1-5 1-5h-6l5-4 21-11 21-12z" fill="#FBFBFC"/>
<path transform="translate(1332,408)" d="m0 0 9 1 4 5v9l4 1v-13l5-3h9l7 1 2 5 3 2v15h5l1-3v6l-5 1-2-2h-6l-1 2h-17l-4-3h-3l-1 2-16 1v-5l-1-1v-15l5-5z" fill="#FCFCFD"/>
<path transform="translate(794,487)" d="m0 0h42l3 3v3h-2v-2l-7 1h-28l-5-1 1 16v35l-1 19v26l39-1 2-3-1 5-4 3h-32l-5-3-4-5v-5l-4-1-1-5v-3h-5l-4 2v2l-8 8h-5l-1 3h-8v-2l12-4 10-9 6-8 1-12v-8h2l1 6 6 1-2-21 1-7-2-17 2-7h-2v-3l2-1z" fill="#3C3E99"/>
<path transform="translate(548,490)" d="m0 0h4l-2 8-5 14-2 4 4-1 1-2 6 1 6 5 2 3v3l-3-1-5-7h-5l-2 6-1 1-1 15 4 2-7-1-3-2 1-7-1-3-5 8h-3l-2 5-7 8-7-1-5-2-2 7 10 1 1 7 1 2-5-2-18-10 2-1 7 3 2-9 1-2-7 1-3-3v-7l6-5 6-2 10 1 7-15 4-3-2 6-6 14-3 3h-2v4l7-2 2-2h7l2-5 1-4-5-1 3-9 3-2-1-6 8-13z" fill="#393B97"/>
<path transform="translate(1502,498)" d="m0 0h7l1 2-9 6-3 4-1 8 2 7-1 2 7 2 1 7 12 3 9 2 17 1 8 1 3 1-2 3v2l4 1-1 3-9 2-7-6-9-3-34-6-12-3-8-5-2-5 3-3 4-3h2l-1-6h-5l-1-5h5v-2l-2-1-1-3h4l1-2 3 3h5l-2-4 4-1 1 3 5-1z" fill="#343695"/>
<path transform="translate(539,448)" d="m0 0h14l6 5 17 8v3l-1 2-9-2-17-10-1 2v-3l-6 2-22 12-21 12-11 6 4 2-7 1v68l1 5h-6v-77l4-4 10-7 3-1 3-5h9l1-3 5-1 3-3 5-2 4-4 5-2 6-3z" fill="#ADAECB"/>
<path transform="translate(1544,408)" d="m0 0 8 1 6-1 2 2h8l1 8h5l2-6 1-2-3-1v-1l8 1v24l-2 2h-28l-6-3 1-4-1-4 1-4-2-4-3-1 1-6z" fill="#FEFEFE"/>
<path transform="translate(1434,501)" d="m0 0 5 3 2 4-1 4-2 1v8l-4-1-2-7h-3l-4-2v7l5 2 4 2 5 2 6 8 1 1v8l-3 3-2 6-3-1v-3l-4-1v-3h-2v2l-4-1-5-12-5-5-2-8h-2l-5-6-5-3 1-4h10l6 2h3v2l5-2v-2z" fill="#343695"/>
<path transform="translate(539,526)" d="m0 0h1l1 7-1 5 7 3 7 1 6-4h2l1-3 1 3-6 5-7 2-9-1-7-1 2 7 2 1v2l-9-1-4 1-2 2-4 1 1 5 5 3 9 5 11 7 2 4-5 1h-3l-2 2-1-4-20-11-14-8-10-6-1 3-3-5 2-6 9 2 5 3 1-9h3l-3 11-5-1 11 6 7 4-2-7-9-2 1-7 3-1 5 3h5l8-10 1-2 4-2z" fill="#363896"/>
<path transform="translate(639,452)" d="m0 0 4 1v133h85l2-1 18-1 7-1 1 2-1 2h-26v2l-6 2h-78l-6-5z" fill="#C8C9DA"/>
<path transform="translate(755,464)" d="m0 0 5 1 6 5v6l5 2 1 7-5-1-3-2-3 8-8 5-6 1v-6l3-7-3 1-3 7h-4l-6-11-7-6-6-2-7-1 3-3 5-1h7l1 1 15 1 6 4z" fill="#343695"/>
<path transform="translate(1206,547)" d="m0 0 3 1 1 4-1 3 4-2 1-2 7 2h6l1 7-1 2h2v2l4 1 2 7h-5l1 4h5l1 5-2 2-17-1-10-4-5-6 1-6 2-1-2-4-4-1 1-7z" fill="#353796"/>
<path transform="translate(1333,452)" d="m0 0h3l1 25v109l34 1 1-12 5 1 8 6 7 3-4 1-8-4h-5l-2 5-5 4h-30l-6-5v-14l1-4-4-1 1-3 2-1v-91l1-4-4-1v-3l4-1-1-10z" fill="#3E409A"/>
<path transform="translate(840,496)" d="m0 0h12v7l6 1-7 11-5 13v20l3 11 2 5-8 2-4 3-1-6v-66z" fill="#F1F1F5"/>
<path transform="translate(989,523)" d="m0 0h64l1 1v25l-3 5-2 1h-56l-4-4-1-3v-21zm2 2v23l1 2h58v-24l-4-1z" fill="#363896"/>
<path transform="translate(1414,564)" d="m0 0 7 1 1 4-2 5h-2v2l5-1 8-5 6-3h4l-2 5-9 7-11 4h-19l-9-3-9-6-5-4-1-4 4-1 6 1v2l5 2 8 1 3-3 7-1z" fill="#343695"/>
<path transform="translate(1223,409)" d="m0 0 4 4v5h6l1-7 3-1 5-1v24l-2 2-4-1-5-9-2-1-1 7h-2l-1 3-10-2-1-4 1-2-9 3-3-3v-8l2-3 6 1 5 1-1-4 4 1z" fill="#494B9F"/>
<path transform="translate(1192,567)" d="m0 0h2l4 7v2h-4l-1 9-4 5-2 1h-114l-6-5 2-2 1 3 119-1 1-3 1-15z" fill="#9C9DC3"/>
<path transform="translate(1392,514)" d="m0 0 11 1 1 3-4-1-3-1v4h-12l-3 3-2 6-1 1v16l3 7 9 6 6-1 8-3 4-5 1-24-4-2 1-5 5 5 2 6v18l-4 10-6 5-5 2h-8l-8-3-8-10v-23l6-10 6-4z" fill="#373996"/>
<path transform="translate(1462,410)" d="m0 0 4 1 1 7h6l1-7h4l6 1v19h2l-2 4h-7l-6-5v-4h-2l-2 7-4 2-4-1v-21z" fill="#43459C"/>
<path transform="translate(1226,487)" d="m0 0h67l1 2 8 1 6 5h4l1-2h3l3 3v6l4 2-3 3-2 8-2-3-3-10-8-6-8-4-9-2h-40l-22 2-16 7-10 11-1 6h15l1 3h-14l-5-4-1-3 6-7 2-5 7-7 5-1 1-2h9z" fill="#7D7EB5"/>
<path transform="translate(576,463)" d="m0 0 4 2 8 5 10 4 8 7v2l3 1v76l-8 5h-2v2h-2l2-8 5-4 1-2v-65l-5-5-20-12-10-5 4-2z" fill="#9798C1"/>
<path transform="translate(1257,408)" d="m0 0h9l2 4 5 1-2 7 1 7 2 4 5 2-4 2-1-3-3-1-1-2h-5l-2 3h-6l-1 3-5-1v-25z" fill="#C3C4D5"/>
<path transform="translate(1332,408)" d="m0 0 9 1 4 5v17l-3 3-16 1v-5l-1-1v-15l5-5z" fill="#5254A3"/>
<path transform="translate(904,511)" d="m0 0h13l8 4 4 4 4 9v21l-6 7-2-2 4-7v-17l-6-11-5-3h-15l-7 4-3 4-2 10v8l2 10 5 6 3 2 8 1v1h-5l-1 3-5-1-7-6-3-6-2-11-1-5 2-4 2-8 1-2h2v-3l5-5h4v-2z" fill="#353796"/>
<path transform="translate(691,529)" d="m0 0h27l11 2 6 4 3 4v10l-6 7-12 3-5 1h-25l-2-3v-25zm1 4-1 1v21l4 2h20l15-4 5-5v-8l-5-5-6-2z" fill="#B8B9CF"/>
<path transform="translate(1511,410)" d="m0 0 6 1 4 10 1 5h3l1-14 2-2 5 1 1 2v14l7 1 2 5-1 1-12 1h-12l-1-5-4-3 1-8-4-2v-6z" fill="#5D5EA8"/>
<path transform="translate(1254,506)" d="m0 0h11l7 3 6 6v7l-12 6-8 1h-11l-4 2-23 4-6 1 6-8 4 3 4-2 14-1 7-2 13-2 6-2 5-2v-6l-5-2h-15l-7 2-6 7-2 1h-13l-1-5h14l5-4 3-4z" fill="#5658A4"/>
<path transform="translate(593,490)" d="m0 0 4 1 3 2v58l-6 4-1-1z" fill="#343695"/>
<path transform="translate(565,533)" d="m0 0 2 3 2 2 2 1v11l-5 4-2 1h-22l-3-1v-3l-5-1 2-1-1-6 4-1 6 2 11-1 6-4z" fill="#F1F1F5"/>
<path transform="translate(1279,408)" d="m0 0 7 1 4 4 2 6-1 8-4 7h-8l-5-3-4-7 1-8 3-5z" fill="#494B9F"/>
<path transform="translate(690,477)" d="m0 0h32l8 6 2 4v9l-4 6-4 3-7 1h-28l-1-2-1-9v-12l2-5zm2 3-1 1v21h32l6-5v-11l-8-6z" fill="#9091BE"/>
<path transform="translate(754,583)" d="m0 0 2 2-1 2h-26v2l-6 2h-78l-3-2v-2l86-1 2-1 18-1z" fill="#A1A2CA"/>
<path transform="translate(1067,451)" d="m0 0 3 1v127l-3 1z" fill="#363896"/>
<path transform="translate(641,451)" d="m0 0h24l86 1 1 2h-109v132h-1v-133z" fill="#5B5CA6"/>
<path transform="translate(1560,537)" d="m0 0 7 4 4 6 1 3v12l-5 8-8 7-7 3h-6v-3l-3 1-6-1 1-4 9-4v2h2v2h3v2l6-3 5-7-2-4 3-1h3l-2-9-5-6 1-2-2-2z" fill="#353796"/>
<path transform="translate(999,533)" d="m0 0 7 1h11l8 2h8l2 3v5l-6 1h-31v-11z" fill="#353796"/>
<path transform="translate(1577,565)" d="m0 0 2 4-11 11-7 4h-2l-1 3h-11l-1 3-6 1h-42l-7-1-1-2-10-2-5-4 2-2 2 2 14 3 6 1h41l17-3 11-7 8-9z" fill="#383A97"/>
<path transform="translate(1272,539)" d="m0 0 4 1 3 2 1 7-3 4-3 7-8 7-10 3h-8l-8-5-2-6 1-6 9-6 6-2h6v2l-12 3-5 3 1 4 5 5v5l8-2 9-2 6-8 2-10-7 1-4-2 5-1 1-3z" fill="#6465AA"/>
<path transform="translate(785,541)" d="m0 0h2l1 6 6 2 1 8v18l-3 3-4-1-1-5v-3h-5l-4 2v2l-8 8h-5l-1 3h-8v-2l12-4 10-9 6-8 1-12z" fill="#F8F8FA"/>
<path transform="translate(1371,410)" d="m0 0 12 1v2h7v-2h11l3 4h-4v19l-4 1-5-5 1-4 2-6-4-4h-9v9l-1 6h-5v-15l-5-1 2-1v-2l-2-1z" fill="#343695"/>
<path transform="translate(542,490)" d="m0 0 2 2-3 7-2 6 1 7-3 1-4 9h5l1 3-4 7-7 1-4 3h-5v-4l5-5 6-15h-1v-3l5-2 1-8 2-4h2l2-4z" fill="#25278E"/>
<path transform="translate(543,463)" d="m0 0 3 1-1 3-7 4-1 4-5 2-17 9-13 8-5 3-5-1-1-5 2-4 1 4 7-5 10-4 14-8 2-1v-2l7-3z" fill="#5355A3"/>
<path transform="translate(548,490)" d="m0 0h4l-2 8-5 14-2 4 4-1 1-2 6 1 6 5 2 3v3l-3-1-5-7h-5l-2 6-4 4-2-5-2 3-1-2-5-1 3-9 3-2-1-6 8-13z" fill="#343695"/>
<path transform="translate(493,554)" d="m0 0 5 2 18 10 14 8 8 5-1 6-5-2-23-13-17-8-5-2 4-2z" fill="#F5F5F7"/>
<path transform="translate(989,523)" d="m0 0h3v28h61l-4 4h-56l-4-4-1-3v-21z" fill="#B9BAD0"/>
<path transform="translate(1424,413)" d="m0 0h5v17l4-1 3-4 4 2 3 3v2l5-2-1 5-5-2-3-3v-2h-3v6l-2 1h-8l-3-2v-4l-5 1-1 2v-3h-2l1-8 1-2-3-1 1-3z" fill="#F6F6F9"/>
<path transform="translate(876,490)" d="m0 0h8l-2 1v2l-10 3-11 7-10 16-2 8v17l3 14 3 6 1 3h2l5 5 4 5 6 3v2h2v2l-4-2-5-3-9-7-1-4-3-1v-2h-2l-5-12-1-5v-20l5-13 6-9 1-1-5-2v-6h1v5l7-2 6-4h3l1-3h5z" fill="#353796"/>
<path transform="translate(547,458)" d="m0 0h1l1 15h8l3 1v3h-7v2h3l1 5-3 3h-9l-7 5v-9l3 2 4-2 1-2h4v-2h-8l-3 1-2-9 8-5v-2l-6 2-8 5-4-1 16-9 3-1z" fill="#BFC0D5"/>
<path transform="translate(1433,411)" d="m0 0 12 1 2 3 2-2v8l-3 3 3 4v5l-2-2-4 1-1-4-6-2-5 5-2-1-1-14z" fill="#42449C"/>
<path transform="translate(1574,408)" d="m0 0 8 1v24l-6-1-1-7-4-2-3 1v7l-3 2-3-2v-18l5-1 1 6 4 1 3-1 2-8-3-1z" fill="#47499E"/>
<path transform="translate(1070,411)" d="m0 0h13l4 2-2 1 1 5-2 2 1 6 2 5h-6l-5-6-3-1v7l-2 1-2-1v-20z" fill="#343695"/>
<path transform="translate(732,520)" d="m0 0h7l5 2v3l4-3 3 1v2l-3 2 5 4v6l-6 5-4-2-6-9-8-5-7-2 1-2h7z" fill="#353796"/>
<path transform="translate(1107,409)" d="m0 0 1 2h2v2l3 1-1 3 5 5 6 4v2l-6 1-5-2 1 3 5 2-1 3-5 2-3 1-1-4-4-2 1-2h-3v-2l-4-1v-2l9-1-1-5-8-1v-2l10-1-1-3-3-2z" fill="#C9CAD9"/>
<path transform="translate(1509,506)" d="m0 0h16l1 2-17 1v2h-2l2 7 13 3h8l1 1 23 4 2 1-2-5 5 4 1 2 5 1 5 5 6 7 2 1 1 5 3 2v14l-4 2v-14l-4-9-4-5-10-6-8-3-22-4-20-2-6-5-1-5 4-5z" fill="#D8D8E3"/>
<path transform="translate(795,452)" d="m0 0 2 1-1 5h1l1 16 7-1h26l4 1h2l-1-22h2l1 24-6 3-2-1-30-1-1 3h-2l-6-8v-17z" fill="#393B98"/>
<path transform="translate(1318,510)" d="m0 0h1l1 13v47l3 5v4h-2l-1 2-4-2v-67z" fill="#3A3C98"/>
<path transform="translate(942,583)" d="m0 0 2 1-2 3-9 1-5 2-10 1h-23l-1 5-4-2-11-1-4-4 1-5 16 3h34z" fill="#8283B7"/>
<path transform="translate(1494,545)" d="m0 0 21 3 21 4 4 4v6l-6 7-3 1h-15l-6-3-5-5-1-3 5 2 5 4 3 1h13l6-4 1-7-9-1-8-2-15-1-3-2-7-1z" fill="#797AB3"/>
<path transform="translate(1083,584)" d="m0 0h100l6 2v1h-119v-1l11-1z" fill="#353796"/>
<path transform="translate(1207,408)" d="m0 0 6 2 3 5v2l-11-1-1 2v8l4 2 7-2v5l-3 3-6 1h-14v-1h13v-2l-5-2-2-3v-9l2-5z" fill="#46489D"/>
<path transform="translate(1215,413)" d="m0 0 4 1 2-1v18l-6 1-1-4 1-2-9 3-3-3v-8l2-3 6 1 5 1z" fill="#F1F1F5"/>
<path transform="translate(1118,408)" d="m0 0h8v7h-9l1 2 6 3 4 4v5l-3 3h-2v2h-6l-5-4v-3l11 1-4-4-6-4-2-5 1-1-2-2h5l1-3z" fill="#353796"/>
<path transform="translate(539,526)" d="m0 0h1l1 7-1 5 7 3 7 1 6-4h2l1-3 1 3-6 5-7 2-9-1-7-1 1 6-5 1-3-1-5 1 1-4 2-3 4-5 1-2 4-2z" fill="#353796"/>
<path transform="translate(1301,408)" d="m0 0h7l6 5 1 5-2 2-4-1-1-4h-5l-2 4 6 1-2 4-5 6-1 2h-2l-1-2v-19z" fill="#5153A3"/>
<path transform="translate(1452,513)" d="m0 0h3l1 8 3 3 1 22-1 7-4 2v5l-3 1v5l-3 1 2-8 2-7v-30z" fill="#484A9E"/>
<path transform="translate(1357,410)" d="m0 0h6l2 1v4h-9v4h3v4l-3 1v4l10 1v2h-2v3h-11l-3-3v-19z" fill="#353796"/>
<path transform="translate(1198,575)" d="m0 0 8 6 11 5 6 1h30l12-4 5-3 2 1-6 6-8 1-2 2-14 2-1 1h-6v-2h-12l-7-1-1-3-7-1-6-4-2-4-6-1z" fill="#8C8DBE"/>
<path transform="translate(1372,575)" d="m0 0 5 1 8 6 7 3-4 1-8-4h-5l-2 5-5 4h-30l-5-4v-2l6 1 32 1z" fill="#C0C1D3"/>
<path transform="translate(1392,514)" d="m0 0 11 1 1 3-4-1-3-1v4h-12l-3 3-2 6-1 1v16l3 7 8 7 1 2-6-2-5-4-5-9v-18l6-10 6-4z" fill="#AAABC9"/>
<path transform="translate(897,514)" d="m0 0 4 1-5 5-3 4-2 10v8l2 10 5 6 3 2 8 1v1h-5l-1 3-5-1-7-6-3-6-2-11-1-5 2-4 2-8 1-2h2v-3z" fill="#41439B"/>
<path transform="translate(693,531)" d="m0 0h25l11 2 3 3-8-2h-32v21l3 1h20l15-4 4-4 1-8 2 3-1 6-5 5-11 4-13 1h-14l-3-2-1-4v-19l1-2z" fill="#303193"/>
<path transform="translate(836,491)" d="m0 0 1 2h2l1 4h-2l1 66v23h-3z" fill="#353796"/>
<path transform="translate(1354,408)" d="m0 0h9l7 1 2 5v2h-14v2h6l2 1v5h-8v5l-3-1 1-5h3v-4h-3v-4h9v-4h-8l-6 1-1 19 3 1v3l-4-1-5-4v-7l5 1v-13z" fill="#AFB0CB"/>
<path transform="translate(579,486)" d="m0 0 2 1v15l-3 4-2 4-4 3h-4l-2 5h-2l-2-6 5-4h2l2-4 3-5v-12z" fill="#EAEAF0"/>
<path transform="translate(1122,552)" d="m0 0h67v3h-68z" fill="#D4D4E0"/>
<path transform="translate(1254,506)" d="m0 0h11l6 2v4h-18l-7 2-6 7-2 1h-13l-1-5h14l5-4 3-4z" fill="#343695"/>
<path transform="translate(1229,489)" d="m0 0h19v1l-22 2-16 7-10 11-1 6h15l1 3h-14l-5-4-1-3 6-7 2-5 7-7 5-1 1-2z" fill="#3B3D98"/>
<path transform="translate(1543,410)" d="m0 0h15l1 4-5 1v16l-5 2-3-2 1-3-1-4 1-4-2-4-3-1z" fill="#5657A6"/>
<path transform="translate(1268,540)" d="m0 0m-3 1h3v2l-2 1v3l-16 4-6 3-2-1 6-4 7-2h5v-2l-12 3-8 5-1 6 3 7 6 3h8l6-1v2l-5 2h-9l-8-4-4-5-1-4 2-6 4-5 11-4z" fill="#353796"/>
<path transform="translate(1475,494)" d="m0 0 4 1-10 9-1 9v13l2 6 9 7 6 2v2h3v2l-6-1-9-6-5-4-3-5 1-3-4-1v-15l3-2 1-5 5-4 2-3h2z" fill="#393B97"/>
<path transform="translate(1505,507)" d="m0 0 2 1-3 4 1 5 5 4 27 3 19 4 8 4-3 1-24-5-26-4-6-3-4-5v-5z" fill="#353796"/>
<path transform="translate(1509,412)" d="m0 0h1l2 6 2 1-1 7 2 1-4 2-4 5-3 1-2-1-15-1v-1h11v-2h-6v-1l10-2 3-5z" fill="#B6B7D0"/>
<path transform="translate(1421,411)" d="m0 0 2 1-1 3-7 1v2l2 1-2 10 3 1 5-1v4l2 1h-14l-2-4 1-15h-2v-2z" fill="#333595"/>
<path transform="translate(1244,498)" d="m0 0 2 2 2 3-10 7-4 3-14-1-3-2 5-1v-2l8-1 3-3 6-2z" fill="#353796"/>
<path transform="translate(1489,555)" d="m0 0h13l1 3-16 2-6 2h-19v5h-3l-1-3 4-6 21-2z" fill="#6062A9"/>
<path transform="translate(510,545)" d="m0 0 5 2 7 1 2 1 8-1v1l7 2v2l-9-1-4 1-2 2-4 1 1 5 5 3 3 2v2l-5-2-4-2-2-3-1-6-9-2 1-7z" fill="#4A4C9F"/>
<path transform="translate(531,509)" d="m0 0v3l-7 17-5 4h-15l-2 5 3 3-4-1-2-1v-6l6-5 6-2 10 1 7-15z" fill="#323494"/>
<path transform="translate(1254,545)" d="m0 0h6v2l-12 3-5 3 1 4 3 3 1 8 12-2 1-1h6l-1 2-10 3h-8l-8-5-2-6 1-6 9-6z" fill="#E7E7F0"/>
<path transform="translate(594,491)" d="m0 0h3l2 4v55l-3 1v-9l-2-11z" fill="#BFC0D2"/>
<path transform="translate(598,560)" d="m0 0 2 1-3 7-7 4-2 2-5 2-6 3-6 2-1-2-4 3-4-1 22-12z" fill="#5B5DA6"/>
<path transform="translate(1554,415)" d="m0 0 2 1-1 16-1 2 8-1 1-2 3 1 1-1 1-7 4-2 4 3v7l5-1-1 4h-28l-2-1 1-3h3z" fill="#E9EAF0"/>
<path transform="translate(1092,412)" d="m0 0h13l-3 3h-6v4l3 1-2 4 1 4 7 2 1 4h-12l-2-2z" fill="#363896"/>
<path transform="translate(1256,410)" d="m0 0h10l1 4-1 1h-9v4l7 1-1 5h-5l-1 5-4 1v-18z" fill="#28298F"/>
<path transform="translate(837,583)" d="m0 0 1 4-5 4h-32l-5-3-1-4 2 1v2l39-1z" fill="#BDBED2"/>
<path transform="translate(1375,451)" d="m0 0 3 1v40l5 2-3 3-4-1v-2h-2v-39l-1-3z" fill="#A2A3C6"/>
<path transform="translate(1511,410)" d="m0 0 6 1 4 10 3 10-2 2-5-4-4-2 1-8-4-2v-6z" fill="#494B9F"/>
<path transform="translate(1478,412)" d="m0 0h6v19h2l-2 4h-7l-1-4 2-2z" fill="#C0C1D3"/>
<path transform="translate(754,583)" d="m0 0 2 2-1 2h-26v2l-85-1v-1l84-1 2-1 18-1z" fill="#C0C1D3"/>
<path transform="translate(538,476)" d="m0 0 2 3 2-1h10l-2 1v2h-4l-1 3-5 2-1 1-2 10-3 10-4 1 1-8 6-12-3-2 1-5z" fill="#3E409A"/>
<path transform="translate(506,542)" d="m0 0h3l-3 11-5-1 11 6 15 9v2l-5-2-16-8-13-8-3-1 1-4 9 2 5 3z" fill="#26278E"/>
<path transform="translate(960,503)" d="m0 0 4 2 5 5 4 5 1 5 2 2v31l-2 2-2-1v-30l-5-12-7-8z" fill="#9395C0"/>
<path transform="translate(1391,487)" d="m0 0h38l1 2 6 2 11 10 5 6v3l-3-1-6-9-9-6-9-4h-35z" fill="#898ABC"/>
<path transform="translate(639,452)" d="m0 0 4 1-1 46-3 1z" fill="#D3D3E0"/>
<path transform="translate(838,497)" d="m0 0h2l1 71-2 1-1-6z" fill="#C0C1D3"/>
<path transform="translate(485,487)" d="m0 0 2 1-1 6v60l1 2 5 1-1 2-6 1-1-4v-68z" fill="#363896"/>
<path transform="translate(1391,415)" d="m0 0h9v19l-4 1-5-5 1-4 2-6-3-2z" fill="#5E5FA8"/>
<path transform="translate(1323,584)" d="m0 0 3 1-5 5-4 1h-24l-7-2 1-2 34-1z" fill="#B0B1CC"/>
<path transform="translate(1194,414)" d="m0 0 5 1v12l4 4 2 1v2l-14 1-1-3 4-2-4-6 1-4 3-4z" fill="#E6E6ED"/>
<path transform="translate(570,539)" d="m0 0h1v11l-5 4-2 1h-22l-3-2h18v-2l-2-1 7-3 2-2 6 1z" fill="#3E409A"/>
<path transform="translate(537,542)" d="m0 0 8 2h11l-4 2-9 1-1 1 17 1-2 4h-18v-2l-5-1 2-1-1-6z" fill="#C0C1D3"/>
<path transform="translate(794,487)" d="m0 0h42l3 3v3h-2l-1-2-42-1z" fill="#C0C1D3"/>
<path transform="translate(1107,409)" d="m0 0 1 2h2v2l3 1-1 3 2 3-1 5-3 1-1 2h-10l-1-3 9-1-1-5-8-1v-2l10-1-1-3-3-2z" fill="#F7F8F9"/>
<path transform="translate(548,490)" d="m0 0h4l-2 8-4 11-3 1-4-2 1-7 7-10z" fill="#EEEFF3"/>
<path transform="translate(543,463)" d="m0 0 3 1-1 3-35 19-2-2 10-6 7-4 2-1v-2l7-3z" fill="#343695"/>
<path transform="translate(1151,427)" d="m0 0 1 4 5-1 2-2 5-1 3 3 1 4-4 1v6l-4-1v-5h-7l-1-1-11-1v-1h7l-1-3z" fill="#F1F1F5"/>
<path transform="translate(1462,410)" d="m0 0 4 1-1 2-3-1-1 19h3l3-8 5-1 3 4v5l-4-1v-4h-2l-2 7-4 2-4-1v-21z" fill="#C6C6D7"/>
<path transform="translate(1427,416)" d="m0 0 2 1v13l4-1 3-4 4 2 3 3v2l5-2-1 5-5-2-3-3v-2h-3v6l-2 1h-8l-3-2v-4l3-1 1-9z" fill="#B4B5CF"/>
<path transform="translate(1399,408)" d="m0 0h20l6 3h4l1-2h15l1 3h2l-1 4-2-3-12-1-5 4v-2h-5l-2-2h-10v-1l-13-1z" fill="#9E9FC4"/>
<path transform="translate(562,489)" d="m0 0 5 1-1 6-3 7-3 3h-6l2-9 4-7z" fill="#24258D"/>
<path transform="translate(1526,507)" d="m0 0 6 3 5 6-8 6h-7l-13-3-2-2v-6h1l2 6 14 3 5-1 2-1 1-3-5-2-2-2-16-1 2-2z" fill="#7677B2"/>
<path transform="translate(1279,415)" d="m0 0h5l2 2 1 7-4 5-5-1-3-5 1-5z" fill="#EEEEF3"/>
<path transform="translate(1295,413)" d="m0 0h1l1 19h2l2-5 4-2 5 5-1 2-3-3-3-1-2 5-1 1h-6l-1-6-3-1 1-8-1-5z" fill="#BFC0D4"/>
<path transform="translate(706,583)" d="m0 0h14v1l10 1-2 2h-85v-1h70v-2h-7z" fill="#353796"/>
<path transform="translate(1491,487)" d="m0 0h58v3h-58z" fill="#7779B3"/>
<path transform="translate(576,463)" d="m0 0 4 2 8 5 10 4-1 2-2 3-5-2-14-8-6-3 4-2z" fill="#8E8FBD"/>
<path transform="translate(1126,413)" d="m0 0 2 2-1 1v5l5 1v8l4 2v2l-3 1h-9l-1-3 4-3v-5l-6-5-4-2v-2h9z" fill="#CFCFDD"/>
<path transform="translate(886,487)" d="m0 0h50l3 4-7-1h-47z" fill="#8586B9"/>
<path transform="translate(1432,583)" d="m0 0 2 1-2 3-12 4h-20l-6-2v-2h26l9-3z" fill="#8283B8"/>
<path transform="translate(886,497)" d="m0 0h9v4l-6 2-5 2-1 2-9 1v-3l1-2 3-2 2-2z" fill="#343695"/>
<path transform="translate(539,526)" d="m0 0h1l-1 7-3 8-3 3-2 4-8 2 1-4 2-3 4-5 1-2 4-2z" fill="#24258D"/>
<path transform="translate(1392,514)" d="m0 0 11 1 1 3-4-1-3-1v4h-12l-3 3-2 6h-4l2-5 3-5 6-4z" fill="#B5B6CF"/>
<path transform="translate(1313,493)" d="m0 0h3l3 3v6l4 2-3 3-2 8-2-3-3-10-2-2 1-5z" fill="#E8E8EF"/>
<path transform="translate(1559,528)" d="m0 0h5l5 5 7 8 2 1 1 5 3 2v14l-4 2v-14l-4-9-4-5-10-6-2-2z" fill="#BFC0D4"/>
<path transform="translate(1257,408)" d="m0 0h9v2l-10 1-2 2-1 18 5-2h6l-1 3h-6l-1 3-5-1v-25z" fill="#9798C2"/>
<path transform="translate(1455,522)" d="m0 0 4 2 1 22-1 7-3 2-1-5z" fill="#9596C1"/>
<path transform="translate(1407,519)" d="m0 0 5 5 2 6v18l-4 7h-3l3-4 1-25-4-1-1-2z" fill="#DFDFE8"/>
<path transform="translate(777,492)" d="m0 0h1v7l-5 4-3 5-9 5-1 2 5 2 6 3 2 3-9-3-8-4 1-4 10-6 8-9z" fill="#B1B2CD"/>
<path transform="translate(1354,408)" d="m0 0h9l2 1v2h-8l-6 1-1 19 3 1v3l-4-1-5-4v-7l5 1v-13z" fill="#C2C3D6"/>
<path transform="translate(876,584)" d="m0 0h2v2l16 4v6l-4-2-11-1-4-4z" fill="#EFEFF3"/>
<path transform="translate(541,521)" d="m0 0 4 4v14l4 2-7-1-3-2 1-7-1-3-3 6-1-4 3-5h2z" fill="#373896"/>
<path transform="translate(1105,411)" d="m0 0 3 1v3l-2 1h-8v2h8l1 1v5l-9 1 1 2 3 2-5-1-1-4 2-4-2-1v-4l8-2z" fill="#C0C1D3"/>
<path transform="translate(1067,409)" d="m0 0h15v3h-12l-1 20h4v2l2 1h-8l-1-25z" fill="#8586B9"/>
<path transform="translate(570,578)" d="m0 0 1 4-14 9-6 2v-3l4-5 5-3 7-2z" fill="#A4A5C7"/>
<path transform="translate(564,476)" d="m0 0 5 3 6 6 4 2h-5l1 2v10l-4 6-5 5-5 3 2-4 5-4 4-7v-11l-5-6-5-2 2-1z" fill="#353796"/>
<path transform="translate(795,452)" d="m0 0 2 1-1 5h1l1 16 3 5-3 1-6-8v-17z" fill="#4C4EA0"/>
<path transform="translate(1574,512)" d="m0 0 2 1-2 3h-21v5l-2-4h-14v-1l13-2 2-1z" fill="#A4A5C8"/>
<path transform="translate(1113,451)" d="m0 0 3 2v5l-1-3-42-1-1-2z" fill="#3A3C98"/>
<path transform="translate(1192,567)" d="m0 0h2l4 7v2h-4l-1 9-4 4h-19v-1l17-1 2-1 1-3 1-15z" fill="#D6D6E2"/>
<path transform="translate(1220,528)" d="m0 0 4 3 4-2h19l-4 2-23 4-6 1z" fill="#9D9EC5"/>
<path transform="translate(989,523)" d="m0 0h3v28h5v2h-5l-3-2-1-3v-21z" fill="#9D9EC4"/>
<path transform="translate(1247,510)" d="m0 0 3 1-7 6-5 5h-13l-1-5h14z" fill="#8587B9"/>
<path transform="translate(1274,411)" d="m0 0h5l-3 9v6l1 4-3 1-4-7 1-8z" fill="#343595"/>
<path transform="translate(1204,528)" d="m0 0 2 1v6l7 1-4 3-6 4-7 6 1-4 3-3h2v-5l-3-2 2-4z" fill="#DFE0E9"/>
<path transform="translate(1475,568)" d="m0 0 12 6 3 3 2 3-9-1-9-6-1-4z" fill="#353796"/>
<path transform="translate(1241,409)" d="m0 0h1v24l-2 2-4-1v-3h3l-1-20z" fill="#8081B7"/>
<path transform="translate(1068,584)" d="m0 0 2 1v2h41v2h-41l-3-4z" fill="#DDDDE7"/>
<path transform="translate(873,581)" d="m0 0 7 1 12 3 10 1 24 1v1h-34l-16-3-1-3z" fill="#353796"/>
<path transform="translate(508,544)" d="m0 0h1l-1 9 10 1 1 7 1 2-5-2-18-10 2-1 7 3z" fill="#C1C1D6"/>
<path transform="translate(768,489)" d="m0 0 1 3-1 3h-2l-2 5-3 3h-5l-2-3 4-6 9-3z" fill="#343695"/>
<path transform="translate(1207,408)" d="m0 0 6 2 3 5v2l-11-1-2 2-1-4h-3z" fill="#5758A6"/>
<path transform="translate(523,537)" d="m0 0 6 1-1 4-6 7h-5l-1-2 4-7z" fill="#C0C1D3"/>
<path transform="translate(1526,412)" d="m0 0h1v19l4 1-1 3h-12l-1-5h3l2 2v-4-2h3z" fill="#B5B6CF"/>
<path transform="translate(1488,415)" d="m0 0h10l1 7-1 2-6 1v4h-3l-1-5h2l2-5h-4z" fill="#AEAFCB"/>
<path transform="translate(823,583)" d="m0 0 7 1v2h6v1h-39v-1l15-2z" fill="#353796"/>
<path transform="translate(1281,582)" d="m0 0h2v3h18l6-2 9 1v2h5v1l-35 1-6-2z" fill="#353796"/>
<path transform="translate(1073,425)" d="m0 0 4 1 4 5v2l2 1h-3l-1 7h-3l-1-6-2-1z" fill="#F5F5F7"/>
<path transform="translate(1267,423)" d="m0 0 4 1 3 5v2l5 2-4 2-1-3-3-1-1-2-12 1v-5z" fill="#E7E8EE"/>
<path transform="translate(1485,542)" d="m0 0h6l13 3 15 2 13 3v1l-11-1-26-4v1h-6l-2-2 1-2z" fill="#353796"/>
<path transform="translate(1393,512)" d="m0 0h8l7 4 4 5-1 3-3-4-2 3v-3l-9-1v-3l4 1 3 1-1-2-11-1h-5l3-2z" fill="#45479D"/>
<path transform="translate(1293,497)" d="m0 0 16 8v5l-1-2-9-2-8-5v-2h2z" fill="#353796"/>
<path transform="translate(1138,415)" d="m0 0h9l1 7-2 2-6 1v4h-2l-1-5 2-1 1-4h-2z" fill="#A9AAC9"/>
<path transform="translate(1500,557)" d="m0 0 5 1 1 6 10 5 15 1-4 2h-11l-7-3-8-7z" fill="#353796"/>
<path transform="translate(1069,412)" d="m0 0h4v20l-2 1-2-1z" fill="#292A90"/>
<path transform="translate(1275,546)" d="m0 0 1 4-2 10-5 5-8 1-4 2h-9l-1-7 2 1v5l8-2 9-2 6-8z" fill="#5051A1"/>
<path transform="translate(1084,413)" d="m0 0h7l-2 16-5-2-1-6 2-2z" fill="#EFEFF3"/>
<path transform="translate(1543,410)" d="m0 0h15l1 4-9 2-1 2v-3h-7z" fill="#2A2B90"/>
<path transform="translate(876,490)" d="m0 0h8l-2 1v2l-10 3-11 7-3 2-6-2v-6h1v5l7-2 6-4h3l1-3h5z" fill="#888ABA"/>
<path transform="translate(1353,451)" d="m0 0h22l-1 3h-23l-12-1v-1z" fill="#47499D"/>
<path transform="translate(1544,408)" d="m0 0 8 1 6-1 2 2h8l1 8h5l2-4-1 5-4 1-4-2v-6l-4 1-1 2h-5l1-4h-11l-4-2z" fill="#D3D4E0"/>
<path transform="translate(1373,416)" d="m0 0h2v15h5l1-3v6l-5 1-2-2h-6l-1 2h-3v-4h2l1-2v2h6z" fill="#C1C2D4"/>
<path transform="translate(1577,565)" d="m0 0 2 4-11 11-7 4h-2l-1 3-10-1v-1l9-2 11-7 8-9z" fill="#B1B2CE"/>
<path transform="translate(1256,583)" d="m0 0 7 1-4 2-6 2h-30l-6-1v-1h23l15-2z" fill="#353796"/>
<path transform="translate(735,540)" d="m0 0 2 3-1 6-5 5-11 4h-26v-1l21-1 15-4 4-4z" fill="#2D2E91"/>
<path transform="translate(525,471)" d="m0 0h2l-1 4-22 11-3-1 13-8z" fill="#C0C1D3"/>
<path transform="translate(1410,526)" d="m0 0h1v25l-7 9-3 2h-7l3-1v-3l8-3 4-5z" fill="#8183B9"/>
<path transform="translate(543,467)" d="m0 0h4v8l-6 3h-2l-2-7z" fill="#F7F7F9"/>
<path transform="translate(689,532)" d="m0 0 1 2v19l1 4 2 1h27v1l-5 1h-25l-2-3v-24z" fill="#C0C1D3"/>
<path transform="translate(545,486)" d="m0 0 9 1v6l-2-1v-2l-5 2-6 9-1-2 3-8-5 4 1-4z" fill="#353796"/>
<path transform="translate(781,532)" d="m0 0 3 1 2 8v12l-2 10-6 7-1-2 5-9 1-6v-13z" fill="#353796"/>
<path transform="translate(1509,506)" d="m0 0h16l1 2-17 1v2h-2v7l-3-1-1-5 4-5z" fill="#D3D4E1"/>
<path transform="translate(723,479)" d="m0 0 5 2 4 6v9l-4 6-5 2 5-5v-13l-5-3z" fill="#8C8DBC"/>
<path transform="translate(781,566)" d="m0 0 7 1-1 2h-5l-4 2v2l-8 8h-5l-1 3h-8v-2l12-4 10-9z" fill="#B4B5CE"/>
<path transform="translate(1491,587)" d="m0 0h55v3h-55z" fill="#C3C4D5"/>
<path transform="translate(1270,509)" d="m0 0 4 2 4 4v7l-5 3h-6l1-3 5-2v-6l-3-3z" fill="#6C6EAE"/>
<path transform="translate(690,479)" d="m0 0h33l-1 3-1-1h-29l-1 15-2 1v-17z" fill="#393B97"/>
<path transform="translate(1200,506)" d="m0 0h2l-2 4-1 6h15l1 3h-14l-5-4-1-3z" fill="#B2B3CD"/>
<path transform="translate(536,471)" d="m0 0 2 1-1 3-5 2-17 9-4-1 23-13z" fill="#898BBB"/>
<path transform="translate(1554,415)" d="m0 0 2 1-1 16-1 2 8-1 1-2 3 1 2-1v2l12 1v1h-28l-2-1 1-3h3z" fill="#B7B8CF"/>
<path transform="translate(1270,580)" d="m0 0 2 1-6 6-8 1-2 2-15 2v-2l16-4 10-4z" fill="#9293C1"/>
<path transform="translate(1268,540)" d="m0 0m-3 1h3v2l-2 1v3l-16 4-6 3-2-1 6-4 7-2h5v-2l-4-1z" fill="#373997"/>
<path transform="translate(593,533)" d="m0 0h2l2 10-1 8 4-2-1 3-5 3-1-1z" fill="#3B3D98"/>
<path transform="translate(974,523)" d="m0 0h1l1 30-2 2-2-1 1-23z" fill="#696BAD"/>
<path transform="translate(828,462)" d="m0 0 2 1v7h-13l2-4z" fill="#353796"/>
<path transform="translate(561,486)" d="m0 0h6l2 3v8h-2l-1 4-4 5-2-1 3-3 4-12h-7z" fill="#7F81B8"/>
<path transform="translate(1372,575)" d="m0 0 5 1 8 6 7 3-4 1-8-4h-5l-2 4-1-2z" fill="#BBBCD3"/>
<path transform="translate(1504,559)" d="m0 0 5 2 5 4v2l13 1h4v2h-15l-6-3-5-5z" fill="#BCBDD1"/>
<path transform="translate(1239,559)" d="m0 0 4 5 4 3 1-4v5l12-2 1-1h6l-1 2-10 3h-8l-8-5z" fill="#C0C1D3"/>
<path transform="translate(1231,532)" d="m0 0h6l-4 2-15 3-8 4-6 1 3-3 4-2-3-2h9z" fill="#353796"/>
<path transform="translate(752,454)" d="m0 0h8l4 3 4 1v2l4 2 3 3-2 4-6-7-12-6z" fill="#D2D3E1"/>
<path transform="translate(754,583)" d="m0 0 2 2-1 2h-26l-1 2v-3l2-1 18-1z" fill="#A0A1C8"/>
<path transform="translate(853,565)" d="m0 0 5 2 5 5 4 5 6 3v2h2v2l-4-2-5-3-9-7-1-4-3-1z" fill="#6466AB"/>
<path transform="translate(793,549)" d="m0 0h1l1 8v18l-3 3v-15z" fill="#C0C1D3"/>
<path transform="translate(510,528)" d="m0 0 8 1 4 2-3 2h-15l-2 5 3 3-4-1-1-1v-5l5-4h9z" fill="#C0C1D3"/>
<path transform="translate(1429,489)" d="m0 0 7 2 11 10 5 6v3l-3-1-6-9-9-6-6-3z" fill="#B9BAD0"/>
<path transform="translate(560,475)" d="m0 0 4 1v2l-4 2-1 4 7 1v1h-5l-1 2-6-1 2-1v-7h-3v-2h7z" fill="#343695"/>
<path transform="translate(1068,541)" d="m0 0h1l1 38-3 1z" fill="#8E8FBD"/>
<path transform="translate(967,563)" d="m0 0 3 1-2 4-5 4-8 8h-5l4-4 8-7z" fill="#B6B7D1"/>
<path transform="translate(1548,512)" d="m0 0h26v1l-22 1-9 2h-6l-2-2z" fill="#353796"/>
<path transform="translate(795,558)" d="m0 0 2 3v20l-2 5-3-3 2-8z" fill="#373997"/>
<path transform="translate(598,560)" d="m0 0 2 1-3 7h-3v-3l-8 7h-6l4-3z" fill="#4A4B9F"/>
<path transform="translate(1413,526)" d="m0 0 1 2h2l1 3v14l-1 3h-2z" fill="#353796"/>
<path transform="translate(567,458)" d="m0 0 9 3v3l-1 2-9-2-2-4z" fill="#AEAFCE"/>
<path transform="translate(1407,415)" d="m0 0h3v15l2 3-4 2-1-1z" fill="#A1A2C6"/>
<path transform="translate(1215,413)" d="m0 0 4 1 2-1v18l-6 1v-2h5l-2-12h-7v-1h5z" fill="#C2C3D4"/>
<path transform="translate(1180,425)" d="m0 0 6 1 2 2-1 4h-4v2h-4z" fill="#DFDFE8"/>
<path transform="translate(1508,418)" d="m0 0h2v9l-3 4h-7l5-5 1-2v-5z" fill="#343595"/>
<path transform="translate(1465,529)" d="m0 0h3l5 6 6 4 6 2v2h3v2l-6-1-9-6-5-4z" fill="#8384B8"/>
<path transform="translate(592,565)" d="m0 0h2l-1 5-5 4-5 2h-4l1-4 7-2z" fill="#C1C2D3"/>
<path transform="translate(504,532)" d="m0 0h5l1 4-1 3-6 1-2-3z" fill="#25268E"/>
<path transform="translate(1392,514)" d="m0 0 11 1 1 3-4-1-3-1v4h-4v-2h-5l-1-3z" fill="#E2E2EB"/>
<path transform="translate(547,458)" d="m0 0h1v11l-1-2-2-1v-2l-6 2-8 5-4-1 16-9 3-1z" fill="#A3A4C6"/>
<path transform="translate(1439,422)" d="m0 0h3l1 3 2 1 1-2 3 4v5l-2-2-4 1-1-4-3-1z" fill="#323494"/>
<path transform="translate(1127,429)" d="m0 0 5 1 4 2v2l-3 1h-9l-1-3z" fill="#D3D3E2"/>
<path transform="translate(531,567)" d="m0 0 7 4 9 6v4l-4-1-2-4-11-6z" fill="#696BAD"/>
<path transform="translate(1497,565)" d="m0 0 9 6 1 4h-5l-5-4-1-4z" fill="#353796"/>
<path transform="translate(1578,548)" d="m0 0 4 1v14l-4 2z" fill="#9A9BC3"/>
<path transform="translate(1202,413)" d="m0 0h1l-1 14h-4v-9l1-3z" fill="#26278E"/>
<path transform="translate(794,487)" d="m0 0h17l-1 3h-16z" fill="#CDCEDC"/>
<path transform="translate(558,453)" d="m0 0 7 3 2 1v2l-2 2-1 2-8-5 2-3z" fill="#797AB4"/>
<path transform="translate(1108,430)" d="m0 0 10 2-1 3-5 2-3 1-2-7z" fill="#E4E4ED"/>
<path transform="translate(1509,412)" d="m0 0h1l2 6 2 1-1 7 2 1-6 1 1-10-3 1 1-5z" fill="#8687BA"/>
<path transform="translate(1198,575)" d="m0 0 8 6 9 4v2l-7-1-6-4-2-4-6-1z" fill="#9495BF"/>
<path transform="translate(924,558)" d="m0 0v3l-5 4-5 2-1-1-7-1v-1l8-1-2-2 11-2z" fill="#5B5DA7"/>
<path transform="translate(932,531)" d="m0 0h1v18l-6 7-2-2 4-7 2-2z" fill="#7173B0"/>
<path transform="translate(542,528)" d="m0 0 2 2 1 9 4 2-7-1-3-2z" fill="#E0E1E9"/>
<path transform="translate(757,512)" d="m0 0h3v3l5 2 6 3 2 3-9-3-8-4z" fill="#9091BE"/>
<path transform="translate(1334,421)" d="m0 0h2v2l4 2-1 4-4 1-3-2 1-6z" fill="#DDDDE7"/>
<path transform="translate(1160,410)" d="m0 0h4l2 3v5h-6l-1-1v-6z" fill="#343595"/>
<path transform="translate(1369,409)" d="m0 0 3 3v4h-14l-1 3-1-4h9v-5z" fill="#C1C2D3"/>
<path transform="translate(1254,545)" d="m0 0h6v2l-12 3-5 3 1 5-3-1v-3l-2-1 9-6z" fill="#AEAFCB"/>
<path transform="translate(531,509)" d="m0 0v3l-7 17-2 1 2-10 4-8z" fill="#8485B8"/>
<path transform="translate(1463,509)" d="m0 0h2v17l-3-1v-15z" fill="#A7A8CA"/>
<path transform="translate(576,463)" d="m0 0 4 2 1 3h2l1 4-6-2-8-4 4-2z" fill="#6465AA"/>
<path transform="translate(1258,419)" d="m0 0 6 1-1 5h-5l-1 5-2 1v-9l2 2z" fill="#353796"/>
<path transform="translate(1257,415)" d="m0 0h12v4h-12z" fill="#F7F7F9"/>
<path transform="translate(1556,490)" d="m0 0 4 2 12 8-2 4-4-5-8-5-3-1z" fill="#B6B7D2"/>
<path transform="translate(1151,427)" d="m0 0 1 4 5-1 2-1-1 4 2 2h-7l-1-1-11-1v-1h7l-1-3z" fill="#AEAFCB"/>
<path transform="translate(1511,410)" d="m0 0h4l2 3-1 5h-5l-1-1v-6z" fill="#353695"/>
<path transform="translate(1432,409)" d="m0 0h13l1 3h2l-1 4-2-3-14-1z" fill="#B6B7D3"/>
<path transform="translate(537,492)" d="m0 0 1 3-3 7-1 5-4 1 1-8 3-6h3z" fill="#6E6FAF"/>
<path transform="translate(1334,451)" d="m0 0h19l-2 4h-10l-7-3z" fill="#2D2F92"/>
<path transform="translate(536,516)" d="m0 0h6l-2 9-2-2-5-1 2-5z" fill="#E3E4EB"/>
<path transform="translate(1256,410)" d="m0 0h10l1 4-1 1h-9z" fill="#353796"/>
<path transform="translate(878,557)" d="m0 0 2 2 3 6v2h-4l-3-3-1-6z" fill="#23248D"/>
<path transform="translate(897,514)" d="m0 0 4 1-5 5-3 4-1 6-1-2h-2l1-6h2v-3z" fill="#6768AB"/>
<path transform="translate(506,542)" d="m0 0h3l-3 11-5-1-7-3 1-2 6 2 4 2z" fill="#3F409A"/>
<path transform="translate(1238,411)" d="m0 0h2v24l-4-1v-3h3z" fill="#E6E7EE"/>
<path transform="translate(580,487)" d="m0 0h1v15l-3 4-1 3h-1v-6l3-1v-13z" fill="#7A7BB4"/>
<path transform="translate(1447,570)" d="m0 0 2 1-1 3h-2l-2 4h-2l-1 3h-2l-1 3-4-2 8-6z" fill="#C0C1D5"/>
<path transform="translate(785,541)" d="m0 0h2l1 6 5 1v1h-6v8l-2 4z" fill="#B5B6CE"/>
<path transform="translate(1229,421)" d="m0 0 4 2 2 4-2 1-4-4-1 7-3-1 1-5z" fill="#BEBFD4"/>
<path transform="translate(1402,410)" d="m0 0h16v1h-7v2h-3v2l-5-1z" fill="#F0F0F4"/>
<path transform="translate(1268,573)" d="m0 0 3 1-8 5-6 2h-7l4-2 6-2z" fill="#353796"/>
<path transform="translate(1478,430)" d="m0 0 8 1-2 4h-7l-1-4z" fill="#DEDFE9"/>
<path transform="translate(1415,418)" d="m0 0h7l1 1v5h-7l1-5z" fill="#B9BACF"/>
<path transform="translate(1175,412)" d="m0 0 1 4v12l-4 2-2-3 1-3h3v-11z" fill="#D4D4E0"/>
<path transform="translate(737,546)" d="m0 0 1 3-6 7-6 2h-6l3-2 10-4z" fill="#C0C1D3"/>
<path transform="translate(1507,517)" d="m0 0 4 2 18 3v1l-19-1-4-4z" fill="#D1D2DF"/>
<path transform="translate(564,476)" d="m0 0 5 3 6 6 4 2h-7l-5-6-5-2 2-1z" fill="#5B5CA6"/>
<path transform="translate(531,453)" d="m0 0 4 2-10 6-2-1 2-4 2-2z" fill="#8182B8"/>
<path transform="translate(1074,414)" d="m0 0h5l1 1v5h-6l-1-5z" fill="#E2E3EB"/>
<path transform="translate(523,537)" d="m0 0 6 1-1 4-2 2-5-2 1-4z" fill="#E7E7EE"/>
<path transform="translate(1224,517)" d="m0 0h6l2 2-1 2h5v1h-11z" fill="#6567AC"/>
<path transform="translate(1297,490)" d="m0 0h5l6 5 4 2-1 2-14-7z" fill="#ABACCA"/>
<path transform="translate(1167,432)" d="m0 0h11l4 3h-16z" fill="#8788BA"/>
<path transform="translate(1303,414)" d="m0 0 5 1 1 5h-6l-2-1 1-4z" fill="#E3E4EB"/>
<path transform="translate(549,513)" d="m0 0 5 1 6 5 2 3v3l-3-1-5-7-3-1v-2z" fill="#6869AC"/>
<path transform="translate(542,498)" d="m0 0 1 3-2 7 3-1 3-6 1 3-3 6-6-2 1-7z" fill="#C0C1D3"/>
<path transform="translate(1475,494)" d="m0 0 4 1-10 9-1 3-3-1 2-4 5-5 3-1z" fill="#B9BAD1"/>
<path transform="translate(1437,414)" d="m0 0 4 1 1 4-5 1-3-1 1-4z" fill="#DFE0E9"/>
<path transform="translate(1183,414)" d="m0 0 4 1 1 5-7-1v-4z" fill="#E3E3EB"/>
<path transform="translate(904,562)" d="m0 0h13l-4 4h-10z" fill="#2E3092"/>
<path transform="translate(960,503)" d="m0 0 4 2 5 5 4 5-2 3-10-13z" fill="#BEBFD5"/>
<path transform="translate(1509,506)" d="m0 0h16l1 2-18 1z" fill="#F1F2F5"/>
<path transform="translate(1217,491)" d="m0 0 3 1-11 6-5 4 2-5 4-4z" fill="#B7B8D1"/>
<path transform="translate(1093,409)" d="m0 0h14l-2 3h-11z" fill="#8F90BE"/>
<path transform="translate(1437,425)" d="m0 0 5 3 1 4 5-2-1 5-5-2-3-3v-2l-3-1z" fill="#CBCCDC"/>
<path transform="translate(510,545)" d="m0 0 5 2-1 5h-4l-1-6z" fill="#23248D"/>
<path transform="translate(1069,409)" d="m0 0h13v3h-14z" fill="#AAABD0"/>
<path transform="translate(1485,542)" d="m0 0h6l6 2-2 3h-6l-2-2 1-2z" fill="#333595"/>
<path transform="translate(781,532)" d="m0 0 3 1 2 8v12h-2l-1-13z" fill="#5254A2"/>
<path transform="translate(1354,408)" d="m0 0h9l2 1v2h-8l-8 1 3-3z" fill="#DCDCE6"/>
<path transform="translate(752,454)" d="m0 0h8l4 3 4 1-1 2-5-1-10-4z" fill="#AFB0CE"/>
<path transform="translate(1138,415)" d="m0 0h9l-1 3-4 1-2 3v-3h-2z" fill="#DBDBE5"/>
<path transform="translate(1333,414)" d="m0 0 5 1 2 1v2l-2 1h-6z" fill="#D1D2DF"/>
<path transform="translate(1488,408)" d="m0 0h8l4 2-1 4-1-3h-4l-2 2v-3l-7 1z" fill="#D5D5E1"/>
<path transform="translate(1118,408)" d="m0 0h8v5l-8-1h-3l1-3z" fill="#B0B1CD"/>
<path transform="translate(1215,586)" d="m0 0 21 2v1h-21z" fill="#BFC0D3"/>
<path transform="translate(1281,582)" d="m0 0h2v3l16 1v1l-13 1-6-2z" fill="#7072B1"/>
<path transform="translate(942,583)" d="m0 0 2 1-2 3-9 1-5 1 4-3z" fill="#8C8DBC"/>
<path transform="translate(510,534)" d="m0 0h6v4l-4 1-3-1z" fill="#C3C4D6"/>
<path transform="translate(852,497)" d="m0 0h1v5l7-2 5-1-5 5-2 1-6-2z" fill="#ABACCB"/>
<path transform="translate(1307,497)" d="m0 0 6 4 3 7-1 4-5-10-3-3z" fill="#353796"/>
<path transform="translate(1273,422)" d="m0 0 2 1 2 7-3 1-3-4v-4z" fill="#24258D"/>
<path transform="translate(1476,580)" d="m0 0 7 3 8 2v1h-11l-5-4z" fill="#9D9EC4"/>
<path transform="translate(554,487)" d="m0 0h6l-1 4-5 2-1-4z" fill="#24258D"/>
<path transform="translate(836,452)" d="m0 0h2l1 24h-3z" fill="#BDBED2"/>
<path transform="translate(1469,422)" d="m0 0 4 1 2 3v5l-4-1v-6l-3-1z" fill="#C5C6D8"/>
<path transform="translate(1468,422)" d="m0 0m-1 1 4 2-2 1-2 7h-3l2-9z" fill="#9697C3"/>
<path transform="translate(1543,410)" d="m0 0 10 1-1 2-7 1-3 1z" fill="#5254A3"/>
<path transform="translate(1257,408)" d="m0 0h9v2l-10 1-3 1-2-1 1-2z" fill="#D8D9E4"/>
<path transform="translate(1376,529)" d="m0 0 3 1-1 8-3 1v-9z" fill="#9091BD"/>
<path transform="translate(778,480)" d="m0 0h3v9l-3 1z" fill="#9D9EC6"/>
<path transform="translate(1138,408)" d="m0 0h9v3h-13z" fill="#D5D6E1"/>
<path transform="translate(1180,408)" d="m0 0h8l4 4-5-1h-8l-3 1v-2z" fill="#DBDCE6"/>
<path transform="translate(1516,549)" d="m0 0 10 1 8 2v1l-14-1-4-1z" fill="#C0C1D3"/>
<path transform="translate(1391,428)" d="m0 0 3 1v2h6l-1 4-4-1-4-4z" fill="#C0C1D7"/>
<path transform="translate(1504,559)" d="m0 0 5 2 4 6-4-1-5-5z" fill="#CCCDDE"/>
<path transform="translate(1452,513)" d="m0 0h3l1 9-2 3-2-7z" fill="#595AA5"/>
<path transform="translate(1200,506)" d="m0 0h2l-2 4-1 7-4-4 1-3z" fill="#B1B2CF"/>
<path transform="translate(1493,489)" d="m0 0m-3-1 1 2 2 1-12 2 1-3z" fill="#595AA5"/>
<path transform="translate(536,471)" d="m0 0 2 1-1 3-5 2-4 1 2-4z" fill="#7475B1"/>
<path transform="translate(509,465)" d="m0 0 4 1-9 5h-4l1-3 8-1z" fill="#DDDEE7"/>
<path transform="translate(1303,425)" d="m0 0 4 2 3 3-1 2-3-3-3-1-1 3h-2l1-4z" fill="#CDCEDC"/>
<path transform="translate(1344,423)" d="m0 0 5 1v7l-5-1z" fill="#F0F0F4"/>
<path transform="translate(1311,413)" d="m0 0 2 1v6l-4-1-1-5z" fill="#24258D"/>
<path transform="translate(598,560)" d="m0 0 2 1-3 7h-3l1-6z" fill="#6C6DAE"/>
<path transform="translate(1203,537)" d="m0 0 2 4-8 8-1-3 4-4h2z" fill="#AFB1CB"/>
<path transform="translate(528,532)" d="m0 0h7l-1 4-7-1z" fill="#C0C1D3"/>
<path transform="translate(1407,519)" d="m0 0 5 5v3l-5-2-1-2z" fill="#D9DAE6"/>
<path transform="translate(552,501)" d="m0 0 2 2v3h6l-2 3-5-1-1-1z" fill="#C0C1D3"/>
<path transform="translate(1443,498)" d="m0 0 9 9v3l-3-1-6-9z" fill="#B5B6CE"/>
<path transform="translate(1082,396)" d="m0 0h7v3h-6z" fill="#D4D5E3"/>
<path transform="translate(565,564)" d="m0 0 3 1-1 3-4-1v-2z" fill="#BEBED6"/>
<path transform="translate(1553,521)" d="m0 0" fill="#353796"/>
<path transform="translate(1241,406)" d="m0 0" fill="#C0C1D3"/>
<path transform="translate(1573,398)" d="m0 0" fill="#FEFEFE"/>
<path transform="translate(1574,397)" d="m0 0" fill="#FEFEFE"/>
<path transform="translate(1575,396)" d="m0 0" fill="#C0C1D3"/>
</svg>
