<?xml version="1.0" encoding="UTF-8"?>
<svg version="1.1" viewBox="0 0 1316 1508" width="329" height="377" xmlns="http://www.w3.org/2000/svg">
<path transform="translate(0)" d="m0 0h1316v1508h-1316z" fill="#FCFCFC"/>
<path transform="translate(749,134)" d="m0 0 1 4-18 70-12 51-14 63-16 81-14 83-8 55-7 53-8 76-5 63-3 63-1 29v20l10 2 35 6 40 10 29 9 41 15 44 17 43 17 37 14 38 13 32 9 26 6 36 6 19 2 17 1 31 1v1l-17 2-36 3-37 2h-72l-71-6-47-6-36-6-35-7-56-13-73-21-31-10-41-13-36-10-30-7-30-5-25-3-15-1h-28l-27 3-29 6-7 1 1-6 10-28 19-55 17-46 15-40 19-48 16-39 11-26 15-34 15-32 13-28 10-20 10-19 16-31 12-22 30-52 15-23 11-18 8-11 13-19 12-17 12-16 14-19 11-13 8-10 13-15 11-12 7-8 15-16 23-23z" fill="#25135C"/>
<path transform="translate(538,346)" d="m0 0 1 3-9 21-13 29-16 35-16 33-11 23-24 50-14 29-12 24-11 23-12 24-13 28-16 35-11 25-12 30-13 36-12 39-12 48-6 32v5l33-5 33-3 18-1h50l44 3 42 5 47 8 67 14 58 14 43 11 45 12 65 16 34 7 33 5 33 3 17 1v1l-43 6-64 8-51 5-40 3-45 2h-50l-47-2-42-4-75-10-74-11-56-7-44-4-16-1h-58l-29 2-33 4-30 5-34 8-35 10h-3l3-9 21-49 13-28 11-24 10-19 18-36 12-22 13-24 16-28 10-17 17-28 15-24 40-60 13-19 10-14 13-18 20-28 14-19 13-16 10-13 14-18 20-26 13-16 18-22 14-17 9-11 14-17 26-32 11-14z" fill="#1F1B19"/>
<path transform="translate(688,1064)" d="m0 0h5l5 12 13 35 19 50 17 45 18 47 22 59 17 46 15 40 7 19v3h-113l-3-5-12-40-3-13h-125l-9 29-8 27-2 2h-108l-3-2 13-35 26-69 32-84 30-80 26-70 6-15z" fill="#1F1B19"/>
<path transform="translate(164,1138)" d="m0 0h288l2 1v52l-2 5-13 11-10 8-14 12-11 9-15 13-10 8-13 11-11 9-13 11-11 9-13 11-11 9-14 12-13 11-14 11-5 5 186 1-3 10-15 40-4 10-75 1h-170l-49-1-1-28v-29l5-5 11-9 13-11 11-9 15-13 11-9 13-11 11-9 13-11 11-9 14-12 11-9 17-14 14-12 22-18-5-1h-167l-1-4v-55z" fill="#25135C"/>
<path transform="translate(806,1142)" d="m0 0h84l2 1v103l5-5 10-11 9-11 13-15 24-28 9-10 9-11 10-12 3-1h111l-2 5-29 29-2 3h-2l-2 4-29 29-7 8-8 8-7 8-10 10 1 5 17 28 12 20 16 26 31 51 13 21 13 20 1 3-2 1h-103l-5-8-21-41-13-25-10-19-10-20-2-1-7 8-9 10-12 12-7 8-8 8v67l-1 1h-46l-3-2-19-50-11-29-6-18z" fill="#25135C"/>
<path transform="translate(755,515)" d="m0 0h27l20 3 21 6 26 11 22 12 48 30 24 14 11 6-2 2-14 2-18-2-29-6-51-12-22-3h-16l-14 3-9 4-11 8-5 6h-2l-2-8-3-21-2-30v-24z" fill="#25135C"/>
<path transform="translate(771,608)" d="m0 0 31 1 17 3 21 6 25 11 19 10 22 14 17 11 21 13 23 13v3l-18 1-17-2-28-6-46-11-17-3-18-1-16 2-11 4-10 6-8 9-3-1-3-15-3-31-1-20v-15z" fill="#25135C"/>
<path transform="translate(632,1159)" d="m0 0h2l7 25 18 58 12 40v2h-78l3-11 17-56 11-35 7-22z" fill="#FDFDFD"/>
<path transform="translate(873,1015)" d="m0 0 2 1h21l4 2-30 4-39 4-48 4-32 2-26 1h-50l-47-2-42-4-44-6 3-3h9l16 1 8 1 4 1 25 3 8 1 1-1h6l7 2 20 1h84l40-1 7-2h5v-2h6v2l2-1 31-1 5-1 8-1 6-2 1 1h12l9-1z" fill="#251F2D"/>
<path transform="translate(1049,489)" d="m0 0h2l9 20 3 10-1 7-4 5-7 4h-10l-7-6-8-15-2-5-5 2-14 6-3-3v-4l24-11z" fill="#25135A"/>
<path transform="translate(1025,440)" d="m0 0h4l10 23 1 3v10l-6 7-9 3-8-1-6-7-9-17-9 3-11 5-2-3v-4l24-12 20-9z" fill="#25135A"/>
<path transform="translate(872,231)" d="m0 0 7 1 1 6-6 15-13 32-2 4-6-5 2-6 3-7-1-6-13-13-6 2-8 4-5-1-2-2v-3l34-15z" fill="#251459"/>
<path transform="translate(1122,773)" d="m0 0h5v6l-7 8-12 11-8 7-9 7-1 3 9-2 23-3h9v7l-22 3-31 3-1-1v-6l7-8 11-9 12-11 7-6h-4l-37 5-1-1v-6l17-3z" fill="#251359"/>
<path transform="translate(1077,562)" d="m0 0h3l1 8-8 11-16 21-7 8 36-12 6-1 1 6-9 4-21 7-17 6h-5l-1-6 5-9 12-15 12-17-32 11-2 1h-6l-1-5 5-3z" fill="#251359"/>
<path transform="translate(1077,624)" d="m0 0 11 1 7 4 6 7 4 9 1 11-2 7-5 6-6 1-1-4 6-8 1-5-2-10-4-6-6-4-4-1h-7l-10 3-6 4-3 5-1 9 2 8 4 7 1 3h12l-2-13v-6l5 1 5 18v5l-11 3h-10l-8-9-4-9-1-5v-10l3-9 7-7 7-4z" fill="#251459"/>
<path transform="translate(147,914)" d="m0 0 1 3-2 9-8 16-4 10-3 6-5 13-3 6-4 9-4 11v10l18-4 16-4 6-2h6l1 3-5 1 5 6-36 9-24 7h-3l3-9 21-49 13-28z" fill="#24202A"/>
<path transform="translate(1128,833)" d="m0 0 4 1 1 40h-7l-1-32h-16l1 19v12h-7l-1-30h-17v34l-6 1-2-33v-7l1-2 3-1z" fill="#251458"/>
<path transform="translate(946,326)" d="m0 0h8l9 6 6 9 2 10-3 8-5 2-2-2 1-4 1-2v-8l-3-6-6-5-6-1-4 4 3 12 5 15-1 7-7 8-10 1-8-4-7-8-4-8v-11l3-6 4-2 4 2-2 6-1 1v9l6 10 5 3h6l4-4-1-8-6-17v-9l4-6z" fill="#251459"/>
<path transform="translate(1089,887)" d="m0 0h7l1 3-4 4-6 4-3 8v7l3 7 2 2h7l3-4 8-24 4-4 3-1h10l5 5 3 5 1 5v9l-3 8-4 5-9 3-2-3 5-5 5-6 1-3v-9l-2-5-7-2-4 4-7 21-4 6-4 3h-10l-7-6-4-10v-11l3-8 4-5z" fill="#251359"/>
<path transform="translate(901,260)" d="m0 0h5l1 4-10 9-5 4-3 3 2 1 33 3 6 4 2 3h-11l-21-2-1 11-5 26-2 2-5-5 1-10 5-25-13 1-8 7-3 3-4-1-2-4 12-12 8-7 13-12z" fill="#251459"/>
<path transform="translate(985,368)" d="m0 0h3l1 5-8 6-9 5 2 6 9 16 2 3 6-2 12-7 4 1 1 4-13 8-10 6-18 11-3 2-4-1-1-5 17-10 3-2-2-5-10-18v-2l-5 1-16 10-5-1-1-5 19-11 22-13z" fill="#25135A"/>
<path transform="translate(821,184)" d="m0 0 6 2 13 11 11 9 4 3-2 4-4 2-50 9 5 5 13 11 5 4 1 2v6l-5-2-14-12-11-9-6-5v-4l13-4 42-8-5-6-13-10-4-4z" fill="#251458"/>
<path transform="translate(1115,705)" d="m0 0 3 1v7l-25 4-21 3 1 14 1 6v8l-4 1-2-3-4-26v-6l5-2z" fill="#251359"/>
<path transform="translate(1022,449)" d="m0 0 5 1 7 16v8l-5 4-8 1-5-4-7-14v-5z" fill="#FDFDFD"/>
<path transform="translate(1045,498)" d="m0 0 4 1 6 13 1 4v7l-6 5-4 1-6-3-6-9-3-8 1-5z" fill="#FDFDFD"/>
<path transform="translate(743,1198)" d="m0 0 2 3 17 44 25 67 4 11-1 2h-2l-5-12-3-8-3-6-2-5-2-6-4-10-3-8-2-5-2-6-3-4-2-5-2-10-2-3v-4l-3-8-9-23v-2h2z" fill="#251E33"/>
<path transform="translate(538,346)" d="m0 0 1 3-9 21-13 29-3 7h-2l-2 2v-4l-2-1 3-10 3-3v-5l3-4-2-3-2 4-3 1-1 3-4 3v-3l10-12 8-10 9-11z" fill="#24202A"/>
<path transform="translate(660,945)" d="m0 0 10 1 71 18 60 16v1l-6 1-11-3-10-2-20-5-13-3-13-4-8-2h-5v-2l-9-1-7-1v-2l-8-1-11-3-3-2-7-1-7-2v-2z" fill="#251D36"/>
<path transform="translate(680,1355)" d="m0 0 13 2 2 4v1h-109l-3-3 7-1h31l26-1h12l5 2v-2l7 1z" fill="#252127"/>
<path transform="translate(1120,752)" d="m0 0 5 1v6l-46 6h-8l-1-1v-5l9-2z" fill="#251359"/>
<path transform="translate(1070,541)" d="m0 0 3 1 2 5-8 4-41 15-4-1-1-3 3-3 41-16z" fill="#251458"/>
<path transform="translate(1014,420)" d="m0 0 5 1v4l-17 10-22 12-5 3h-4l-1-6 22-12z" fill="#251359"/>
<path transform="translate(473,486)" d="m0 0h2l-3 9-11 22-11 23-14 29-12 24-7 15-2-4 6-12 1-4h2l1-4 3-7 5-9 1-4h2l2-9 4-7 9-17 7-16 3-5 1-4h2l1-6 1-2h2l1-4z" fill="#251F31"/>
<path transform="translate(545,1018)" d="m0 0h9l16 1 8 1 4 1 25 3 8 1 1-1h6l6 3-1 2-10 1-38-4-37-5z" fill="#24202B"/>
<path transform="translate(872,237)" d="m0 0 2 1-11 25-7-6-6-7 1-3 20-9z" fill="#FDFDFD"/>
<path transform="translate(743,1198)" d="m0 0 2 3 17 44 2 6-2 3 2 1v5l-5-5-2-5-2-10-2-3v-4l-3-8-9-23v-2h2z" fill="#241F2B"/>
<path transform="translate(538,346)" d="m0 0 1 3-9 21-5 11-3 1 1-5 2-6h-3l-5 1 6-8 9-11z" fill="#251C3B"/>
<path transform="translate(480,417)" d="m0 0 1 4-2 1-3 5-11 14-2 1-2 4-5 5-8 10h-2l-1 4-4 2v2l-3-1 18-22 14-17 9-11z" fill="#251E30"/>
<path transform="translate(380,542)" d="m0 0 2 1-1 4-6 6-2 7-4 2-4 6h-2l-2 6h-2l-2 4-3 1-2 4h-2l2-4 13-18 11-14z" fill="#251F31"/>
<path transform="translate(592,1284)" d="m0 0h79l-3 2h-47l-27 1-2-1z" fill="#252128"/>
<path transform="translate(473,486)" d="m0 0h2l-3 9-18 36h-2l1-5 8-16 1-4h2l1-6 1-2h2l1-4z" fill="#251F2E"/>
<path transform="translate(737,1029)" d="m0 0h23l6 1v1l-15 1h-43l4-2h22z" fill="#251553"/>
<path transform="translate(766,971)" d="m0 0 35 9v1l-6 1-11-3-10-2-11-3z" fill="#251E31"/>
<path transform="translate(503,388)" d="m0 0 2 3h-2l-1 4 4-2-2 4h-2v3l-2-1-1-1-1 6-3-1-2 4h-3l-1 4h-3l2-4 14-17z" fill="#241F28"/>
<path transform="translate(329,611)" d="m0 0h1l-1 7-5 6h-2l-2 5-2 4-5 6h-3l2-4 9-13z" fill="#251C3C"/>
<path transform="translate(429,577)" d="m0 0 1 4-13 27-2-4 6-12 1-4h2l1-4 2-5z" fill="#251F31"/>
<path transform="translate(763,1251)" d="m0 0 2 2 7 19-1 3-4-1-2-7-2-3v-9z" fill="#251E33"/>
<path transform="translate(941,1007)" d="m0 0 27 1v1l-21 3h-6v-2l-3-1z" fill="#241C38"/>
<path transform="translate(245,736)" d="m0 0h1v5l-4 2v6l-6 7h-2v5l-4 2-1 6h-3l2-5 13-22z" fill="#251E33"/>
<path transform="translate(538,346)" d="m0 0 1 3-5 12-3-1-2 3h-3l-1 3-3-1 11-13z" fill="#251555"/>
<path transform="translate(318,842)" d="m0 0 2 3-2 11-4 17-2-2v-6l1-3 3-14z" fill="#241E2C"/>
<path transform="translate(437,469)" d="m0 0 1 4-8 10-3 3-3 5h-2l-1 3-3 1 2-5 14-17z" fill="#251D35"/>
<path transform="translate(455,447)" d="m0 0 2 1-2 4-7 9h-2l-1 4-4 2v2l-3-1 9-11z" fill="#251B3F"/>
<path transform="translate(349,583)" d="m0 0h1v5l-4 5-7 10h-2v2l-3-1 10-14z" fill="#251555"/>
<path transform="translate(660,945)" d="m0 0 10 1 20 5 2 2-8-1-14-2-7-2v-2z" fill="#251A41"/>
<path transform="translate(748,967)" d="m0 0 8 1 10 3-2 2-11-1-6-2z" fill="#251D38"/>
<path transform="translate(225,769)" d="m0 0 1 4-2 3h-2v5l-4 2v6l-4 2v2h-2l2-5 10-18z" fill="#251D36"/>
<path transform="translate(781,1306)" d="m0 0 3 1 1 5h2l4 11-1 2h-2l-5-12z" fill="#251F31"/>
<path transform="translate(524,1016)" d="m0 0h13l3 2h-2v2l-13-1-5-1z" fill="#231E2B"/>
<path transform="translate(416,496)" d="m0 0 2 1-1 3-2 1-2 5-8 7v-3l10-13z" fill="#241E2F"/>
<path transform="translate(438,561)" d="m0 0 1 2-8 16-2-4 4-7 1-4z" fill="#251C3C"/>
<path transform="translate(659,1238)" d="m0 0 1 3 1 5 2 1-1 2h2l2 15-2-2-6-20z" fill="#251C3A"/>
<path transform="translate(885,1016)" d="m0 0h11l4 2-15 2z" fill="#241E31"/>
<path transform="translate(763,1251)" d="m0 0 2 2 3 9-3 3-2-1v-9z" fill="#251B3D"/>
<path transform="translate(235,752)" d="m0 0 2 1-1 3h-2v5l-4 2-1 6h-3l2-5z" fill="#251D38"/>
<path transform="translate(812,1414)" d="m0 0 1 2h3v2h-19v-1l14-2z" fill="#252227"/>
<path transform="translate(724,960)" d="m0 0h2v2l6 1-1 2-9-1-5-1v-2z" fill="#252128"/>
<path transform="translate(473,486)" d="m0 0h2l-3 9-3 5-1-3 2-6z" fill="#241E31"/>
<path transform="translate(493,401)" d="m0 0h2l-2 6h-3l-1 4h-3l2-4z" fill="#241F2E"/>
<path transform="translate(316,629)" d="m0 0h2l-1 5-4 5h-3l2-4z" fill="#251D36"/>
<path transform="translate(310,875)" d="m0 0h3l-3 15-2-1 1-7z" fill="#231D2E"/>
<path transform="translate(461 1e3)" d="m0 0h11v3h-7l-4-2z" fill="#252227"/>
<path transform="translate(343,594)" d="m0 0 2 1-6 8h-2v2l-3-1 5-5z" fill="#251C3A"/>
<path transform="translate(322,828)" d="m0 0h3l-3 12h-3l1-6h2z" fill="#231E2B"/>
<path transform="translate(329,611)" d="m0 0h1l-1 7-4 2-2-1z" fill="#251D39"/>
<path transform="translate(356,574)" d="m0 0h2l-1 4-3 1-2 4h-2l2-4z" fill="#251456"/>
</svg>
