<?xml version="1.0" encoding="UTF-8"?>
<svg version="1.1" viewBox="0 0 2048 614" width="500" height="150" xmlns="http://www.w3.org/2000/svg">
<path transform="translate(0)" d="m0 0h2048v614h-2048z" fill="#FCFCFC"/>
<path transform="translate(1082,402)" d="m0 0h877l12 11 13 13 8 7 30 30 8 7 12 11-3 2h-851l-32-1-11-12-12-11-17-17-8-7-16-15-12-11v-6z" fill="#C9CAC9"/>
<path transform="translate(558,25)" d="m0 0h137l1 1v21l-1 1-23 3-9 4-3 1-2 5-2 4-1 6-1 106 5-3 11-12 9-10 12-13 7-8 29-31 11-12 7-9 3-10v-8l-2-5-3-3-11-3-14-3-1-9 1-12 1-1h119v22l-5 2-16 4-16 8-12 7-12 10-7 8-12 12-7 8-13 13-7 8-1 2 19 37 12 22 10 20 10 19 14 27 12 22 8 11 11 13 13 9 13 5 8 2v23h-131l-6-2 1-21 19-3 5-3 1-2v-8l-10-21-12-22-14-26-12-22-13-24-2-4-4 2-20 18-6 4-1 2v84l3 12 7 8 6 3 15 2 2 5v17l-1 1h-123l-4-1v-22l21-3 6-3 4-5 2-5 1-6v-92l-1-127-1-12-4-8-9-4-19-3-3-1v-16z" fill="#A82545"/>
<path transform="translate(390,23)" d="m0 0h40l4 9 10 31 24 74 16 50 23 72 11 33 6 11 5 5 9 6 10 2 1 4v17l-1 2h-127l-4-1v-22l25-4 8-5 1-3v-8l-5-17-14-44v-2l-57-1-42-1-4-1-3 10-13 40-1 4v10l6 12 6 5 9 3 16 2v23h-88l-12-1v-21l9-3 12-6 9-7 6-8 8-20 16-45 19-53 19-54 15-42 19-54 1-1z" fill="#A82545"/>
<path transform="translate(20,21)" d="m0 0h221l1 1v25l-6 12-15 24-14 23-13 21-16 26-14 23-16 26-13 21-16 26-13 21-14 23-10 16-4 7 75-1 16-4 10-5 9-7 8-9 10-16 8-18 6-20 4-14h16v116h-219l-9-1v-25l3-7 13-21 48-78 17-28 13-23 14-24 14-25 36-63h-61l-15 3-12 6-11 9-8 9-9 15-8 17-7 24-3 11h-16l-1-92z" fill="#A82646"/>
<path transform="translate(667,401)" d="m0 0h79l336 1-1 7 15 14 16 15 12 11 17 17 8 7 7 8 32 1v1h-475l-1-2 2-4 4-2-1-4-25-25-8-7-8-8-8-7-17-17-2-1-1-4z" fill="#E5E5E5"/>
<path transform="translate(1533,402)" d="m0 0h426l12 11 13 13 8 7 30 30 8 7 12 11-3 2h-366l-58-1-10-11-8-7-18-18-8-7-7-7-8-7-9-9-8-7-4-4v-2z" fill="#ABADAC"/>
<path transform="translate(1145,25)" d="m0 0h62l16 2 14 7 7 7 6 12 2 7 1 9v30l-2 14-4 10-4 6-9 8-9 4h-3l5 13 15 31 13 28 3 9h-23l-3-3-14-29-15-33-6-12h-39l-3 1-1 75-3 2h-17l-2-1-1-22v-151l1-23z" fill="#A72847"/>
<path transform="translate(1345,25)" d="m0 0h21l5 1 8 24 21 69 20 66 10 34v4h-20l-4-4-13-41-1-4h-74l-3 10-12 36-3 3h-17l-3-1 2-10 17-55 20-66 19-62 2-3z" fill="#A72646"/>
<path transform="translate(1470,25)" d="m0 0h12l4 5 14 25 14 24 14 25 16 28 14 25 9 15 1 3h2l-1-4v-78l1-67h21l1 1v193l-2 3h-15l-6-5-9-15-14-25-14-24-16-28-30-52-1 54-1 93-2 2h-17l-3-1v-195l1-1z" fill="#A72646"/>
<path transform="translate(1012,25)" d="m0 0h26l14 1 13 4 8 6 7 8 5 12 2 16v8l-2 8h-20l-1-1-2-25-5-10-6-4-12-2h-30l-11 2-4 3h-2l-2 4-3 7-1 10v105l3 14 7 8 6 2h45l9-4 5-8 2-14v-35l-35-1-2-3v-10l1-7h53l5 1 1 3v63l-3 12-4 8-8 8-14 7-12 2h-42l-14-3-8-4-10-9-6-12-2-10v-122l2-10 6-12 7-7 14-7 4-1z" fill="#A82546"/>
<path transform="translate(1845,26)" d="m0 0h105v19l-22 1-60 1v65h55l18 1v18l-1 1-17 1h-56l1 66 1 3h69l12 1v17l-2 3h-102l-1-1z" fill="#A82646"/>
<path transform="translate(1696,26)" d="m0 0h120v16l-1 3-11 1h-37l-1 176-1 1h-18l-3-1-1-175-2-1-44-1-2-1v-17z" fill="#A82445"/>
<path transform="translate(1192,45)" d="m0 0 21 1 7 3 7 8 3 11v33l-2 10-5 8-3 3-10 3h-55l-1-1v-77l1-1z" fill="#FCFCFC"/>
<path transform="translate(1234,241)" d="m0 0h26l19 1 6 4 5 8 1 4v18l-3 7-4 4h-2l7 8 3 8v18l-3 8-3 4h-2v2l-4 2-8 1h-40l-1-1v-95z" fill="#87878B"/>
<path transform="translate(382,82)" d="m0 0 3 3 26 77 13 38 1 5h-83l2-9 36-108z" fill="#FCFCFC"/>
<path transform="translate(1642,26)" d="m0 0h22v191l-1 6h-19l-2-1-1-15v-173z" fill="#A82646"/>
<path transform="translate(1150,242)" d="m0 0h44l7 2 6 7 3 10v22l-5 10-7 5h-2l3 10 8 17 5 11v2h-10l-6-9-8-17-5-10v-2h-21v38h-11l-1-1z" fill="#87878A"/>
<path transform="translate(963,242)" d="m0 0h16l21 52 3 7h2l12-31 6-13 5-14 1-1h15l1 1v84l-1 11h-10l-1-1v-75h-2l-3 10-10 25-5 12-5 8-8 1-5-7-6-16-5-11-9-21-1 75h-11z" fill="#86868A"/>
<path transform="translate(1354,50)" d="m0 0 3 3 19 63 11 37v1l-63 1-1-3 26-86 4-15z" fill="#FBFBFB"/>
<path transform="translate(1090,242)" d="m0 0h15l5 12 19 63 5 17v4h-10l-3-5-5-16v-2h-37l-3 11-5 12h-10l4-16 11-36 8-26z" fill="#858588"/>
<path transform="translate(1467,242)" d="m0 0h25l13 2 5 4 4 8 1 5v8h-10l-3-12-4-4h-26l-4 2-2 5v14l3 5 12 4 20 5 9 6 4 6 1 5v16l-3 7-6 7-11 3h-21l-10-2-5-4-4-7-1-6v-9l2-1h6l2 2 3 13 6 4h24l5-3 2-4v-16l-5-5-12-4-18-4-10-6-5-8-1-6v-10l3-11 5-6z" fill="#868689"/>
<path transform="translate(1904,242)" d="m0 0h28l7 2 6 7 4 11v6l-1 1h-10l-1-12-1-3-2-1h-29l-4 4-2 5v10l2 5 3 3 19 5 11 3 9 5 4 6 2 7v15l-5 10-7 5-4 1h-31l-6-3-5-6-2-5v-13l1-1 7 1 3 12 2 4 7 3h22l6-4 2-6v-12l-3-6-6-3-26-6-8-4-7-8-1-6v-14l3-9 5-6z" fill="#858589"/>
<path transform="translate(1382,242)" d="m0 0h51v9l-2 1h-38v32h36v10h-36v35h40v8l-3 1h-47l-1-1z" fill="#858689"/>
<path transform="translate(1817,242)" d="m0 0h51l-1 8-8 1h-32v33h35l1 1v8h-36v37h40v7h-50l-1-40v-54z" fill="#86868A"/>
<path transform="translate(1645,242)" d="m0 0h53v6l-3 3h-22v87h-10v-87h-17l-7-1-1-7z" fill="#848488"/>
<path transform="translate(1162,252)" d="m0 0h31l4 4 1 10v18l-6 6h-29l-1-5z" fill="#FCFCFC"/>
<path transform="translate(1243,294)" d="m0 0h32l5 4 2 3v20l-3 6-4 2h-32z" fill="#FBFBFB"/>
<path transform="translate(1314,242)" d="m0 0h11v88h42v7h-52l-1-27z" fill="#868689"/>
<path transform="translate(1748,242)" d="m0 0h11v88h41v6l-6 1h-45l-1-27z" fill="#87878B"/>
<path transform="translate(1243,252)" d="m0 0h33l3 4 1 7v15l-3 4h-3v2h-30l-1-1z" fill="#FBFBFB"/>
<path transform="translate(1713,242)" d="m0 0h10v94l-1 1h-9z" fill="#87878B"/>
<path transform="translate(1097,255)" d="m0 0 2 2 5 15 6 21 3 8v4h-30l1-8z" fill="#F8F9F9"/>
<path transform="translate(1578,242)" d="m0 0h6v95h-6z" fill="#828286"/>
<path transform="translate(1033,257)" d="m0 0h1l1 14v65l-2 1v-75h-2z" fill="#B9BAB9"/>
<path transform="translate(1398,249)" d="m0 0h35v2l-2 1h-38l1-2z" fill="#B5B6B5"/>
<path transform="translate(1247,249)" d="m0 0h24l4 2v1h-32v-2z" fill="#B5B6B5"/>
<path transform="translate(1164,249)" d="m0 0h25l4 3h-31v-2z" fill="#B2B4B3"/>
</svg>
