<?xml version="1.0" encoding="UTF-8"?>
<svg version="1.1" viewBox="0 0 900 900" width="225" height="225" xmlns="http://www.w3.org/2000/svg">
<path transform="translate(0)" d="m0 0h900v900h-900z" fill="#FDFCFC"/>
<path transform="translate(600,189)" d="m0 0h18l21 3 17 5 18 8 14 9 13 10 12 12 12 16 9 16 7 16 5 16 4 18 3 21v24l-4 9-7 8-6 4-7 1-189 2h-25l5 13 10 17 12 13 10 8 17 9 13 4 11 2h28l22-5 16-7 11-6 13-8 6-2h7l9 3 8 6 4 5 3 12-2 9-6 9-5 6-11 9-15 9-16 7-20 6-18 3-12 1h-18l-20-2-26-7-13-5-14-7-12-8-11-9-14-14-9-12-9-15-7-16-6-19-4-22-1-8v-39l1-17v-22l-5-12-5-6v-2l-4-2-11-7-11-4h-14l-12 4-8 7-7 14-3 15-1 13v148l-1 22-2 9-6 11-7 6-9 4-4 1h-9l-9-3-6-5-5-8-3-9-1-28v-52l1-25v-78l-1-12-5-15-4-5v-2l-4-2-13-6-11-2h-9l-10 3-10 6-7 8-4 10-1 5-1 17-1 44v128l-2 9-5 10-8 7-5 2h-16l-8-3-9-8-5-10v-166l4-40 4-18 5-13 8-15 12-14 15-11 14-7 17-5 6-1h20l21 4 18 8 10 6 11 9 6 7 7-6 11-10 14-9 11-5 15-4h23l19 5 16 8 12 9 10 8 7 8 4 5 4-1 7-7 13-10 13-8 12-7 20-8 17-5z" fill="#F13336"/>
<path transform="translate(377,537)" d="m0 0 18 1 12 3 12 5 9 6 10 9 9 14 5 13 1 7-1 16-4 14-6 10-9 10-11 8-15 7-20 4-18-1-15-4-14-7-9-7-9-10-7-12-4-14v-18l4-13 6-11 11-12 11-8 16-7 9-2z" fill="#78767B"/>
<path transform="translate(591,250)" d="m0 0h26l15 4 11 4 15 9 13 11 10 13 9 17 6 18v5h-182l-1-5 9-24 8-14 8-10 10-10 15-9 13-6z" fill="#FDFCFC"/>
<path transform="translate(160,540)" d="m0 0h35l11 28 13 30 10 23h2l29-67 6-14h34v109l-1 12h-23l-1-84-14 33-13 30-8 19-3 2h-16l-6-13-11-26-13-30-6-14-1 82-1 1h-22l-1-1z" fill="#78767B"/>
<path transform="translate(465,539)" d="m0 0h25l23 2 10 3 8 5 6 7 4 9 1 4v12l-4 8-4 4 2 4 7 7 5 10 1 5v8l-3 12-4 6-6 7-14 7-10 2h-48v-121z" fill="#79767B"/>
<path transform="translate(175,339)" d="m0 0 4 1 10 10 10 3 4 8 3 7 1 8 2 1 1 2h6l-1-7 1-2h2v-8l2-7 1-2h5l1 7 2 70v48l-2 9-5 10-8 7-5 2h-16l-8-3-9-8-5-10v-13l1-3v-112l1-16z" fill="#F13134"/>
<path transform="translate(227,216)" d="m0 0 2 1 1 8 1 3v5l2 7 3 2v6l4 3 1 5-1 2 10 1 4-2 4 1-14 7-7 7-4 8-2 9-1 17-1 44v80h-1l-2-77h-5l-3 17h-2v9l-6 1-3-4-3-11-5-10v-2l-7-1-5-3-8-7v-2l-5 1-1 16v112h-1l-1-59v-91l4-40 4-18 5-13 1 3-2 7 1-2 6 1 1-2 5 1v2l3-3h4v-2l9 2 3-1v-2l4-2 2-6 2-7-1-4 2-5 1-9z" fill="#FA6863"/>
<path transform="translate(704,539)" d="m0 0h44l7 1v21h-49l1 28h35l13 1v20l-3 1h-46v28h49v22h-74v-121z" fill="#7A767B"/>
<path transform="translate(376,560)" d="m0 0h12l12 3 12 7 8 8 6 12 1 4v12l-3 10-5 8-7 7-10 6-8 3-6 1h-12l-12-3-10-5-9-8-7-14-1-6v-10l3-10 5-8 4-5 10-7 11-4z" fill="#FDFCFC"/>
<path transform="translate(609,539)" d="m0 0h15l4 2v98h43v22h-68l-1-1v-120z" fill="#7E767B"/>
<path transform="translate(561,539)" d="m0 0h12l12 1v121h-25v-121z" fill="#76767B"/>
<path transform="translate(225,257)" d="m0 0 3 1v2h2v5l3 6 10-8 3 1-8 7-5 9-2 9-1 17-1 44v80h-1l-2-82-1-9-3-2-1 4h-4v-2l-3 1-3-2v-6h-2v-3l-6-2-2-11 1-2-4-2-7-1v-5l-2 1v-2l-4 1 1-7-2-5 2-13v-3l5-1v5l1 3 3-1-1-3 3-3 2-1 7-1 3-1v-2l8-4 3-2h3l2-4v-3z" fill="#FA797B"/>
<path transform="translate(598,703)" d="m0 0h5l1 5-3 15-4 8-7 6h-30l-3-1-2-3h-3l-4 4-45 1-19 1-13 2 1 2 56 1v12h-51l-10-2-5-5-1-6 3-6 10-6 13-3 8-1 56-1 1-11 1-3 7-1 1 1v10l3 4h8l3-12 2-3h7l-1 13 1 2h6l3-7 2-14z" fill="#F23C3E"/>
<path transform="translate(412,699)" d="m0 0 6 1 4 6 1 3v7l-3 6-5 6-6 2v2l-4 1-1 6 5-2v-2l7-5h2v-2l20-2 4-6 2-15 1-1h8l-1 11-3 10-3 7-5 4-18 2-10 5-7 7-7 6h-5l-1-3 3-17-2 1h-11l-7-2-5 1-3 1h-15l-5 9-7 6-12 4-3-1 2-10 1-1 10-2 5-4 2-4v-16l-1-6h7l3 5 3 8 8 2 4-2 3-8 1-5 2-1h6v10l1 5h14l3-15 4-6 6-5z" fill="#F23C3E"/>
<path transform="translate(624,704)" d="m0 0h7l-1 5-1 9 3 5 5 2 7 1h19l4-4 3-10 7-1 1 5v10h27l2-13 2-2h5l1 1 1 14h9l4-9 1-5 7-1v13l1 2h6l3-6 3-15 1-1h7l-1 11-3 12-4 6-3 3-5 1h-8l-3-1v-2h-3v2l-3 1h-8l-6-2-2-2h-3l-2 3-8 1h-20l-4-1-1-2-4 2-4 1h-26l-8-2-7-8-2-6v-9l3-7z" fill="#F23C3F"/>
<path transform="translate(489,608)" d="m0 0h19l10 3 5 6 1 3v8l-3 6-5 4-13 2h-13l-1-1z" fill="#FDFCFC"/>
<path transform="translate(491,561)" d="m0 0 15 1 8 4 2 3v9l-3 5-3 3-11 2h-9l-1-1v-25z" fill="#FDFCFC"/>
<path transform="translate(372,693)" d="m0 0 8 1 7-1 1 1v6l-2 2h-15l-1-3z" fill="#FA7575"/>
<path transform="translate(412,709)" d="m0 0 3 1v7l-4 5-5 1v-6l2-5h2v-2z" fill="#FDFCFC"/>
<path transform="translate(263,255)" d="m0 0h12l13 3 10 5 5 5 2 6-5-5v-2l-4-2-13-6-11-2-9-1z" fill="#FA7475"/>
<path transform="translate(644,742)" d="m0 0h7v8l-6 1-1-1z" fill="#F44547"/>
<path transform="translate(412,728)" d="m0 0 6 1-5 4-4 2v2l-5 2v-6l5-1v-2z" fill="#FA7575"/>
<path transform="translate(436,742)" d="m0 0h5l2 6-2 2h-6l-1-3z" fill="#F44D4E"/>
<path transform="translate(383,694)" d="m0 0h5v6l-2 2-5-1z" fill="#F23F41"/>
<path transform="translate(372,693)" d="m0 0h4l1 4-3 4h-4z" fill="#F34244"/>
<path transform="translate(293,261)" d="m0 0 5 2 5 5 2 6-5-5v-2l-4-2-3-3z" fill="#FA706F"/>
<path transform="translate(409,731)" d="m0 0v3l-3 5h-2v-6z" fill="#FDFCFC"/>
</svg>
