<?xml version="1.0" encoding="UTF-8"?>
<svg version="1.1" viewBox="0 0 2048 1187" width="295" height="171" xmlns="http://www.w3.org/2000/svg">
<path transform="translate(0)" d="m0 0h2048v1187h-2048z" fill="#FDFDFD"/>
<path transform="translate(1056,404)" d="m0 0h360l-6 7-6 5-7 8-13 15-10 11-9 11-10 13-12 17-11 18-10 17-6 12-2 1-367 1-19 1-10 3-8 6-5 6-3 8v21l3 7 7 8 5 4 11 3 16 2 245 1 65 1 21 1 42 6 20 6 27 11 12 7 12 9 10 9 10 11 13 24 5 14 4 19 1 8v27l-2 21-5 25-4 12-9 19-9 13-11 12-10 10-15 11-23 12-20 8-21 6-25 6-16 2-27 1-106 1-353-1-42-1 2-4 12-13 9-11 8-9 27-36 12-17 16-23 11-16 2-2h370l38-1 13-3 10-6 5-5 4-6 3-10v-16l-4-11-6-8-12-6-4-1-54-1-267-1-22-1-21-3-37-9-12-4-25-12-12-8-14-11-8-8-10-15-8-17-7-22-3-13-1-12v-38l3-16 6-18 7-16 10-17 9-11 13-13 10-7 16-9 19-9 36-12 21-4 26-3 14-1z" fill="#6A7070"/>
<path transform="translate(117,394)" d="m0 0 20 1 16 4 15 8 17 12 17 14 13 10 13 11 11 9 12 11 8 7 10 9 7 7 8 7 7 7 8 7 42 42 8 7 7 7 8 7 10 9 15 15 8 7 24 24 8 7 11 11 8 7 22 22 8 7 14 12 16 13 16 12 14 9 9 6 23 11 31 12 48 12 55 6 31 2h46l1 3-5 12-11 17-10 14-10 13-11 14-13 16-12 13-16 16-13 10-14 7-20 5-10 1h-18l-22-3-25-5-23-8-25-11-21-10-24-14-26-16-15-10-17-12-17-13-14-11-26-22-12-11-14-12-13-12-8-7-12-11-17-16-22-22-5-4-7-8-58-58-6-3-2 22-1 23-1 249h-146l-1-54v-368l3-30 5-22 5-12 8-12 7-8 12-9 10-6 15-4z" fill="#801413"/>
<path transform="translate(1049,40)" d="m0 0 10 2 52 15 8 3 1 19 5 46 1 5 25 13 14 9 23 13 9 2 12-4 17-9 23-14 4-2 16 8 14 12 17 16 10 9 5 4-11 24-9 20-8 13-2 3 1 6 12 15 13 18 18 27 2 2 7 1h26l38-1 5 12 14 44v3l-81 1h-99l-4-14-8-15-12-17-11-14-9-11-19-19-8-7-10-9-17-12-19-12-18-10-15-8-25-10-22-7-26-5-26-3h-53l-28 3-26 5-25 7-28 11-23 12-19 12-12 9-14 11-11 10-8 7-17 17-9 11-10 12-14 20-13 21-1 3-96 2h-66l-8-1 1-6 15-41 4-9 21-1 50-1 4-4 15-26 11-18 9-11 3-5v-8l-15-31-10-23-3-6 1-3 8-6 10-9 8-7 10-9 13-10 4-3 6 1 29 14 29 15 7-1 11-6 13-9 15-7 21-9 9-4 2-39 1-32 19-5 52-13 12 16 9 13 12 17 6 8 9 3 6 1 22 1h46l2-1v-7l7-5 11-16 10-17 4-5 7-7 4-1z" fill="#C4C8C8"/>
<path transform="translate(1465,405)" d="m0 0 8 1 25 9 36 16 21 11 19 14 13 11 10 9 9 11 4 9 1 4v421l-144-1-1-8-1-149-1-222-1-2h-97l-4-1 1-5 10-18 15-22 7-10 8-11 8-9 8-10 12-14 16-17 10-10z" fill="#801413"/>
<path transform="translate(1808,400)" d="m0 0h28l24 2 23 4 21 6 8 2 21 9 23 13 12 11 12 12 7 10 8 17 1 5 1 430-88 1h-52l-6-1-1-27-1-173-1-221-3-19-8-16-6-9-12-14-7-7-20-15-23-11-4-4 19-3z" fill="#801413"/>
<path transform="translate(1603,401)" d="m0 0h59l27 4 22 7 8 2 28 13 14 8 12 9 12 12 10 14 6 12 2 6 1 7 1 19v317l-1 91-133-1-11-1-1-77-1-217-1-126-5-18-6-14-10-14-11-12-15-14-19-12-17-9v-3l16-2z" fill="#801413"/>
<path transform="translate(506,402)" d="m0 0h124l21 1v336l-7-1-27-9-25-11-16-8-19-10-18-13-10-9-13-13-8-10-2-6-1-50v-186z" fill="#801413"/>
<path transform="translate(338,996)" d="m0 0 69 1 21 1 5 2 5 5 9 8 5 8 2 9v24l-3 10-7 7-1 6 8 14 2 7v24l-3 12-7 13-7 7-8 4-6 1-21 1h-16l-47-1z" fill="#201E20"/>
<path transform="translate(234,998)" d="m0 0h40l11 3 11 6 8 8 4 10 2 18v69l-2 19-4 11-7 8-7 5-10 3-8 1h-30l-18-2-10-3-8-7-7-14-3-16v-67l1-18 3-12 6-8 9-7 10-5z" fill="#201E20"/>
<path transform="translate(1579,994)" d="m0 0 9 1 6 3 6 12 2 9v132l-1 9h-21l-1-74-1-55h-2l-2 9-12 43-10 35-11 32-6 8-7 4h-7l-9-3-6-7-6-16-13-44-14-45-5-15-1-2v117l-2 12-2 1h-16l-3-1-1-18v-83l1-42 3-11 3-5 8-4 11-1 9 3 6 7 5 10 7 23 15 54 7 23 5 9 5-10 12-41 9-30 11-32 8-13 5-3z" fill="#1F1E20"/>
<path transform="translate(71,996)" d="m0 0h10l8 4 7 10 10 21 12 31 18 45 7 15v2h2v-126l6-1 16 1 2 1v141l-3 11-4 7-3 3-6 1-16-4-6-7-8-17-15-37-24-57-4-3 1 16v74l-1 32-6 1h-17v-144l4-11 6-7z" fill="#1F1E1F"/>
<path transform="translate(665,997)" d="m0 0h36v24l-1 1-53 1-19 1-6 2-3 6-1 9v19l2 5 80 1v24l-82 1v25l1 9 6 8 3 2 72 1v23h-73l-7-2-5-3-7-4-7-8-3-8-2-12v-86l2-12 5-10 6-7 10-6 12-3z" fill="#1E1D1F"/>
<path transform="translate(1040,998)" d="m0 0h70l-1 15-1 8-1 1-62 1-15 2-2 5-1 15v18l3 2 78 1v24l-80 1v32l3 7 4 1 4 4 3 1 66 1v22h-71l-10-2-10-6-6-8-4-11-1-7v-92l3-16 4-6 12-9 8-3z" fill="#201E20"/>
<path transform="translate(1233,997)" d="m0 0h5v21l-1 4-62 1-12 1-4 2-1 3-2 37h81v24h-79l-1 1v33l5 8v2l6 2 70 1v19l-1 2-24 1h-33l-18-1-9-3-10-8-4-6-3-9-2-12v-74l2-21 4-10 6-7 14-8 4-2z" fill="#1E1D1F"/>
<path transform="translate(819,997)" d="m0 0h67v24l-1 1-67 1-9 1-1 9v25l3 7 3 2 42 1 13 4 9 6 6 10 2 8v33l-5 13-9 11-5 3-8 2-13 1h-61l-1-23 71-1 7-1 1-9v-27l-1-7-49-3-11-4-6-4-5-6-5-9-2-9v-25l4-14 5-8 10-7 5-4z" fill="#1F1D1F"/>
<path transform="translate(1938,998)" d="m0 0h74l1 1v17l-1 5-3 1-69 1-3 1-1 2v35l1 3 6 2 40 2 13 4 7 5 5 7 2 6 1 8v23l-1 11-3 11-5 8-9 6-6 1-16 1h-58l-1-1v-21l71-1 3-3 3-12v-16l-1-14-5-1-35-1-13-2-12-6-7-9-4-13v-31l3-12 7-9 9-7z" fill="#1F1D1F"/>
<path transform="translate(240,1022)" d="m0 0h35l9 2 3 5 1 7 1 43v32l-2 16-3 7-5 2-26 1-18-1-11-3-4-5-2-9v-80l1-9 4-4 9-3z" fill="#FCFCFC"/>
<path transform="translate(481,996)" d="m0 0 14 1 7 3 1 124 3 9 3 2 55 1 18 1-1 17-1 5h-57l-15-1-11-3-9-8-6-10-3-12-1-12v-31l1-84z" fill="#1F1E1F"/>
<path transform="translate(1280,996)" d="m0 0h6v65l1 65 2 6 3 3 4 1 70 1-2 21-3 1h-65l-11-2-10-6-7-8-4-11-1-9v-124l6-2z" fill="#1F1E20"/>
<path transform="translate(900,997)" d="m0 0h90v23l-1 1-24 1-11 1-1 136-8 1h-11l-2-5-1-133h-30l-2-1v-23z" fill="#201E20"/>
<path transform="translate(1799,997)" d="m0 0h22l2 128 2 7 4 3 7 1 65 1-1 22h-59l-11-1-15-5-6-4-6-8-2-5-2-16z" fill="#201F21"/>
<path transform="translate(1682,997)" d="m0 0h23v66l1 53 2 14 2 4 3 1 70 1 1 5-1 17-1 1h-53l-19-1-11-3-8-7-6-9-2-16z" fill="#1F1E20"/>
<path transform="translate(1632,997)" d="m0 0h20l1 1v161l-1 1h-15l-5-1-1-3-1-101v-57z" fill="#1E1C1E"/>
<path transform="translate(361,1022)" d="m0 0h21l34 1 12 1 2 3 1 5v24l-4 6-6 4-6 1h-53l-2-7v-37z" fill="#FCFCFC"/>
<path transform="translate(361,1091)" d="m0 0h49l11 1 6 3 4 7 1 4v9l-3 10-9 11h-58l-1-1-1-10v-28z" fill="#FCFCFC"/>
<path transform="translate(2e3 1082)" d="m0 0 3 2 2 6 1 8v23l-1 11-3 11-5 8-9 6-6 1-16 1h-58l-1-1v-21l71-1 3-3 1-3h2v-2l4-1 2-10 2-15 3-12 2-5h2z" fill="#121010"/>
<path transform="translate(875,1120)" d="m0 0 3 4-7 20-5 4-6 2-7 1-33 1-18 1v1l12 1 33 2-1 2h-61l-1-23 71-1 7-1v-2l6 1 3-1 1-6z" fill="#110F0F"/>
<path transform="translate(819,997)" d="m0 0h67v24h-59l-1-2 3-3-6-3 1-5h2l-1-2-9-3h-7l-4 1 3-6z" fill="#121010"/>
<path transform="translate(1154,1094)" d="m0 0h1l1 23 2 9 4 6v2l6 2 70 1v19l-1 2h-13v-1l11-1-1-5-14-1-18 1h-30l-7-1-3-3v-8l-6-8-3-6-2-15 2-14z" fill="#100E0E"/>
<path transform="translate(1832,1137)" d="m0 0h69l-1 21-4-4-6-1h-63l-4-2 3-7 8-5z" fill="#0E0C0C"/>
<path transform="translate(1040,998)" d="m0 0h70l-1 15-1 8h-46l3-2 9-1 13-1 1-1-15-5-12-6-10-2h-16l-6 1v-4z" fill="#0F0D0D"/>
<path transform="translate(951,1036)" d="m0 0h1l1 123-8 1h-11l-1-1v-55h1l2 15v13l4-1 3-10h2l2-7 1-10 2-56z" fill="#0F0D0D"/>
<path transform="translate(689,997)" d="m0 0h12v24l-1 1-44-1 1-2 3-1h8l-1-3-8-4 2-5 9-3 16-1 3-2-17-1v-1z" fill="#0F0D0D"/>
<path transform="translate(639,1137)" d="m0 0h61v22l-6-1v-2h2l-1-3-10-2h-15l-18-1-7-2v-3l3-5-1-1-8-1z" fill="#100E0E"/>
<path transform="translate(1938,998)" d="m0 0h74l1 1v17l-1 5h-51v-1l14-2 19-1 2-1v-3l-5-2-1-3-7-5-9-1-26-1h-12z" fill="#131112"/>
<path transform="translate(2e3 1135)" d="m0 0 2 2 1 6-5 8-9 6-6 1-16 1h-53l4-1v-2l-5-1-1-3 51-1 18-1 10-4 4-3h2l2-6z" fill="#242324"/>
<path transform="translate(1098,1137)" d="m0 0h10v21h-30v-1l22-1 3-1 1-3-7-1-18-1-13-2-10-6v-2l-5-1v-1z" fill="#0E0C0C"/>
<path transform="translate(1466,912)" d="m0 0h1v8h131v1l-51 1-3 1 20 2v1l-13 1h-26l-53-1-6-4z" fill="#C4C8C8"/>
<path transform="translate(1804,831)" d="m0 0h1v92h-51l-51 1-17 1h-22l-5-1v-81h1v77l137 1 7 1z" fill="#C4C8C8"/>
<path transform="translate(1233,997)" d="m0 0h5v21l-1 4-42-1 1-2 10-1 16-1-2-5-1-4 4-6 2-2h-31l-4-2z" fill="#111010"/>
<path transform="translate(840,1069)" d="m0 0h16l5 6 4 2 1 7-9-2h-15l-21-1-11-5 4-1h9l15-3 2-2z" fill="#0E0C0C"/>
<path transform="translate(1321,1143)" d="m0 0h39l-3 7-9 1h-25l-11-1-1-2 3-4z" fill="#0E0C0C"/>
<path transform="translate(967,998)" d="m0 0h23v22l-1 1h-30v-1l23-3-7-5v-7l4-4 4-1-16-1z" fill="#0F0D0D"/>
<path transform="translate(1054,1067)" d="m0 0h54v22h-22v-1l16-2-3-6-4-6-3-2v-2l-16-1-22-1z" fill="#0E0C0C"/>
<path transform="translate(900,997)" d="m0 0h13l6 1v1l-8 1-1 10v3l-5 4 4 2v2h-10v-23z" fill="#151313"/>
<path transform="translate(803 1e3)" d="m0 0 5 3 1 4-7 9-5 3-4-1v-2l-4-2 1-6 5-5 5-1z" fill="#0F0D0E"/>
<path transform="translate(1800,997)" d="m0 0h15l5 1v6l-6-2-9 1-3 6-1 82h-1z" fill="#0E0C0C"/>
<path transform="translate(340,1097)" d="m0 0 2 4 1 17 1 28-5 2v-49z" fill="#0E0C0C"/>
<path transform="translate(1176,1067)" d="m0 0h61v23l-22-1v-1l18-2 1-1v-12l-2-1v-2l-13-1-43-1z" fill="#0E0C0C"/>
<path transform="translate(1361,536)" d="m0 0 1 2h98l-3 2-76 1-7 1h-8l-6-2z" fill="#C4C8C8"/>
<path transform="translate(1269,997)" d="m0 0h13l-4 4-10 4-2 5-1 41h-1l-1-52z" fill="#121010"/>
<path transform="translate(884,1098)" d="m0 0h1l1 18v13l-3 3-3-9v-14l2-9z" fill="#161515"/>
<path transform="translate(1781,1141)" d="m0 0h1v16h-1l-1-7-16-1-6-1v-4l22-2z" fill="#0E0C0C"/>
<path transform="translate(1144,1010)" d="m0 0 8 2 2 5-3 9-5 2-2-2-1-13z" fill="#0E0C0C"/>
<path transform="translate(855,1135)" d="m0 0h5v5l-2 2-8-1-3-2 2-1-59-1v-1z" fill="#424445"/>
<path transform="translate(1919,1010)" d="m0 0 6 2v6l-4 6-5 2-2-1 1-9z" fill="#111010"/>
<path transform="translate(1581,1117)" d="m0 0 2 3 2 10 1 15-2 3h-2l-1 2z" fill="#0E0C0C"/>
<path transform="translate(673,1067)" d="m0 0h26v23l-5-1 2-5-1-14-6-1-16-1z" fill="#0E0C0C"/>
<path transform="translate(1154,1037)" d="m0 0 2 1v13l-1 14-2-4-2-7v-14z" fill="#0E0C0C"/>
<path transform="translate(580,1142)" d="m0 0h1v12h-2l-2-5-12-1-2-4 15-1z" fill="#121111"/>
<path transform="translate(308,1096)" d="m0 0h1v16l-1 12-2-4v-17z" fill="#0E0C0C"/>
<path transform="translate(307,1031)" d="m0 0h2v28l-2-1-1-10z" fill="#161415"/>
<path transform="translate(1181,1137)" d="m0 0h21v1l-10 1 2 2h-16z" fill="#1C1A1C"/>
<path transform="translate(1167,1138)" d="m0 0h8l2 1v3l-2 1h-7z" fill="#1C1A1C"/>
<path transform="translate(1164,998)" d="m0 0h18l1 2-21 1z" fill="#141313"/>
<path transform="translate(286,1013)" d="m0 0 4 1 2 3-1 5-4-2z" fill="#0E0C0C"/>
<path transform="translate(1571,403)" d="m0 0h9v1h-6l1 4-9-3v-1z" fill="#C4C8C8"/>
<path transform="translate(1166,1136)" d="m0 0 15 1 1 2-5 2v-2l-10-1z" fill="#0F0D0D"/>
</svg>
