<?xml version="1.0" encoding="UTF-8"?>
<svg version="1.1" viewBox="0 0 2048 1126" width="300" height="165" xmlns="http://www.w3.org/2000/svg">
<path transform="translate(214,1)" d="m0 0 5 1 5 5 7 9 9 14 29 43 10 16 18 27 12 19 14 24 15 27 17 33 19 38 13 28 16 35 21 49 14 34 13 34 18 49 15 41 15 43 9 27 10 37 5 23 4 31 1 14v31l-3 27-5 22-7 19-8 16-7 12-11 13-11 11-10 7-15 8-16 5-16 3h-18l-17-3-21-7-23-10-10-6-3-3 1-12 11-68 2-12 3-1 25 12 16 5 8 1 9-2 9-6 6-8 5-11 3-17v-29l-3-34-6-42-9-40-13-45-12-36-13-37-17-44-20-48-18-41-14-30-12-25-14-29-18-35-17-32-2-2 11 29 16 44 10 32 18 63 10 40 7 34 5 28 5 33 5 48 4 58 1 22v35l-3 69-3 38-6 47-8 46-12 55-12 42-12 36-12 32-4 6h-175l-2-2 17-26 11-19 13-24 11-24 12-30 9-26 12-38 11-41 10-42 9-42 1-6-11-8-19-13-13-10-18-13-13-10-15-11-16-12-14-11-34-28-13-11-10-8-11-9-8-8 1-22v-40l-2 3v-27h1l1-8-2-8v-5l6 2 20 14 126 91 19 14 18 13 14 10 11 8 1-25v-82l-3-45-5-44-8-49-7-35-7-30-12-44-13-41-9-26-14-37-15-36-11-25-9-20-15-33-5-12v-3h54z" fill="#DB212F"/>
<path transform="translate(1667,465)" d="m0 0h134l8 4 8 8 3 6 1 13v313l-1 24-3 7-7 8-6 4-10 1h-122l-9-2-10-9-4-8-1-7v-339l4-11 9-9zm106 30-88 1v326h99v-326l-4-1z" fill="#7D7F7F"/>
<path transform="translate(2018,464)" d="m0 0 30 1v388l-19 1-3-3-12-29-33-88-21-55-19-50-18-48-3-7-1 2v277h-34l-1-1v-383l1-4h27l5 10 11 30 22 58 19 51 15 40 17 44 10 26 6 13 1 2-1-37v-234z" fill="#7D7F7F"/>
<path transform="translate(1422,465)" d="m0 0h147l9 5 7 9 2 4 1 8v147l-1 10-5 9-7 6-8 3-6 1-16 1h-14l-5-1 8 20 16 42 17 46 26 70 2 5v3h-38l-8-20-15-42-15-41-21-58-15-42-1-10 1-1 15-1 52-1v-141h-91v357h-36l-1-1z" fill="#7D7F7F"/>
<path transform="translate(1044,463)" d="m0 0h35l2 1v170l5-8 11-23 15-30 11-23 17-35 20-41 5-10 1-1h40v4l-11 21-11 23-31 62-11 23-27 54 1 7 23 46 10 19 64 128 2 6-8 1h-31l-4-5-12-23-78-156-2-2 1 184-1 1h-36l-1-5v-387z" fill="#7D7F7F"/>
<path transform="translate(651,463)" d="m0 0h88l15 1 9 6 6 7 2 5v197l-3 8-7 8-8 4-5 1-24 1h-73l-5-1v156h-37l-1-1v-391zm-5 31v175h88l1-1v-174z" fill="#7D7F7F"/>
<path transform="translate(885,462)" d="m0 0h36l3 7 20 110 17 92 8 43 12 65 13 70v6l-1 1-34 1-3-7-11-69-2-11-81-1-2 17-10 64-2 6-8 1-27-1-1-3 9-47 21-114 19-101 12-65 11-60zm17 70-8 44-13 77-14 84 1 1h70v-7l-22-129-6-36-4-28-2-6z" fill="#7D7F7F"/>
<path transform="translate(1319,465)" d="m0 0h33l4 1v386l-1 1h-36l-1-1v-360z" fill="#7E8080"/>
<path transform="translate(1658,902)" d="m0 0 4 2 4 6 11 23 18 34 12 24 1 3h2l2-5 22-44 12-22 8-16 3-4h3l2 9 6 46 5 35 3 20-1 5h-7l-4-2-4-23-6-49-1-4h-2l-11 21-9 19-11 20-7 14-2 3-4-1-6-9-24-47-8-15-3-7-2 7-10 68-3 5h-8l-2-1 1-14 7-48 8-50z" fill="#DA2230"/>
<path transform="translate(1506,899)" d="m0 0h21l16 4 16 8 9 8 1 6-4 4-7-1-13-8-14-6-11-2h-10l-12 2-14 7-10 9-6 9-4 13v16l3 10 6 10 8 8 10 6 10 4 18 2 14-2 12-5 7-6h2l2-4 4-6 2-9-1-1-34-1-2-1v-9l2-2 36-1 15 1v10l-3 13-8 14-9 9-11 7-12 4-16 2-16-1-13-3-14-7-10-9-8-10-7-15-2-10v-13l4-16 6-11 9-10 10-8 13-6z" fill="#DA2230"/>
<path transform="translate(1045,899)" d="m0 0h16l16 4 12 6 12 11 7 10 5 11 2 7v22l-3 12-6 11-11 12-11 8-10 4-15 3h-17l-14-3-14-7-12-11-7-10-5-12-2-9v-15l3-13 7-14 8-10 10-8 13-6zm-3 12-11 3-10 6-9 9-7 12-3 10-1 13 2 12 6 11 9 10 9 6 10 4 4 1h21l13-4 10-7 7-6 7-12 3-13v-15l-4-12-6-10-9-8-10-6-9-3-5-1z" fill="#DA222F"/>
<path transform="translate(1332,902)" d="m0 0 4 2 16 17 14 15 16 17 11 12 12 14 7 8 1 1v-84l1-2h11l1 1 1 114-2 1-8-6-14-15-33-36-7-8-9-10-9-11-1 85-1 1h-10l-2-3v-112z" fill="#D92330"/>
<path transform="translate(893,902)" d="m0 0h41l15 2 8 4 8 9 3 8 1 13-3 10-6 7-8 5-13 3-9 2 10 14 13 15 11 14 6 9v1h-11l-7-4-12-14-11-14-10-12-6-8-8-4v55l-2 1h-8l-2-1-1-11v-102zm13 11-1 3v34l1 2 3 1h15l15-1 10-4 6-7 1-7-2-9-4-6-4-3-7-2-12-1z" fill="#DA222F"/>
<path transform="translate(608,902)" d="m0 0h40l16 2 8 4 7 7 4 8 1 3v15l-5 10-9 8-13 4-12 1 9 13 13 16 18 22-1 3h-8l-7-3-7-7-9-11-10-12-10-13-8-9-3-1-1 55-10 1-3-3zm16 11-3 2v34l2 3 3 1h19l13-2 8-5 3-3 2-5v-9l-4-8-6-5-8-2-15-1z" fill="#DB212F"/>
<path transform="translate(710,902)" d="m0 0h68l1 2v7l-1 2h-57v36h57l1 6-1 6h-57v44h56l2 4-1 8-66 1-2-1-1-3v-111z" fill="#DB212F"/>
<path transform="translate(2009,899)" d="m0 0h14l12 5 10 9 3 3-1 5-3 3-7 1-8-8-10-5h-9l-6 4-4 8 1 6 6 9 10 8 11 8 10 9 10 10v30l-5 5-7 6-11 5-4 1h-9l-10-2-10-6-8-9-3-5v-5l5-5 5 2 9 11 8 5 9 1 9-3 7-6 3-6-1-9-6-9-10-9-14-10-9-8-7-10-2-6v-11l4-10 7-7 8-4z" fill="#DA222F"/>
<path transform="translate(1914,902)" d="m0 0h13l1 3-1 101 47-1v8l-1 4-34 1h-22l-3-2z" fill="#DB212F"/>
<path transform="translate(1138,902)" d="m0 0h13l1 1v102l45 1 1 1v9l-1 1h-58l-1-5z" fill="#DB212F"/>
<path transform="translate(1838,902)" d="m0 0h12v103l46 1v10l-1 1-49 1-8-1-1-4v-61z" fill="#DB212F"/>
<path transform="translate(1216,902)" d="m0 0h12l1 4v99h45l2 3v8l-1 1h-58l-1-1z" fill="#DB212F"/>
<path transform="translate(1798,902)" d="m0 0h12l1 1v113l-1 1h-12l-1-18v-96z" fill="#D82431"/>
<path transform="translate(1291,902)" d="m0 0h13v115l-11 1-2-3z" fill="#DB212F"/>
<path transform="translate(1480,1057)" d="m0 0h5l2 2 1 67-5-1-9-10-7-8-16-17-9-10-4-3 1 18-1 31h-7v-68l5 3 8 8 7 8 14 15 8 8 6 7v-49z" fill="#717576"/>
<path transform="translate(1548,1056)" d="m0 0h19l9 3 6 4 5 6v6h-3l-14-9-6-2h-15l-10 5-8 9-3 9v10l3 8 5 7 10 5 3 1h18l8-3 7-6 5 1-1 6-10 9-2 1h-35l-10-9-6-9-4-10v-15l6-12 9-9 9-5z" fill="#717576"/>
<path transform="translate(1622,1057)" d="m0 0h39l2 1v5l-1 1h-33v21h32l2 2-1 5h-33l1 25 24 1 8 1 1 1v6h-41l-1-13v-55z" fill="#7D7F7F"/>
<path transform="translate(1871,1056)" d="m0 0h14l10 5 5 7 1 3v10l-4 10-9 13-14 20-2 2h-8l5-10 12-16-9-2-9-5-6-8-1-3v-9l3-7 6-7zm5 6-6 3-5 5-1 3v8l3 5 7 4 7 1 7-3 4-6v-10l-4-6-5-3z" fill="#717575"/>
<path transform="translate(2019,1056)" d="m0 0h12l7 3 9 7 1 1v19l-7 9-9 13-11 16-2 2h-7l5-10 10-14v-2l-15-6-7-8-1-3v-13l4-6 8-7zm2 6-6 4-4 7v7l3 6 11 5h7l8-9 1-7-5-8-5-4-2-1z" fill="#717576"/>
<path transform="translate(1968,1055)" d="m0 0 2 2v46l6 1 2 2v3l-8 1v16h-8l-1-15-32-1 2-5 6-8 13-19 12-15zm-7 22-10 12-8 14h18l1-10v-16z" fill="#717475"/>
<path transform="translate(1329,1056)" d="m0 0h10l10 4 4 6-1 5-5-1-9-6h-7l-4 3-1 7 4 6 13 9 7 6 4 6 1 3v10l-6 9-3 3h-23l-7-9-1-2v-6l4 1 10 7 8 2 6-2 2-4v-8l-4-6-13-10-6-5-4-7v-10l6-9z" fill="#7D7F7F"/>
<path transform="translate(1804,1057)" d="m0 0h5l2 2v67h-8l-1-60-11-4 1-3z" fill="#7D7F7F"/>
<path transform="translate(812,961)" d="m0 0 48 1 1 9-1 3h-49l-1-1v-9z" fill="#DB212F"/>
<path transform="translate(1431,1058)" d="m0 0 5 3 8 8 7 8 2 3-4-2-4-1h-2l1 4-6-4 1 18-1 31h-7z" fill="#7C7E7E"/>
<path transform="translate(1622,1057)" d="m0 0h39l2 1v5l-1 1h-33l-1 10-2 11 1 1 1 5-1 21h-2l-1 6h-1l-1-18v-16l-1-11v-15z" fill="#727676"/>
<path transform="translate(1968,1055)" d="m0 0 2 2-1 27h-1l-1-12-3-3-3 2-1 5h3v11h-1l-1-9-9 11-8 13 17 1v1l-20 1v3l21 1-1 2-32-1 2-5 6-8 13-19 12-15z" fill="#7D7F7F"/>
<path transform="translate(1388,1057)" d="m0 0h6l1 1 1 50-1 18h-7l-1-7v-61z" fill="#707475"/>
<path transform="translate(1530,1105)" d="m0 0 8 8 8 4 3 1h18l8-3 7-6 5 1-1 6-10 9-2 1h-35l-10-9-4-5 1-2 5 5 2-3-3-5z" fill="#7C7E7E"/>
<path transform="translate(1351,1098)" d="m0 0 3 3 1 3v10l-6 9-3 3h-23l-7-9-1-2v-6l4 1 10 7 8 2 6-2 2-4v-8l-1-3h2l2 3 4-1z" fill="#7D7F7F"/>
<path transform="translate(1871,1056)" d="m0 0h14l10 5 3 4 1 4v9l-1-2-4-1-4-5-5-5-9-2-6 3-7 7-3-2 1-8 7-6z" fill="#717576"/>
<path transform="translate(1628,1070)" d="m0 0h1v15h32l2 2-1 5h-33v5l-2-1v-9l-3-1 2-1z" fill="#7D7F7F"/>
<path transform="translate(1481,1058)" d="m0 0h5v40l-1 9h-4l-1-4v-44z" fill="#707475"/>
<path transform="translate(1480,1057)" d="m0 0h5l-4 2v48h4l1-48h1l1 67-5-1-9-10 1-2 5 2-1-4-3-4 1-2 2 2v-49z" fill="#7D7F7F"/>
<path transform="translate(1860,1065)" d="m0 0 1 2 1 5 3-1v10l2 5 5 2 2 2h-5l-1 4 5 2 1 2-6-2-6-4-5-7-1-3v-9l3-7z" fill="#7D7F7F"/>
<path transform="translate(1582,1109)" d="m0 0 5 1-1 6-10 9-2 1h-13v-2h2l1-3 11-6z" fill="#717576"/>
<path transform="translate(1333,1085)" d="m0 0 9 3 8 7 3 9-2 2-4-1-1-3-4-2-9-7-1-5z" fill="#717576"/>
<path transform="translate(1333,1057)" d="m0 0h10l8 5 2 4-1 5-5-1-9-6-10-1 1-5z" fill="#717576"/>
<path transform="translate(1634,1086)" d="m0 0h24l3 1v4h-26l-2-3z" fill="#707475"/>
<path transform="translate(1623,1086)" d="m0 0 5 1-1 25h-2l-1 6h-1l-1-18v-11z" fill="#707475"/>
<path transform="translate(1387,1090)" d="m0 0h1l1 26 3-5h2l1 6v9h-7l-1-7z" fill="#7C7E7E"/>
<path transform="translate(1898,1066)" d="m0 0 2 2 1 3v10l-2 6-2-1 1-4-2-3-1 2h-2l-2 5-2 1 2-5 1-10 3 3 3 1z" fill="#7C7E7E"/>
<path transform="translate(2,451)" d="m0 0h1v29l-2 5h-1v-27h1z" fill="#7D7F7F"/>
<path transform="translate(1797,1058)" d="m0 0h7v6l-4 1-9-3 1-3z" fill="#737777"/>
<path transform="translate(1436,1086)" d="m0 0h1v18l-1-3h-3v-8h2z" fill="#707475"/>
<path transform="translate(1870,1115)" d="m0 0 1 2-1 4 2 2 2 1-2 2h-8l5-10z" fill="#7D7F7F"/>
<path transform="translate(1638,1123)" d="m0 0h12l3 3h-16z" fill="#707475"/>
<path transform="translate(1969,1110)" d="m0 0h1v16h-5l2-1 1-13z" fill="#7D7F7F"/>
</svg>
