<svg class="svg-icon" style="width: 1em; height: 1em;vertical-align: middle;fill: currentColor;overflow: hidden;" viewBox="0 0 1024 1024" version="1.1" xmlns="http://www.w3.org/2000/svg"><path d="M917.504 340.992c-22.016-52.224-53.76-99.328-94.208-139.776-40.448-40.448-87.552-72.192-139.776-94.208-54.272-23.552-112.128-35.328-171.52-35.328s-117.248 11.776-171.52 34.816c-52.224 22.016-99.328 53.76-139.776 94.208-40.448 40.448-72.192 87.552-94.208 139.776C83.456 395.264 71.68 452.608 71.68 512s11.776 117.248 34.816 171.52c22.016 52.224 53.76 99.328 94.208 139.776 40.448 40.448 87.552 72.192 139.776 94.208 54.272 23.04 112.128 34.816 171.52 34.816s117.248-11.776 171.52-34.816c52.224-22.016 99.328-53.76 139.776-94.208 40.448-40.448 72.192-87.552 94.208-139.776 23.04-54.272 34.816-112.128 34.816-171.52s-11.776-116.736-34.816-171.008z m-135.68 440.832c-72.192 72.192-167.936 111.616-269.824 111.616s-197.632-39.936-269.824-111.616c-71.68-72.192-111.616-167.424-111.616-269.824s39.936-197.632 111.616-269.824S410.112 131.072 512 131.072s197.632 39.936 269.824 111.616c72.192 72.192 111.616 167.936 111.616 269.824 0 101.888-39.424 197.12-111.616 269.312z" fill="#2E77ED" /><path d="M513.024 254.976c-78.336 0-142.336 64-142.336 142.336 0 15.872 12.8 28.16 28.16 28.16 15.872 0 28.16-12.8 28.16-28.16 0-47.104 38.4-85.504 85.504-85.504s85.504 38.4 85.504 85.504c0 6.656-0.512 11.776-1.536 16.384-0.512 1.536-1.024 3.584-1.536 5.12-4.608 16.896-15.872 32.256-31.232 42.496-76.288 51.712-80.384 129.536-80.384 132.608-0.512 15.872 11.264 28.672 27.136 29.696h1.024c15.36 0 27.648-11.776 28.16-27.136 0 0 1.024-12.8 7.68-29.184 9.728-24.064 25.6-44.032 48.128-58.88 26.624-17.92 45.568-44.544 54.272-74.24 0.512-2.56 1.536-5.12 2.048-7.168 2.048-8.704 3.072-18.432 3.072-29.696 0.512-78.848-63.488-142.336-141.824-142.336zM472.064 705.536c0 22.016 17.92 39.936 39.936 39.936s39.936-17.92 39.936-39.936-17.92-39.936-39.936-39.936-39.936 17.92-39.936 39.936z" fill="#FFBB12" /></svg>