<?xml version="1.0" encoding="UTF-8"?>
<svg version="1.1" viewBox="0 0 1600 1231" width="882" height="679" xmlns="http://www.w3.org/2000/svg">
<path transform="translate(690,265)" d="m0 0 5 3 1 3v20l3 73 3 82 2 57 1 26h156l1 1 2 57 2 88 1 63v33l-9 2-41 6h-31l-30-3-26-5-26-8-16-6-16-8-18-10-17-11-6-4v-2l-5-2-7-6-6-5v-2l-4-1-4-5-4-2-9-11-1-3-5-1-5-8-3-3v-2h-2l-8-11-4-5-7-12-12-22-5-12-5-14-6-24-4-28-1-11v-41l1-15 1-1 2-17 2-5 3-17 6-18 2-2 3-10 12-25 6-9 4-8 4-2 6-10 11-13 5-6 4-3h4l2 11 5 46 1 4v14l-8 17-6 18-4 23-1 10-1 2v29l2 25 5 32 7 20 5 13 11 19 10 14 13 15 13 13 14 11 5 4 4 2v2l10 5v2l6 2 12 8 12 6 7 3 5 2 6 4 32 12 10 3 7 1 19 1-2-20-6-109v-5h-39l-99 2h-16l-2-3-1-7-1-36-1-20-1-44-1-6-2-62-2-34-4-24-5-43 1-5 4-5 5-2 3-5 7-3 14-9 11-6 21-10z" fill="#E9742C"/>
<path transform="translate(782,253)" d="m0 0h9l2 26 8 150v14h34l74-1h47l1 1 1 10 3 83 3 73 1 33 1 12 7-4 10-11 9-14 6-13 6-18 4-18 2-19 1-11v-15l-2-27-4-27-7-25-11-24-11-17-10-13-11-12-11-11-11-9-15-11-21-13-27-14-26-11-27-9-1-1v-20l1-31 1-1h13l25 4 24 6 25 9 25 12 20 12 18 13 13 11 20 18 7 8 10 11 12 16 13 21 11 23 9 27 5 23 3 24 1 15v28l-2 21-4 24-7 25-10 25-12 23-8 12-12 16-12 14-14 14-8 7-13 11-20 14-23 13-19 9h-4l-1-5-3-82-4-100-2-51v-25l-157 1-1-1-1-12-1-32-1-64-1-39-1-62v-31l7-2z" fill="#939496"/>
<path transform="translate(818,255)" d="m0 0h13l25 4 24 6 25 9 25 12 20 12 18 13 13 11 20 18 7 8 10 11 12 16 13 21 11 23 9 27 5 23 3 24 1 15v28l-2 21-4 24-7 25-10 25-12 23-8 12-12 16-12 14-14 14-8 7-13 11-20 14-23 13-15 7v-2l20-10 23-14 13-10 11-9 4-2v-2h2v-2h2l2-4 3-4h2l2-4 3-4 2-9-3-1-2-3-10-6-6-2-7-1v-2l-6-1-3-3-2-5v-12l-2-35-2-58-1-14-1-52-1-24-1-20-1-2-118-1v-1l74-1h47l1 1 1 10 3 83 3 73 1 33 1 12 7-4 10-11 9-14 6-13 6-18 4-18 2-19 1-11v-15l-2-27-4-27-7-25-11-24-11-17-10-13-11-12-11-11-11-9-15-11-21-13-27-14-26-11-27-9-1-1v-20l1-31z" fill="#A2A2A3"/>
<path transform="translate(596,330)" d="m0 0h4l2 11 5 46 1 4v14l-8 17-6 18-4 23-1 10-1 2v29l2 25 5 32 7 20 5 13 11 19 10 14 13 15 18 18-4-1-5-4h-2l7 6-2 1-6-4-6-5v-2l-5 2-1 4-7 6-2 16-2 2-2 12-2-2-1 9 2 7 2 4 4 2 11 8 4 3v2l4 2 8 6 4 5-2 1-19-12-6-4v-2l-5-2-7-6-6-5v-2l-4-1-4-5-4-2-9-11-1-3-5-1-5-8-3-3v-2h-2l-8-11-4-5-7-12-12-22-5-12-5-14-6-24-4-28-1-11v-41l1-15 1-1 2-17 2-5 3-17 6-18 2-2 3-10 12-25 6-9 4-8 4-2 6-10 11-13 5-6z" fill="#F19B24"/>
<path transform="translate(804,531)" d="m0 0h56l2 45 2 11 2 88 1 63v33l-9 2-28 4-16 1h-23l-10-3-12-2-6-3-2-2 1-16h2l-1-4 3-12 7-9 7-1 23-2 1-4-1-17-1-3-1-16-1-47-2-42-1-8-27-1-1-3h-5l-6-7-3-10 9-25 2-8 3-1z" fill="#D83329"/>
<path transform="translate(777,255)" d="m0 0 5 1 5 3 3 21 1 26 1 9 1 27 1 18v11l1 10 1 25 1 3 1 17h1l2 18 3 4v15l2 6 5 9 4 4 3 6-2 5-7 4-10 2-16 1h-46l-2-74-2-113v-52l5-2 21-3z" fill="#747575"/>
<path transform="translate(701,532)" d="m0 0 5 1 16-1h47l-3 1-2 11-8 22 3 10 5 6 5 1 1 2 27 1 1 1 1 8 2 42 1 47 1 16 1 3 1 20-2 2-25 2-5 2-7 9-2 12v2h-2v16l5 3 5 2 13 2 6 2h33v1l-7 1h-31l-30-3-26-5-26-8-16-6-16-8-14-8-5-6-5-5-6-4-5-5-10-7-5-5-3-4-1-9 1-6h3l1-10 2-1 2-16 6-6h2l-1-3 3-3h4v2l3 1v2l10 5-7-6 2-2 7 6 7 3 10 8 4 2v2l10 5v2l6 2 12 8 12 6 7 3 5 2 6 4 32 12 10 3 7 1 19 1-2-20-6-109v-6h-101l-8-1v-3-3h2v-6-4-9l1-4 2-1 2-16 2-4-2-1v-2l7-1z" fill="#E15F25"/>
<path transform="translate(681,844)" d="m0 0 6 2 5 13 10 21 4 8 8 17 8 16 8 18 4 8 5 11 2 3v3l-27 1-5-8-8-17-14-28-3-8h-3l-8 17-7 14-4 10-7 14-2 5-12 1-4 2-2-2-16-1-19 1-2 2-4-6-1-42h-55l-11 1v43l-5 4-4-2h-7l-1 2h-3v-2l-4-1-1-2v-113l4-3h17l4 2 1 45h65v-44l4-3h15l8 3v3 91l-1 15h6l3-4 5-13 3-5 13-27 5-12 4-7 19-40z" fill="#E9742A"/>
<path transform="translate(818,255)" d="m0 0h13l25 4 24 6 25 9 16 8 3 3 11 7 12 8v2h2l5 5 6 7 6 10 4 12 4 10 5 17 1 6-2 3-3 15-6-1v-2l-6-1-14-9-9-6-5-3-11-8-15-10-16-9-5-1-29-14-24-9-18-6-1-1v-20l1-31z" fill="#939496"/>
<path transform="translate(416,846)" d="m0 0 4 1 21-1 19 1h11l12 2-1 3v17l-4 4h-55l-19 1-2 6v7l3 4 4 1 58 1 7 4 6 5 4 2 1 6 4 1 2 6 1 6v13l-4 12-6 8-12 7-3 1-143 1-2 2-5-3-1-11 1-13 1-1 143-1 3-4 1-8-4-5-6-2h-45l-18-3-5-5-8-9-4-9-1-6v-9l3-9 4-8 10-9 5-1 1-2 16-2z" fill="#E9772F"/>
<path transform="translate(1170,846)" d="m0 0 4 1h7l4-1 9 10 8 10 10 12 7 8 9 11 10 11 9 11 2 2 4 1v-71l-3-1 7-3 4-1h13l4 3v114l-2 2h-13l-11-1-1-3-5-2-2-5-6-6v-2h-2l-4-5v-2h-2l-9-11-11-13-2-4-3-1-7-9v-2l-4-1-5-8-3-1v68l-2 10h-3l-1-2-18-1-2-3-1-112z" fill="#E9742C"/>
<path transform="translate(1033,845)" d="m0 0 18 1h83l7 3v20l-5 4h-87l-1 66h91l1 1v24h-2l-1 3h-2v-3h-104v3l-5-1-3-3-1-5v-108l1-2 4-2z" fill="#E9732A"/>
<path transform="translate(890,847)" d="m0 0h103l13 2-2 13 1 7-2 4h-90l-1 66h91l2 4-1 21h-114v3h-2l-2-6v-22l1-90z" fill="#E97831"/>
<path transform="translate(756,846)" d="m0 0 17 3v2h-2v42l65-1 1-43 1-1 13-2 10 2 1 1v115l-23 1-2-1-1-43-2-2h-62l-1 6v39h-26v-113l1-3z" fill="#E9742A"/>
<path transform="translate(782,253)" d="m0 0h9l2 26 8 150v14l73 1 16 1 7 6-1 12 4 11 3 3 1 9-4 11-1 4-4 1-1-2h-62l-71 2h-24l-1-1-1-12-1-32-1-64-1-39-1-62v-31h3v52l2 113 1 40v34l53-1 12-1 11-4 4-4-2-5-3-5-4-5-4-7-1-8v-12l-3-4-2-14h-1l-1-21-1-3-1-25-1-16v-10l-1-13-1-27-1-9-1-26-3-21-5-3h-15v-1z" fill="#898A8A"/>
<path transform="translate(637,651)" d="m0 0h4v2l3 1v2l10 5-7-6 2-2 7 6 7 3 10 8 4 2v2l10 5v2l6 2 12 8 12 6 7 3 5 2 6 4 32 12 10 3 7 1 18 1v1h-29l-16-5-19-6-18-8-17-6-8-1v6l-5 14h2l-1 10-1 1-1 8h-2v7l-2 3 8 5 14 7 17 6 11 4v2l-8-1-21-6-18-7-16-8-14-8-5-6-5-5-6-4-5-5-10-7-5-5-3-4-1-9 1-6h3l1-10 2-1 2-16 6-6h2l-1-3z" fill="#E9762F"/>
<path transform="translate(681,844)" d="m0 0 6 2 5 13 10 21 4 8 8 17 8 16 8 18 4 8 5 11 2 3v3l-27 1-5-8-8-17-14-28-3-8h-3l-8 17-7 14-4 10-7 14-2 5-12 1-4 2-2-2-16-1h-5l4-1v-77h1l1 57-1 15h6l3-4 5-13 3-5 13-27 5-12 4-7 19-40z" fill="#E9792F"/>
<path transform="translate(819,256)" d="m0 0h9l20 3 21 7 10 6 4 6 2 7 3 2 3 8 6 8 2 5 1 10-2 7-4 4h-10l-20-5-8-4-7-1-29-10-2-2v-26z" fill="#858686"/>
<path transform="translate(701,532)" d="m0 0 5 1 16-1h47l-3 1-2 11-8 22 3 10 5 6 5 1 1 2 27 1 1 1 1 8v12h-1l-2-17-3-2h-99l-8-1v-3-3h2v-6-4-9l1-4 2-1 2-16 2-4-2-1v-2l7-1z" fill="#E15F25"/>
<path transform="translate(603,592)" d="m0 0 5 3 10 18 10 14 13 15 18 18-4-1-5-4h-2l7 6-2 1-6-4-6-5v-2l-5 2-1 4-7 6-2 16-2 2-2 12-2-2-1 9 2 7 2 4 4 2 11 8 4 3v2l4 2 8 6 4 5-2 1-19-12-3-4-2-3-5-2-6-7-7-6-4-2-3-5-18-18-2-5 6 3-1-5-3-1-2-6 1-9 2-5v-23l2-4 2-10 1-6-2-7 3-5 4-1 4 4z" fill="#EE8D28"/>
<path transform="translate(795,589)" d="m0 0 2 1 3 31 1 16 1 47 1 16 1 3 1 20-2 2-25 2-5 2-7 9-2 12v2h-2v16l5 3 5 2 13 2 6 2h33v1l-7 1h-31l-21-2-2-1v-2h-7l-5-1v-2l-9-1-14-5-3-4v-6h2v-8l2-10 2-5 2-10 4-4 7-1 16 4 13 2h29l-1-20-6-109z" fill="#DE542D"/>
<path transform="translate(743,532)" d="m0 0h26l-3 1-2 11-8 22 3 10 5 6 5 1 1 2 27 1 1 1 1 8v12h-1l-2-17-3-2-61-1-4-1-3-5v-2h2l-6-10 5-19 4-6 2-5v-6z" fill="#DD4E28"/>
<path transform="translate(1261,1012)" d="m0 0h11l10 24v2l3-3 8-20 2-3h49v8l-1 1h-11v36l-1 1h-10l-1-3v-34h-12l-1-3-3-1-3 10-12 29-2 2h-8l-5-10-13-33z" fill="#878889"/>
<path transform="translate(1077,893)" d="m0 0h61l2 2 1 4-1 18-5 3h-6l-2-1h-50l-3-3v-16l2-6z" fill="#E9742A"/>
<path transform="translate(941,893)" d="m0 0h60l4 3v21l-11 2h-51l-4-2-2-6 1-4-1-8 3-5z" fill="#EA7D38"/>
<path transform="translate(793,1012)" d="m0 0h9l5 5 10 13 5 6 3 1v-25h10l1 4v36l-1 6h-10l-7-8-12-16-2-1v22l-1 3h-10l-1-4v-39z" fill="#868787"/>
<path transform="translate(428,1012)" d="m0 0h10l10 12 9 12 3 1v-24l1-1h9l1 1v44l-1 1h-10l-9-11-9-12-3-2v24l-1 1h-10z" fill="#8A8B8C"/>
<path transform="translate(1450,1012)" d="m0 0h23l10 4 6 7 2 4 1 8-2 10-4 6-5 4-9 3h-22l-1-1v-44zm10 10v25l1 1h11l6-4 2-4v-10l-4-6-4-2z" fill="#949596"/>
<path transform="translate(1027,1012)" d="m0 0h25l7 3 4 5 1 2v11l-3 5-4 4 9 13v3h-12l-9-12v-2h-6l-1 13-2 1h-9l-1-13v-31zm11 9-1 12 1 1h12l3-3v-7l-5-3z" fill="#898A8A"/>
<path transform="translate(231,1012)" d="m0 0h24l7 2 4 5 2 5v8l-4 7-3 2 2 5 7 10-1 2h-11l-7-9-3-4-4-1-2 1v10l-2 3h-9l-1-1v-44zm11 9-1 4v8l1 1h11l4-4-1-7-4-2z" fill="#8A8B8B"/>
<path transform="translate(846,1012)" d="m0 0h23l8 3 7 6 3 7v14l-4 8-6 5-9 3h-22l-1-1v-44zm12 9-2 1v26l6 1 8-2 5-5 1-2v-10l-4-6-4-2z" fill="#88898A"/>
<path transform="translate(107,1012)" d="m0 0h25l8 3 4 6 1 8-3 9-3 2 1 6 7 11-1 1h-11l-6-7-4-6-6-1-1 13-1 1h-10zm12 9-1 1v11l1 1h10l4-3v-7l-5-3z" fill="#8D8E8E"/>
<path transform="translate(293,1011)" d="m0 0h12l9 4 7 8 2 5 1 8-2 8-4 6-7 6-5 2h-14l-8-4-7-8-2-5v-12l5-10 8-6zm4 9-6 3-4 5-1 3v8l4 7 5 3h8l6-4 3-5v-11l-4-6-6-3z" fill="#8D8E8F"/>
<path transform="translate(630,1012)" d="m0 0h32l1 1v8h-22v9l20 1v6l-1 2-6 1h-13l1 8 22 1v8l-1 1h-33l-1-1v-43z" fill="#878888"/>
<path transform="translate(1096,1012)" d="m0 0h33v9l-21 1-1 8 20 1v8l-6 1h-14l-1 8 24 1v8l-1 1h-33l-1-2v-42z" fill="#929393"/>
<path transform="translate(155,1012)" d="m0 0h32l1 1-1 8-21 1-1 8h12l8 1v8l-4 1h-16l1 8 22 1 1 7-1 2h-33l-1-1v-44z" fill="#878888"/>
<path transform="translate(673,1012)" d="m0 0h33v9l-21 1-1 8 20 1v8l-6 1h-14l1 8 22 1v9h-34z" fill="#898A8A"/>
<path transform="translate(496,1011)" d="m0 0h12l10 5 1 3-4 5-6-1-2-1h-9l-5 2-3 9 1 8 5 6 3 1h8l2-1 1-6v-5l4-2h6l1 1v16l-6 5-5 2-10 1-8-2-6-4-6-7-2-6v-10l3-8 8-8z" fill="#8C8D8D"/>
<path transform="translate(1223,1012)" d="m0 0h22l7 2 5 5 2 3v13l-4 6-5 3-15 2-2 12h-10l-1-2v-42zm11 9-1 4v7l1 4h9l4-2 1-2v-8l-5-3z" fill="#939394"/>
<path transform="translate(896,1012)" d="m0 0h10l1 28 2 6 4 2 7-1 3-4 1-23 1-8h10v31l-3 7-4 5-7 3h-12l-7-4-4-5-3-9v-26z" fill="#878888"/>
<path transform="translate(955,1011)" d="m0 0h11l9 4 2 1-1 5-3 3-11-3-5 1-1 4 6 3 11 4 5 6 1 7-3 7-5 4-3 1h-14l-10-5-1-5 4-4 5 1 6 3h6l2-1-1-5-16-6-5-6v-9l3-5 5-4z" fill="#8B8B8C"/>
<path transform="translate(558,1011)" d="m0 0h11l9 4 2 1-1 4-3 4-15-3-1 1v5l14 5 5 4 2 4v9l-4 6-6 3h-15l-9-5-2-4 4-5 6 1 6 3h6l2-1-1-5-16-6-5-6v-10l6-7z" fill="#8C8D8E"/>
<path transform="translate(1149,1011)" d="m0 0h11l9 4 2 1-1 5-3 3-7-2h-9l-1 4 6 3 11 4 5 6 1 8-3 6-5 4-3 1h-14l-10-5-1-5 4-4 5 1 6 3h6l3-2v-4l-10-3-9-4-4-6v-8l4-6z" fill="#868787"/>
<path transform="translate(1406,1012)" d="m0 0h36v9h-12v36l-1 1h-10l-1-3v-34h-12l-1-5z" fill="#989899"/>
<path transform="translate(586,1012)" d="m0 0h36v9h-12v34l-1 3h-10l-1-16v-21h-12z" fill="#949595"/>
<path transform="translate(984,1012)" d="m0 0h35l1 1v7l-1 1h-12v36l-1 1h-9l-1-1-1-35-12-1v-8z" fill="#868787"/>
<path transform="translate(715,1012)" d="m0 0h10l1 1v36h19v8l-1 1h-29l-1-2v-40z" fill="#979898"/>
<path transform="translate(1377,1012)" d="m0 0h10l1 1 1 35 18 1v9h-30l-1-28z" fill="#858686"/>
<path transform="translate(332,1012)" d="m0 0h10l1 1 1 35 18 1v9h-30z" fill="#929293"/>
<path transform="translate(368,1012)" d="m0 0h10l1 1v35l19 1v9h-29l-1-1z" fill="#858686"/>
<path transform="translate(782,253)" d="m0 0h9l2 26 8 150v11l-2-3-1-7h-1l-1-21-1-3-1-25-1-16v-10l-1-13-1-27-1-9-1-26-3-21-5-3h-15v-1z" fill="#A8A9A9"/>
<path transform="translate(1350,1008)" d="m0 0 9 1 5 10 3 12v13l-4 15-4 7-8 1-3-2 5-11 2-7 1-11-2-12-6-15z" fill="#868787"/>
<path transform="translate(1206,1008)" d="m0 0h7l2 1-2 6-4 11-1 4v15l4 13 3 6v2l-7 1-4-1-5-11-2-7-1-13 2-12 5-12z" fill="#8A8B8B"/>
<path transform="translate(756,846)" d="m0 0 17 3v2h-2v42l65-1 1-43h3l-1 1-1 44h-68l-1-1-1-41-2-2-18-1v113l20 1 1-43 3-3h21v1l-21 1-1 6v39h-26v-113l1-3z" fill="#F9E1C8"/>
<path transform="translate(1076,1012)" d="m0 0h9l2 2v43l-1 1h-10l-1-2v-42z" fill="#858686"/>
<path transform="translate(1309,1013)" d="m0 0h34v6l-2 1-10 1-1 34-2 2-6-1v-35h-13z" fill="#878888"/>
<path transform="translate(598,370)" d="m0 0 2 4 3 7 3-3 2 13v14l-3 6-2-1-4 2-6 8-5 1 1-8 1-9 3-15 2-5 1-7h2z" fill="#EE8C25"/>
<path transform="translate(407,1012)" d="m0 0h10v45l-1 1h-9l-1-1v-44z" fill="#858686"/>
<path transform="translate(771,1012)" d="m0 0h10l1 1v44l-1 1h-9l-1-1z" fill="#858686"/>
<path transform="translate(634,422)" d="m0 0h2l2 34 1 46 1 32 1 9 1 25-1 2v17l-2 1-1-7-1-36-1-20-1-44-1-6-1-26v-22z" fill="#F5C489"/>
<path transform="translate(696,317)" d="m0 0h1l2 47 3 82 2 57 1 26h6l2 2h-9l-2-2-1-16-1-47-1-13-1-36-1-3v-17l-1-10v-16l-1-31v-10z" fill="#F4B979"/>
<path transform="translate(1046,871)" d="m0 0h92l-2 2h-87l-1 66h91v1h-93z" fill="#F6CEA3"/>
<path transform="translate(1e3 849)" d="m0 0h3l-2 13 1 7-2 4h-90l-1 66h91v2l-92-1-1-68 1-1h91v-20z" fill="#F8DBBB"/>
<path transform="translate(895,534)" d="m0 0h2l6 155 3 72h4v2l-6 1-1-5-3-82-4-100-1-27z" fill="#B6B6B7"/>
<path transform="translate(716,529)" d="m0 0h145l1 1 1 27v22l-2-3-1-29v-16h-145z" fill="#D8A16F"/>
<path transform="translate(416,846)" d="m0 0 4 1 21-1 19 1h11l12 2-1 3v17l-4 4h-71v-2l71-1v-20h-81v-1l16-2z" fill="#F5C088"/>
<path transform="translate(641,292)" d="m0 0 2 1-2 3 1 1-5 4-9 7-1 7 1 14 1 4 2 25-4 4-6-50 1-5 4-5 5-2 3-5z" fill="#EE9230"/>
<path transform="translate(1023,848)" d="m0 0 2 1v100l1 13 7 1-2 1v3l-5-1-3-3-1-5v-108z" fill="#F5C38B"/>
<path transform="translate(1170,846)" d="m0 0 4 1h7l4-1 3 3-1 2-3-1h-20l-1 12-1 101-2-2-1-112z" fill="#F5C18A"/>
<path transform="translate(597,846)" d="m0 0h15l4 2h-19l-1 46-1 1h-68v-12h1v10h65v-44z" fill="#F3B778"/>
<path transform="translate(896,1012)" d="m0 0h10l1 28 2 6 4 2 7-1 3-4 1-23 1-8h10v31l-3 7-4 5-7 3h-12l4-2 9-1 5-3h2l2-5 2-7v-26l-6 1-1 27-4 8-8 1-7-3-2-3-1-31-7-1-1 27h-1v-26z" fill="#BBBBBC"/>
<path transform="translate(1047,940)" d="m0 0h93v24h-2l-1 3h-2v-3l-2-2 3-3 2-17h-88z" fill="#EE8D25"/>
<path transform="translate(155,1012)" d="m0 0h32l1 1-1 8-21 1-1 8h12l8 1v8l-4 1h-16v-2l18-1 1-5h-19l-1-1v-10l1-1h21v-6h-26l-5 1 1 36 2 5 30 1v1h-33l-1-1v-44z" fill="#AEAEAF"/>
<path transform="translate(630,1012)" d="m0 0h32l1 1v8h-22v9h7v1h-9v-10l1-1 20-1 1-5h-30v43h32v1h-33l-1-1v-43z" fill="#C0C1C1"/>
<path transform="translate(1308,1012)" d="m0 0h36v8l-1 1h-11v36l-1 1h-10l-1-3v-34h2v35h6l1-1 1-34 1-1 12-1v-6h-34v8l-2-3-3-2 1-3z" fill="#C8C8C9"/>
<path transform="translate(407,1012)" d="m0 0h10v45l-1 1h-9l-1-1v-44zm1 3v41l5 1 2-3v-19l-1-20z" fill="#A3A4A5"/>
<path transform="translate(984,1012)" d="m0 0h35l1 1v7l-1 1h-12v36l-1 1h-9l-1-1-1-35-12-1v-8zm1 1-1 5 5 2 7 1 1 19v16l8 1v-33l1-3 12-1 1-6-1-1z" fill="#B1B2B3"/>
<path transform="translate(795,589)" d="m0 0 2 1 3 31 1 16 1 47 1 16v15h-1l-3-45-4-76z" fill="#F4C8B0"/>
<path transform="translate(1350,1008)" d="m0 0 9 1 5 10 3 12v13h-1l-2-15-4-12-3-6h-5l6 18v18l-1 1-2 9-2 7 7-2 3-9 1 3-5 10-8 1-3-2 5-11 2-7 1-11-2-12-6-15z" fill="#ABABAC"/>
<path transform="translate(794,360)" d="m0 0h2l2 26 1 6 2 37v11l-2-3-1-7h-1l-1-21-1-3-1-25-1-16z" fill="#979898"/>
<path transform="translate(1206,1008)" d="m0 0h7l2 1-2 6-4 11-1 4v15l4 13 3 6v2l-7 1-4-1-5-11 2-1 4 8 5 2-4-13-2-14 1-9 4-12h2l1-5-6 1-5 9-2-1 5-11z" fill="#A7A7A9"/>
<path transform="translate(1076,1012)" d="m0 0h9l2 2v43l-1 1h-10l-1-2v-42zm2 3-1 1v39l1 2 7-1v-41z" fill="#C7C7C8"/>
<path transform="translate(197,1034)" d="m0 0h23v8l-1 1h-22l-1-2v-6z" fill="#969697"/>
<path transform="translate(673,1012)" d="m0 0h33v9l-21 1-1 8h6v1h-7v-10l1-1h21v-7h-31l1 32v11h30l1-6h-21v-1h22v9h-34z" fill="#9FA0A1"/>
<path transform="translate(1377,1012)" d="m0 0h10l1 1 1 36h-3v-34l-8 1 1 40 27 1-1-6-12-1v-1h14v9h-30l-1-28z" fill="#A7A7A8"/>
<path transform="translate(368,1012)" d="m0 0h10l1 1v35l19 1v9h-9v-1l7-1 1-6h-18l-1-1-1-27-1-7h-5l-1 42h-2z" fill="#A3A3A5"/>
<path transform="translate(1077,893)" d="m0 0h61l2 2 1 4-1 18-5 3h-6l-2-1-34-1v-1l44-1v-21l-60-1z" fill="#F8D8B8"/>
<path transform="translate(863,651)" d="m0 0h1l1 53 1 33 1 1v33h-2l-1-18-1-42z" fill="#EA8757"/>
<path transform="translate(793,1012)" d="m0 0h9l5 5v3l-5-4-6-1h-2l1 42 6-1 1-23h2v22l-1 3h-10l-1-4v-39z" fill="#C0C0C1"/>
<path transform="translate(818,255)" d="m0 0h13l25 4 9 2v1h-10l-7-2-29-4v52l-3-1v-20l1-31z" fill="#A6A6A7"/>
<path transform="translate(1295,1012)" d="m0 0h10l-1 7-14 35-3 4h-8l-5-10-1-4h2l5 10 1 1h6l7-18 5-13 3-6v-2h-5l-4 5-3 7-1-3 5-11z" fill="#A8A9AA"/>
<path transform="translate(782,253)" d="m0 0h7l1 1 3 54v13h-1l-2-15-1-26-3-21-5-3h-15v-1z" fill="#8F9090"/>
<path transform="translate(825,1012)" d="m0 0h10l1 4v36l-1 6h-10l-7-8h3l4 5 9 1-1-28 1-14-7 1-1 26-5-3 1-2 3 1z" fill="#BBBCBC"/>
<path transform="translate(1261,846)" d="m0 0h13l3 3-3 1h-18v16l-1 26h-2v-41l-3-1 7-3z" fill="#F4B76A"/>
<path transform="translate(771,1012)" d="m0 0h10l1 1v44l-1 1h-9l-1-1zm1 1v42l2 2 6-1v-43z" fill="#BCBCBD"/>
<path transform="translate(400,882)" d="m0 0h1l2 6 2 3 4 1 58 1 4 2-2 1-64-1v-2l-4-2-1-1z" fill="#F5C897"/>
<path transform="translate(1033,845)" d="m0 0 18 1h83l2 2h-110l1-2z" fill="#FDFDFD"/>
<path transform="translate(1027,1012)" d="m0 0h25v1h-24l1 43h7v-13l5-1-2 2-1 13-2 1h-9l-1-13v-31z" fill="#BABABA"/>
<path transform="translate(628,364)" d="m0 0h2v5l3 1 1 4 1 2 1 27-2 3-1 7h-1l-2-34z" fill="#F09F44"/>
<path transform="translate(1149,1011)" d="m0 0h11l9 4 2 1-1 5-3 3-7-2h-10v-2h11l7 1-1-5-9-3-8-1-1 3-5 3h-2l-1 11 1 4 5 2 7 3-3 1-9-4-4-6v-8l4-6z" fill="#A2A2A3"/>
<path transform="translate(1276,852)" d="m0 0h1l1 111-2 2h-13l4-2 7-1 1-2v-81z" fill="#F09921"/>
<path transform="translate(848,846)" d="m0 0 13 2 1 2-1 100h-2l1-100h-9v-2h-5z" fill="#F09821"/>
<path transform="translate(506,846)" d="m0 0h17l2 1v2l-19 1-1 1-1 14-1 44h-1v-60z" fill="#F8DEC1"/>
<path transform="translate(1185,898)" d="m0 0h1v59l-2 10h-3l-2-4 4-2 1-57z" fill="#F4B772"/>
<path transform="translate(634,422)" d="m0 0h2l1 18v16l-2 19h-1l-1-26v-22z" fill="#F0B16A"/>
<path transform="translate(231,1012)" d="m0 0h24l7 2-3 1-5-1h-21l-1 43h8v1h-9l-1-1v-44z" fill="#9FA0A1"/>
<path transform="translate(861,850)" d="m0 0h1v114h-4l1-13h1z" fill="#EE8C25"/>
<path transform="translate(696,317)" d="m0 0h1l1 24v56h-1l-1-10v-16l-1-31v-10z" fill="#EF9124"/>
<path transform="translate(846,1012)" d="m0 0h23v1l-20 1-2 1v42l19-1 11-4 4-3 2 1-6 5-9 3h-22l-1-1v-44z" fill="#A0A1A2"/>
<path transform="translate(855,1020)" d="m0 0h11l7 3 3 2 2 5v11h-2l-1 3-1-2 1-2v-10l-3-5-4-2-12-1v26h12l-2 2h-9l-2-1zm18 24m-1 1m-2 1h2v2l-4-1z" fill="#B9B9BA"/>
<path transform="translate(981,715)" d="m0 0m-1 1m-1 1 1 3-17 13-15 10-21 12-15 7v-2l20-10 23-14 13-10z" fill="#AAAAAB"/>
<path transform="translate(938,896)" d="m0 0h2l1 21 60-1 1 2-8 1h-51l-4-2-2-6 1-4-1-8z" fill="#EF9639"/>
<path transform="translate(954,442)" d="m0 0 3 1 1 10 1 40h-1l-2-7-1-19-1-20-1-4z" fill="#ABABAC"/>
<path transform="translate(702,467)" d="m0 0h1l2 62h6l2 2h-9l-2-2-1-16v-20z" fill="#F6C997"/>
<path transform="translate(428,1012)" d="m0 0h5l-4 1 1 37v7l7-1v-19l1-5 3 1h-2v24l-1 1h-10z" fill="#B1B1B2"/>
<path transform="translate(1275,849)" d="m0 0h3v112h-1l-1-109z" fill="#EE8E2B"/>
<path transform="translate(632,1012)" d="m0 0h30l1 1v8h-22v9h7v1h-9v-10l1-1 20-1 1-5h-30z" fill="#A8A9AA"/>
<path transform="translate(502,910)" d="m0 0h1l1 15 1 37 10 1-4 2-1 2h-3v-2l-4-1-1-2z" fill="#F7D19D"/>
<path transform="translate(641,292)" d="m0 0 2 1-2 3 1 1-5 4-7 5-4 1-3 13h-1l-1-11 5-7 5-2 3-5z" fill="#ED8826"/>
<path transform="translate(107,1012)" d="m0 0h25l4 2-28-1v44l7-1 1-13 3 1-1 13-1 1h-10z" fill="#B5B5B6"/>
<path transform="translate(618,886)" d="m0 0h1l1 57-1 15h7l-1 5-11 1 4-1z" fill="#F3AE54"/>
<path transform="translate(693,491)" d="m0 0 2 3 2 23-1 3-4-1-1-2v-20z" fill="#E15F25"/>
<path transform="translate(392,914)" d="m0 0 12 2 53 1v2l6-1 4 5-1 3-5-5-6-2h-45l-18-3z" fill="#F1A656"/>
<path transform="translate(1205,1040)" d="m0 0h2l4 16 4 8v2l-7 1-4-1-5-11 2-1 4 8 5 2-4-13z" fill="#9E9FA1"/>
<path transform="translate(558,1011)" d="m0 0h11l6 2-4 1-10-1-9 3-1 5v8l3 5 4 4-6-2-5-6v-10l6-7z" fill="#A1A1A3"/>
<path transform="translate(834,918)" d="m0 0 5 1 1 43 1 2 2 1-6-1-1-43z" fill="#EF9635"/>
<path transform="translate(638,547)" d="m0 0h3l1 21-1 2v17l-2 1-1-7z" fill="#F3B060"/>
<path transform="translate(977,1039)" d="m0 0 2 4-2 9-6 5-3 1h-14l-10-5-1-5 4-4 5 1 4 3-9-1-1 4 7 4 4 1h8l8-3 2-4h2z" fill="#A6A6A7"/>
<path transform="translate(1379,1012)" d="m0 0h8l1 1 1 36h-3v-34l-8 1z" fill="#C4C4C5"/>
<path transform="translate(586,1012)" d="m0 0h36v2h-35l1 5 11 1v1h-13z" fill="#9D9E9F"/>
<path transform="translate(593,918)" d="m0 0h2l1 7 1 37 5 1-4 4-4-6z" fill="#F5C694"/>
<path transform="translate(1253,892)" d="m0 0h2v32l-2 3-4-2-4-5 1-2 3 3 4 1z" fill="#EF9426"/>
<path transform="translate(597,846)" d="m0 0h15l4 2-19 1-1 1-1 38-1 5h-1v-44z" fill="#FDFDFD"/>
<path transform="translate(772,917)" d="m0 0h21v1l-21 1-1 6v39l-2-1v-43z" fill="#F2AC63"/>
<path transform="translate(1261,1012)" d="m0 0h11l10 24v2l3-3 2-5 1 4-3 5h-4l-6-12-4-12-1-1-7-1v5l-2-3z" fill="#A4A5A6"/>
<path transform="translate(626,336)" d="m0 0 3 1 2 21-4 4-2-19z" fill="#F2A853"/>
<path transform="translate(818,255)" d="m0 0h13l25 4 9 2v1h-10l-7-2-29-4-1 7h-1v-7z" fill="#AEAEB0"/>
<path transform="translate(460,847)" d="m0 0h11l12 2-1 3v17h-3l-1-19-20-1z" fill="#F4BA74"/>
<path transform="translate(285,1030)" d="m0 0 2 1v8l3 5v2l5 2h8l6-4 2-4 1-8h1v10l-3 5-5 3h-13l-6-5-1-5z" fill="#ADADAE"/>
<path transform="translate(377,869)" d="m0 0 2 1-1 3v19l2 6 1 5-3-3-3-7-1-6v-9z" fill="#F5C58D"/>
<path transform="translate(607,702)" d="m0 0 4 2 5 3 9 8 3 4 5 2 2 3-2 1-2-1v-2l-5-2-7-6-6-5v-2l-4-1z" fill="#F1A345"/>
<path transform="translate(528,917)" d="m0 0h57v2h-47l-11 1z" fill="#F1A251"/>
<path transform="translate(892,337)" d="m0 0 10 5 18 11 7 6-1 2-11-8-20-12-3-2z" fill="#B1B1B2"/>
<path transform="translate(496,1011)" d="m0 0h12l10 5 1 3-4 5-6-1-9-2v-1h8l7 2v-5l-6-3-9-1h-4z" fill="#A5A5A6"/>
<path transform="translate(746,944)" d="m0 0h1l1 18 20 1 2-4-1 5h-24v-16z" fill="#EF9426"/>
<path transform="translate(493,1012)" d="m0 0h2v2l-5 1-2 4-5 5-2 4v14l1 4h-2l-2-6v-10l3-8 8-8z" fill="#A9A9AB"/>
<path transform="translate(1141,1044)" d="m0 0 5 1 6 3h6l5-2-4 4h-8l-5-2h-5l1 5 5 3-2 1-8-5 1-5z" fill="#A5A5A7"/>
<path transform="translate(690,265)" d="m0 0 5 3 1 3v30h-1v-5l-2-1v-16l-2-11-4-1z" fill="#F2AE63"/>
<path transform="translate(1149,1011)" d="m0 0h11l9 4 2 1-1 5-3 3-7-2h-10v-2h11l7 1-1-5-9-3h-9z" fill="#AAAAAC"/>
<path transform="translate(903,735)" d="m0 0h2l1 26h4v2l-6 1-1-5z" fill="#B3B3B4"/>
<path transform="translate(765,718)" d="m0 0 12 3 7 1 18 1v1h-29l-6-2z" fill="#EDA56C"/>
<path transform="translate(934,1026)" d="m0 0h1v17l-3 7-4 5-7 3h-12l4-2 9-1 5-3h2l2-5 2-7z" fill="#9F9FA0"/>
<path transform="translate(1295,1012)" d="m0 0h10l-1 7-1 2-2-1 1-4h-5l-4 5-3 7-1-3 5-11z" fill="#9FA0A1"/>
<path transform="translate(1308,1012)" d="m0 0h36v8l-3-1h2v-6h-34v8l-2-3-3-2 1-3z" fill="#B7B7B8"/>
<path transform="translate(1214,918)" d="m0 0 5 2 2 4 5 5 4 5 2 2 2 3-1 3-1-3h-2l-9-11-7-8z" fill="#F2AD5D"/>
<path transform="translate(525,921)" d="m0 0h1l1 42-5 4-4-2-1-2 7-1z" fill="#F1A238"/>
<path transform="translate(1261,846)" d="m0 0h13l3 3-3 1h-18l-6 1 3-3z" fill="#F7D4A8"/>
<path transform="translate(740,770)" d="m0 0h7l4 1v2l12 1v2l-14-1-14-3v-1z" fill="#F0A167"/>
<path transform="translate(694,296)" d="m0 0h1l1 5v29l-3 1z" fill="#EE8F24"/>
<path transform="translate(659,1031)" d="m0 0h2v6l-1 2-6 1h-13v8h-2v-9l1-1 18-1z" fill="#C5C5C6"/>
<path transform="translate(1139,940)" d="m0 0h1v24h-2l-1 3h-2v-3l-2-2 3-3 1-11h1z" fill="#F5C493"/>
<path transform="translate(597,848)" d="m0 0h22l2 3-1 1-1 34h-1l-1-37h-20z" fill="#EE8C26"/>
<path transform="translate(1352,1009)" d="m0 0h7l5 10 3 12v13h-1l-2-15-4-12-3-6-5-1z" fill="#A9A9AA"/>
<path transform="translate(368,1012)" d="m0 0h10l1 4-4-2h-5v43h-2z" fill="#A8A8A9"/>
<path transform="translate(487,910)" d="m0 0 3 2 2 11v13l-4 12h-3l4-9 1-14-2-12z" fill="#F2AB5B"/>
<path transform="translate(1055,1041)" d="m0 0 4 4 7 10v3h-12l-9-12h3l7 10h8l-7-11z" fill="#A7A8A9"/>
<path transform="translate(1155,1030)" d="m0 0 8 1 6 4 3 4 1 8-3 6-4 3 2-5 2-4-1-8-5-5-9-3z" fill="#A8A9AA"/>
<path transform="translate(1075,895)" d="m0 0h1l1 18 1 5 10-1 5 1v1h-16l-3-3v-16z" fill="#F8DCBC"/>
<path transform="translate(1138,895)" d="m0 0h2l1 4-1 18h-3v-14z" fill="#F5C181"/>
<path transform="translate(1023,943)" d="m0 0h1l2 19 7 1-2 1v3l-5-1-3-3z" fill="#F1A750"/>
<path transform="translate(231,1012)" d="m0 0h24l7 2-3 1-5-1h-21l-1 2-1 18h-1v-21z" fill="#CBCBCC"/>
<path transform="translate(696,317)" d="m0 0h1l1 35h-2l-1-12v-10z" fill="#F5BF81"/>
<path transform="translate(680,900)" d="m0 0h5l6 13v3h-2l-5-12h-3l-2 5h-2l2-8z" fill="#F09D3F"/>
<path transform="translate(634,404)" d="m0 0h2v18h-2v5h-1v-21z" fill="#ED8B26"/>
<path transform="translate(825,1012)" d="m0 0h10l-1 3-4-1-3 1-1 26-5-3 1-2 3 1z" fill="#A9A9AA"/>
<path transform="translate(938,896)" d="m0 0h2l1 21 7 1v1l-8-1-3-7 1-4-1-8z" fill="#F7CFA4"/>
<path transform="translate(1e3 849)" d="m0 0h3l-2 13 1 7-2 4h-8v-1h7v-21z" fill="#F7D3AE"/>
<path transform="translate(605,387)" d="m0 0h2l1 4v14l-2 2-2-2z" fill="#F1A13F"/>
<path transform="translate(778,586)" d="m0 0h19l1 1 1 8v12h-1l-2-17-3-2-15-1z" fill="#DD4E27"/>
<path transform="translate(1e3 941)" d="m0 0 4 2-1 21-2-1z" fill="#F5C280"/>
<path transform="translate(834,918)" d="m0 0 4 1v45h-1l-1-43z" fill="#FDFDFD"/>
<path transform="translate(1170,846)" d="m0 0 4 1h7l4-1 3 3-1 2-3-1h-21l-2-2z" fill="#F6C689"/>
<path transform="translate(636,456)" d="m0 0h2v19h-2l-1 2v-13z" fill="#ED8B26"/>
<path transform="translate(248,1044)" d="m0 0 4 2 6 8v2h7l1-3 3 1 1 3-1 1h-11l-7-9z" fill="#A3A3A5"/>
<path transform="translate(950,1013)" d="m0 0 2 1-5 5-1 7 2 6 5 3v2l-5-2-4-5v-9l3-5z" fill="#AAAAAB"/>
<path transform="translate(154,1050)" d="m0 0 2 1 2 5 30 1v1h-33l-1-1z" fill="#999A9B"/>
<path transform="translate(1273,1044)" d="m0 0h2l5 10 1 1h6l3-4-1 5-2 2h-8l-5-10z" fill="#A4A4A6"/>
<path transform="translate(546,1048)" d="m0 0 3 4 10 4h10l5-1v2l-3 1h-15l-9-5-2-4z" fill="#A5A5A6"/>
<path transform="translate(1350,1008)" d="m0 0h6l-4 1 1 6 4 11v10h-1l-2-12-6-15z" fill="#B5B5B6"/>
<path transform="translate(947,1044)" d="m0 0 5 1 4 3-9-1-1 4 7 4 3 3-9-3-4-3 1-5z" fill="#A7A7A8"/>
<path transform="translate(756,846)" d="m0 0 13 2 1 1v7l-2-4-2-2h-20v-2z" fill="#F2AC5F"/>
<path transform="translate(1479,1015)" d="m0 0 5 2 5 6 2 4 1 8-1 7h-1l-1-12-5-10z" fill="#ADAEAF"/>
<path transform="translate(609,601)" d="m0 0h2l7 12 4 7-4-1-5-8-1-6h-2z" fill="#F1A343"/>
<path transform="translate(658,946)" d="m0 0h2l-2 6-5 12h-11v-1h9l3-9z" fill="#F19F40"/>
<path transform="translate(636,475)" d="m0 0h2v19l-2 3-1-20z" fill="#F09937"/>
<path transform="translate(594,336)" d="m0 0 4 1 1 4v8l-4-8h-4l2-4z" fill="#EE8C25"/>
<path transform="translate(981,715)" d="m0 0m-1 1m-1 1 1 3-17 13-2-1 13-11z" fill="#A9A9AA"/>
<path transform="translate(905,1042)" d="m0 0h2l2 4 4 2h9v2l-8 1-7-3-2-3z" fill="#9E9EA0"/>
<path transform="translate(460,1017)" d="m0 0h1v23l-5-1-2-2 1-4 2 3 3 1z" fill="#C6C6C7"/>
<path transform="translate(1062,1020)" d="m0 0 2 2v11l-3 5-3 3-2-1 4-5 1-2z" fill="#A1A2A3"/>
<path transform="translate(846,1012)" d="m0 0h23v1l-20 1-2 1-1 12h-1v-14z" fill="#C9C9C9"/>
<path transform="translate(681,844)" d="m0 0 6 2 2 8-3-1-3-5-5 1z" fill="#EFB576"/>
<path transform="translate(628,301)" d="m0 0v3l-3 5-2 11h-1l-1-11 5-7z" fill="#F5C484"/>
<path transform="translate(492,1044)" d="m0 0 7 4h8l2-1 2-3-1 5-6 2h-6l-6-4z" fill="#A5A5A7"/>
<path transform="translate(1192,892)" d="m0 0 7 6 8 10-2 2-7-9v-2l-4-1z" fill="#F2A850"/>
<path transform="translate(1136,848)" d="m0 0 5 1v20l-3 2v-22z" fill="#F3B36D"/>
<path transform="translate(116,1043)" d="m0 0 3 1-1 13-1 1h-8v-1l6-1z" fill="#BBBCBD"/>
<path transform="translate(1249,1013)" d="m0 0 6 3 4 6v13h-2v-11l-3-5-5-3z" fill="#ACADAE"/>
<path transform="translate(1023,848)" d="m0 0 2 1v27h-1l-1-20-1-1z" fill="#F5BF74"/>
<path transform="translate(628,347)" d="m0 0h2l1 11-4 4v-11z" fill="#F09D42"/>
<path transform="translate(656,894)" d="m0 0h2l-1 5-5 8-2-1 4-9z" fill="#F4BB78"/>
<path transform="translate(630,374)" d="m0 0 3 1v12l-1 8h-1z" fill="#F8D4A5"/>
<path transform="translate(772,917)" d="m0 0h21v1l-21 1-1 6-2-3 2-4z" fill="#F6CEA4"/>
<path transform="translate(1037,1042)" d="m0 0 4 1-2 1-1 13h-2v-14z" fill="#C3C4C4"/>
<path transform="translate(381,903)" d="m0 0 5 1 2 4 4 3-1 3-8-7z" fill="#F1A34B"/>
<path transform="translate(1147,1012)" d="m0 0 3 1-3 3-5 2-1 5-1-3 1-4z" fill="#98989A"/>
<path transform="translate(848,846)" d="m0 0 13 2 1 2h-11v-2h-5z" fill="#F4B97D"/>
<path transform="translate(740,770)" d="m0 0h7l4 2-2 1h-9l-5-1v-1z" fill="#EA8549"/>
<path transform="translate(641,292)" d="m0 0 2 1-2 3-9 5 1-5z" fill="#F3B66E"/>
<path transform="translate(129,1050)" d="m0 0 3 1v2l3 1v2l10 1 1-2v3h-11l-6-7z" fill="#A5A6A7"/>
<path transform="translate(444,1020)" d="m0 0 4 4 6 8-1 3-8-10z" fill="#A1A1A2"/>
<path transform="translate(709,955)" d="m0 0h2l3 5 6 3-4 2-4-2-3-6z" fill="#F1A44E"/>
<path transform="translate(808,1020)" d="m0 0 5 5 8 10h-3l-8-10z" fill="#A2A2A4"/>
<path transform="translate(976,1016)" d="m0 0 1 3-4 5-11-3 1-2 8 2h3z" fill="#A0A1A2"/>
<path transform="translate(455,918)" d="m0 0h8l4 5-1 3-5-5-6-2z" fill="#F4BB7B"/>
<path transform="translate(597,848)" d="m0 0h22l2 3-2 1-2-1v-2h-20z" fill="#F1A547"/>
<path transform="translate(416,846)" d="m0 0 3 1v2l-22 1v-1l16-2z" fill="#F4B973"/>
<path transform="translate(1211,1058)" d="m0 0 3 4 1 4-7 1-4-1v-2h8z" fill="#B7B7B7"/>
<path transform="translate(292,1020)" d="m0 0h5l-3 2-5 4-2 4h-2l2-6z" fill="#99999B"/>
<path transform="translate(1245,918)" d="m0 0 4 3 5 2-1 4-4-2-4-5z" fill="#F3B367"/>
<path transform="translate(1214,918)" d="m0 0 5 2 2 4 3 3-3 1-7-8z" fill="#F1A352"/>
<path transform="translate(1276,961)" d="m0 0h2l-2 4h-13l4-2z" fill="#F6CA98"/>
<path transform="translate(484,951)" d="m0 0v3l-10 7-2-2 8-6z" fill="#F5C189"/>
<path transform="translate(400,882)" d="m0 0h1l2 6 2 3 4 2h-3l-1 2v-2l-4-2-1-1z" fill="#F6CB98"/>
<path transform="translate(639,534)" d="m0 0h1l1 13h-3v-11z" fill="#ED8B26"/>
<path transform="translate(241,1042)" d="m0 0h6v2l-5 1v10l-2 2v-14z" fill="#B3B4B4"/>
<path transform="translate(1205,1028)" d="m0 0 2 2v10h-2l-1-8z" fill="#A8A9AA"/>
<path transform="translate(778,586)" d="m0 0h19l-1 4-3-2-15-1z" fill="#E36326"/>
<path transform="translate(1e3 966)" d="m0 0 2 1z" fill="#FDFDFD"/>
<path transform="translate(834,965)" d="m0 0" fill="#FDFDFD"/>
<path transform="translate(1e3 878)" d="m0 0" fill="#FDFDFD"/>
<path transform="translate(518,588)" d="m0 0" fill="#FDFDFD"/>
<path transform="translate(544,385)" d="m0 0" fill="#FDFDFD"/>
<path transform="translate(631,280)" d="m0 0" fill="#FDFDFD"/>
<path transform="translate(1273,966)" d="m0 0" fill="#FDFDFD"/>
<path transform="translate(689,937)" d="m0 0" fill="#FDFDFD"/>
<path transform="translate(714,882)" d="m0 0" fill="#FDFDFD"/>
</svg>
