<svg class="svg-icon" style="width: 1em; height: 1em;vertical-align: middle;fill: currentColor;overflow: hidden;" viewBox="0 0 1024 1024" version="1.1" xmlns="http://www.w3.org/2000/svg"><path d="M512 153.58c-162.28 0-294.3 132.04-294.3 294.32 0 56.78 16.22 111.9 46.88 159.4a294.97 294.97 0 0 0 115.8 103.82v19.72h-17.92c-5.52 0-10 4.48-10 10s4.48 10 10 10h17.92v175.7c0 5.52 4.46 10 10 10h52.38v36.98c0 5.52 4.48 10 10 10h118.5c5.52 0 10-4.48 10-10v-36.98h52.38c5.52 0 10-4.48 10-10v-51.58h17.92c5.52 0 10-4.46 10-10 0-5.52-4.48-10-10-10h-17.92v-40.28h17.92c5.52 0 10-4.48 10-10s-4.48-10-10-10h-17.92v-43.84h17.92c5.52 0 10-4.48 10-10s-4.48-10-10-10h-17.92v-19.72a294.97 294.97 0 0 0 115.8-103.82c30.66-47.5 46.86-102.62 46.86-159.4 0-162.28-132.02-294.32-294.3-294.32z m49.26 809.94h-98.5v-26.98h98.5v26.98z m62.38-168.84h-138.48c-5.54 0-10 4.48-10 10s4.46 10 10 10h138.48v40.28h-138.48c-5.54 0-10 4.48-10 10 0 5.54 4.46 10 10 10h138.48v41.58h-52.3c-0.02 0-0.06-0.02-0.08-0.02s-0.06 0.02-0.08 0.02h-118.34c-0.02 0-0.04-0.02-0.08-0.02-0.02 0-0.04 0.02-0.08 0.02h-52.3v-165.7h223.26v43.84z m-120.56-306.74c0-6.12 4.98-11.1 11.1-11.1s11.1 4.98 11.1 11.1c0 6.12-4.98 11.1-11.1 11.1s-11.1-4.98-11.1-11.1z m126.28 207.94c-0.2 0.1-0.36 0.24-0.56 0.34-0.32 0.18-0.66 0.36-0.96 0.58-0.26 0.18-0.5 0.4-0.74 0.6-0.24 0.22-0.48 0.42-0.7 0.66-0.24 0.24-0.44 0.5-0.64 0.76-0.18 0.26-0.38 0.5-0.54 0.76-0.18 0.28-0.32 0.56-0.46 0.84a7 7 0 0 0-0.7 1.82c-0.1 0.3-0.18 0.6-0.24 0.92-0.06 0.36-0.08 0.74-0.12 1.12 0 0.22-0.06 0.42-0.06 0.64v25.92h-99.48V517.36c12.26-4.18 21.12-15.78 21.12-29.42 0-17.14-13.96-31.1-31.1-31.1-17.16 0-31.1 13.96-31.1 31.1 0 13.64 8.84 25.24 21.08 29.42v213.48h-103.78v-25.92c0-0.24-0.06-0.48-0.08-0.72-0.02-0.34-0.04-0.68-0.1-1.02-0.06-0.34-0.16-0.68-0.26-1-0.08-0.28-0.16-0.56-0.26-0.84-0.12-0.34-0.28-0.66-0.46-0.96-0.12-0.26-0.26-0.52-0.4-0.78-0.18-0.28-0.4-0.54-0.6-0.82-0.2-0.24-0.38-0.48-0.6-0.7-0.22-0.26-0.5-0.48-0.76-0.7-0.22-0.2-0.44-0.4-0.68-0.58-0.32-0.22-0.66-0.4-1.02-0.6-0.16-0.1-0.32-0.22-0.5-0.32-95.36-45.2-156.96-142.54-156.96-247.98 0-151.26 123.06-274.32 274.3-274.32 151.26 0 274.3 123.06 274.3 274.32 0 105.44-61.6 202.78-156.94 247.98z" fill="#23130D" /><path d="M525.28 487.94c0 6.12-4.98 11.1-11.1 11.1s-11.1-4.98-11.1-11.1c0-6.12 4.98-11.1 11.1-11.1s11.1 4.98 11.1 11.1z" fill="#E1E1E5" /><path d="M462.76 936.54h98.5v26.98h-98.5z" fill="#636368" /><path d="M462.76 936.54h38.24v26.98h-38.24z" opacity=".2" /><path d="M594.3 617.02v9.84l6.82-3.02-6.82-6.82z m0 0v9.84l6.82-3.02-6.82-6.82z m0 0v9.84l6.82-3.02-6.82-6.82z m-266.96-165.48v12.18l61.4 61.4c0.2 0.2 0.36 0.44 0.54 0.66 0.24 0.28 0.48 0.54 0.68 0.84 0.26 0.38 0.44 0.76 0.64 1.16 0.08 0.18 0.2 0.36 0.28 0.56 0.2 0.48 0.34 0.98 0.46 1.46 0.04 0.14 0.1 0.26 0.12 0.4 0.14 0.68 0.2 1.36 0.2 2.06v75.76l42.38 18.84v-68.62l-106.7-106.7z m72.34-0.72l4.36 4.34v-2.48c-1.5-0.52-2.96-1.14-4.36-1.86z m194.62 166.2v9.84l6.82-3.02-6.82-6.82z m-266.96-165.48v12.18l61.4 61.4c0.2 0.2 0.36 0.44 0.54 0.66 0.24 0.28 0.48 0.54 0.68 0.84 0.26 0.38 0.44 0.76 0.64 1.16 0.08 0.18 0.2 0.36 0.28 0.56 0.2 0.48 0.34 0.98 0.46 1.46 0.04 0.14 0.1 0.26 0.12 0.4 0.14 0.68 0.2 1.36 0.2 2.06v75.76l42.38 18.84v-68.62l-106.7-106.7z m72.34-0.72l4.36 4.34v-2.48c-1.5-0.52-2.96-1.14-4.36-1.86z m194.62 166.2v9.84l6.82-3.02-6.82-6.82z m-266.96-165.48v12.18l61.4 61.4c0.2 0.2 0.36 0.44 0.54 0.66 0.24 0.28 0.48 0.54 0.68 0.84 0.26 0.38 0.44 0.76 0.64 1.16 0.08 0.18 0.2 0.36 0.28 0.56 0.2 0.48 0.34 0.98 0.46 1.46 0.04 0.14 0.1 0.26 0.12 0.4 0.14 0.68 0.2 1.36 0.2 2.06v75.76l42.38 18.84v-68.62l-106.7-106.7z m72.34-0.72l4.36 4.34v-2.48c-1.5-0.52-2.96-1.14-4.36-1.86z m194.62 51.5v124.54l6.82-3.02 35.56-15.82v-63.32l-42.38-42.38z m-266.96-50.78v12.18l61.4 61.4c0.2 0.2 0.36 0.44 0.54 0.66 0.24 0.28 0.48 0.54 0.68 0.84 0.26 0.38 0.44 0.76 0.64 1.16 0.08 0.18 0.2 0.36 0.28 0.56 0.2 0.48 0.34 0.98 0.46 1.46 0.04 0.14 0.1 0.26 0.12 0.4 0.14 0.68 0.2 1.36 0.2 2.06v75.76l42.38 18.84v-68.62l-106.7-106.7z m76.7 1.14c-1.5-0.52-2.96-1.14-4.36-1.86l4.36 4.34v-2.48zM512 173.58c-44.44 0-86.44 10.62-123.6 29.46a275.24 275.24 0 0 0-55.84 37.54c-10.44 9.06-20.18 18.88-29.16 29.38-8.68 10.16-16.66 20.98-23.8 32.36a286.06 286.06 0 0 0-10.4 18c-8.68 16.46-15.74 33.9-20.96 52.12-6.86 24-10.54 49.3-10.54 75.46 0 105.44 61.6 202.78 156.96 247.98 0.18 0.1 0.34 0.22 0.5 0.32 0.36 0.2 0.7 0.38 1.02 0.6 0.24 0.18 0.46 0.38 0.68 0.58 0.26 0.22 0.54 0.44 0.76 0.7 0.22 0.22 0.4 0.46 0.6 0.7 0.2 0.28 0.42 0.54 0.6 0.82 0.14 0.26 0.28 0.52 0.4 0.78 0.18 0.3 0.34 0.62 0.46 0.96 0.1 0.28 0.18 0.56 0.26 0.84 0.1 0.32 0.2 0.66 0.26 1 0.06 0.34 0.08 0.68 0.1 1.02 0.02 0.24 0.08 0.48 0.08 0.72v25.92h103.78V517.36c-12.24-4.18-21.08-15.78-21.08-29.42 0-10.4 5.14-19.64 13.02-25.28a30.72 30.72 0 0 1 18.08-5.82c17.14 0 31.1 13.96 31.1 31.1 0 6.74-2.16 12.98-5.82 18.06a31.434 31.434 0 0 1-15.3 11.36v213.48h99.48v-25.92c0-0.22 0.06-0.42 0.06-0.64 0.04-0.38 0.06-0.76 0.12-1.12 0.06-0.32 0.14-0.62 0.24-0.92a7 7 0 0 1 0.7-1.82c0.14-0.28 0.28-0.56 0.46-0.84 0.16-0.26 0.36-0.5 0.54-0.76 0.2-0.26 0.4-0.52 0.64-0.76 0.22-0.24 0.46-0.44 0.7-0.66 0.24-0.2 0.48-0.42 0.74-0.6 0.3-0.22 0.64-0.4 0.96-0.58 0.2-0.1 0.36-0.24 0.56-0.34 3.46-1.64 6.88-3.34 10.24-5.14 6.18-3.24 12.18-6.7 18.02-10.4 11.42-7.16 22.22-15.14 32.34-23.82 10.52-9.02 20.3-18.8 29.3-29.24a276.34 276.34 0 0 0 37.44-55.94c19.08-37.68 29.6-79.88 29.6-123.44 0-151.26-123.04-274.32-274.3-274.32z m-66.86 249.7c0 12.04-6.9 22.48-16.94 27.64-1.34 0.7-2.72 1.28-4.16 1.78v9.46l27.08 27.08c0.06 0.08 0.1 0.16 0.16 0.22 0.4 0.42 0.76 0.84 1.08 1.3 0.18 0.3 0.32 0.6 0.48 0.9 0.14 0.28 0.32 0.54 0.44 0.82 0.14 0.38 0.24 0.78 0.36 1.16 0.06 0.24 0.16 0.46 0.2 0.72 0.14 0.64 0.2 1.32 0.2 1.98v145.9c0 3.38-1.72 6.54-4.56 8.38-1.64 1.08-3.54 1.62-5.44 1.62-1.38 0-2.76-0.28-4.06-0.86l-62.38-27.72a9.976 9.976 0 0 1-5.94-9.14v-78.2l-61.38-61.38c-0.22-0.22-0.38-0.48-0.58-0.7-0.22-0.28-0.46-0.52-0.66-0.82-0.22-0.34-0.4-0.7-0.58-1.06-0.12-0.22-0.24-0.42-0.34-0.66-0.18-0.4-0.28-0.84-0.4-1.26-0.06-0.2-0.14-0.4-0.18-0.6-0.12-0.66-0.2-1.32-0.2-2V413.6c-12.24-4.18-21.1-15.78-21.1-29.42 0-12.64 7.58-23.54 18.42-28.4 3.88-1.74 8.16-2.7 12.68-2.7 17.14 0 31.1 13.94 31.1 31.1 0 4.52-0.96 8.82-2.72 12.68a31.25 31.25 0 0 1-18.38 16.74v50.12l61.4 61.4c0.2 0.2 0.36 0.44 0.54 0.66 0.24 0.28 0.48 0.54 0.68 0.84 0.26 0.38 0.44 0.76 0.64 1.16 0.08 0.18 0.2 0.36 0.28 0.56 0.2 0.48 0.34 0.98 0.46 1.46 0.04 0.14 0.1 0.26 0.12 0.4 0.14 0.68 0.2 1.36 0.2 2.06v75.76l42.38 18.84v-126.4l-27.08-27.08s-0.02-0.02-0.02-0.04a9.6 9.6 0 0 1-1.22-1.48c-0.16-0.24-0.28-0.5-0.4-0.76-0.18-0.32-0.38-0.62-0.52-0.96-0.12-0.32-0.2-0.64-0.3-0.94-0.08-0.32-0.2-0.62-0.26-0.94-0.12-0.54-0.16-1.08-0.18-1.62 0-0.12-0.02-0.22-0.02-0.34v-13.62c-1.5-0.52-2.96-1.14-4.36-1.86-5.66-2.96-10.3-7.6-13.22-13.24a30.506 30.506 0 0 1-3.52-14.3c0-5.1 1.24-9.92 3.44-14.18 5.14-10.04 15.6-16.92 27.66-16.92 5.88 0 11.38 1.64 16.08 4.48l0.02 0.02c4.28 2.6 7.88 6.2 10.48 10.48l0.02 0.02c2.86 4.7 4.5 10.2 4.5 16.1z m211.54 113.04v78.2c0 2.4-0.84 4.64-2.3 6.4-0.98 1.16-2.2 2.1-3.64 2.74l-34.48 15.32-19.68 8.74-8.22 3.66c-1.28 0.58-2.68 0.86-4.06 0.86-1.9 0-3.8-0.54-5.44-1.62a9.996 9.996 0 0 1-4.56-8.38v-145.92c0-0.66 0.08-1.32 0.2-1.96 0.06-0.28 0.16-0.54 0.24-0.82 0.12-0.34 0.2-0.7 0.34-1.04 0.12-0.32 0.3-0.62 0.46-0.92 0.16-0.26 0.28-0.54 0.46-0.8 0.32-0.5 0.7-0.96 1.12-1.38 0.04-0.04 0.06-0.1 0.12-0.16l2-1.98 25.08-25.1v-9.46c-12.26-4.18-21.1-15.78-21.1-29.42 0-7.14 2.4-13.72 6.46-18.96 5.68-7.38 14.62-12.14 24.64-12.14 17.14 0 31.1 13.94 31.1 31.1 0 10.02-4.78 18.94-12.18 24.6a30.74 30.74 0 0 1-8.92 4.8v13.62c0 0.24-0.06 0.46-0.06 0.68-0.04 0.44-0.06 0.86-0.14 1.28-0.06 0.36-0.2 0.7-0.3 1.04-0.1 0.28-0.16 0.56-0.26 0.82-0.16 0.38-0.36 0.72-0.56 1.06-0.12 0.22-0.22 0.46-0.36 0.68-0.38 0.54-0.78 1.06-1.26 1.52l-27.08 27.08v126.4l6.82-3.02 35.56-15.82v-75.76c0-0.7 0.06-1.38 0.2-2.06 0.04-0.14 0.1-0.28 0.14-0.42 0.12-0.48 0.24-0.96 0.44-1.44 0.08-0.2 0.22-0.4 0.32-0.6 0.18-0.38 0.36-0.76 0.6-1.12 0.24-0.34 0.52-0.66 0.8-0.98 0.16-0.16 0.26-0.36 0.42-0.52l35.44-35.44 25.96-25.94v-50.16c-12.24-4.16-21.08-15.76-21.08-29.4 0-17.16 13.94-31.1 31.08-31.1 17.16 0 31.1 13.94 31.1 31.1 0 13.64-8.84 25.24-21.1 29.42v54.2c0 0.7-0.06 1.38-0.2 2.06-0.02 0.1-0.06 0.2-0.1 0.32-0.12 0.52-0.26 1.04-0.48 1.54-0.06 0.16-0.16 0.3-0.22 0.44-0.22 0.44-0.42 0.88-0.7 1.28-0.1 0.16-0.24 0.3-0.36 0.44-0.28 0.36-0.54 0.74-0.86 1.06l-28.9 28.88-32.5 32.5z m-257-85.5l4.36 4.34v-2.48c-1.5-0.52-2.96-1.14-4.36-1.86z m-72.34 0.72v12.18l61.4 61.4c0.2 0.2 0.36 0.44 0.54 0.66 0.24 0.28 0.48 0.54 0.68 0.84 0.26 0.38 0.44 0.76 0.64 1.16 0.08 0.18 0.2 0.36 0.28 0.56 0.2 0.48 0.34 0.98 0.46 1.46 0.04 0.14 0.1 0.26 0.12 0.4 0.14 0.68 0.2 1.36 0.2 2.06v75.76l42.38 18.84v-68.62l-106.7-106.7z m266.96 50.78v124.54l6.82-3.02 35.56-15.82v-63.32l-42.38-42.38z m-194.62-51.5l4.36 4.34v-2.48c-1.5-0.52-2.96-1.14-4.36-1.86z m-72.34 0.72v12.18l61.4 61.4c0.2 0.2 0.36 0.44 0.54 0.66 0.24 0.28 0.48 0.54 0.68 0.84 0.26 0.38 0.44 0.76 0.64 1.16 0.08 0.18 0.2 0.36 0.28 0.56 0.2 0.48 0.34 0.98 0.46 1.46 0.04 0.14 0.1 0.26 0.12 0.4 0.14 0.68 0.2 1.36 0.2 2.06v75.76l42.38 18.84v-68.62l-106.7-106.7z m266.96 165.48v9.84l6.82-3.02-6.82-6.82z m-194.62-166.2l4.36 4.34v-2.48c-1.5-0.52-2.96-1.14-4.36-1.86z m-72.34 0.72v12.18l61.4 61.4c0.2 0.2 0.36 0.44 0.54 0.66 0.24 0.28 0.48 0.54 0.68 0.84 0.26 0.38 0.44 0.76 0.64 1.16 0.08 0.18 0.2 0.36 0.28 0.56 0.2 0.48 0.34 0.98 0.46 1.46 0.04 0.14 0.1 0.26 0.12 0.4 0.14 0.68 0.2 1.36 0.2 2.06v75.76l42.38 18.84v-68.62l-106.7-106.7z m266.96 165.48v9.84l6.82-3.02-6.82-6.82z m-194.62-166.2l4.36 4.34v-2.48c-1.5-0.52-2.96-1.14-4.36-1.86z m194.62 166.2v9.84l6.82-3.02-6.82-6.82z m0 0v9.84l6.82-3.02-6.82-6.82z m0 0v9.84l6.82-3.02-6.82-6.82z" fill="#F9C139" /><path d="M432.2 703.18c-0.06-0.34-0.16-0.68-0.26-1-0.08-0.28-0.16-0.56-0.26-0.84-0.12-0.34-0.28-0.66-0.46-0.96-0.12-0.26-0.26-0.52-0.4-0.78-0.18-0.28-0.4-0.54-0.6-0.82-0.2-0.24-0.38-0.48-0.6-0.7-0.22-0.26-0.5-0.48-0.76-0.7-0.22-0.2-0.44-0.4-0.68-0.58-0.32-0.22-0.66-0.4-1.02-0.6-0.16-0.1-0.32-0.22-0.5-0.32-95.36-45.2-156.96-142.54-156.96-247.98 0-145.88 114.48-265.54 258.3-273.86-5.3-0.3-10.64-0.46-16-0.46-151.24 0-274.3 123.06-274.3 274.32 0 105.44 61.6 202.78 156.96 247.98 0.18 0.1 0.34 0.22 0.5 0.32 0.36 0.2 0.7 0.38 1.02 0.6 0.24 0.18 0.46 0.38 0.68 0.58 0.26 0.22 0.54 0.44 0.76 0.7 0.22 0.22 0.4 0.46 0.6 0.7 0.2 0.28 0.42 0.54 0.6 0.82 0.14 0.26 0.28 0.52 0.4 0.78 0.18 0.3 0.34 0.62 0.46 0.96 0.1 0.28 0.18 0.56 0.26 0.84 0.1 0.32 0.2 0.66 0.26 1 0.06 0.34 0.08 0.68 0.1 1.02 0.02 0.24 0.08 0.48 0.08 0.72v25.92h32v-25.92c0-0.24-0.06-0.48-0.08-0.72-0.02-0.34-0.04-0.68-0.1-1.02z" opacity=".2" /><path d="M475.16 804.68c0 5.52 4.46 10 10 10h138.48v40.28h-138.48c-5.54 0-10 4.48-10 10 0 5.54 4.46 10 10 10h138.48v41.58h-52.3c-0.02 0-0.06-0.02-0.08-0.02s-0.06 0.02-0.08 0.02h-118.34c-0.02 0-0.04-0.02-0.08-0.02-0.02 0-0.04 0.02-0.08 0.02h-52.3v-165.7h223.26v43.84h-138.48c-5.54 0-10 4.48-10 10z" fill="#E1E1E5" /><path d="M512.006 105.306a10 10 0 0 0 10-10V50.476a10 10 0 1 0-20 0v44.83a10 10 0 0 0 10 10zM329.85 146.794a9.994 9.994 0 0 0 13.66 3.66 10 10 0 0 0 3.66-13.66l-22.41-38.82a10 10 0 0 0-17.32 10l22.41 38.82zM167.69 255.046l38.82 22.416a10 10 0 0 0 10.002-17.32l-38.82-22.416a10 10 0 0 0-10.002 17.32zM175.018 442.302a10 10 0 0 0-10-10H120.184a10 10 0 0 0 0 20h44.834a10 10 0 0 0 10-10zM206.512 607.134l-38.834 22.4a10 10 0 1 0 9.994 17.324l38.834-22.4a10 10 0 1 0-9.994-17.324zM856.32 629.55l-38.82-22.406a9.988 9.988 0 0 0-13.658 3.662 9.996 9.996 0 0 0 3.662 13.658l38.82 22.406a9.992 9.992 0 0 0 13.658-3.662 9.996 9.996 0 0 0-3.662-13.658zM903.816 432.316H859a10 10 0 1 0 0 20h44.816a10 10 0 1 0 0-20zM812.518 278.804c1.696 0 3.416-0.432 4.99-1.342l38.814-22.41c4.784-2.762 6.422-8.876 3.66-13.66s-8.876-6.424-13.66-3.66l-38.814 22.41a9.998 9.998 0 0 0 5.01 18.662zM680.502 150.454a9.998 9.998 0 0 0 13.662-3.658l22.418-38.812a10.002 10.002 0 0 0-17.32-10.004l-22.418 38.812a10.002 10.002 0 0 0 3.658 13.662zM711 353.08c-17.14 0-31.08 13.94-31.08 31.1 0 13.64 8.84 25.24 21.08 29.4v50.16l-61.4 61.38c-0.16 0.16-0.26 0.36-0.42 0.52-0.28 0.32-0.56 0.64-0.8 0.98-0.24 0.36-0.42 0.74-0.6 1.12-0.1 0.2-0.24 0.4-0.32 0.6-0.2 0.48-0.32 0.96-0.44 1.44-0.04 0.14-0.1 0.28-0.14 0.42-0.14 0.68-0.2 1.36-0.2 2.06v75.76l-42.38 18.84v-126.4l27.08-27.08c0.48-0.46 0.88-0.98 1.26-1.52 0.14-0.22 0.24-0.46 0.36-0.68 0.2-0.34 0.4-0.68 0.56-1.06 0.1-0.26 0.16-0.54 0.26-0.82 0.1-0.34 0.24-0.68 0.3-1.04 0.08-0.42 0.1-0.84 0.14-1.28 0-0.22 0.06-0.44 0.06-0.68v-13.62c12.24-4.16 21.1-15.76 21.1-29.4 0-17.16-13.96-31.1-31.1-31.1-17.16 0-31.1 13.94-31.1 31.1 0 13.64 8.84 25.24 21.1 29.42v9.46l-27.08 27.08c-0.06 0.06-0.08 0.12-0.12 0.16-0.42 0.42-0.8 0.88-1.12 1.38-0.18 0.26-0.3 0.54-0.46 0.8-0.16 0.3-0.34 0.6-0.46 0.92-0.14 0.34-0.22 0.7-0.34 1.04-0.08 0.28-0.18 0.54-0.24 0.82-0.12 0.64-0.2 1.3-0.2 1.96v145.92c0 3.38 1.72 6.54 4.56 8.38 1.64 1.08 3.54 1.62 5.44 1.62 1.38 0 2.78-0.28 4.06-0.86l62.38-27.72c3.62-1.6 5.94-5.18 5.94-9.14v-78.2l61.4-61.38c0.32-0.32 0.58-0.7 0.86-1.06 0.12-0.14 0.26-0.28 0.36-0.44 0.28-0.4 0.48-0.84 0.7-1.28 0.06-0.14 0.16-0.28 0.22-0.44 0.22-0.5 0.36-1.02 0.48-1.54 0.04-0.12 0.08-0.22 0.1-0.32 0.14-0.68 0.2-1.36 0.2-2.06v-54.2c12.26-4.18 21.1-15.78 21.1-29.42 0-17.16-13.94-31.1-31.1-31.1z m-107.78 70.2c0-6.12 4.98-11.1 11.1-11.1s11.1 4.98 11.1 11.1-4.98 11.1-11.1 11.1-11.1-4.98-11.1-11.1z m107.78-28c-6.1 0-11.08-4.98-11.08-11.1s4.98-11.1 11.08-11.1c6.12 0 11.1 4.98 11.1 11.1s-4.98 11.1-11.1 11.1z" fill="#23130D" /><path d="M722.1 384.18c0 6.12-4.98 11.1-11.1 11.1-6.1 0-11.08-4.98-11.08-11.1s4.98-11.1 11.08-11.1c6.12 0 11.1 4.98 11.1 11.1zM625.42 423.28c0 6.12-4.98 11.1-11.1 11.1s-11.1-4.98-11.1-11.1 4.98-11.1 11.1-11.1 11.1 4.98 11.1 11.1z" fill="#E1E1E5" /><path d="M453.84 494.36c-0.04-0.26-0.14-0.48-0.2-0.72-0.12-0.38-0.22-0.78-0.36-1.16-0.12-0.28-0.3-0.54-0.44-0.82-0.16-0.3-0.3-0.6-0.48-0.9-0.32-0.46-0.68-0.88-1.08-1.3-0.06-0.06-0.1-0.14-0.16-0.22l-27.08-27.08v-9.46c12.24-4.18 21.1-15.78 21.1-29.42 0-17.16-13.96-31.1-31.1-31.1-17.16 0-31.1 13.94-31.1 31.1 0 13.64 8.84 25.24 21.1 29.4v13.62c0 0.12 0.02 0.22 0.02 0.34 0.02 0.54 0.06 1.08 0.18 1.62 0.06 0.32 0.18 0.62 0.26 0.94 0.1 0.3 0.18 0.62 0.3 0.94 0.14 0.34 0.34 0.64 0.52 0.96 0.12 0.26 0.24 0.52 0.4 0.76 0.36 0.54 0.76 1.02 1.22 1.48 0 0.02 0.02 0.04 0.02 0.04l27.08 27.08v126.4l-42.38-18.84v-75.76c0-0.7-0.06-1.38-0.2-2.06-0.02-0.14-0.08-0.26-0.12-0.4-0.12-0.48-0.26-0.98-0.46-1.46-0.08-0.2-0.2-0.38-0.28-0.56-0.2-0.4-0.38-0.78-0.64-1.16-0.2-0.3-0.44-0.56-0.68-0.84-0.18-0.22-0.34-0.46-0.54-0.66l-61.4-61.4V413.6c12.26-4.18 21.1-15.78 21.1-29.42 0-17.16-13.96-31.1-31.1-31.1s-31.1 13.94-31.1 31.1c0 13.64 8.86 25.24 21.1 29.42v54.24c0 0.68 0.08 1.34 0.2 2 0.04 0.2 0.12 0.4 0.18 0.6 0.12 0.42 0.22 0.86 0.4 1.26 0.1 0.24 0.22 0.44 0.34 0.66 0.18 0.36 0.36 0.72 0.58 1.06 0.2 0.3 0.44 0.54 0.66 0.82 0.2 0.22 0.36 0.48 0.58 0.7l61.38 61.38v78.2c0 3.96 2.32 7.54 5.94 9.14l62.38 27.72c1.3 0.58 2.68 0.86 4.06 0.86 1.9 0 3.8-0.54 5.44-1.62 2.84-1.84 4.56-5 4.56-8.38v-145.9c0-0.66-0.06-1.34-0.2-1.98z m-39.8-59.98c-6.12 0-11.1-4.98-11.1-11.1s4.98-11.1 11.1-11.1 11.1 4.98 11.1 11.1-4.98 11.1-11.1 11.1z m-96.7-39.1c-6.12 0-11.1-4.98-11.1-11.1s4.98-11.1 11.1-11.1 11.1 4.98 11.1 11.1-4.98 11.1-11.1 11.1z" fill="#23130D" /><path d="M425.14 423.28c0 6.12-4.98 11.1-11.1 11.1s-11.1-4.98-11.1-11.1 4.98-11.1 11.1-11.1 11.1 4.98 11.1 11.1zM328.44 384.18c0 6.12-4.98 11.1-11.1 11.1s-11.1-4.98-11.1-11.1 4.98-11.1 11.1-11.1 11.1 4.98 11.1 11.1z" fill="#E1E1E5" /><path d="M400.38 750.84h32.62v165.7h-32.62z" opacity=".2" /><path d="M307.34 413.6v17.94l-59.1-59.1c5.22-18.22 12.28-35.66 20.96-52.12l35.46 35.46c-10.84 4.86-18.42 15.76-18.42 28.4 0 13.64 8.86 25.24 21.1 29.42zM406.96 473.38l27.08 27.08v57.78l-106.7-106.7V413.6c8.2-2.8 14.88-8.92 18.38-16.74l40.74 40.72 13.22 13.24 4.36 4.34v11.14c0 0.12 0.02 0.22 0.02 0.34 0.02 0.54 0.06 1.08 0.18 1.62 0.06 0.32 0.18 0.62 0.26 0.94 0.1 0.3 0.18 0.62 0.3 0.94 0.14 0.34 0.34 0.64 0.52 0.96 0.12 0.26 0.24 0.52 0.4 0.76 0.36 0.54 0.76 1.02 1.22 1.48 0 0.02 0.02 0.04 0.02 0.04zM454.04 505.16l50.12 50.14v73.06l-50.12-50.12zM639.6 690.74c-3.36 1.8-6.78 3.5-10.24 5.14-0.2 0.1-0.36 0.24-0.56 0.34-0.32 0.18-0.66 0.36-0.96 0.58-0.26 0.18-0.5 0.4-0.74 0.6-0.24 0.22-0.48 0.42-0.7 0.66-0.24 0.24-0.44 0.5-0.64 0.76-0.18 0.26-0.38 0.5-0.54 0.76-0.18 0.28-0.32 0.56-0.46 0.84a7 7 0 0 0-0.7 1.82c-0.1 0.3-0.18 0.6-0.24 0.92-0.06 0.36-0.08 0.74-0.12 1.12 0 0.22-0.06 0.42-0.06 0.64v25.92h-17l-82.48-82.48v-73.06l50.14 50.14v16.8c0 3.38 1.72 6.54 4.56 8.38 1.64 1.08 3.54 1.62 5.44 1.62 1.38 0 2.78-0.28 4.06-0.86l8.22-3.66 43.02 43.02zM430.12 396.66c-4.7-2.84-10.2-4.48-16.08-4.48-12.06 0-22.52 6.88-27.66 16.92l-106.78-106.78c7.14-11.38 15.12-22.2 23.8-32.36l126.72 126.7zM504.16 517.36v9.52l-75.96-75.96c10.04-5.16 16.94-15.6 16.94-27.64 0-5.9-1.64-11.4-4.5-16.1l55.46 55.48c-7.88 5.64-13.02 14.88-13.02 25.28 0 13.64 8.84 25.24 21.08 29.42zM539.46 506l34.84 34.84v56.18l-50.14-50.14v-29.52c6.2-2.12 11.54-6.14 15.3-11.36zM636.68 608.02l-35.56 15.82-6.82-6.82v-56.18l42.38 42.38zM689.96 656.52c-10.12 8.68-20.92 16.66-32.34 23.82l-41.36-41.36 34.48-15.32c1.44-0.64 2.66-1.58 3.64-2.74l35.58 35.6zM604.32 462.16l-25.08 25.1-246.68-246.68a275.24 275.24 0 0 1 55.84-37.54l201.28 201.28a30.84 30.84 0 0 0-6.46 18.96c0 13.64 8.84 25.24 21.1 29.42v9.46zM675.04 489.68l-35.44 35.44c-0.16 0.16-0.26 0.36-0.42 0.52-0.28 0.32-0.56 0.64-0.8 0.98-0.24 0.36-0.42 0.74-0.6 1.12-0.1 0.2-0.24 0.4-0.32 0.6-0.2 0.48-0.32 0.96-0.44 1.44-0.04 0.14-0.1 0.28-0.14 0.42-0.14 0.68-0.2 1.36-0.2 2.06v12.44l-42.38-42.38v-1.86l27.08-27.08c0.48-0.46 0.88-0.98 1.26-1.52 0.14-0.22 0.24-0.46 0.36-0.68 0.2-0.34 0.4-0.68 0.56-1.06 0.1-0.26 0.16-0.54 0.26-0.82 0.1-0.34 0.24-0.68 0.3-1.04 0.08-0.42 0.1-0.84 0.14-1.28 0-0.22 0.06-0.44 0.06-0.68v-13.62a30.74 30.74 0 0 0 8.92-4.8l41.8 41.8zM756.7 571.34a276.34 276.34 0 0 1-37.44 55.94l-62.58-62.58v-28.38l32.5-32.5 67.52 67.52z" fill="#FFFFFF" opacity=".4" /><path d="M766.334 456.84a10 10 0 0 1-10-10c0-133.524-108.63-242.154-242.154-242.154a10 10 0 0 1 0-20c144.552 0 262.154 117.602 262.154 262.154a10 10 0 0 1-10 10z" fill="#FFFFFF" /></svg>