<?xml version="1.0" encoding="UTF-8"?>
<svg version="1.1" viewBox="0 0 1920 1440" width="480" height="360" xmlns="http://www.w3.org/2000/svg">
<path transform="translate(0)" d="m0 0h1920v1440h-1920z" fill="#FDFDFD"/>
<path transform="translate(0)" d="m0 0h1920v1440h-1920zm249 104-13 3-21 9-17 9-19 13-14 11-12 11-5 5v2h-2l-11 14-9 13-8 14-8 20-4 13-3 20v918l3 21 6 20 8 18 9 15 12 16 11 12 10 10 11 9 15 11 15 9 15 8 17 6 5 1 47 1h1361l31-1 15-4 18-8 18-11 19-14 10-9 8-7 11-12 12-16 8-13 9-19 5-15 3-15 1-8 1-19v-868l-1-37-3-20-4-15-10-22-10-16-10-13-12-13-11-11-17-13-18-12-16-9-19-8-11-3-7-1z"/>
<path transform="translate(1418,867)" d="m0 0h18l16 2 19 4 23 7 16 8 11 7 13 10 14 14 7 9 6 9 4 8 3 7 3 4 2 10 4 12 1 8v39l-2 16-8 24-8 16-12 17-13 13-12 9-13 8-14 7-21 7-13 3-24 3h-30l-27-4-18-5-13-5-20-11-9-7-5-5-5-3-7-7-9-11-7-11-9-17-3-11-3-10-2-18v-29l2-18 7-22 8-16 10-16 5-4 7-9 13-11 10-7 19-10 15-5 16-4 23-4z" fill="#FDFDFD"/>
<path transform="translate(974,231)" d="m0 0 5 2 10 5 1 3v2l10 7 1-2 9 6 9 8 3 3 5 2 15-11-9-4-9-2-9-4-11-3-9-4-13-6v-1h6l7 3 23 7 10 2 18 6h5l11-9 6-4h2l3 4h-2l-1 2-8 6-5 3h-3v2l12 2 15 5 2 1 1-3 1 2 5 1 23 7 8 3 23 7 6 4 8 11 9 16 8 13 2 4 4 2 1 5v3l3 6 9 15 7 13 6 10 5 9 3 9h2l6 12 2 3v3h2l-1 2h-3l-3-1-2-5 1-2h-2l-5-7 6 12 2 3v3l-4 1 7 6-2 1-25-7-23-7-4-3-7-14-4-1-3-1 8 14-12-3-14-4-4-2-5-2 2-5 3-1v-3h2l2-6 5-9-2-5-4-6-6-7-5-3-5-5-6-4v-2l-4-2-9-6-4-4-3-2v-2l-4-1-3-3-9-7-14-10-8-7-11-7-5-3-12-4-1-1-9-1-6 3-19 14-17 12-19 14-12 9-5 3-1 1 40 12 106 34 31 10 8 6-2 3-48-15-31-10-37-12-21-6-12-5-27-9-11-3-6 1-13 10-13 9 4 16 7 32 9 42 12 57 2 12h42l12-3h6l3 1 5-1 1 3h42l3-2v2l5-1v2l113-1 4 1h50l-11-21 1-5 2 1 2-3 6 9v3h2l2 7h2l5 10 2 2v3l-48 1-7 11-15 29-10 17-5 3-31 10-24 8-6 5-7 8-7 7-4 5h-2v2l-5 1-23-10-60 20-10 5-5 8-5-1-1 8-3-1-1-9-12-3-46-14-53-15-46-14-25-7-7-3-8 1-8 4-9 3-5-1-1-26-1-5-4-1-8-16-12-21-2-3v-4l-3-1-39-1-3-2 2-3 7-1 9 1v2h7l-6-1 3-2 10-1 13 1 4 2 1 1h9 3 9l3-3 5 1v3l17-1-3-2 1-1h49v-3h5v-2l5 1 9 3h101l-7-38-8-37-3-16-4-16-7-33-2-13-11 7-13 10-17 12-36 26-19 14-12 9-3-2 7-8-2-2 4-1v-2l7-4 4-2v-2l3-1 1-2h3v-2l3-1 1-2h3v-2l4-1v-2h3l1-3h3v-2l3-1 1-2h3l1-3h3v-2l4-1v-2l5-3h2v-2l3-1 1-2h3v-2l7-4 4-2v-2l5-3h2v-2h3v-2l6-4 6-5h3l-4-23-2-5-1-2-1-4-9-2-36-12-10-3h-8l-9 6-14 10-19 14-13 10-19 14-10 7h-2l-2 20-1 8-1 53-3 2-1-14-1-65 1-56h1l1-14 2-2v31h2l1 15v17l4-4 3-1 6-6 3-1 3-3h2v-2l4-1v-2l3-1 1-2h3l1-3h3v-2l7-4 4-2v-2l6-4h2l1-3 3-2h3l1-3h3l1-3h3v-2h3v-2l5-3 2-4-9-2-44-14 1-3 11 1 29 9 16 4v2h7l3 3 17 4 10 4 28 9-1-12 6 2 2 12 9 3 25 8 6-1 4-4 11-8h3l1-3h3l1-3h3l1-3h3l1-3h3l1-3 23-16h3l1-3 13-9-5-3v-2h17v-3l-4-2-10-8-6-4v-3l-5-1-10-8-5-5-4-2-5-5 3-1z" fill="#701218"/>
<path transform="translate(947,213)" d="m0 0 2 1-9 10-4 1v2l3 1h-7v2l2 1-7 4-3 3-5 3h-2l3 3 26 8 56 18 9 3h8l2-1v3l-15 1-2-1 1 2 5 2-5 5-9 6-1 2-9 5-17 12-1 2-3 1-1 2-3 1-1 2-3 1-1 2-3 1-1 2-7 4-8 6h-2l-1 3-6 1-31-10-3-2-2-12-4 1v-3h-2l2 13-38-12-4-2-17-4v-2l-7-1v-2l-10-1-25-8-10-3-10-1 1 2 47 15 3 1 1 3-5 4h-3v2h-3v2l-3 1-1 2-3 1-1 2-6 3-5 5-4 1v2l-8 6h-3v2l-3 1-1 2h-3l-1 3h-3v2l-4 1v2l-4 1-1 3h-3l-1 3-4 1-1 3h-3l-2 4h-2l-1-17v-15h-2l-1-29-1 21h-1l-1 50 1 64 1 9h1l1-50 2-16 1-10 5-5 12-8 32-24 19-14 14-10 5-3h8l44 14 5 2 7 2 1 5 2 4 3 13 1 12-5 3-8 6h-2v2h-3v2l-5 3h-2v2l-8 6h-3v2h-3l-1 3h-3v2l-4 3h-3v2l-4 1v2l-3 1-1 2h-3l-1 3h-3v2l-3 1-1 2h-3v2l-4 1v2h-3l-1 3h-3v2h-3l-1 3h-3v2l-8 6h-3v2l-2 2 1 2-7 7h3l19-14 18-13 19-14 19-13 13-10 17-12h2l2 6 5 25 6 28 3 13 5 24 10 50v7l-73 1h-28l-9-3-5-2v2h-5v3l-49 1 3 3h-18v-3l-7 1 1 2h-11-2-10l-5-3-18-1-5 1 8 2v1l-12-1v-2l-6 1-5-2 5-5 13-9 3-1-3-7-7-12-9-16-1-4-4-1-1-4 1-3-8-4-12-5-16-8 5-5 18-13 3-3h2v-2l8-6v-6l6-3 2-10 4-4 5-10 4-9h2l2-6 5-11h2v-4h2l3-10 3-4 3-7h2l2-7 3-6 4-5 1-8 2-35 9 2 8 3 9 2h6l7-3 12-4h6v-2l47-14 35-11 4-1-2-18 4 1 3 2 13 4 6 2 9-1 21-6 14-8z" fill="#9D2528"/>
<path transform="translate(1398,834)" d="m0 0h66l16 2 27 6 19 6 15 6 20 9 5 3v2l6 2 1 3 4 2 10 7 5 3v2l3 1v3l4 2 5 5 4 5 4 4 9 13 4 5 7 16 9 27 3 30v15l-3 26-5 20-4 12-3 5-4 10-7 11-8 11-9 10-6 7-11 9-13 10-21 12-26 11-19 6-15 4-30 5-9 1h-59l-16-2-26-5-30-9-18-8-16-8-12-8-13-10-12-11-7-7-10-13-4-7-5-7-3-9-4-5-5-16-3-8-3-24v-30l4-27 4-10 4-14 3-3 5-12 3-4 4-7 10-13h2l2-4 8-9 11-9 4-2v-2l6-5 6-2 1-3 6-4 8-3 16-8 12-5 28-9 29-6zm20 33-19 2-26 5-21 7-24 13-13 11-8 7-4 6-6 5-12 20-6 13-6 20-2 18v29l2 18 3 10 4 13 8 15 10 15 15 16 6 3 5 6 15 9 14 7 17 6 17 4 21 3h30l29-4 21-6 19-8 13-8 11-8 12-11 9-10 10-15 8-18 6-19 2-16v-39l-2-11-4-12-2-9-4-5-4-10-6-10-14-16-10-10-11-8-13-8-14-7-26-8-22-4-10-1z" fill="#C52E33"/>
<path transform="translate(1018,283)" d="m0 0 9 1 9 4 7 3 10 6 10 8 13 10 9 6v2l5 2v2l4 1 3 3 4 3v2l5 2 8 6 3 3 8 6v2l5 2 9 10 4 8-3 7-4 7-1 2h-2v3l-4 4-1 2 7 1 2 2 25 7-8-13 1-2 4 3h3l7 12 2 4 11 4 35 10 5 1-7-6 3-1h2l-4-8-5-9 1-3 4 6 1 3h2l1 7 4 1 2-1 2 1 5 9 13 11 6 5-1 5-7 6-7 8-16 15-7 8 1 6 2 5-1 5-2-2-1 4 10 19v2l-35 1h-16l-7-1h-109v-2l-5 1h-2l-1 1h-42l-2-2 1-2-5 2-9-1-12 3h-32l-10-1-3-12-10-48-8-37-9-43-4-15-1-4 19-14 10-7 7 1 24 7 22 8 7 3 21 6 65 21 45 14v-3l-7-3-1-2-35-11-87-28-39-12-16-4 5-5 7-4 21-16 19-13 20-15 6-4z" fill="#992527"/>
<path transform="translate(780,733)" d="m0 0h65l6 2 14 18 13 16 11 13 9 11v2h2l6 8 11 13 11 14 13 15 6 8 8 10 18 22 6 8 5 5 11 13 7 9 8 10 11 14 8 11 8 10 6 9h5l9-13 11-15 2-4 2-1 2-4 5-5 2-4h2l1-4 5-5 7-8 3-5h2l1-4 5-4 3-5 3-2 4-7 4-3 3-5 5-5 6-7 1-3 3-2 2-4 2-1 3-5 7-8 3-2h69l-2 4-11 13-11 12-7 8-11 12-9 11-11 12-9 10-11 13-4 5-5 5-13 14-9 11-11 12-14 16-5 5h-2l1 3 5 4 9 12 5 4 4 6 11 12 9 11 10 11 9 11 9 10 7 9 10 11 10 13 5 5 11 12 11 14 9 9 7 9 7 7-1 2h-69l-3-1-5-8-10-11-11-14-9-11-11-13-11-14-12-14-9-10-9-11-11-13-13-17-2-4h-3l-9 13-9 12-10 13-9 12-5 5-11 14-7 9-8 10-22 28-6 8-8 11-6 6-18 1-50-1v-3l9-9 8-10 13-15 11-13 13-15 9-11 10-11 18-22 10-11 9-11 12-13 10-13 9-10 1-7-7-7-9-11-10-12-9-11-8-9-9-11-9-10-6-8-12-14-10-12-9-11-7-9-5-5-1-4-4-2-8-10-1-3-3-1-7-9-9-10-2-4-5-5-12-14-9-10-8-11-8-9v-2h-2v-2h-2l-9-11-11-13-8-11-6-6z" fill="#C42E33"/>
<path transform="translate(278,732)" d="m0 0h419l30 1 7 10 10 13 7 9 2 4-1 1-300 2-1 8-1 398h-62l-1-406-129-1-16-1v-37z" fill="#C42E32"/>
<path transform="translate(545,839)" d="m0 0h266l10 12 9 11 8 10v3h-226l-6 1v105l5 1h108l73 1 1 1v34l-1 1-186 1v120l230 1-1 5-9 11-10 13-7 7-122 1h-141l-2-2v-335z" fill="#C42E32"/>
<path transform="translate(931,344)" d="m0 0 7 1 24 7 22 8 7 3 21 6 65 21 45 14 3 3-4 4-6 11-3 4h-2v3h-2l-1 5h-2v3h-2l-1 4-6 9-5 8h-2l-1 4-4 5-4 7-6 10h-2l-1 4-1 2h-2l-2 6-4 3-66 22-17 4h-32l-10-1-3-12-10-48-8-37-9-43-4-15-1-4 19-14z" fill="#FDFCFC"/>
<path transform="translate(974,231)" d="m0 0 5 2 10 5 1 3v2l10 7 1-2 9 6 9 8 3 3 5 2 15-11-9-4-9-2-9-4-11-3-9-4-13-6v-1h6l7 3 23 7 10 2 18 6h5l11-9 6-4h2l3 4h-2l-1 2-8 6-5 3h-3v2l12 2 15 5 2 1 1-3 1 2 5 1 23 7 8 3 23 7 6 4 8 11 9 16 8 13 2 4 4 2 1 5v3l3 6 9 15 7 13 6 10 5 9 3 9h2l6 12 2 3v3h2l-1 2h-3l-3-1-2-5 1-2h-2l-5-7 6 12 2 3v3l-4 1 7 6-2 1-25-7-23-7-4-3-7-14-4-1-3-1 8 14-12-3-14-4-4-2-5-2 2-5 3-1v-3h2l2-6 5-9-2-5-4-6-6-7-5-3-5-5-6-4v-2l-4-2-9-6-4-4-3-2v-2l-4-1-3-3-9-7-14-10-8-7-11-7-5-3-12-4-1-1-9-1-6 3-19 14-17 12-19 14-12 9-5 3-1 1 40 12 106 34 31 10 8 6-2 3-48-15-31-10-37-12-21-6-12-5-27-9-11-3-6 1-13 10-13 9 4 16 7 32 9 42 12 57 2 12h42l12-3h6l3 1 5-1 1 3h42l3-2v2l5-1v2l113-1 4 1h50l-11-21 1-5 2 1 2-3 6 9v3h2l2 7h2l5 10 2 2v3l-48 1-9 1-2 3v-5l-11 1-4 2-2-1v-2l-117 1v2h-2l-1 2 1-5-63 1-18 7-7 1 1-2-2-2 1-2 8-2-12-1h-106l-7 2h-7l-10-2-74 1-1 20h-1l-4-18-1-4-22 1-5 1-3-1-43-1 2-4 7-1 9 1v2h7l-6-1 3-2 10-1 13 1 4 2 1 1h9 3 9l3-3 5 1v3l17-1-3-2 1-1h49v-3h5v-2l5 1 9 3h101l-7-38-8-37-3-16-4-16-7-33-2-13-11 7-13 10-17 12-36 26-19 14-12 9-3-2 7-8-2-2 4-1v-2l7-4 4-2v-2l3-1 1-2h3v-2l3-1 1-2h3v-2l4-1v-2h3l1-3h3v-2l3-1 1-2h3l1-3h3v-2l4-1v-2l5-3h2v-2l3-1 1-2h3v-2l7-4 4-2v-2l5-3h2v-2h3v-2l6-4 6-5h3l-4-23-2-5-1-2-1-4-9-2-36-12-10-3h-8l-9 6-14 10-19 14-13 10-19 14-10 7h-2l-2 20-1 8-1 53-3 2-1-14-1-65 1-56h1l1-14 2-2v31h2l1 15v17l4-4 3-1 6-6 3-1 3-3h2v-2l4-1v-2l3-1 1-2h3l1-3h3v-2l7-4 4-2v-2l6-4h2l1-3 3-2h3l1-3h3l1-3h3v-2h3v-2l5-3 2-4-9-2-44-14 1-3 11 1 29 9 16 4v2h7l3 3 17 4 10 4 28 9-1-12 6 2 2 12 9 3 25 8 6-1 4-4 11-8h3l1-3h3l1-3h3l1-3h3l1-3h3l1-3 23-16h3l1-3 13-9-5-3v-2h17v-3l-4-2-10-8-6-4v-3l-5-1-10-8-5-5-4-2-5-5 3-1z" fill="#C23336"/>
<path transform="translate(895,371)" d="m0 0h2l2 6 5 25 6 28 3 13 5 24 10 50v7l-73 1h-28l-9-3-42-19-21-9-13-7-1-4 7-6 34-24 20-15 54-39 14-10 19-14z" fill="#FDFCFC"/>
<path transform="translate(825,311)" d="m0 0h8l44 14 5 2 7 2 1 5 2 4 3 13 1 12-5 3-8 6h-2v2h-3v2l-5 3h-2v2l-8 6h-3v2h-3l-1 3h-3v2l-4 3h-3v2l-4 1v2l-3 1-1 2h-3l-1 3h-3v2l-3 1-1 2h-3v2l-4 1v2h-3l-1 3h-3v2h-3l-1 3h-3v2l-8 6h-3v2l-4 1v2h-3v2l-4 3h-3v2l-13 9-18 13-7 5h-1l-1-11-3-87 5-5 12-8 32-24 19-14 14-10z" fill="#FDFCFC"/>
<path transform="translate(1018,283)" d="m0 0 9 1 9 4 7 3 10 6 10 8 13 10 9 6v2l5 2v2l4 1 3 3 4 3v2l5 2 8 6 3 3 8 6v2l5 2 9 10 4 8-3 7-4 7-1 2h-2v3l-4 4-1 2-12-3-31-10-71-23-22-7-39-12-16-4 5-5 7-4 21-16 19-13 20-15 6-4z" fill="#FDFCFC"/>
<path transform="translate(766,287)" d="m0 0 11 1 29 9 16 4v2h7l3 3 17 4 10 4 28 9-1-12 6 2 2 12 9 3 22 7 2 4h-7l-22-7h-2l5 21 1 9 2 7 6 25 8 37 13 62 6 29v2h42l12-3h6l3 1 5-1 1 3h42l3-2v2l5-1v2l113-1 4 1h50l-11-21 1-5 2 1 2-3 6 9v3h2l2 7h2l5 10 2 2v3l-48 1-9 1-2 3v-5l-11 1-4 2-2-1v-2l-117 1v2h-2l-1 2 1-5-63 1-18 7-7 1 1-2-2-2 1-2 8-2-12-1h-106l-7 2h-7l-10-2-74 1-1 20h-1l-4-18-1-4-22 1-5 1-3-1-43-1 2-4 7-1 9 1v2h7l-6-1 3-2 10-1 13 1 4 2 1 1h9 3 9l3-3 5 1v3l17-1-3-2 1-1h49v-3h5v-2l5 1 9 3h101l-7-38-8-37-3-16-4-16-7-33-2-13-11 7-13 10-17 12-36 26-19 14-12 9-3-2 7-8-2-2 4-1v-2l7-4 4-2v-2l3-1 1-2h3v-2l3-1 1-2h3v-2l4-1v-2h3l1-3h3v-2l3-1 1-2h3l1-3h3v-2l4-1v-2l5-3h2v-2l3-1 1-2h3v-2l7-4 4-2v-2l5-3h2v-2h3v-2l6-4 6-5h3l-4-23-2-5-1-2-1-4-9-2-36-12-10-3h-8l-9 6-14 10-19 14-13 10-19 14-10 7h-2l-2 20-1 8-1 53-3 2-1-14-1-65 1-56h1l1-14 2-2v31h2l1 15v17l4-4 3-1 6-6 3-1 3-3h2v-2l4-1v-2l3-1 1-2h3l1-3h3v-2l7-4 4-2v-2l6-4h2l1-3 3-2h3l1-3h3l1-3h3v-2h3v-2l5-3 2-4-9-2-44-14z" fill="#A73030"/>
<path transform="translate(888,561)" d="m0 0 8 1 14 7 31 13 2 2 4 24 9 39v4l-10-3-36-10-31-9-23-7-34-10-25-7-19-5v-2l7-3 47-15 40-13z" fill="#FDFBFB"/>
<path transform="translate(1053,531)" d="m0 0h107l-6 7-13 13-7 8-10 10-7 8-7 7-1 2h-2l-2 4-15 15-19 7-29 9-8-4-24-10-5-2 2-5 9-15 14-21 12-19 9-13z" fill="#FDFBFB"/>
<path transform="translate(974,231)" d="m0 0 5 2 10 5 1 3v2l10 7 1-2 9 6 9 8 3 3 5 2 15-11-9-4-9-2-9-4-11-3-9-4-13-6v-1h6l7 3 23 7 10 2 18 6h5l11-9 6-4h2l3 4h-2l-1 2-8 6-5 3h-3v2l12 2 15 5 2 1 1-3 1 2 5 1 23 7-1 3-8-1-8-3h-2l2 2h-3l9 16 8 16 7 7-4 2 4 3 4 2-2 1 4 6 8 16 1 4-4 4-4-6v-5l-1-3-1 5 3 8-4-2-9-9-3-1-1-2-6-3-1 3-7-5v-2l-5-2-2-2-6-2-13-9-12-10-11-7-5-3-12-4-1-1-9-1-6 3-19 14-17 12-19 14-12 9-5 3-1 1 40 12 106 34 31 10 8 6-2 3-48-15-31-10-37-12-21-6-12-5-27-9-11-3-6 1-13 10-11 8-4-2-2-12-4-19 9 2 16 5h5l1-2 8-1 4-4 11-8h3l1-3h3l1-3h3l1-3h3l1-3h3l1-3 23-16h3l1-3 13-9-5-3v-2h17v-3l-4-2-10-8-6-4v-3l-5-1-10-8-5-5-4-2-5-5 3-1z" fill="#C95E4A"/>
<path transform="translate(657,426)" d="m0 0 2 1-2 1zm81-48h1l3 84 1 10 36-26h2v-2l5-3h2v-2l5-1 1 2-7 7v3l-13 10-19 13-12 9-1 4 16 8 35 16 21 9-1 3h-5v3l-49 1 3 3h-18v-3l-7 1 1 2h-11-2-10l-5-3-18-1-5 1 8 2v1l-12-1v-2l-6 1-5-2 5-5 13-9 3-1-3-7-7-12-9-16-1-4-4-1-1-4 1-3-8-4-12-5-16-8 5-5 18-13 8 6-2 1 2 8 6 10 4 4 36 16 19 8 3-1v-24l1-5h1l1-50 2-16v-6z" fill="#9A2527"/>
<path transform="translate(910,248)" d="m0 0 9 2 20 6 19 7 33 10 9 2 10 4-5 5-9 6-1 2-9 5-17 12-1 2-3 1-1 2-3 1-1 2-3 1-1 2-3 1-1 2-7 4-8 6h-2l-1 3-6 1-31-10-3-2-3-17-6-29-2-7 1-5 12-9z" fill="#FDFDFD"/>
<path transform="translate(813,530)" d="m0 0 13 1 19 9 35 15 1 3-31 10-19 6-63 21-8-1-12-5-2-1-1-3-1-37v-16l1-1z" fill="#FDFBFB"/>
<path transform="translate(1186,464)" d="m0 0h5l9 17 2 3v5l-3 1-4 6-7 7-7 8-13 13-3 1h-108l2-6 9-14 3-3 33-11 43-14z" fill="#FDFBFA"/>
<path transform="translate(978,531)" d="m0 0h63l-2 5-10 16-10 15-11 17-10 15-3 1-29-13-14-6-4-4-5-24v-9l10-4 21-7z" fill="#FDFBFB"/>
<path transform="translate(1131,409)" d="m0 0 9 1 26 8 12 23 8 14v3l-9 3-29 10-13 4-25 8-29 10-4 1 2-5 13-20 16-25 11-17 10-15z" fill="#FDFAFA"/>
<path transform="translate(729,382)" d="m0 0h2l1 60 1 38-4 2-21-9-29-13-8-4-5-8-3-5-1-2v-6l3-1h3l2-7 11-10 17-12 28-21z" fill="#FCFAF9"/>
<path transform="translate(1216,497)" d="m0 0 3 3 4 6v3h2l2 7h2l5 10 2 2v3l-48 1-9 1-2 3v-5l-11 1-4 2-2-1v-2l-117 1v2h-2l-1 2 1-5-63 1-18 7-7 1 1-2-2-2 1-2 8-2-12-1h-106l-7 2h-7l-10-2-74 1-1 20h-1l-4-18-1-4-22 1-5 1-3-1-43-1 2-4 7-1 9 1v2h7l-6-1 3-2 10-1 13 1 4 2 1 1h9 3 9l3-3 5 1v3l17-1-3-2 1-1h49v-3h5v-2l5 1 9 3 101 1 4-1h47l12-3h6l3 1 5-1 1 3h42l3-2v2l5-1v2l113-1 4 1h50l-11-21 1-5 2 1z" fill="#6B1116"/>
<path transform="translate(748,287)" d="m0 0h8l25 7 37 12 1 3-5 4h-3v2h-3v2l-3 1-1 2-3 1-1 2-6 3-5 5-4 1v2l-8 6h-3v2l-3 1-1 2h-3l-1 3h-3v2l-4 1v2l-4 1-1 3h-3l-1 3-4 1-1 3h-3l-2 4h-2l-1-17-1-49 1-4h2l1-3h2l1-4z" fill="#FDFBFA"/>
<path transform="translate(843,530)" d="m0 0h106l13 1-1 2-8 1v2l2 2-2 3-11 3v4l-6 1 1 9 4 13 1 4-8-1-1 2-6 1-23-10-12-6-11-1-1-4-35-15-15-7v-1z" fill="#982326"/>
<path transform="translate(546,837)" d="m0 0h266l2 4h2l8 11 12 15 5 7v2l-4 1h-230v104h184l3 2v36l-1 1-186 1 1 117 13 1 217 1v3l-2 1v-3h-230l-1-1v-120l1-1 186-1v-34l-79-1h-105l-3-2v-105l7-2h217l9 1-3-5-6-8-11-13-7-9h-52l-214-1v337l1 1h163l100-1 4-3-2 4-7 2h-260l-1-1v-338z" fill="#E2A69B"/>
<path transform="translate(951,210)" d="m0 0 4 1 7 7 6 4v2l4 1 13 6-1 2 11 5 12 5 14 4 7 3 13 4 2 2-13 10-5 2-6-4-4-5-7-6-7-4h-4l-9-7 1-4-5-2-9-4 1 2-2 1 3 2v2l4 1 5 4 5 5 7 5 3 1v3l5 2 9 8 5 5-1 1h-8l-25-8-55-18-13-4-1-3 7-4h2l1-3 5-3v-3l4-1v-2l6-4 6-7z" fill="#FDFCFC"/>
<path transform="translate(918,239)" d="m0 0 2 1-3 1 3 3 26 8 56 18 9 3h8l2-1v3l-15 1-2-1v2l-4-1-23-6-54-18-10-3-4 1-14 10-11 8 1 7 6 27 2 10-1 4v-3l-4 1v-3h-2l2 13-38-12-4-2-9-2-4-2 1-3 4-2 1-2 8-4 18-14 8-5 2-5 10-10-4-1-3-12 7-3 10-1v-2l15-2z" fill="#CB6752"/>
<path transform="translate(871,249)" d="m0 0h3l1 17-4 4-7 4-18 14-13 9-1 2-6 3-8-1-12-3-19-6-10-3-9-3-4-2 2-1v-2l37-11 14-4 12-3 8-3 24-8 7-2z" fill="#FCFAFA"/>
<path transform="translate(668,530)" d="m0 0h40l4 1 4-1h22l3 8 2 8 2 2 1 40 6 2 11 4 8-1 60-20 29-9 15-5 6-1v2l3-1 8 1-4 2-20 7-57 19-30 9-3 1v2l9 1 13 4-2 1v2l-7-1-4-1v2l-12-3-7-3-8 1-8 4-9 3-5-1-1-26-1-5-4-1-8-16-12-21-2-3v-4l-3-1-39-1z" fill="#6E1217"/>
<path transform="translate(947,213)" d="m0 0 2 1-9 10-4 1v2l3 1h-7v2l2 1-7 4-3 3-10 3-9 1h-10v2l-16 4 3 12 4 1-7 8-4 3-2 5-13 9-13 10-5 3h-3l-1 3-4 2-1 2 2 1-6-1v-2l-7-1 4-2 3-2h3l1-3 14-10 17-13 4-3h3l2-4h2l-1-5v-12l-7 3-12 3-25 8-6 2-21 6-34 10h-3l-1 3 11 3v1h-9l-2 2-9-2h-8l-5 4-1 3-4 3-1-4 1-5-3-1v-3l-3 7-1 12-1 2h-4l1 3-3 4 1-29 1-12 9 2 8 3 9 2h6l7-3 12-4h6v-2l47-14 35-11 4-1-2-18 4 1 3 2 13 4 6 2 9-1 21-6 14-8z" fill="#C95B49"/>
<path transform="translate(897,344)" d="m0 0 2 1 2 8 1 9 2 7 6 25 8 37 13 62 6 29v2h10v1h-16l-4 1-72-1v-1h73l-7-38-8-37-3-16-4-16-7-33-2-13-11 7-13 10-17 12-36 26-19 14-12 9-3-2 7-8-2-2 4-1v-2l7-4 4-2v-2l3-1 1-2h3v-2l3-1 1-2h3v-2l4-1v-2h3l1-3h3v-2l3-1 1-2h3l1-3h3v-2l4-1v-2l5-3h2v-2l3-1 1-2h3v-2l7-4 4-2v-2l5-3h2v-2h3v-2l6-4 6-5h3v-7l1-7z" fill="#9F2628"/>
<path transform="translate(1154,395)" d="m0 0 5 3h3l7 12 2 4 11 4 35 10 5 1-7-6 3-1h2l-4-8-5-9 1-3 4 6 1 3h2l1 7 4 1 2-1 2 1 5 9 6 5 1 6-9 4-2-1v-2l-17-6-31-10-5-2v2l-3 1v3l-1 2-4-7-2-5-9-2-21-6h-5l-9 14-11 17-16 25-14 21h-5l-2 6-4-1-1 2-3-1 2-3h2l2-6 4-4 3-6 6-9 4-7h2l2-5 5-7 3-5 2-4h2v-3h2l1-5h2v-3h2l2-4 8-14 2-2-2-5-7-3 4-1 14 4 4 2 25 7-8-13z" fill="#9B2527"/>
<path transform="translate(895,331)" d="m0 0 9 2 16 5h5l1-2 9-1 2 3-3 1 36 10 40 13 57 18 43 14 6 2 8 6-2 3-48-15-31-10-37-12-21-6-12-5-27-9-11-3-6 1-13 10-11 8-4-2-2-12z" fill="#C12F32"/>
<path transform="translate(1157,467)" d="m0 0 6 2-2 2-3-1-2 5-46 15-31 10-9 4-7 10-6 11-1-2-5 1h-2l-1 1h-42l-2-2 1-2-5 2-4-1v-2l36-12 32-11 4-4 5-1 2-6 5 1-2 5-1 2 15-6 51-17z" fill="#9B2527"/>
<path transform="translate(1093,270)" d="m0 0 10 1 31 10 8 5 6 8 9 16 5 10v3l-9-2-35-11-7-5-9-16-8-16z" fill="#FDFBFA"/>
<path transform="translate(1049,258)" d="m0 0 11 1 14 4v2l8 2 3 3 3 7 4 6 6 11 5 8v2l-11-3-30-9-6-2v-2l-6-2-13-8-5-3v-3l12-10z" fill="#FCFAFA"/>
<path transform="translate(731,309)" d="m0 0h1l-1 64-9 6-5 4h-2l-1 3-4 1v2l-4 1v2l-3 1-3 3h-2l-1 3-4 1v2l-11 8-1 2-2-1 8-16 12-22 8-16 9-17 14-28z" fill="#FCF9F8"/>
<path transform="translate(1174,343)" d="m0 0h2l9 15 6 11 13 23 8 13 4 8v2l-5-2-13-11-19-14-1-2-3-1-1-2-3-1-3-3-9-7-3-2 2-4 8-11 7-11z" fill="#FBF7F6"/>
<path transform="translate(874,275)" d="m0 0h3l4 18v5h2l5 26-38-12-4-2-9-2-4-2 1-3 4-2 1-2 8-4 18-14z" fill="#FCFAF9"/>
<path transform="translate(842,531)" d="m0 0h89l3 8-10 5-19 6-8 3-7 1-11-6-13-5-19-8-5-2z" fill="#FCFAF9"/>
<path transform="translate(1171,531)" d="m0 0h6l-2 7-7 12-8 16-5 8-4 9-5 3-35 13-5 1 2-5 5-5 10-9 7-8 15-15 7-8 12-13z" fill="#FBF7F6"/>
<path transform="translate(1118,316)" d="m0 0 10 1 12 5 21 6 9 4-1 9-2 1-3 5-4 5-1 3-2 1-1 3h-2v3l-3 3-4-2-6-7-2-1-3-6-2-1-15-30z" fill="#FDFBFB"/>
<path transform="translate(950,587)" d="m0 0 6 2 31 13 5 3-1 4-10 16-14 21h-3l-3-8-7-36-1-3v6h-2l-1-9 1-4z" fill="#FCF7F7"/>
<path transform="translate(951,210)" d="m0 0 4 1 7 7 6 4v2l4 1 13 6-1 2 11 5 12 5 14 4 7 3 13 4 2 2-13 10-5 2-6-4-4-5-7-6-7-4h-4l-9-7 1-4-5-2-9-4 1 2-6 1-17-5-10-1h-6v2l-6 2 1-5 4-1v-2l6-4 6-7z" fill="#DE9B90"/>
<path transform="translate(893,363)" d="m0 0h2l1 4-1 2 4-3 2 1 1 7 3 5 1 6-1 6-2-1-2 2-4-19v-2l-11 7-13 10-17 12-36 26-19 14-12 9-3-2 7-8-2-2 4-1v-2l7-4 4-2v-2l3-1 1-2h3v-2l3-1 1-2h3v-2l4-1v-2h3l1-3h3v-2l3-1 1-2h3l1-3h3v-2l4-1v-2l5-3h2v-2l3-1 1-2h3v-2l7-4 4-2v-2l5-3h2v-2h3v-2l6-4z" fill="#C03235"/>
<path transform="translate(743,495)" d="m0 0 5 1 5 3 10 4 9 4 14 7 16 6 5 2v2l-9 1h-53l-1-1-1-17z" fill="#FAF4F2"/>
<path transform="translate(1149,375)" d="m0 0 6 2 9 6 1 2 3 1 1 2 5 3 18 14 15 12 13 9 3 4-17-4-31-9-6-4-8-17v-2h-2l-6-12-3-3z" fill="#FAF3F2"/>
<path transform="translate(942,544)" d="m0 0h1l3 19 3 14 5 4 30 13 11 5-3 6-16-6-26-12 2 6h-2l1 7v5h2l-1-11 2 3 3 17-1 7h-1v-6h-4l-1 5-2-4-5-24-1-8-10-5-3-1v-2l4-2 4-1 5 2-4-9-3-13v-5h7z" fill="#711318"/>
<path transform="translate(926,228)" d="m0 0 8 2-10 8-10 3-9 1h-10v2l-16 4 3 12 4 1-7 8-4 3-2 5-13 9-13 10-5 3h-3l-1 3-4 2-1 2 2 1-6-1v-2l-7-1 4-2 3-2h3l1-3 14-10 17-13 4-3h3l2-4h2l-1-5v-12l-7 2 1-3h2l1-3 13-4 10-3 19-2 8-4 4-1z" fill="#CC6954"/>
<path transform="translate(1177,423)" d="m0 0 7 1 35 11 11 5-1 3-11 5-16 6h-8l-3-3-5-9-2-5-7-12z" fill="#FBF6F5"/>
<path transform="translate(730,491)" d="m0 0h5l1 4 1 16v12l-1 1-24 1-4-5-2-5-3-3 5-6 18-13z" fill="#FCF9F9"/>
<path transform="translate(1123,407)" d="m0 0 7 1 1 2-9 14-11 17-16 25-14 21h-5l-2 6-4-1-1 2-3-1 2-3h2l2-6 4-4 3-6 6-9 4-7h2l2-5 5-7 3-5 2-4h2v-3h2l1-5h2v-3h2l2-4 8-14z" fill="#9B2628"/>
<path transform="translate(879,558)" d="m0 0h2v2l3-1 8 1-4 2-20 7-57 19-26 8h-6l-2 1-1-3-2-2 57-19 29-9 15-5z" fill="#9A2427"/>
<path transform="translate(734,305)" d="m0 0 1 3v28h2l1 15v17l5-2-2 5v2h-2l-2 20-1 8-1 53-3 2-1-14-1-65 1-56h1l1-14z" fill="#992426"/>
<path transform="translate(1e3 610)" d="m0 0 6 1 23 10 4 3-29 10-21 8-3-1 11-18 8-12z" fill="#FBF6F5"/>
<path transform="translate(678,466)" d="m0 0 9 3 13 6 12 6 8 3 5 2-4 4-4 1v2h-3v2l-12 9-4-1-5-10-3-5v-3h-2l-3-9h-2l-5-8z" fill="#FBF6F5"/>
<path transform="translate(1179,532)" d="m0 0h8l-3 6-12 22-12 23-6 8-22 7h-7l-1 1h-6l3-2 7-2h2v-2l-2-1 21-8 3-4 4-10 6-9 14-28z" fill="#992527"/>
<path transform="translate(1141,369)" d="m0 0 7 1-1 5 3 1 1 5 3 1 5 10v2h2l1 4-3 1-4-2 8 14-12-3-14-4-4-2-5-2 2-5 3-1v-3h2l2-6 5-9v-5z" fill="#C03336"/>
<path transform="translate(1166,531)" d="m0 0 3 1-6 7-16 17-7 8-15 15-7 8-6 5-2 3h-2l-1 2-3-1v-2l-8 7-4 2 6-7 8-8 1-2h2l2-4 11-11 7-8 10-10 7-8 13-13 4 1z" fill="#972326"/>
<path transform="translate(1095,266)" d="m0 0 3 1-1 1 13 3 4-1 28 8 8 5 8 11 9 16 8 13 1 3-6 2-2-2-6-2-3-8-12-22-6-8-10-5-35-11-4-3z" fill="#C9614C"/>
<path transform="translate(1069,299)" d="m0 0 8 1 24 8 6 5 2 5h2l7 14 5 8 2 6-4-2-9-9-3-1-1-2-5-3-1-2-3-1-3-3-22-18-5-4z" fill="#FBF5F4"/>
<path transform="translate(1045,531)" d="m0 0h5l1 2-15 23-12 19-12 18-6 10-2-1 1-7 5-8h2l-1-6v-3l14-22 10-15 4-7h4v-2z" fill="#962225"/>
<path transform="translate(738,378)" d="m0 0h1l3 84v12l-5 1-2 5-3-1v-23l1-5h1l1-50 2-16v-6z" fill="#C43334"/>
<path transform="translate(1206,496)" d="m0 0 4 2 8 16 5 9v2h-33v-3l8-13 7-12z" fill="#FBF6F5"/>
<path transform="translate(930,548)" d="m0 0h5l5 21 2 6-10-3-26-11-6-2 1-2 25-8z" fill="#F9F0EF"/>
<path transform="translate(886,311)" d="m0 0 6 2 2 12 9 3 22 7 2 4h-7l-22-7h-2l2 12v10l-3 3-3-17-2-5-1-2-1-4-9-2-21-7v-2l3-3 11 3 15 5z" fill="#A12B2B"/>
<path transform="translate(947,213)" d="m0 0 2 1-9 10-4 1v2l3 1-10 2-3-1-1 2-12 6-19 2-31 9-4-1 10-3-2-18 4 1 3 2 13 4 6 2 9-1 21-6 14-8z" fill="#E2A69B"/>
<path transform="translate(735,284)" d="m0 0 1 2-1 2 4 1-2 16v31h-2l-1-29-1 21h-1l-1-13v-3l-16 32-3-1-2 6-3 6h-2l1-11 3-4 3-7h2l2-7 3-6 6-9 1-5h4l1-15z" fill="#BF3839"/>
<path transform="translate(998,241)" d="m0 0h5l9 3 11 4 5 2 13 4 2 2-13 10-5 2-6-4-4-5-7-6-4-2-5-5-2-4z" fill="#FCFAF9"/>
<path transform="translate(1216,497)" d="m0 0 3 3 4 6v3h2l2 7h2l5 10 2 2v3h-40l-6-2 2-4h31l-11-21 1-5 2 1z" fill="#942326"/>
<path transform="translate(778,732)" d="m0 0h71l5 3 3 5v2h2l9 12 27 33 8 10 5 5 10 13 9 11 7 8 6 8 3 3 4 6 3 3 7 8 2 5h2l7 10 7 8-1 2-10-11-8-11-8-9-10-13-12-14-8-10-13-16-5-6v-2h-2l-7-9-9-11-12-14-14-18-6-8-5-1h-65l2 4 9 10 6 8 9 11-1 2-8-9-9-11-7-9-3-3-1-4z" fill="#E2A69B"/>
<path transform="translate(805,317)" d="m0 0h4l-2 4-2 2v3l-18 13-13 10-12 9-17 12-4 2-2-2 3-2v-4l3-1 6-6 3-1 3-3h2v-2l4-1v-2l3-1 1-2h3l1-3h3v-2l7-4 4-2v-2l6-4h2l1-3 3-2h3l1-3h3z" fill="#A02D2D"/>
<path transform="translate(893,363)" d="m0 0h2l1 4-1 2 4-3 2 1 1 7 3 5 1 6-1 6-2-1-2 2-4-19v-2l-11 7-13 10-14 10-3-1-2-4 3-4h3v-2l7-4 4-2v-2l5-3h2v-2h3v-2l6-4z" fill="#BE3134"/>
<path transform="translate(1059,505)" d="m0 0v3l-8 12-3 5h-42l-2-2 22-7 27-8z" fill="#FBF5F3"/>
<path transform="translate(926,228)" d="m0 0 8 2-10 8-10 3-9 1h-10v2l-16 4 3 12 4 1-7 8-2 1-1-2-2-13v-6l-7 2 1-3h2l1-3 13-4 10-3 19-2 8-4 4-1z" fill="#C65744"/>
<path transform="translate(895,331)" d="m0 0 9 2 18 6 2 3-3 4h-3v2l-3 1-1 2h-3l-1 3h-3v2l-4 1-1 2-3-9z" fill="#FAF2F1"/>
<path transform="translate(956,1063)" d="m0 0v3l-9 10-9 11-9 10-9 11-24 28-9 11-10 11-8 10-7 7v1l54 1 14-1 4-2-3 4-4 1h-45l-21-1-2-1 2-4 9-10 8-10 9-10 8-10 9-10 7-9 6-7 5-5 22-26z" fill="#E2A69B"/>
<path transform="translate(716,531)" d="m0 0h21v33l-5-4-3-5v-3h-2l-7-12-4-7z" fill="#FAF4F3"/>
<path transform="translate(1087,261)" d="m0 0 26 8-1 3-8-1-8-3h-2l2 2h-3l9 16 10 20-7 1-1-5-2-8-2 2-5-5-6-12-4-5-1-6-10-3 4-1 9 4v3h2l1-4 1-1h-5z" fill="#CA6551"/>
<path transform="translate(668,530)" d="m0 0h40l8 1 5 9 6 10v2h2l5 9 3 3-1 2-2-1 1 9 1 3h-4l-8-16-12-21-2-3v-4l-3-1-39-1z" fill="#9B2427"/>
<path transform="translate(974,231)" d="m0 0 5 2 10 5 1 3v2l10 7 1-2 9 6 9 8 3 3 5 4-2 4-3-2h-4l-11-9-6-4v-3l-5-1-10-8-5-5-4-2-5-5 3-1z" fill="#C85F4E"/>
<path transform="translate(1211,402)" d="m0 0 4 5 2 1v3h2l1 7 4 1 2-1 2 1 5 9 6 5 1 6-9 4-2-1v-2l-14-5 1-2-7-3 3-1h10l-7-6 3-1h2l-4-8-5-9z" fill="#C12D32"/>
<path transform="translate(843,530)" d="m0 0h106l13 1-1 2-8 1v2l2 2-2 3-11 3v4l-6 1-2-4v-5l4-3-2-4-5-1-88-1z" fill="#A9292B"/>
<path transform="translate(1115,309)" d="m0 0 10 2 37 12 6 2 3 2 5-1 3 2-2 5-6 1v4l-2-1 1-5-5-1-8-3-22-7-7-3-11-3-6-4z" fill="#C43838"/>
<path transform="translate(692,524)" d="m0 0 18 1 4 2 1 1h9 3 9l3-3 5 1v3h17v1h-16l-1 22h-1l-4-18-1-4-22 1-5 1-3-1-43-1 2-4 7-1 9 1v2h7l-6-1 3-2z" fill="#660F15"/>
<path transform="translate(1070,235)" d="m0 0 4 1 6 12 7 11v2l-3-1-1 2-10-3-19-5v-2l8-4 9-7-2-5z" fill="#CC6654"/>
<path transform="translate(841,531)" d="m0 0 1 2 10 3 22 9 15 7-2 2-5 1-1 3-3-3-33-14-15-7v-1z" fill="#A0292B"/>
<path transform="translate(730,373)" d="m0 0 1 4v5l-9 6-13 10-14 10-5 1-1-2 5-5-1-2 4-2 3-3h2l1-3h3v-2l4-1v-2l4-2 5-5 8-6z" fill="#C43538"/>
<path transform="translate(1109,306)" d="m0 0 6 1 2 2-4 2 4 3 4 2-2 1 4 6 8 16 1 4-4 4-4-6v-5l-1-3-1 3h-2l-8-13-1-5h-2l-5-7-3-3 3-1 4 2z" fill="#C9604B"/>
<path transform="translate(1145,386)" d="m0 0 4 1 10 17 4 7-12-3-14-4-2-3 7-10z" fill="#F9F0EE"/>
<path transform="translate(726,273)" d="m0 0 5 2 3 6 4-1 10 3 1 2-11 3h-3v-3l-3 7-1 12-1 2h-4l1 3-3 4 1-29z" fill="#E3AA9F"/>
<path transform="translate(726,272)" d="m0 0 9 2 8 3 13 3 2 2h8l-1 2 11 3v1h-9l-2 2-9-2h-8l-5 4-1 3-4 3-1-4 1-7 10-3-12-3-3 2-1-4-2-4-4-2z" fill="#CE705C"/>
<path transform="translate(1176,421)" d="m0 0 4 2h-3l8 14 7 14v2l6 1v1l-7 2-5 1-14-28-1-6 4-1z" fill="#C23135"/>
<path transform="translate(948,577)" d="m0 0 6 4 30 13 11 5-3 6-16-6-13-6-3-2-4-5-4-2-4-5z" fill="#992426"/>
<path transform="translate(657,426)" d="m0 0 2 1-2 1zm-1 2 8 6-2 1-1 2-7-2 3 9 6 7-9-2-7-3v2l5 1 3 2v2h-5v-2l-6-1-3-2 1-4-1-5z" fill="#BE2C31"/>
<path transform="translate(934,335)" d="m0 0 3 3-3 1 8 2v3h-8l-6 3-18 13-5 4-4-2 1-4 5-2v-2l3-1 1-2h3l1-3h3v-2l4-2 1-3-1-2 3-2 3-1z" fill="#BD3435"/>
<path transform="translate(897,344)" d="m0 0 2 1 2 8 1 9 2 7 6 25 1 8-2 2v5l-1-3h-4l-2-9v-9l2 2 1-6-3-9-2-7h-2l-3 1 1-13 1-7z" fill="#9F2728"/>
<path transform="translate(941,342)" d="m0 0 8 1 30 9 16 5 1 2h-9l-8-2-9-1-24-8-11-3-1-2h7z" fill="#B62D2F"/>
<path transform="translate(736,421)" d="m0 0 4 1 1 9 1 43-5 1-2 4-1-2 1-5z" fill="#C4533A"/>
<path transform="translate(973,305)" d="m0 0h4v2l-8 6-9 7-2 3v3l-13 10-5 3-1 1h-6l3-3-1-4 14-10h3l1-3h3l1-3h3l1-3h3l1-3h3l1-3z" fill="#C85947"/>
<path transform="translate(712,343)" d="m0 0h2l-1 5-10 19-9 17-6 2-1-3 3-8h2l2-6 5-11h2v-4h2l2-6h2l-2 7h2l1-4z" fill="#9E2A2B"/>
<path transform="translate(1054,289)" d="m0 0 11 3 36 11 2 1-5-9 1-2 1 1 2-2 1 6 2 1h-2l3 6-1 2h3v2l-13-2-30-10-9-5z" fill="#9D2828"/>
<path transform="translate(1214,455)" d="m0 0 3 1-1 6-6 11-3 4h-2l-4-6-4-8 1-3z" fill="#F9EFED"/>
<path transform="translate(735,284)" d="m0 0 1 2-1 2 4 1-2 16v31h-2l-1-29-1 21h-1l-1-13-1-3-2-2-2 1v-5h4l1-15z" fill="#C33635"/>
<path transform="translate(1633,943)" d="m0 0 2 2 6 18 2 7 3 25v18l-3 24-4 18-5 15-2 1 2-10 5-17 3-20 1-11v-15l-3-30-7-22z" fill="#E2A69B"/>
<path transform="translate(895,243)" d="m0 0h10l-5 5-12 9-2 3-4 1-3-8-1-5 7-3z" fill="#FDFCFC"/>
<path transform="translate(806,769)" d="m0 0 7 6v2h2v2h2l6 8 8 9 6 8 10 11 9 11 1 3 3 1 4 6 10 11 4 6 5 5 8 10 3 3-1 2-7-7-9-11-5-6-9-11-9-10-6-8-9-10-9-11-9-10-8-10-7-8z" fill="#E2A69B"/>
<path transform="translate(1551,925)" d="m0 0 6 5 6 10 4 10 4 6 2 10 4 12 1 8v39l-2 16-8 24-3 6-1-3 5-12 5-18 2-14v-31l-2-16-5-17-2-6-3-4-4-10-4-6-3-5z" fill="#E2A69B"/>
<path transform="translate(932,531)" d="m0 0 5 2 2 5-4 2v8l-18 4-10 1 2-5 20-7 4-3-2-6z" fill="#9B2527"/>
<path transform="translate(942,544)" d="m0 0h1l3 19-1 11-4 2-1-5-4-13-1-10h7z" fill="#982326"/>
<path transform="translate(1078,615)" d="m0 0 2 1-5 6-8 7-6 1-9-4v-2l15-6z" fill="#F7EAE7"/>
<path transform="translate(1138,1153)" d="m0 0 5 5 11 12 2 6h72l-2-4 4 2 1 4-4 1h-50l-20-1-3-3-4-6-10-11z" fill="#E2A69B"/>
<path transform="translate(1216,945)" d="m0 0 1 4-4 14-3 6-4 27v30l2 18v6h-1l-3-19-1-12v-17l2-21 4-18 5-12z" fill="#E2A69B"/>
<path transform="translate(1053,255)" d="m0 0h9l17 5 4 2 1-3 1 2h2l-1 5h5l-2 5h-2v-3l-9-3-26-7-1-2z" fill="#BC3532"/>
<path transform="translate(1142,376)" d="m0 0 1 4h2v8l-8 12-5 2-4-2 2-5 3-1v-3h2l2-6z" fill="#C43538"/>
<path transform="translate(1095,266)" d="m0 0 3 1-1 1 13 3 4-1 24 7 3 3-2 2-8-1-35-11-4-3z" fill="#B32E2F"/>
<path transform="translate(1067,244)" d="m0 0 5 1 3 5-1 8-8-1-12-3v-2l8-4z" fill="#F7E8E5"/>
<path transform="translate(1084,320)" d="m0 0 4 1 6 4 5 5 2 1 1-2 6 2 1 3 4 1 4 4v5l-2 3-1-3-4-2-9-6-4-4-3-2v-2l-4-1-6-6z" fill="#C65042"/>
<path transform="translate(1274,972)" d="m0 0h1l-1 14-1 9v27l3 22 4 13 6 11 2 7 3 3 2 7-3-3-5-8-6-12-3-11-3-10-2-18v-29l2-18z" fill="#E2A69B"/>
<path transform="translate(1130,342)" d="m0 0 4 3v3l3 1 2 3v3l3 1 4 6h-2l-1 2v-2l-4-2-3-2-2 2-6-5-2-5-1-2 1-2h3z" fill="#C5563F"/>
<path transform="translate(1211,402)" d="m0 0 4 5 2 1v3h2l1 7 4 1 2-1 2 1 3 5-1 6v3l-10-6-5-5h5l-4-8-5-9z" fill="#992628"/>
<path transform="translate(867,226)" d="m0 0 4 1 3 2 13 4 3 1-1 3h-16v4h-3l-2-5z" fill="#C95848"/>
<path transform="translate(951,210)" d="m0 0 4 1 7 7 6 4v5l-5-2-8-7-1-3h-2l-1 3-12 9h-3v-2l6-4 6-7z" fill="#D88279"/>
<path transform="translate(1241,440)" d="m0 0 4 2 7 4-1 3-7 6-7 8-11 10-3-1 4-4h2l2-5 2-3 1 1 3-4h2v-2l3-3 1-5z" fill="#BB2C30"/>
<path transform="translate(739,525)" d="m0 0 5 1v3h17v1h-16l-1 22h-1l-4-18-1-4h-22v-1l8-1h3 9z" fill="#630E14"/>
<path transform="translate(670,463)" d="m0 0 2 1 2 4h3l2 7 3 1 1 4 3 4 1 4-5 2-9-17v-2l-4-1-1-4z" fill="#BD2C30"/>
<path transform="translate(982,232)" d="m0 0h6l7 3 27 8v3l2 1-1 2-11-4-9-3-15-6-6-3z" fill="#C7463F"/>
<path transform="translate(975,356)" d="m0 0 8 1 10 1h4v2l9 2 4 3-9 2-16-5-10-4z" fill="#C75B44"/>
<path transform="translate(1115,1043)" d="m0 0 7 6 24 28 9 10 9 11 5 6-1 2-13-14-7-9-12-14-9-10-9-11-3-3z" fill="#E2A69B"/>
<path transform="translate(716,530)" d="m0 0h22l3 8 2 8v7l-3 1-2 10h-1v-33h-21z" fill="#A3292A"/>
<path transform="translate(693,401)" d="m0 0 2 1-5 5h2 2v2l-14 10-8 7-2-1 1-3 2-2 3-2 3-3-3-1 2-2h3l1-3z" fill="#A32729"/>
<path transform="translate(1193,514)" d="m0 0 2 2-5 8v2l-17-1 4-4 7-4 1-2 4 1z" fill="#B52C2F"/>
<path transform="translate(1239,446)" d="m0 0h2v2l-3 3-4 5h-2l-1 3h-2l-1 4-4 1-1-1 1-7 4-5 8-4z" fill="#F5E2DF"/>
<path transform="translate(736,421)" d="m0 0h1l3 54h-3l-2 4-1-2 1-5z" fill="#E2A69B"/>
<path transform="translate(1054,289)" d="m0 0 11 3 20 6 1 3h-2l-1 2-18-6-9-5z" fill="#A42B2A"/>
<path transform="translate(875,247)" d="m0 0h2l4 9 2 4 3 1-7 8-2 1-1-2-2-13v-6l-2-1z" fill="#C8614A"/>
<path transform="translate(1169,1106)" d="m0 0 6 4 6 8 8 9 7 8 10 12 7 8 5 6-1 2-11-12-9-11-9-10-7-8v-2l-3-1-7-9z" fill="#E2A69B"/>
<path transform="translate(766,287)" d="m0 0 11 1 16 5-2 1 2 4-9-2-19-6z" fill="#BF3833"/>
<path transform="translate(725,311)" d="m0 0 3 1-1 6-8 14-3 3h-4v-2h2l2-7 3-6z" fill="#C1403D"/>
<path transform="translate(1059,379)" d="m0 0 8 1 43 14 2 2-7-1-13-2-5-2-7-2-3-3-18-6z" fill="#9D2628"/>
<path transform="translate(696,515)" d="m0 0 4 2 3 5-1 3h-18v-2l10-7z" fill="#F7E8E6"/>
<path transform="translate(1121,333)" d="m0 0h2l2 3 1 7 3 2-3 3 3 6v2l-4-1-10-10 2-5 7 5-3-9z" fill="#C03734"/>
<path transform="translate(942,530)" d="m0 0 20 1-1 2-17 5-4-1-2-6z" fill="#F5E2DE"/>
<path transform="translate(861,315)" d="m0 0 11 3 9 3v3l-7 1-16-5v-2z" fill="#C23032"/>
<path transform="translate(897,344)" d="m0 0 2 1 2 8 1 9 1 5v5l-2-1-2-4-4 2 1-13 1-7z" fill="#9A2527"/>
<path transform="translate(974,231)" d="m0 0 5 2 10 5 1 3v2l4 4h-3l-4-2-7-5-3-1-5-5 3-1z" fill="#C53435"/>
<path transform="translate(947,213)" d="m0 0 2 1-9 10-4 1v2l3 1-10 2-2-1 2-4 12-8z" fill="#E1A499"/>
<path transform="translate(1196,461)" d="m0 0 4 5 2 6-1 5-5-1-5-11-2-2z" fill="#C22F32"/>
<path transform="translate(998,609)" d="m0 0 4 1-4 4-10 15-5 9h-3l1-7 5-5 3-6 5-7h2z" fill="#9F2528"/>
<path transform="translate(1022,243)" d="m0 0 9 2 12 4v1l-5 1 1 3-11-3-4-1v-3l-4-2z" fill="#CB6955"/>
<path transform="translate(952,594)" d="m0 0 2 3 3 17-1 7h-1v-6h-4l-1 5-2-4 1-6 2-5h2z" fill="#9E2628"/>
<path transform="translate(697,732)" d="m0 0h31l11 15 12 16 2 4-6-5-8-11-9-12-3-5-30-1z" fill="#E2A69B"/>
<path transform="translate(733,451)" d="m0 0 3 2v19l-1 8-3-1v-23z" fill="#C44938"/>
<path transform="translate(652,438)" d="m0 0h2l5 8 4 5-9-2-8-3 2-5z" fill="#F3DEDA"/>
<path transform="translate(801,269)" d="m0 0 4 1-29 9-14 4-7-1 3-3 4-1v1l7-1 23-6z" fill="#BE3633"/>
<path transform="translate(894,873)" d="m0 0 3 2v2l4 2 10 13 7 8 9 11 2 4-7-6-6-7v-2h-2l-2-4-5-5-11-13z" fill="#E2A69B"/>
<path transform="translate(1210,1057)" d="m0 0 2 1 6 18 4 5 3 9 4 5 4 7 5 6-1 2-9-11-3-6-4-6-4-8-3-8-4-12z" fill="#E2A69B"/>
<path transform="translate(670,525)" d="m0 0 13 1v2l11 1v1h-29l2-4z" fill="#6A1217"/>
<path transform="translate(791,294)" d="m0 0 9 1 10 4 1 5-11-3-7-3z" fill="#AA2C2C"/>
<path transform="translate(1080,478)" d="m0 0h2l1 4-2 5h-5l-2 6-4-1-1 2-3-1 2-3h2l2-6h4l2-4z" fill="#BF2F33"/>
<path transform="translate(1141,369)" d="m0 0 7 1-1 5 3 1 1 6-3 1v2l-3 1v-6h-2l-1-9z" fill="#962325"/>
<path transform="translate(726,272)" d="m0 0 9 2 13 5-2 3-10-1-3 2-1-4-2-4-4-2z" fill="#C44136"/>
<path transform="translate(987,244)" d="m0 0 4 2h3l6 4 1-2 5 4 1 4-6-2-3 1-11-8z" fill="#CC514E"/>
<path transform="translate(979,1114)" d="m0 0v3l-12 16-10 13-9 11-1-2 13-17 11-14z" fill="#E2A69B"/>
<path transform="translate(1179,328)" d="m0 0 3 3-1 4 2 6 1 6 1 3h-2v-2h-2l-2-5v-7l-1-1-1 3h-4l-1-4 5-1z" fill="#C95E4A"/>
<path transform="translate(975,307)" d="m0 0m-1 1m-1 1m-1 1 3 2v2l-14 10h-3v-3l9-8z" fill="#C85F49"/>
<path transform="translate(772,457)" d="m0 0 2 3-19 13-7 5-2-3 4-3 8-5 7-5 2-2z" fill="#C22E32"/>
<path transform="translate(738,378)" d="m0 0h1v39h-1l-1-11-2 1 2-28z" fill="#B52B2E"/>
<path transform="translate(1084,320)" d="m0 0 4 1 6 4 5 5 2 1 1-2 5 2v2l-3 1 6 5-1 2-8-5-4-4-3-2v-2l-4-1-6-6z" fill="#C53939"/>
<path transform="translate(1068,237)" d="m0 0h2l3 4h-2l-1 2-8 6-5 3h-4l1-3 7-4 2 1 2-7z" fill="#C84D44"/>
<path transform="translate(886,311)" d="m0 0 6 2 2 12 2 1-8-1-2-8z" fill="#C4503B"/>
<path transform="translate(735,491)" d="m0 0 3 2 1 6v20l-1 5-2-1v-12z" fill="#C43233"/>
<path transform="translate(1120,573)" d="m0 0 1 4-4 6-1 3h-3l-6 4-4 2 4-6h2l2-4z" fill="#6B1016"/>
<path transform="translate(731,309)" d="m0 0h1l-1 64h-1v-54h-2z" fill="#E2A69B"/>
<path transform="translate(735,284)" d="m0 0 1 2-1 2 4 1-2 13h-2v-6h-2v2h-2v-7z" fill="#A12829"/>
<path transform="translate(1084,259)" d="m0 0 1 2h2l-1 5h5l-2 5h-2v-3l-9-3-4-1v-4l7 1 2 1z" fill="#AD302D"/>
<path transform="translate(777,272)" d="m0 0 4 1 2 2-16 5h-6v-3z" fill="#CB6751"/>
<path transform="translate(952,211)" d="m0 0 5 5-2 2-1-3h-2l-1 3-12 9h-3v-2l6-4 7-8z" fill="#C43935"/>
<path transform="translate(1303,918)" d="m0 0v3h-2l-2 5-7 10-4 6-6 12-1-2 8-16 9-14z" fill="#E2A69B"/>
<path transform="translate(1241,440)" d="m0 0 4 2 7 4-1 3-7 6-2-1 1-7z" fill="#BE2C31"/>
<path transform="translate(730,491)" d="m0 0h5l1 4 1 16v12l-1 1h-5l4-1-1-11v-20z" fill="#E2A69B"/>
<path transform="translate(705,514)" d="m0 0 2 1 4 8 1 3h-9l-1-4-1-5-1-2 4 1h1z" fill="#A52B2D"/>
<path transform="translate(887,553)" d="m0 0 5 1 2 4v3l-13-1 1-5z" fill="#650E14"/>
<path transform="translate(738,445)" d="m0 0 3 3 1 14v12h-2l-1-3z" fill="#C44237"/>
<path transform="translate(728,309)" d="m0 0 2 1-1 7-9 16-4 9-3-1 6-11 7-12 1-5v-3z" fill="#9C2728"/>
<path transform="translate(1103,292)" d="m0 0h2l7 14-7 1-1-5-1-4-1-5z" fill="#CA644F"/>
<path transform="translate(746,285)" d="m0 0h5l-3 1-2 4-3 2-1 3-4 3-1-4 1-7z" fill="#D07360"/>
<path transform="translate(640,440)" d="m0 0 3 2 1 4-2 2 5 2 1 2-5-1-10-5 5-5z" fill="#992326"/>
<path transform="translate(929,915)" d="m0 0 7 6 10 13 10 11-1 2-13-14-8-10-5-6z" fill="#E2A69B"/>
<path transform="translate(712,343)" d="m0 0h2l-1 5-7 13-2-2v-3h-2l2-6 1-2h2l-2 7h2l1-4z" fill="#992526"/>
<path transform="translate(1091,1015)" d="m0 0 3 1 7 8 6 8 5 5v2h2l1 4-7-6-8-10-5-5-4-5z" fill="#E2A69B"/>
<path transform="translate(814,312)" d="m0 0m-3 1 3 1 2 1-1 4-10 6-1-3 4-3v-4h3zm5 0 2 1-2 1z" fill="#A92F2F"/>
<path transform="translate(937,539)" d="m0 0 6 4-1 5-6 1-2-4v-5z" fill="#630E14"/>
<path transform="translate(1062,502)" d="m0 0 3 2v2h-2v3l-5 3-4 6-2 1 2-5 5-8-4 1v-2z" fill="#6F1218"/>
<path transform="translate(1123,407)" d="m0 0 7 1 1 2-7 11-2-1 2-5v-2-3l-4 3 2-5z" fill="#C23437"/>
<path transform="translate(1130,342)" d="m0 0 4 3v3l3 1 3 6-1 2-8-6-1-2-3-1 1-2z" fill="#BD3B3B"/>
<path transform="translate(1115,309)" d="m0 0 6 1 2 2-1 1 11 4v2l-16-4-6-4z" fill="#AC2E2D"/>
<path transform="translate(1129,275)" d="m0 0 9 2 3 3-2 2-8-1-4-2-1-3z" fill="#BA2E30"/>
<path transform="translate(1009,521)" d="m0 0 3 1-2 1h37 3l-2 2h-42l-2-2z" fill="#E1A49A"/>
<path transform="translate(1109,306)" d="m0 0 6 1 2 2-4 3-1 2h-2v-2l-6-1-3-3 3-1 4 2z" fill="#C84642"/>
<path transform="translate(1087,388)" d="m0 0 7 1 18 6-4 1-6-2-10-1-5-2z" fill="#9A2326"/>
<path transform="translate(895,332)" d="m0 0 2 3 1 9v10l-3 3v-10l-1-14z" fill="#C42E32"/>
<path transform="translate(1227,453)" d="m0 0 5 5-3 1-1 4-4 1-1-1 1-7z" fill="#F1D6D2"/>
<path transform="translate(886,328)" d="m0 0 4 2 1 4 2 6v5h-2l-1 4-2-9-1-6z" fill="#DE998F"/>
<path transform="translate(879,231)" d="m0 0 11 3-1 3h-12v-3l2-1z" fill="#CA5D4D"/>
<path transform="translate(1293,1085)" d="m0 0 5 4 7 9 9 10 1 2-4-2-7-7-9-11z" fill="#E2A69B"/>
<path transform="translate(926,228)" d="m0 0 8 2-5 4-3 2-4-1-2-2 2-2h3z" fill="#C43133"/>
<path transform="translate(1098,266)" d="m0 0 9 1 6 2-1 3-8-1-8-3z" fill="#C9644D"/>
<path transform="translate(908,389)" d="m0 0h1l2 13-2 2v5l-1-3h-2v-10z" fill="#C43233"/>
<path transform="translate(1095,266)" d="m0 0 3 1-1 1 13 3 4-1 3 1-1 3h-7l-15-5-2-2z" fill="#BF3733"/>
<path transform="translate(918,239)" d="m0 0 2 1-3 1 3 4-7-1-6-1-2 1-10-1v-1l15-2z" fill="#E2A69B"/>
<path transform="translate(1011,931)" d="m0 0 4 3v2l3 1 4 6 8 11v3l-5-6-10-13-4-5z" fill="#E2A69B"/>
<path transform="translate(960,316)" d="m0 0v3l-6 6-4 2-2 2-2-2 3-4h3l1-3h3l1-3z" fill="#C84241"/>
<path transform="translate(976,888)" d="m0 0 7 6 7 9 5 6-1 2-9-10-4-5v-2l-3-1z" fill="#E2A69B"/>
<path transform="translate(787,602)" d="m0 0 10 2 3 2h-2v2l-7-1-6-2z" fill="#9C2427"/>
<path transform="translate(734,463)" d="m0 0 2 3-1 14-3-1v-12z" fill="#C43133"/>
<path transform="translate(657,426)" d="m0 0 2 1-2 1zm-1 2 8 6-2 1-1 2-6-2v-3l-3-1z" fill="#B62D31"/>
<path transform="translate(989,623)" d="m0 0 1 3-7 12h-3l1-7 5-5z" fill="#9C2527"/>
<path transform="translate(850,312)" d="m0 0 9 2 2 2v2l-6 1-4-2z" fill="#9A2827"/>
<path transform="translate(973,305)" d="m0 0h4v2l-12 9-2-1 2-4h3l1-3z" fill="#C94544"/>
<path transform="translate(883,294)" d="m0 0 2 2 2-1v15l-3-3-2-11z" fill="#BB3031"/>
<path transform="translate(1067,257)" d="m0 0 9 2v3l-6 1-6-3 3-1z" fill="#C23534"/>
<path transform="translate(991,1022)" d="m0 0v3l-9 11-6 5 2-4 9-11z" fill="#E2A69B"/>
<path transform="translate(968,655)" d="m0 0 2 1-3 5-5-1-1 8-3-1-1-5h3l2-4 5-1z" fill="#B32B2E"/>
<path transform="translate(1075,252)" d="m0 0 8 8v2l-10-3z" fill="#E2A69B"/>
<path transform="translate(772,457)" d="m0 0 2 3-13 9h-2l2-4 6-5z" fill="#BC2C30"/>
<path transform="translate(1123,311)" d="m0 0 11 3 1 2-5 1-10-4z" fill="#BE3232"/>
<path transform="translate(1258,888)" d="m0 0 2 1-8 7-8 10-3 1 2-4 10-11z" fill="#E2A69B"/>
<path transform="translate(1087,261)" d="m0 0 13 4v1l-9 1-5-1z" fill="#CD6B57"/>
<path transform="translate(1063,244)" d="m0 0 2 3-8 5h-4l1-3 7-4 2 1z" fill="#C44036"/>
<path transform="translate(1318,902)" d="m0 0 2 1-15 15v-3l8-9z" fill="#E9BDB5"/>
<path transform="translate(1208,493)" d="m0 0 2 2-5 3-4 8h-3l2-5 4-7z" fill="#C12F32"/>
<path transform="translate(915,423)" d="m0 0 2 4 2 10h-2l-2 2-1-7z" fill="#C43434"/>
<path transform="translate(1014,242)" d="m0 0 8 1v3l2 1-1 2-11-4v-2z" fill="#BF3633"/>
<path transform="translate(1010,607)" d="m0 0 5 1 2 2-1 3h-7v-2l-2-1v-2z" fill="#992326"/>
<path transform="translate(861,315)" d="m0 0 5 1v5l2 1-10-2v-2z" fill="#B72F30"/>
<path transform="translate(1112,1121)" d="m0 0 5 5 10 12-1 2-8-9-6-8z" fill="#E2A69B"/>
<path transform="translate(1011,580)" d="m0 0 2 4-1 5-1-2-6 2 2-5z" fill="#77151A"/>
<path transform="translate(1101,292)" d="m0 0 2 2v4l2 1h-2l3 6h-3l-5-10 1-2 1 1z" fill="#C03535"/>
<path transform="translate(1024,276)" d="m0 0 6 2 3 3 1 3-5-2-7-3z" fill="#E2A69B"/>
<path transform="translate(884,260)" d="m0 0 2 1-7 8-2 1-1-6h2l1-2h5z" fill="#BC2D30"/>
<path transform="translate(1006,1081)" d="m0 0v3l-12 14-2 1 2-4 7-9h2l2-4z" fill="#E2A69B"/>
<path transform="translate(1072,486)" d="m0 0h3l-1 7-4-1-1 2-3-1 2-3h2z" fill="#BF393A"/>
<path transform="translate(736,404)" d="m0 0 2 2v14l-3-1v-12z" fill="#C44337"/>
<path transform="translate(791,294)" d="m0 0 9 1v3 1h-6l-3-3z" fill="#9C2728"/>
<path transform="translate(785,291)" d="m0 0 8 2-2 1 2 4-9-2v-2l2-1z" fill="#C33433"/>
<path transform="translate(740,276)" d="m0 0 8 3-2 3-8-1-1-3z" fill="#C43334"/>
<path transform="translate(1211,402)" d="m0 0 4 5 2 1v3h2l1 7-5-5-4-8z" fill="#9C2527"/>
<path transform="translate(1124,409)" d="m0 0 2 3-2 5-2 1v-2l-5 2 2-4z" fill="#9B2327"/>
<path transform="translate(898,369)" d="m0 0 3 1 2 5 2 6-2 3-3-8z" fill="#D68076"/>
<path transform="translate(886,311)" d="m0 0 4 1v11l-1-2h-2z" fill="#B52C2E"/>
<path transform="translate(446,1170)" d="m0 0 1 2 3 1v5h-11v-1h6l1-3 2-1-3-1z" fill="#952225"/>
<path transform="translate(1185,516)" d="m0 0 2 1-6 7h-7l5-4z" fill="#E2A69B"/>
<path transform="translate(975,356)" d="m0 0 8 1 5 2v2l-7-1-6-2z" fill="#C44E39"/>
<path transform="translate(810,299)" d="m0 0 12 2v1h-6v2l-9-3z" fill="#C9504B"/>
<path transform="translate(932,531)" d="m0 0 5 2 2 5h-6l-2-6z" fill="#C53737"/>
<path transform="translate(678,417)" d="m0 0 2 2-8 7-2-1 1-3 2-2 3-2z" fill="#B82A2F"/>
<path transform="translate(746,596)" d="m0 0 7 2v2l-7 2-1-5z" fill="#F3DDD9"/>
<path transform="translate(1242,453)" d="m0 0m-1 1 2 1-2 4-4 3-2-1 2-4h2v-2z" fill="#BB3231"/>
<path transform="translate(904,382)" d="m0 0 2 3-1 6-2-1-2 2-1-7z" fill="#C42F33"/>
<path transform="translate(713,334)" d="m0 0 4 1-2 4-5 3v-6z" fill="#B43938"/>
<path transform="translate(818,310)" d="m0 0 4 1-2 4-4 2v-2l-3-1 2-3zm-2 3 1 2 1-2z" fill="#9C2527"/>
<path transform="translate(735,284)" d="m0 0 1 2-1 2 4 1-1 3-2-1-2 1-2 3-1-4z" fill="#C44036"/>
<path transform="translate(1064,240)" d="m0 0 1 2-2 4-5 1-4 3-2-1z" fill="#D27867"/>
<path transform="translate(969,1048)" d="m0 0v3l-11 12v-3z" fill="#E2A69B"/>
<path transform="translate(987,355)" d="m0 0 9 3-3 1-10-1-1-2z" fill="#BA2F30"/>
<path transform="translate(951,590)" d="m0 0 2 1v14h-2l-1-9z" fill="#E5AFA5"/>
<path transform="translate(1115,309)" d="m0 0 6 1 2 2-9 1-3-3z" fill="#A02A29"/>
<path transform="translate(1123,274)" d="m0 0h5v3l-1 2-7-2v-2z" fill="#9E2828"/>
<path transform="translate(1038,250)" d="m0 0h6l1 4h-6l-4-3z" fill="#B83331"/>
<path transform="translate(929,530)" d="m0 0h13l-3 2 1 4h-2l-2-3-7-2z" fill="#A02628"/>
<path transform="translate(742,364)" d="m0 0 5 2 1 2-7 4-2-2 3-2z" fill="#BE3335"/>
<path transform="translate(749,361)" d="m0 0 3 4-5 2-3-3z" fill="#992426"/>
<path transform="translate(701,354)" d="m0 0 1 2h2l1 3-5 5-1-2h2l-2-4h2z" fill="#BD3838"/>
<path transform="translate(891,338)" d="m0 0 2 2v5h-2l-1 4-2-10z" fill="#E2A69B"/>
<path transform="translate(1177,332)" d="m0 0 2 2-2 4h-4l-1-4z" fill="#C74C42"/>
<path transform="translate(832,298)" d="m0 0v3l-1 3-9-1 4-2z" fill="#CA6352"/>
<path transform="translate(781,291)" d="m0 0 5 1 1 2-6 1-5-2v-1z" fill="#9F2728"/>
</svg>
