<?xml version="1.0" encoding="UTF-8"?>
<svg version="1.1" viewBox="0 0 800 800" width="200" height="200" xmlns="http://www.w3.org/2000/svg">
<path transform="translate(0)" d="m0 0h800v800h-800z" fill="#FBFBFB"/>
<path transform="translate(0)" d="m0 0h800v800h-800zm382 11-26 2-27 4-27 6-24 7-25 9-24 11-23 12-19 12-16 11-13 10-11 9-13 12-6 5v2l-4 2-7 8-9 9-9 11-8 10-13 18-14 22-13 24-12 26-12 34-8 32-5 30-3 33v37l2 24 4 28 6 27 8 27 10 26 11 24 12 22 14 22 14 19 9 11 9 10 7 8 23 23 8 7 14 11 16 12 17 11 21 12 16 8 17 8 26 10 31 9 24 5 28 4 31 2h22l29-2 29-4 24-5 28-8 22-8 25-11 27-14 22-14 14-10 14-11 14-12 15-14 11-11 7-8 12-14 14-19 12-18 10-17 12-23 10-23 9-25 7-25 6-29 4-33 1-19v-24l-2-29-3-23-6-29-7-25-10-28-9-20-12-24-14-23-12-17-11-14-9-11-11-12-25-25-14-11-15-12-24-16-21-12-19-10-29-12-27-9-28-7-30-5-17-2-16-1z" fill="#FCFCFC"/>
<path transform="translate(382,11)" d="m0 0h36l25 2 27 4 28 6 30 9 28 11 25 12 24 14 18 12 16 12 16 13 10 9 26 26 9 11 12 15 14 20 12 20 12 23 9 19 10 27 8 27 5 22 4 25 2 20 1 18v24l-2 29-4 28-7 32-9 29-11 27-12 25-12 21-14 21-12 16-9 11-11 12-7 8-14 14-8 7-14 12-20 15-17 11-15 9-27 14-26 11-30 10-24 6-27 5-28 3-18 1h-22l-31-2-34-5-29-7-26-8-29-12-19-9-24-14-16-10-19-14-16-13-15-14-20-20-7-8-13-16-13-18-12-19-11-19-11-23-11-27-9-29-6-26-4-25-2-17-1-15v-37l3-33 5-30 8-32 10-29 13-29 12-23 14-22 12-17 13-16 11-13 8-8 6-7h2l1-3 8-7 13-12 17-13 14-10 20-13 22-12 25-12 30-11 24-7 27-6 27-4zm-2 18-31 3-33 6-26 7-26 9-25 11-25 13-19 12-17 12-16 13-11 9-27 27-9 11-7 8-12 16-13 20-12 21-13 27-10 27-6 19-7 30-4 26-2 22v44l3 29 5 28 7 27 8 24 10 24 8 16 8 15 11 18 12 17 10 13 12 14 12 13 14 14 11 9 9 8 19 14 17 11 17 10 24 12 27 11 21 7 23 6 26 5 25 3 16 1h26l29-2 23-3 29-6 27-8 29-11 29-14 22-13 16-11 16-12 13-11 10-9 6-5 6-7 5-5 15-16 13-17 11-15 12-20 9-16 11-23 10-26 8-26 6-27 4-28 2-27v-26l-2-27-4-28-6-27-9-29-6-15-5-13-15-30-11-18-11-16-9-12-10-13h-2l-2-4-14-15-13-13-8-7-13-11-12-9-19-13-22-13-15-8-18-8-26-10-27-8-29-6-31-4-14-1z" fill="#030303"/>
<path transform="translate(443,195)" d="m0 0h19l27 3 27 5 3 1 1 5 1 30v17l-1 9-5-1-3-16-6-11-7-7-5-2-6 8-12 21-8 16-9 17 4 3 20 7 18 8 11 8 9 9 8 13 4 13 1 7v11l-3 14-5 10-8 10-4 2 3-9 2-11v-15l-2-10-5-12-6-9-6-7-13-9-19-9-15-5-4 1-8 16-11 23-9 17-11 23-8 16-4 7-4-5-12-23-10-18-13-24-15-28-16-29-15-28-10-18-14-26-2-5 1-1 39-2h10l-1 4-8 5-3 5-1 7 2 10 6 16 10 20 10 18 12 22 14 25 12 22 7 12h2l6-14 9-17 9-19 8-16 1-3-24-9-16-8-9-6-7-10-3-11v-16l3-12 6-10 9-9 10-6 12-5 19-4z" fill="#030303"/>
<path transform="translate(380,29)" d="m0 0h38l32 3 29 5 24 6 27 9 22 9 21 10 24 14 12 8 11 8 17 13 13 12 8 7 16 16 7 8v2h2l11 14 13 18 11 17 10 18 12 24 11 29 8 26 6 27 4 28 2 27v26l-2 27-4 28-6 27-9 29-13 32-11 22-12 20-10 15-13 17-9 11-14 15-5 6-8 7-9 9-11 9-15 12-27 18-21 12-25 12-29 11-27 8-29 6-33 4-19 1h-26l-26-2-27-4-30-7-22-7-24-9-25-12-19-10-27-18-21-16-12-11-8-7-16-16-7-8-11-13-14-19-11-17-11-19-8-16-7-15-11-29-8-28-6-31-3-23-1-12v-44l3-31 6-31 6-23 10-29 10-23 14-27 12-19 12-17 11-14 10-11 7-8 24-24 28-22 24-16 21-12 25-12 23-9 25-8 26-6 23-4zm-9 7-25 3-22 4-28 7-29 10-25 11-19 10-17 10-18 12-12 9-11 9-20 18-15 15-7 8-13 16-12 17-14 22-17 33-11 28-5 15-7 27-5 27-3 27v48l2 21 4 27 7 30 9 27 11 26 8 16 11 20 16 24 10 13 9 11 12 13 4 5 8 7 10 10 11 9 15 12 17 12 22 13 23 12 19 8 25 9 25 7 31 6 32 4h47l34-4 29-6 21-6 20-7 20-8 23-11 21-12 12-8 14-10 13-10 10-9 8-7 26-26 11-14 10-13 9-13 11-18 7-12 13-28 9-24 8-28 6-28 4-30 1-21v-25l-1-21-5-34-5-23-7-24-8-21-12-26-12-23-13-20-8-11-10-13-9-10-7-8-26-26-8-7-16-12-11-8-19-12-18-10-16-8-18-8-25-9-30-8-28-5-26-3z" fill="#FCFCFC"/>
<path transform="translate(371,36)" d="m0 0h55l26 3 28 5 30 8 25 9 25 11 24 13 19 12 14 10 17 13 16 15 23 23 7 8 14 18 11 16 11 18 12 23 12 27 7 19 8 29 4 20 4 29 1 21v25l-1 21-5 36-7 30-8 26-11 27-9 19-14 24-8 12-14 19-11 13-7 8-26 26-22 18-14 10-15 10-18 10-17 9-16 7-26 10-24 7-22 5-26 4-19 2h-47l-32-4-31-6-28-8-25-9-26-12-17-9-21-13-19-14-11-9-14-12-7-7-7-6-7-8-12-13-13-17-10-14-13-21-12-22-12-28-8-22-8-30-5-28-2-16-1-14v-48l3-27 6-32 8-29 11-29 14-29 9-16 11-17 10-14 11-14 10-11 7-8 16-16 8-7 13-11 19-14 19-12 19-11 23-11 25-10 25-8 30-7 27-4zm12 3-31 3-24 4-25 6-25 8-21 8-25 12-18 10-24 16-12 9-13 11-10 9-8 7v2l-4 2v2h-2l-7 8-10 11-11 14-10 14-10 15-11 19-9 17-12 29-8 24-6 24-4 21-3 25-1 17v28l2 27 4 27 6 27 12 36 11 25 12 23 12 19 12 17 11 14 12 14 7 7 1 2h2l2 4h2l2 4 8 7 11 10 17 13 18 13 24 14 24 12 27 11 29 9 28 6 36 5h57l18-2 30-5 28-7 26-9 26-11 20-11 11-6 21-14 12-9 22-18 30-30 22-28 10-15 10-17 9-16 13-29 11-33 6-24 5-32 2-17v-56l-5-36-6-27-7-24-11-28-13-27-13-22-11-16-12-16-9-11-7-8h-2l-2-4-16-16-8-7-14-12-19-14-22-14-22-12-21-10-24-9-23-7-26-6-26-4-27-2z" fill="#0D0D0D"/>
<path transform="translate(224,205)" d="m0 0 28 1 16 1 5 8 16 30 13 23 17 32 13 23 18 34 10 18 13 24 12 22 3 5v7l-6 11-2 2h-3l-13-24-13-23-10-19-13-23-15-28-13-23-11-21-13-23-10-18-10-13-8-9-10-7-13-7z" fill="#040404"/>
<path transform="translate(438,214)" d="m0 0h11l7 1 4 5 2 4 1 8-3 14-7 17-11 22-7-1-24-10-11-7-6-7-3-9v-9l5-10 9-8 12-6 12-3z" fill="#FCFCFC"/>
<path transform="translate(319,44)" d="m0 0h9v3l-25 6-25 8-21 8-25 12-18 10-24 16-12 9-13 11-10 9-7 6-5 6h-2l-2 4-9 9-9 11-13 17-12 18-12 20-14 28-9 23-7 21-6 24-4 21-3 25-1 17v28l2 27 4 27 6 27 12 36 11 25 12 23 3 5v5h-2l-13-24-8-16-11-27-8-26-6-26-4-27-2-21v-48l3-27 6-32 8-29 11-29 14-29 9-16 11-17 10-14 11-14 10-11 7-8 16-16 8-7 13-11 19-14 19-12 19-11 23-11 25-10 25-8z" fill="#121212"/>
<path transform="translate(309,487)" d="m0 0h11l10 4 7 8 2 5v14l-4 8-7 6-7 3h-13l-10-5-6-8-2-5v-12l5-10 8-6z" fill="#FCFCFC"/>
<path transform="translate(361,479)" d="m0 0h21l8 3 6 7 2 6v6l-6 9-2 2 1 4 8 10 9 14-1 4-10-2-14-21-4-4-9-1-1 27h-8l-1-1v-62z" fill="#060606"/>
<path transform="translate(371,36)" d="m0 0h55l26 3 28 5 30 8 25 9 25 11 24 13 19 12 14 10 17 13 16 15 23 23 7 8 14 18 11 16 11 18 1 5 1 3-2 2-10-18-13-19-12-16-9-11-6-6v-2h-2l-7-8-11-11-8-7-14-12-19-14-22-14-22-12-21-10-24-9-23-7-26-6-26-4-27-2h-31l-31 3-19 3-5-1-4-2 22-4z" fill="#161616"/>
<path transform="translate(309,478)" d="m0 0h10l9 2 9 5 8 9 4 11v12l-3 9-6 8-8 6-8 3-6 1h-9l-10-3-8-5-7-8-4-13 1-13 6-12 8-7 8-4zm0 9-9 4-5 4-5 10v12l5 10 8 6 5 2h13l10-5 6-7 2-5v-14l-4-8-7-6-8-3z" fill="#060606"/>
<path transform="translate(90,585)" d="m0 0 4 5 14 21 10 13 11 13 7 8 5 5v2h2l6 7 8 7 11 10 17 13 18 13 24 14 24 12 27 11 29 9 28 6 36 5 54 1v1l-8 1 7 1v1h-47l-32-4-31-6-28-8-25-9-26-12-17-9-21-13-19-14-11-9-14-12-7-7-7-6-7-8-12-13-13-17-10-14-8-13z" fill="#141414"/>
<path transform="translate(588,479)" d="m0 0h36v9h-25v18h24l1 1v8h-26l1 19h24l2 1v8h-36l-1-1z" fill="#060606"/>
<path transform="translate(635,479)" d="m0 0h36l1 7-1 2h-27l1 17 2 1 24 1v8h-26v18l9 1h18v9h-37z" fill="#060606"/>
<path transform="translate(193,478)" d="m0 0h11l12 3 4 2 2 10-9-3-9-2h-9l-9 3-7 6-4 9v11l5 10 6 5 6 2h14l15-5h2l-1 8-6 4-6 2-7 1h-10l-13-4-10-9-5-10-1-4v-11l4-11 6-8 9-6z" fill="#070707"/>
<path transform="translate(501,478)" d="m0 0h10l8 4 1 3v7l-4-1-6-3h-11l-3 3v6l5 5 15 10 4 5 2 5v9l-3 6-6 5-6 2h-7l-11-4-2-1-1-3v-8l5 2 4 3 9 2 7-3 1-2v-7l-8-7-11-7-5-6-2-4v-7l3-7 6-5z" fill="#070707"/>
<path transform="translate(81,479)" d="m0 0h8l3 5 13 30 3 6 1 1 11-26 6-14 2-2h8l-3 10-12 29-9 21-2 5-3-1-9-20-17-40z" fill="#060606"/>
<path transform="translate(526,479)" d="m0 0h54v9h-22v55h-10v-56h-21z" fill="#060606"/>
<path transform="translate(227,479)" d="m0 0h54v7l-1 1-21 1v54l-1 1h-9l-1-55-21-1z" fill="#070707"/>
<path transform="translate(401,479)" d="m0 0h10l8 9 7 10 3 1 13-16 3-4h10v3l-11 14-10 12-1 35-8 1-1-1-1-14v-18l-4-7-12-15-6-8z" fill="#060606"/>
<path transform="translate(682,479)" d="m0 0h9v55h25l4 1v8h-38l-1-63z" fill="#050505"/>
<path transform="translate(618,687)" d="m0 0 3 1v2l-14 10-15 10-18 10-17 9-16 7-26 10-24 7-22 5-26 4-8 1h-18l-10-1v-1l18-1 3-1 18-2 30-5 28-7 26-9 26-11 20-11 11-6 21-14z" fill="#111"/>
<path transform="translate(319,44)" d="m0 0h9v3l-25 6-25 8-21 8-25 12-18 10-24 16-12 9-13 11-10 9-7 6-4 4-4 1 6-7 10-10 6-7 14-11 16-12 19-12 19-11 23-11 25-10 25-8z" fill="#0F0F0F"/>
<path transform="translate(37,370)" d="m0 0h1l1 5 1 39 2 27 4 27 6 27 12 36 11 25 12 23 3 5v5h-2l-13-24-8-16-11-27-8-26-6-26-4-27-2-21v-48z" fill="#141414"/>
<path transform="translate(603,98)" d="m0 0 9 5 10 8 12 9 16 15 23 23 7 8 14 18 11 16 11 18 1 5 1 3-2 2-10-18-13-19-12-16-9-11-6-6v-2h-2l-7-8-11-11-8-7-14-12-18-13v-2l-3-2z" fill="#202020"/>
<path transform="translate(144,479)" d="m0 0h8l1 1v63l-8 1-2-7v-57z" fill="#080808"/>
<path transform="translate(715,219)" d="m0 0 4 4 12 24 9 21 7 19 8 29 4 20 3 21v7l-2 7h-1l-5-36-6-27-7-24-11-28-13-27-1-6z" fill="#121212"/>
<path transform="translate(708,590)" d="m0 0 2 2-9 14-14 19-11 13-7 8-26 26-11 9-10 8-3-3 13-11 10-8 29-29 22-28 10-15 1-2h3z" fill="#181818"/>
<path transform="translate(333,561)" d="m0 0 4 1 3 5 6 17 4-8 6-14 1-1h26l-1 4h-8v13l-1 17-4-1-1-28-9-1-3 10-8 18h-4l-7-20-4-10z" fill="#090909"/>
<path transform="translate(468,565)" d="m0 0h9l6 4 2 3v12l-5 5-5 2h-6l-2-2v-21z" fill="#FCFCFC"/>
<path transform="translate(465,561)" d="m0 0h13l6 3 5 6 1 4v8l-3 6-5 5-8 2h-9l-2-2v-30zm3 4-1 3v21l2 2 9-1 6-4 1-2v-12l-4-5-4-2z" fill="#111"/>
<path transform="translate(90,585)" d="m0 0 4 5 14 21 10 13 11 13 7 8 5 5v2h2l6 7 8 7 3 4-4 1-10-10-7-6-7-8-12-13-13-17-10-14-8-13z" fill="#212121"/>
<path transform="translate(315,561)" d="m0 0h11l5 3 1 2v9l-3 4-11 2 1 12-5 1v-32z" fill="#272727"/>
<path transform="translate(316,752)" d="m0 0h8l31 5 16 2 54 1v1l-8 1 7 1v1h-47l-32-4-26-5z" fill="#131313"/>
<path transform="translate(761,364)" d="m0 0 2 1 1 21v25l-1 21-5 36h-2l-2 2 1-11 4-32 1-59z" fill="#101010"/>
<path transform="translate(371,36)" d="m0 0h55l2 2-6 1-39 1-31 3-19 3-5-1-4-2 22-4z" fill="#131313"/>
<path transform="translate(525,58)" d="m0 0 10 3 25 11 24 13 19 12 1 4 3 3-5-2-19-12-22-12-21-10-15-6-1-3z" fill="#181818"/>
<path transform="translate(370,487)" d="m0 0h9l7 3 2 4v7l-5 5-3 1h-10l-1-5v-14z" fill="#FCFCFC"/>
<path transform="translate(156,129)" d="m0 0m-1 1m-1 1m-2 1 2 1-13 13h2v2h-2l-2 4-9 9-9 11-13 17-7 10-5 1 2-5 10-14 11-14 10-11 7-8z" fill="#121212"/>
<path transform="translate(211,88)" d="m0 0 2 1-2 4-21 14-12 9-13 11-10 9-7 6-4 4-4 1 6-7 10-10 6-7 14-11 16-12z" fill="#0F0F0F"/>
<path transform="translate(618,687)" d="m0 0 3 1v2l-14 10-15 10-18 10-17 9-9 4-4-1 4-1 1-3 16-8 17-9 19-12z" fill="#101010"/>
<path transform="translate(56,517)" d="m0 0h3l8 21 9 20 11 21 3 5v5h-2l-13-24-8-16-11-27z" fill="#101010"/>
<path transform="translate(603,98)" d="m0 0 9 5 10 8 12 9 16 15 3 3v2l-3 1-14-13-11-9-13-10-6-4v-2l-3-2z" fill="#252525"/>
<path transform="translate(715,219)" d="m0 0 4 4 12 24 9 21 3 8v9l-3-3-9-24-14-29-1-6z" fill="#151515"/>
<path transform="translate(37,370)" d="m0 0h1l1 5 1 39 1 17v12l-1 5h-1l-2-12-1-14v-48z" fill="#0E0E0E"/>
<path transform="translate(319,44)" d="m0 0h9v3l-25 6-25 8-8 2v-4l33-11z" fill="#111"/>
<path transform="translate(476,752)" d="m0 0 4 1-1 3-28 5-16 2h-18l-10-1v-1l18-1 3-1 18-2z" fill="#101010"/>
<path transform="translate(436,561)" d="m0 0h23l-1 4-8 1-1 28h-4l-1-28-7-1z" fill="#141414"/>
<path transform="translate(421,561)" d="m0 0h4l1 28 2 1h9v4l-1 1h-12l-3-1z" fill="#262626"/>
<path transform="translate(44,320)" d="m0 0h1v6l-1 2h2l-1 10-4 31-1 17h-1l-2-16v-8l5-32z" fill="#101010"/>
<path transform="translate(333,561)" d="m0 0 4 1 3 5 6 17 3-5 4 1-2 6-4 8-3-1-7-20-4-10z" fill="#101010"/>
<path transform="translate(157,670)" d="m0 0 5 1 14 11 17 13 3 2v3l-5-1-18-14-13-11-3-2z" fill="#121212"/>
<path transform="translate(465,561)" d="m0 0h13l3 2-5 2h-8l-2 25-3 3v-30z" fill="#212121"/>
<path transform="translate(315,561)" d="m0 0h11l5 3 1 2v9l-3 4-3 1h-10l-1 2 1-6 3-1h7l1-1v-8l-9-1v-2h-3z" fill="#0A0A0A"/>
<path transform="translate(565,78)" d="m0 0 5 2 7 1 20 12 6 4 1 4 3 3-5-2-19-12-18-10z" fill="#171717"/>
<path transform="translate(360,37)" d="m0 0h9v1l-5 1 5 1v1l-30 4-10 1-5-2v-1l22-4z" fill="#121212"/>
<path transform="translate(755,322)" d="m0 0 2 4 4 24 1 14-2 7h-1l-5-36v-11z" fill="#222"/>
<path transform="translate(305,560)" d="m0 0h3l-3 13v20l3 7v4l-4-2-3-8-1-7 1-16z" fill="#090909"/>
<path transform="translate(393,560)" d="m0 0 3 1 3 7 1 10v11l-2 10-3 4h-3l2-5 1-2 1-17-2-14-2-4z" fill="#121212"/>
<path transform="translate(372,760)" d="m0 0h53v1l-8 1 7 1v1h-47v-1l10-1-15-1z" fill="#292929"/>
<path transform="translate(653,139)" d="m0 0 7 6 13 13 7 8-1 3-2-1-2-4-4-1-5-5v-2h-2l-7-8-6-6v-2z" fill="#1E1E1E"/>
<path transform="translate(708,590)" d="m0 0 2 2-9 14-13 18-2-1 2-6 11-16 5-8h3z" fill="#181818"/>
<path transform="translate(132,643)" d="m0 0 4 2 5 5v2h2l6 7 8 7 3 4-4 1-10-10-7-6-7-8z" fill="#161616"/>
<path transform="translate(618,687)" d="m0 0 3 1v2l-14 10-15 10h-2l2-5 16-11z" fill="#0D0D0D"/>
<path transform="translate(168,118)" d="m0 0h2l1 4-11 9-9 9-7 6-4 1 6-7 10-10 6-7z" fill="#0F0F0F"/>
<path transform="translate(110,618)" d="m0 0 4 1 9 11 10 12-2 4-11-12-11-14z" fill="#262626"/>
<path transform="translate(357,561)" d="m0 0h26l-1 3-18-2v2l-5 1-3 10-3 5-3-1 1-6z" fill="#151515"/>
<path transform="translate(128,159)" d="m0 0 3 1-11 13-12 16-7 10-2-2 12-17 2-3h2l2-4 3-5h2l2-4z" fill="#262626"/>
<path transform="translate(641,668)" d="m0 0 3 1-1 3-11 9-10 8-3-3 13-11z" fill="#0E0E0E"/>
<path transform="translate(446,566)" d="m0 0h2l1 2v26h-4v-21z" fill="#272727"/>
<path transform="translate(320,564)" d="m0 0 5 1 3 3v6l-2 2h-7l-1-1v-8z" fill="#FCFCFC"/>
<path transform="translate(51,298)" d="m0 0h2l-1 8-5 22h-3l1-13 4-15z" fill="#0E0E0E"/>
<path transform="translate(663,648)" d="m0 0 1 3-19 19-3-3 18-18z" fill="#151515"/>
<path transform="translate(715,219)" d="m0 0 4 4 11 22-2 4-3-4-8-16-1-6z" fill="#151515"/>
<path transform="translate(248,728)" d="m0 0 6 1 19 8 3 1v3l-7-1-21-9z" fill="#151515"/>
<path transform="translate(41,441)" d="m0 0h1l4 27-1 5-2 2-4-23 1-9z" fill="#161616"/>
<path transform="translate(234,75)" d="m0 0 3 1-1 3-22 12-3 1 2-5 17-10z" fill="#0E0E0E"/>
<path transform="translate(124,161)" d="m0 0h2l-2 4-2 3h-2l-2 5-3 4h-2l-2 4-9 13-2 5-4 1 2-5 10-14 11-14z" fill="#0C0C0C"/>
<path transform="translate(428,37)" d="m0 0h9l15 2-3 2-8 1-27-2v-1z" fill="#1F1F1F"/>
<path transform="translate(757,444)" d="m0 0h4l-2 18-1 6h-2l-2 2 1-11z" fill="#111"/>
<path transform="translate(316,752)" d="m0 0h8l23 4-2 2h-12l-16-4z" fill="#131313"/>
<path transform="translate(371,565)" d="m0 0h1l1 30-4-1v-25z" fill="#242424"/>
<path transform="translate(449,40)" d="m0 0h9l17 3-2 2-6 1-19-3-2-2z" fill="#1C1C1C"/>
<path transform="translate(552,69)" d="m0 0 10 4 13 7v2l-5-1-5-2-6-2-6-3-3-4z" fill="#1E1E1E"/>
<path transform="translate(479,563)" d="m0 0 5 1 5 6 1 4v8l-2 1-1-7-3-4-8-8z" fill="#0F0F0F"/>
<path transform="translate(41,353)" d="m0 0h1l-1 16-1 17h-1l-2-16v-8l1-7z" fill="#262626"/>
<path transform="translate(71,242)" d="m0 0h2l1 4-6 14-5 2 3-9z" fill="#0F0F0F"/>
<path transform="translate(157,670)" d="m0 0 5 1 14 11 1 2h-2l-1 2-14-12-3-2z" fill="#141414"/>
<path transform="translate(565,720)" d="m0 0 2 1v3l-19 9-4-1 4-1 1-3z" fill="#151515"/>
<path transform="translate(565,78)" d="m0 0 5 2 7 1 13 8-2 2-7-2-16-9z" fill="#1A1A1A"/>
<path transform="translate(716,573)" d="m0 0 3 1-5 12-3 5h-3l-1 2-2-1z" fill="#0F0F0F"/>
<path transform="translate(603,98)" d="m0 0 9 5 7 6-1 3-5-2-7-5v-2l-3-2z" fill="#242424"/>
<path transform="translate(751,305)" d="m0 0 2 3 2 8v14l-2-1-3-13v-9z" fill="#242424"/>
<path transform="translate(737,265)" d="m0 0h2l4 11v9l-3-3-4-11v-5z" fill="#111"/>
<path transform="translate(673,635)" d="m0 0 3 1-2 5-9 9-4-2 10-10z" fill="#141414"/>
<path transform="translate(132,643)" d="m0 0 4 2 5 5v2h2l2 3-1 4-5-4-7-8z" fill="#232323"/>
<path transform="translate(708,209)" d="m0 0h3l5 10 2 7-2 2-9-16z" fill="#212121"/>
<path transform="translate(366,760)" d="m0 0 21 1 13 1v1h-32l-2-1z" fill="#010101"/>
<path transform="translate(425,760)" d="m0 0h11l1 2-2 1h-18l-10-1v-1z" fill="#060606"/>
<path transform="translate(196,698)" d="m0 0 4 2 11 7-1 3-5-2-11-7 2-1z" fill="#151515"/>
<path transform="translate(65,261)" d="m0 0 2 1-6 16-3-3 1-5 3-8z" fill="#151515"/>
<path transform="translate(369,37)" d="m0 0h17l-3 3h-20l1-2z" fill="#0D0D0D"/>
<path transform="translate(303,574)" d="m0 0h1l1 19 3 7v4l-4-2-2-5z" fill="#1B1B1B"/>
<path transform="translate(235,721)" d="m0 0 6 2 8 4-2 3-6-2-8-4 2-1z" fill="#1E1E1E"/>
<path transform="translate(155,131)" d="m0 0 2 1-2 4-7 6-4 4-4 1 6-7z" fill="#0A0A0A"/>
<path transform="translate(90,585)" d="m0 0 4 5 4 6v6l-5-5-4-8z" fill="#1B1B1B"/>
<path transform="translate(700,198)" d="m0 0 5 2 5 8-1 3-4-2-6-10z" fill="#1E1E1E"/>
<path transform="translate(316,580)" d="m0 0 2 1 1 12-5 1v-12h2z" fill="#262626"/>
<path transform="translate(674,163)" d="m0 0 5 4h2l4 5-1 4-4-2-7-9z" fill="#242424"/>
<path transform="translate(446,757)" d="m0 0h6v1l-5 1-1 2-9 1-1-1-8-1v-1z" fill="#1B1B1B"/>
<path transform="translate(45,472)" d="m0 0 2 1 1 11v8l-2-4-2-8v-7z" fill="#0E0E0E"/>
<path transform="translate(626,680)" d="m0 0 5 1-5 5-5 3-2-3z" fill="#191919"/>
<path transform="translate(422,588)" d="m0 0 6 2h9v4h-6v-2l-9 1z" fill="#0B0B0B"/>
<path transform="translate(547,729)" d="m0 0 1 2-3 1 1 2-10 4h-2l1-4z" fill="#151515"/>
<path transform="translate(590,706)" d="m0 0 2 1-3 5-7 4h-2v-4z" fill="#131313"/>
<path transform="translate(305,560)" d="m0 0h3l-3 13h-2l-2 2 1-7z" fill="#171717"/>
<path transform="translate(755,322)" d="m0 0 2 4 1 9-2 6h-1l-1-11v-6z" fill="#262626"/>
<path transform="translate(667,156)" d="m0 0 6 2 7 8-1 3-2-1-2-4-4-1-4-4z" fill="#121212"/>
<path transform="translate(175,684)" d="m0 0 5 1 6 5-1 3-4-2-6-4z" fill="#101010"/>
<path transform="translate(473,44)" d="m0 0h7l5 2-1 2h-7l-7-2z" fill="#101010"/>
<path transform="translate(83,577)" d="m0 0h3l4 7v5h-2l-5-9z" fill="#111"/>
<path transform="translate(465,561)" d="m0 0h13l3 2-5 2h-8l2-2-5-1z" fill="#292929"/>
<path transform="translate(319,44)" d="m0 0h9v3l-5 1h-8z" fill="#0C0C0C"/>
<path transform="translate(264,735)" d="m0 0 6 1 6 2v3l-7-1-5-2z" fill="#131313"/>
<path transform="translate(44,320)" d="m0 0h1v6l-1 2h2l-1 10-3-3 1-11z" fill="#242424"/>
<path transform="translate(743,279)" d="m0 0 2 3 2 5-1 4-2 3-2-9z" fill="#1E1E1E"/>
<path transform="translate(723,234)" d="m0 0 3 3 4 8-2 4-3-4-2-9z" fill="#121212"/>
<path transform="translate(306,749)" d="m0 0 9 1 5 1-3 3-11-2z" fill="#191919"/>
<path transform="translate(532,735)" d="m0 0 3 1-1 3-6 2h-5l1-3z" fill="#101010"/>
<path transform="translate(315,561)" d="m0 0h11l1 5-9-1v-2h-3z" fill="#111"/>
<path transform="translate(479,563)" d="m0 0 5 1 2 3-3 3-7-5z" fill="#131313"/>
<path transform="translate(539,66)" d="m0 0 10 1 3 3 2 3-5-1-10-5z" fill="#111"/>
<path transform="translate(618,687)" d="m0 0 3 1v2l-8 5-2-3z" fill="#111"/>
<path transform="translate(757,335)" d="m0 0 2 1v10l-1 5-2-4v-8z" fill="#0C0C0C"/>
<path transform="translate(536,62)" d="m0 0 11 4-1 2-9-1-3-3z" fill="#212121"/>
<path transform="translate(449,40)" d="m0 0h9l2 2-2 1h-10l-2-2z" fill="#0F0F0F"/>
<path transform="translate(553,726)" d="m0 0 3 1-4 4-4 2-4-1 4-1 1-3z" fill="#0B0B0B"/>
<path transform="translate(466,581)" d="m0 0h1l1 8 3 5h-7z" fill="#040404"/>
<path transform="translate(716,573)" d="m0 0 3 1-3 8-2 1-2 2-1-3z" fill="#191919"/>
<path transform="translate(108,186)" d="m0 0v3l-7 10-2-2 7-9z" fill="#252525"/>
<path transform="translate(148,661)" d="m0 0 4 2 6 5 2 2-4 1-8-8z" fill="#1E1E1E"/>
<path transform="translate(105,187)" d="m0 0v3l-5 7v2l-4 1 2-5 5-7z" fill="#0B0B0B"/>
<path transform="translate(113,175)" d="m0 0h2v2h-2l-2 4-4 6-3 1 2-4z" fill="#0F0F0F"/>
<path transform="translate(360,37)" d="m0 0h9v1l-5 1 5 1v1h-7l-8-2v-1z" fill="#292929"/>
<path transform="translate(355,758)" d="m0 0 16 1v1h-5v2h-7l2-1v-2h-6z" fill="#292929"/>
<path transform="translate(663,648)" d="m0 0 1 3-10 10-2-2 6-5 2-3h2z" fill="#222"/>
<path transform="translate(708,590)" d="m0 0 2 2-6 10-2-1 2-7 3-1z" fill="#202020"/>
<path transform="translate(157,670)" d="m0 0 5 1 4 4-3 2-6-5z" fill="#131313"/>
<path transform="translate(132,643)" d="m0 0 4 2 4 4-1 2-5-2-2-2z" fill="#1C1C1C"/>
<path transform="translate(485,573)" d="m0 0 3 1 1 11-4-2z" fill="#292929"/>
<path transform="translate(465,562)" d="m0 0h6l-1 2h-2l-1 8h-1l-1-5-1-3z" fill="#050505"/>
<path transform="translate(757,444)" d="m0 0h4l-1 12h-1l-2-7z" fill="#1D1D1D"/>
<path transform="translate(97,201)" d="m0 0 2 1-7 11-1-3 4-7z" fill="#242424"/>
<path transform="translate(366,760)" d="m0 0 11 1v2h-9l-2-1z" fill="#0E0E0E"/>
<path transform="translate(98,598)" d="m0 0 4 4 1 3-3 2-3-5z" fill="#242424"/>
<path transform="translate(424,592)" d="m0 0h7v2h5v1h-12z" fill="#252525"/>
<path transform="translate(383,589)" d="m0 0 4 1-1 4-3 1-2-1 1-4z" fill="#1E1E1E"/>
<path transform="translate(719,567)" d="m0 0 3 1-3 9-1 2-3-1h2l1-4-1-3z" fill="#111"/>
<path transform="translate(757,459)" d="m0 0h1v9h-2l-2 2 1-7z" fill="#101010"/>
<path transform="translate(752,318)" d="m0 0 3 1v11l-2-1-1-4z" fill="#080808"/>
</svg>
