<?xml version="1.0" encoding="UTF-8"?>
<svg version="1.1" viewBox="0 0 2048 1075" width="1055" height="554" xmlns="http://www.w3.org/2000/svg">
<path transform="translate(0)" d="m0 0h2048v1075h-2048z" fill="#FCFCFC"/>
<path transform="translate(2047)" d="m0 0h1v1075h-1078l6-7 145-145 8-7 55-55 2-3h2v-2h2v-2h2l2-4 9-9 8-7 170-170 8-7 339-339 8-7 254-254 8-7 7-7 6-7h2l2-4 5-4 5-5 4-5h2l2-4z" fill="#BD3022"/>
<path transform="translate(2046,538)" d="m0 0h2v537h-535l6-7 11-11 2-4 10-8 21-21 4-5 8-7 38-38 8-7 11-12 75-75 7-6 7-9 7-6 7-8 5-4 6-5 3-5 51-51 4-2 4-5 6-7 16-16 4-2 3-4 6-7 58-58 4-5 8-7 16-16 7-8 10-9 7-8 8-7 7-8 5-4 7-8 29-29 6-8 12-12 4-2 7-7 1-3z" fill="#283A7A"/>
<path transform="translate(1915,731)" d="m0 0h25l36 1 27 2 28 3 17 2v316l-5 1-1 3-6 3h-4l1-3 6-5 2-3v-9l-4-6v-2h-2l-5-6-9-6v-2h-2l-8-10v-2h-2l-6-9-9-10-5-7-4-2v-2l-4-2-12-16-5-3-7-10-3-3v-2h-2l-11-16-9-14-8-8v-2l-4-2-8-11v-2h-2l-4-6-3-3-5-7-7-3-1-2h-7v2l-11 3v2l-11 5h-6v2l-7 3h-11l-1-3-6-1-2-2-5-4-6-5-2-2-4-2 1-1-5-2-1-3-4-2-1-4h-4l2-4 5-4v-3l4-1 1-3 8-7 88-88 7-8z" fill="#141415"/>
<path transform="translate(1793,854)" d="m0 0 13 3 4 4 3 2-1 1 7 2 1 3 6 5 4 3 2 2 4 1 1 2h11l7-2v-2l8-2 9-3v-2l8-3h3v-2l7-1 2 3 7 3 5 7v2l4 2 2 5h2l9 13 11 11 7 10 7 11 6 8v2h2l8 10 3 5 6 4 9 12 5 5v2l5 2 11 14 7 8 1 4h2l7 9 1 3h2v2l4 2 8 6 2 4h2l5 8v9l-7 8-3 3 10-4 1-2 5-1v20h-188l-7-9-7-14-7-11-7-10-12-17-4-8-9-12-4-8-5-7v-3h-2l-9-16v-3h-2l-1-5h-3l-3-10-6-10-2-4-5-5-1 1h-5l1 3-5 2 1 2h-2v5l4 1 4 11 4 7-5 3-7 3-6 2h-5l1 3-6 2-7 1-1 2-2-1v2h-2v3l-9 1v2l2 1-7 1v3l-15 4v2l-9 1-1 3-2 1h-7v2l3 1-14 3 1 2-8 1-2-8 3 1v-2h-3l1-6 15-14 11-12 18-18 8-7 8-8 7-8 53-53h6l-3-4 10-9z" fill="#505A69"/>
<path transform="translate(667,706)" d="m0 0h9l5 2 2 2v7l-5 8-11 11-9 7-2-1 9-8 4-4 5-8v-7l-3-2-11-1-16 2-10 3-25 11-16 9-3 3v11l5 5 11 3h12l16-4 8-4 2 1-8 5-12 6-10 6-10 3-12 6-29 9h-6l-3-4-8 1-1 4-12 5-14 8-9 5-12 8-8 4h-2v2l-22 14-19 14-15 12-11 9-10 9-12 10 3 3 8 4 10 6 6 3v2l5 2 3 3v2l6 2 4 3v2h2l1 3-8 19-8 20-7 20-6 18-8 29-6 23-4 22-1 1h-21l-7-35-6-20-6-19-8-20-3-9-5-9-5-12-8-11 2-4 6-8 4-5 2-1 3-5h2l2-4h2l1-4 7-6 2-4 12-11 2-3-9-3-23-10-15-4-19-6-21-4-31-4-1 3-6 1h-18l-23-2-27-5v-1l13 1h15l1-5-2-4-4-2-8-5-9-5-8-2-9-1h-36l2 7 20 9 6 2-4 1-22-9-8-6-3-3 1-7 5-6 5-1 4 7 2 1 47 4 18 3 24 6 5 1v-7l5-5 6-2 7 4 4 5 1 5h-15l-2 5 5 1h14l29 4 30 7 21 7 17 6 17 9 4 2h5l4-5h2l1-3 5-3 7-8 3-1 2-3 5-3 3-4 7-4 2-3 5-3 4-4 3-1 1-2 3-1 1-2h3v-2h3l1-3 7-4 4-3h2v-2l5-2 1-2 9-5 3-1v-2l8-4 6-4h2v-2l3-2h4v-2l7-2v-2l15-7 7-3h3v-6l-2-5 1-6 11-13 8-8 8-6 8-2-5 5-11 12v4h3l-1 4 11-7 16-9 23-12 13-5 15-6z" fill="#DCDDE0"/>
<path transform="translate(1765,922)" d="m0 0 4 3-1 1 3 2 5 9 4 8 1 7h3l1 5h2l5 10 4 7v2h2l5 9 3 3 1 5 8 10 3 4 3 7 10 14 9 13 11 18 4 8 5 8h-176l-6-8v-2h-2l-3-5-6-9-3-5-2-4-2-2 1-2h-3l-1-3-2-1-6-11-2-3-1-15-2 1 2-5 9-9h2l2 10h6l-1-2 13-3 1-3 9-2 1-2 8-2 1-2 11-3h4v-3l5-2v-2l9-1v-3h2v-2l10-3 5-1v-3l11-3 7-3 4-2-7-14v-4l-4-1v-7l5-3v-2z" fill="#646E7B"/>
<path transform="translate(1930,843)" d="m0 0 10 3 1 3 5 2 7 7v2h2l6 8v2h2v2l4 2 9 6 7 6 10 13 16 16 10 9v2l4 2 10 9 4 4 7 9 4 2v103l-5 1-1 3-6 3h-4l1-3 6-5 2-3v-9l-4-6v-2h-2l-5-6-9-6v-2h-2l-8-10v-2h-2l-6-9-9-10-5-7-4-2v-2l-4-2-12-16-5-3-7-10-3-3v-2h-2l-11-16-9-14-8-8v-2l-4-2-8-11v-2h-2l-4-6-3-3-5-7-7-3-1-2h-7v2l-11 3v2l-11 5h-6v2l-7 3h-11l-1-3-6-1-2-2-5-4-6-5-2-2-4-2 1-1-5-2-1-4 5 1v-3l12 3 14 6 10 5v2l3 1v2l-2 1 10-1 12-4 24-10h3v-2l10-4 11-6z" fill="#252C3C"/>
<path transform="translate(394,892)" d="m0 0 11 6 14 8 15 10 9 7-1 7-10 22-6 18-5 11-8 26-10 36-3 13-2 16-1 3h-12l-6-25-8-32-7-18-5-15-12-28-8-16 1-5v-3l2-5 3-1 1 1-1 9-1 2 7 1 2-4 18-20 11-12h2l2-4z" fill="#FCFCFC"/>
<path transform="translate(1779,868)" d="m0 0 15 2v2l11 3 1 4 8 4 2 3v4h4l1 6-6 1 1 3-10 1 1 3-9 2-6 2-3 3-4 3-4 2v1l-7 2-1 2-9 3h-5l1 3-5 2 1 2h-2v5l4 1 4 11 4 7-5 3-7 3-6 2h-5l1 3-6 2-7 1-1 2-2-1v2h-2v3l-9 1v2l2 1-7 1v3l-15 4v2l-9 1-1 3-2 1h-7v2l3 1-14 3 1 2-8 1-2-8 3 1v-2h-3l1-6 15-14 11-12 18-18 8-7 8-8 7-8z" fill="#151517"/>
<path transform="translate(1975,671)" d="m0 0 21 1-2 2 27 2 3 1 23 2 1 1v59l-29-2-28-3-49-3 2-2-24-1 2-4z" fill="#E3E4E6"/>
<path transform="translate(1885,865)" d="m0 0h5l2 3 7 3 5 7v2l4 2 2 5h2l9 13 11 11 7 10 7 11 6 8v2h2l8 10 3 5 6 4 9 12 5 5v2l5 2 11 14 7 8 1 4h2l7 9 1 3h2v2l4 2 8 6 2 4h2l5 8v9l-7 8-3 3 10-4 1-2 5-1v20h-38l1-4 4-6-1-11-4-10-8-11-11-10-8-7-6-10-5-9-8-12-5-4v-2l-4-2-7-10-10-13-9-15-8-14-8-10-4-6v-2l-5-2-3-3v-2l-3-1v-3h-2l-7-10-6-7-2-1v-2h-2v-2l-4-2-3-1 8-3h3v-2z" fill="#3E4655"/>
<path transform="translate(667,706)" d="m0 0h9l5 2 2 2v7l-5 8-11 11-9 7-2-1 9-8 4-4 5-8v-7l-3-2-11-1-16 2-10 3-25 11-16 9-3 3v11l5 5 11 3h12l16-4 8-4 2 1-8 5-12 6-10 6-10 3-12 6-29 9h-6l-3-4-8 1-1 4-12 5-14 8-9 5-12 8-8 4h-2v2l-22 14-19 14-15 12-11 9-10 9-12 10 3 3 8 4 10 6 6 3v2l5 2 3 3v2l6 2 4 3v2h2l1 3-8 19-8 20-7 20-6 18-8 29-6 23-4 22-3 1 3-24 8-29 4-15 9-28 8-20 4-12 8-17 1-7-11-8-12-8-18-10-7-4-14 14-14 15-9 10-6 7h-2l2-5 3-5 5-4 5-8 6-4h2l2-6 4-5 6-4 5-8 9-6 8-8h2l2-4 8-7 5-6 8-6 16-13 11-8 8-6 10-7 5-4 9-5 10-7 14-8 10-6 8-2v-2l8-4h4v2h2v-3l4-2h3v-2l3-2h4v2h4v-2h-3v-2l3-2 10-1 2-4 2-1 1 2 1-3h-3v-2l-10 5h-2v2l-7 2-9 4-4-1-3-2-4 2v-6l-2-5 1-6 11-13 8-8 8-6 8-2-5 5-11 12v4h3l-1 4 11-7 16-9 23-12 13-5 15-6z" fill="#29303F"/>
<path transform="translate(1811,855)" d="m0 0 12 3 14 6 10 5v2l3 1v2l-2 1 10-1 12-4 12-5 15-6 6-1 5 4 7 10v2l4 2 9 11 1 3 3 1v2h2l5 5 7 9 2 8 4 2 5 5 13 15 4 5 4 4 6 8 8 7 5 5 7 8 10 12 6 9 12 13 7 9 9 4v34l-5 1-1 3-6 3h-4l1-3 6-5 2-3v-9l-4-6v-2h-2l-5-6-9-6v-2h-2l-8-10v-2h-2l-6-9-9-10-5-7-4-2v-2l-4-2-12-16-5-3-7-10-3-3v-2h-2l-11-16-9-14-8-8v-2l-4-2-8-11v-2h-2l-4-6-3-3-5-7-7-3-1-2h-7v2l-11 3v2l-11 5h-6v2l-7 3h-11l-1-3-6-1-2-2-5-4-6-5-2-2-4-2 1-1-5-2-1-4 5 1z" fill="#2D354B"/>
<path transform="translate(250,211)" d="m0 0h165l10 4 7 8 2 5v123h-7l-2-1-1-113-3-9-5-5-5-2h-155l-8 4-4 5-2 7-1 114h-8l-1-1-1-32v-81l2-12 4-6 7-6z" fill="#B73428"/>
<path transform="translate(1930,843)" d="m0 0 10 3 1 3 5 2 7 7v2h2l6 8v2h2v2l4 2 9 6 7 6 10 13 16 16 10 9v2l4 2 10 9 4 4 7 9 4 2v35l-7-2-11-15-9-11-15-15-8-7-12-12v-2l-4-2-10-10-6-9-7-6-5-5-8-7-4-5v-2h-2l-7-11-3-3v-2h-2l-3-4-11-4-4-1 8-4z" fill="#1F242D"/>
<path transform="translate(2046,600)" d="m0 0h2v80l-24-2-13-2-25-2-3-2-7-1 6-7 52-52 8-7z" fill="#505A69"/>
<path transform="translate(660,711)" d="m0 0 11 1 4 3v7l-8 12-10 8-5 5-16 8-9 3-9 2h-12l-11-3-5-4-1-2v-11l6-5 16-9 25-11 14-3z" fill="#FBFBFB"/>
<path transform="translate(1765,922)" d="m0 0 4 3-1 1 3 2 5 9 4 8 1 7h3l1 5h2l5 10 4 7v2h2l5 9 3 3 1 5 8 10 3 4 3 7 10 14 9 13 11 18 4 8 5 8h-16l-10-15-15-24-6-9-5-9-7-11-12-18v-3h-2l-6-10-10-16-4-6-3-1-6-12v-4l-4-1v-7l5-3v-2z" fill="#E2E3E5"/>
<path transform="translate(136,814)" d="m0 0 4 1 3 6 2 1 47 4 18 3 24 6 6 2 6 7 30 3 29 5 25 7 28 10 18 8 8 4-6 7-10 11h-2l2-4 8-8 1-2-9-3-23-10-15-4-19-6-21-4-31-4-1 3-6 1h-18l-23-2-27-5v-1l13 1h15l1-5-2-4-4-2-8-5-9-5-8-2-9-1h-36l2 7 20 9 6 2-4 1-22-9-8-6-3-3 1-7 5-6z" fill="#2D3444"/>
<path transform="translate(1322,316)" d="m0 0h14l12 4 9 8 6 12 1 5v9l-3 10-6 8-7 6-7 3-5 1h-14z" fill="#30417A"/>
<path transform="translate(569,316)" d="m0 0h14l12 4 10 9 5 11 1 13-3 11-6 8-7 6-11 4h-15z" fill="#30417A"/>
<path transform="translate(711,221)" d="m0 0h11l9 4 7 7 3 7v15l-6 10-9 6-3 1h-13l-9-4-6-7-3-6-1-11 4-11 8-8z" fill="#FBFCFC"/>
<path transform="translate(540,781)" d="m0 0h4v2h2l-1 5-12 5-14 8-9 5-12 8-8 4h-2v2l-22 14-19 14-15 12-11 9-10 9-12 10 3 3 8 4 10 6 6 3v2l5 2 3 3v2l6 2 4 3v2h2l1 3-8 19-8 20-7 20-6 18-8 29-6 23-4 22-3 1 3-24 8-29 4-15 9-28 8-20 4-12 8-17 1-7-11-8-12-8-18-10-7-4-14 14-14 15-9 10-6 7h-2l2-5 3-5 5-4 5-8 6-4h2l2-6 4-5 6-4 5-8 9-6 8-8h2l2-4 8-7 5-6 8-6 16-13 11-8 8-6 10-7 5-4 9-5 10-7 14-8 10-6 8-2v-2z" fill="#606A77"/>
<path transform="translate(777,316)" d="m0 0h21l9 4 7 9 1 3v13l-3 6-5 6-3 2 1 4 10 16 1 3h-10l-10-15-3-5-8-1v21h-8l-1-1v-64z" fill="#2F407A"/>
<path transform="translate(761,213)" d="m0 0h20l8 3 7 6 4 9v9l-4 9-7 7h-2l7 12 7 11h-11l-12-19v-2h-8v21h-9z" fill="#30417A"/>
<path transform="translate(290,277)" d="m0 0h3l1 3 2 1v-4l6 2 10 4 8 2-2 9-14 38-4 5-7 2-5-3-5-10-15-39 1-2 14-4z" fill="#2A3C7A"/>
<path transform="translate(376,244)" d="m0 0h9l12 4 6 4 8 9 3 7 1 5v13l-3 10-6 9-11 7-14 3-5-1v-21l10-4 5-5 1-7-3-6-6-3-7-2z" fill="#2B3D7A"/>
<path transform="translate(1765,953)" d="m0 0 4 2 9 14 4 7 5 8v2h2l6 11 8 11 6 10 6 11 10 15 10 16 9 14v1h-19l-13-24-7-11-10-16-6-9-5-10-3-5-6-9-1-5-3-3 1-2-2-1v-2l-2-2-2-4-2-5-4-1-3-4h-5l5-4 8-3z" fill="#2D3445"/>
<path transform="translate(1015,316)" d="m0 0h21l10 5 6 8 1 3v13l-3 6-4 5-7 4-4 1h-12v21h-8l-1-1v-64z" fill="#2E3F7A"/>
<path transform="translate(986,213)" d="m0 0h20l8 3 5 5 5 8v13l-4 8-6 5-7 3h-13v21h-9v-65z" fill="#2E3F7A"/>
<path transform="translate(912,213)" d="m0 0h21l9 4 6 7 3 8v8l-3 8-9 8-5 2h-13v21h-9z" fill="#2F407A"/>
<path transform="translate(511,316)" d="m0 0h9l11 20 14 24 1-43 1-1h8v66h-8l-15-26-11-19-1 45h-9z" fill="#2F407A"/>
<path transform="translate(712,212)" d="m0 0h9l10 3 9 6 8 11 2 6v16l-4 10-8 9-9 5-6 2h-13l-11-4-10-9-5-10-1-3v-16l4-10 7-8 10-6zm-1 9-8 3-8 8-4 11 1 11 6 10 6 5 6 2h13l10-5 6-8 2-4v-15l-4-8-9-8-6-2z" fill="#2F3F7A"/>
<path transform="translate(1651,1045)" d="m0 0 2 1v4l1 4 5 2 1 4 2 4 3 1 3 7v3h-86l3-2h5v-2l-2-1 8-1-1-3 8-2v-2l12-3h5v-3l6-1-1-3 5-2 1-2 9-2z" fill="#636D7A"/>
<path transform="translate(1629,1018)" d="m0 0h1v6h4v5l6 2 2 6 3 1 1 5 2 2-17 4v2l-5 2v2l-6 1v3l-16 4-1 2-7 2v2l-6 2v2l-8 2h-8l6-7 16-16 14-16 11-9z" fill="#151618"/>
<path transform="translate(1655,992)" d="m0 0h2l2 10 4 12 4 6 5 10 2 1 6 12 12 19v2l3 1 4 10h-15l-6-8v-2h-2l-3-5-6-9-3-5-2-4-2-2 1-2h-3l-1-3-2-1-6-11-2-3-1-15-2 1 2-5z" fill="#E3E4E6"/>
<path transform="translate(1818,829)" d="m0 0 1 4 2 6 15 4 8 5v2h2l1 4 4 1 21 11 9-2 8-4 8-1-3 2-15 6-12 5-9 3-10 1-2-2h4l-5-5-8-4-10-4-6-3-10-3v3l-9-2-1-4h-4l2-4 5-4v-3l4-1 1-3 8-7z" fill="#1F242D"/>
<path transform="translate(1034,213)" d="m0 0h36v8l-1 1h-26v20h27v8h-27v21h27v8h-36z" fill="#2D3E7A"/>
<path transform="translate(624,316)" d="m0 0h8l1 46 3 7 6 4h8l6-4 3-6 1-47h9v45l-2 9-7 8-4 3-11 2-9-2-8-7-4-8-1-5z" fill="#2E3F7A"/>
<path transform="translate(852,316)" d="m0 0h36v8h-27v21h27v8h-27v21h27v8h-36z" fill="#2D3E79"/>
<path transform="translate(600,212)" d="m0 0h7l13 4 8 6-2 4-2 2-5-1-7-4-4-1h-9l-8 3-5 4-5 9-1 3v10l4 10 7 6 6 3h14l11-6 4 2 2 4-6 5-8 4-4 1h-12l-10-3-9-7-7-11-2-9 1-13 6-12 9-8 9-4z" fill="#2F407A"/>
<path transform="translate(914,315)" d="m0 0 9 1 6 4 3 5v3l-5 2h-4l-1-4-2-1h-6l-3 4 1 6 6 4 10 5 7 7 3 9-1 9-5 8-5 4-7 2h-7l-10-5-5-7-2-7 6-3h3l3 8 3 3 2 1h8l5-3 2-4v-8l-5-6-15-8-5-6-1-2v-10l4-7z" fill="#2F407A"/>
<path transform="translate(697,315)" d="m0 0h7l7 4 4 6v3l-5 2-4-1-1-3-2-1h-6l-3 4 1 5 4 4 12 6 5 4 4 7 1 10-3 8-5 6-5 3-4 1h-7l-8-3-5-5-4-7v-5l5-2h3l4 10 4 2h9l5-4 1-2v-9l-6-7-12-6-5-4-3-6v-9l4-7z" fill="#30407A"/>
<path transform="translate(482,213)" d="m0 0h9l5 12 12 34 7-18 10-28h9l-1 6-19 53-3 7h-5l-5-12-14-39z" fill="#2F4079"/>
<path transform="translate(1061,316)" d="m0 0h9l7 18 9 25v3h2l3-11 11-30 2-5h9l-1 6-14 38-8 21-3 2-4-4-19-53z" fill="#2E3F7A"/>
<path transform="translate(340,288)" d="m0 0 27 1 6 1 1 26-7 1-1 3h-25l-1-1z" fill="#2A3B7A"/>
<path transform="translate(810,213)" d="m0 0h9l6 9 11 19 4-5 13-23h11l-8 14-13 23-1 2-1 27h-9l-1-27-14-25-7-12z" fill="#30417A"/>
<path transform="translate(372,240)" d="m0 0 2 1v26l-4 2-4 1h-26v-29z" fill="#2A3B7A"/>
<path transform="translate(650,693)" d="m0 0h16l5 2-4 1h-18l-18 4-18 6-3 2 15-4 4 1-21 7-10 5v11l-4 4-20 11-10 6-5 4-2-1 2-4-4 1v-5l12-13 3-3-4 2 2-5 24-13 10-4 19-8 22-6z" fill="#E1E2E4"/>
<path transform="translate(578,325)" d="m0 0 9 1 6 3 6 7 3 8v10l-4 10-8 7-11 3-1-1z" fill="#FAFAFA"/>
<path transform="translate(1331,325)" d="m0 0 9 1 8 5 6 9 1 4v10l-3 8-6 7-5 3-9 2-1-1z" fill="#FAFAFA"/>
<path transform="translate(2027,556)" d="m0 0 2 1-2 4-47 47-3 4h-2l-2 4-5 4-3 5-6 7-8 7-19 19-5 6-16 14-7 8-10 9-5 5-3 5-7 7-7 6-7 8-7 6-7 8-9 8-7 8-5 5h-2l-2 4-26 26-3 1-3 5-10 9-5 5-3 4-3 1-3 5-14 14-8 6v-3l52-52 4-2 4-5 6-7 16-16 4-2 3-4 6-7 58-58 4-5 8-7 16-16 7-8 10-9 7-8 8-7 7-8 5-4 7-8 29-29 6-8z" fill="#353D51"/>
<path transform="translate(1757,958)" d="m0 0 6 1 6 9 4 5v4h2l9 14 11 18 5 9 6 9 7 12 5 7v2h2l3 6v2l3 1 3 5 2 5 4 8h-10l-13-24-7-11-10-16-6-9-5-10-3-5-6-9-1-5-3-3 1-2-2-1v-2l-2-2-2-4-2-5-4-1-3-4h-5z" fill="#4F5968"/>
<path transform="translate(637,213)" d="m0 0h39l1 4-1 5h-15v57h-9v-57h-15z" fill="#334379"/>
<path transform="translate(1793,854)" d="m0 0 13 3 4 4 3 2-1 1 7 2 1 3 6 5 4 3 2 2 3 2 3 7-2 2-12 3-4-1v-2h-4v-4l-4-1 2-1-6-2v-2l-2-1-1-3-15-4v-2l-5-2-3-4 10-9z" fill="#E4E5E7"/>
<path transform="translate(1643 1e3)" d="m0 0h3 1l1 16 6 10 1 4 3 1v3h3l2 4 3 5 5 9 5 6v3h2l6 10h-16l-3-7-1-3-5-5-1-4-4-2-3-6h2l-2-2h-6v-8l-4-1-4-9-2-4 1-3h2l2 2 2-4z" fill="#424A59"/>
<path transform="translate(1272,316)" d="m0 0h39v8l-14 1-1 57h-9v-57h-14l-1-1z" fill="#31417B"/>
<path transform="translate(728,316)" d="m0 0h39v9h-15v57h-9v-58l-14 1-1-1z" fill="#31417B"/>
<path transform="translate(1119,316)" d="m0 0h39v8l-14 1-1 57h-9v-58l-15 1z" fill="#2F4079"/>
<path transform="translate(1235,316)" d="m0 0h9l1 57 22 1v8h-32z" fill="#32427A"/>
<path transform="translate(1167,311)" d="m0 0 5 1 9 6 6 8 4 11 1 6v12l-3 13-6 10-7 6-5 3h-4v-7l10-9 4-8 1-4v-20l-3-9-7-8-5-3z" fill="#31417A"/>
<path transform="translate(999,311)" d="m0 0h3v8l-9 7-5 10-1 5v16l3 10 7 9 5 3v9l-12-6-6-7-5-11-1-5v-19l4-13 6-9 9-6z" fill="#2F407A"/>
<path transform="translate(277,245)" d="m0 0 2 1 10 27v3l-11 5-8 2-4-8-8-21 1-2 10-3z" fill="#2C3D7A"/>
<path transform="translate(310,245)" d="m0 0 6 2 10 3 4 1-2 9-8 21-5 1-13-5-2-4z" fill="#2C3D7A"/>
<path transform="translate(2012,634)" d="m0 0h2l-2 9-3 8-1 1v7l5 2 4 2 1 6-2 2h-8l-7-3-7 2h-12l-2-1v2l-4-1z" fill="#636D7B"/>
<path transform="translate(1771,922)" d="m0 0 2 3h-2l1 2 4-1v2h4l1-3 2 1v2l3-1v2l3 1-1 2-2 1 4 5v5h-4v2h4v2h2v2l-5 1v-3h-2l2 6 6 9 6 10 13 21 10 17 10 15 7 12-1 2-6-8-12-17-4-8-9-12-4-8-5-7v-3h-2l-9-16v-3h-2l-1-5h-3l-3-10-6-10-2-4-3-3v-2z" fill="#656F7C"/>
<path transform="translate(960,213)" d="m0 0h8v66h-9v-65z" fill="#344479"/>
<path transform="translate(1811,855)" d="m0 0 12 3 14 6 10 5v2l3 1v2l-2 1h9v3h-2v2l-7 3h-11l-1-3-6-1-2-2-5-4-6-5-2-2-4-2 1-1-5-2-1-4 5 1z" fill="#2A3141"/>
<path transform="translate(397,889)" d="m0 0 5 2 8 4 10 6 6 3v2l5 2 3 3v2l6 2 4 3v2h2l1 3-8 19-8 20-7 20-6 18-8 29-6 23-4 22-3 1 3-24 8-29 4-15 9-28 8-20 4-12 8-17 2-9-9-6-16-11-10-7-10-4-2-3z" fill="#545E6C"/>
<path transform="translate(487,316)" d="m0 0h9v55l-1 11h-8z" fill="#34447A"/>
<path transform="translate(161,805)" d="m0 0h6l1 1v7l15 8 3 3 4 2-24-1-21-2-5-5-1-3-3-2 12-5z" fill="#E3E4E6"/>
<path transform="translate(1629,1018)" d="m0 0h1v6h4v5l6 2 2 6 3 1 1 5 2 2-13 3-3-1h-10l1-3v-1h-3v-2l-5-1-5 2-3-2 5-5 10-9z" fill="#232935"/>
<path transform="translate(220,841)" d="m0 0h9l13 2 11 2 23 2 29 5 25 7 28 10 18 8 8 4-4 4-3-3-12-6-16-5-25-8v-2h-6l-5-2-26-6-3-1-20-2-28-5-15-2z" fill="#5E6775"/>
<path transform="translate(549,213)" d="m0 0h8l1 22v18l-1 26h-8z" fill="#2F4079"/>
<path transform="translate(338,930)" d="m0 0v3l-3 4 1 2 3 3 6 16 8 15 6 16 6 15 3 11 6 17 9 43h-5l-7-35-6-20-6-19-8-20-3-9-5-9-5-12-8-11 2-4z" fill="#454D59"/>
<path transform="translate(828,316)" d="m0 0h8v66h-8z" fill="#283A7A"/>
<path transform="translate(994,222)" d="m0 0h12l7 4 3 6v7l-4 7-5 3-5 1h-7l-1-1z" fill="#FAFAFA"/>
<path transform="translate(1024,324)" d="m0 0 12 1 5 3 4 8-1 8-6 7-3 1h-11l-1-1v-26z" fill="#FAFAFA"/>
<path transform="translate(786,324)" d="m0 0 12 1 7 6 2 5-1 8-6 7-3 1h-12v-27z" fill="#FAFAFA"/>
<path transform="translate(921,222)" d="m0 0h12l6 4 3 5v9l-4 6-5 3-4 1h-7l-1-1z" fill="#FBFBFB"/>
<path transform="translate(770,222)" d="m0 0h12l6 4 3 5v9l-4 6-5 3-10 1-2-1z" fill="#FBFBFB"/>
<path transform="translate(2027,556)" d="m0 0 2 1-2 4-47 47-3 4h-2l-2 4-5 4-3 5-6 7-8 7-19 19-5 6-16 14-7 8-10 9-13 13-2-1 22-22 4-5 8-7 16-16 7-8 10-9 7-8 8-7 7-8 5-4 7-8 29-29 6-8z" fill="#434C5D"/>
<path transform="translate(570,727)" d="m0 0 2 1-10 9-6 7v4h3l-1 4 1 2-11 8-5 6-2 4-3 1v-6l-2-5 1-6 11-13 8-8 8-6 4-1z" fill="#656F7C"/>
<path transform="translate(1783,986)" d="m0 0 3 3 7 14 3 4v4l3 1v3l4 1 2 6 5 8 5 9 3 1-2-5 1-3 10 15 8 13 9 14v1h-9l-6-9-3-7-4-5-2-3v-3h-2l-9-14-5-8-9-14-4-8-6-10-2-5z" fill="#2E3547"/>
<path transform="translate(284,852)" d="m0 0 12 2 28 7v2l7 1 22 7 16 6 11 6-1 4-11 12h-2l2-4 8-8 1-2-9-3-23-10-15-4-19-6-21-4-21-3v-1h16z" fill="#2A2F3A"/>
<path transform="translate(1928,720)" d="m0 0 2 3 90 10 13 2v1h-11l-6-1-40-2-34-2 2-2-22-2z" fill="#FBFBFB"/>
<path transform="translate(340,930)" d="m0 0 2 4-2 3 1 5 4 10 7 14 11 27 4 12 5 13 10 40 3 13v4l-3-1-9-42-8-23-4-13-8-19-3-7-7-14-5-14-4-2 1-4z" fill="#E2E3E5"/>
<path transform="translate(342,322)" d="m0 0h23l-1 16h-21l-1-1z" fill="#324278"/>
<path transform="translate(2047,1055)" d="m0 0h1v20h-31l5-4 4-2v-2l12-7 4-2 1-2z" fill="#E3E4E6"/>
<path transform="translate(136,814)" d="m0 0 4 1 3 6 2 1 47 4v1l-10 1-9-1h-36l2 7 20 9 6 2-4 1-22-9-8-6-3-3 1-7 5-6z" fill="#5E6875"/>
<path transform="translate(667,706)" d="m0 0h9l5 2 2 2v7l-5 8-11 11-9 7-2-1 9-8 4-4 5-8v-7l-3-2-11-1-16 2-6 1-2-2z" fill="#363E4E"/>
<path transform="translate(1801,994)" d="m0 0 5 5 5 9 10 15 8 10 18 27 3 5-1 4-5-3-4-7v-3h-2l-1-4-3-1-3-5-5-8-8-13-9-14-5-10-3-5z" fill="#656F7C"/>
<path transform="translate(343,273)" d="m0 0h21l1 4v8l-1 1h-21l-1-1v-11z" fill="#35457A"/>
<path transform="translate(1655,1038)" d="m0 0h6l2 4 3 5 5 9 5 6v3h2l6 10h-9l-3-3-6-12-2-2v-3h-2l-3-6-5-4-1-5z" fill="#384052"/>
<path transform="translate(318,362)" d="m0 0h11l4 2 1 6-2 3 1 9-3 1-4-4-1-4h-2l1 7-4 1-2-1z" fill="#B64036"/>
<path transform="translate(1771,922)" d="m0 0 2 3h-2l1 2 4-1v2h4l1-3 2 1v2l3-1v2l3 1-1 2-2 1 4 5v5h-4v2h4v2h2v2l-5 1v-3h-5l1-2-2-1v-3h-4l-5-9-2-4-3-3v-2z" fill="#646E7B"/>
<path transform="translate(303,362)" d="m0 0 6 1 3 2 1 3v8l-3 5-2 1h-6l-4-4-1-9 3-5z" fill="#B2372D"/>
<path transform="translate(1765,953)" d="m0 0 4 2 9 14 4 7 5 8v2h-2v-2h-2l2 8-5-5-5-8v-2h-2l-2-6-7-8-3-3v-3l4-2z" fill="#444C5B"/>
<path transform="translate(363,1009)" d="m0 0 4 4 7 19 9 43h-5l-7-35-6-20-2-6z" fill="#454E5D"/>
<path transform="translate(368,362)" d="m0 0h11l4 2 1 6-4 4-5 1-1 7h-6z" fill="#B0463E"/>
<path transform="translate(419,362)" d="m0 0h13v4l-6 1-1 3h5v4l-5 2v1l7 1 1 4h-14l-1-2v-17z" fill="#AA3D35"/>
<path transform="translate(1588,1060)" d="m0 0h13l6 1-4 4-7 2v2l-6 2v2l-8 2h-8l6-7z" fill="#17181B"/>
<path transform="translate(1651,1040)" d="m0 0 3 2v3l3 1v2l3 1 2 3v3h2l6 11 5 9h-7l-3-7-1-3-5-5-1-4-4-2-3-6h2l-2-2h-6l2-4z" fill="#505A69"/>
<path transform="translate(264,836)" d="m0 0h8l39 7 28 7 24 9 17 8 1 2-9-3-16-7-31-10-33-7-28-5z" fill="#E3E4E6"/>
<path transform="translate(399,362)" d="m0 0h10l5 3v6l-3 3-6 1-1 7-4 1-1-1z" fill="#BA3F34"/>
<path transform="translate(233,362)" d="m0 0h5l4 10 3-10h4l-3 15-2 5-3 1-4-2-4-15z" fill="#B2382D"/>
<path transform="translate(386,896)" d="m0 0 3 1-5 7-8 7-7 8-13 14-5 6h-2l2-5 3-5 5-4 5-8 6-4h2l2-6 4-5z" fill="#5A6472"/>
<path transform="translate(397,889)" d="m0 0 5 2 8 4 10 6 6 3v2l5 2 3 3v2l6 2 4 3v2h2l1 3-6 15-2-3 4-12-1-3-11-7-13-9-10-7-10-4-2-3z" fill="#626C79"/>
<path transform="translate(1800,786)" d="m0 0v3l-3 3-3 5-10 9-5 5-3 4-3 1-3 5-14 14-8 6v-3z" fill="#3C4457"/>
<path transform="translate(269,362)" d="m0 0 6 1 2 4v3l-5 1-2-4-1 11h2v-4h6l-1 5-3 3-7-1-3-6 1-9z" fill="#B2382D"/>
<path transform="translate(507,804)" d="m0 0h3l-1 3-11 7-8 4h-2v2l-22 14-18 13-2-1 1-2 7-4 3-3h2v-2l3-1 5-5 10-5 5-5 7-5 9-3 4-2v-2l5-1z" fill="#495262"/>
<path transform="translate(1642 1e3)" d="m0 0 2 4-1 10-2 3 2 2-5-1v-2h-2l1 6 1 3-4-1-1-3 1-2h-4l-1-7 7-6 3-3h2z" fill="#2A3041"/>
<path transform="translate(399,887)" d="m0 0 1 2 9 2 11 7 17 12 10 7 3 2-2 6-4 9-2 2 2-9 2-5v-2h-2l-5-5-5-2-5-5-3-2v-2l-4-1-11-6-6-4-7-4z" fill="#E3E4E6"/>
<path transform="translate(1629,1018)" d="m0 0h1v6h4l2 10 3 1 2 5v2l1 2-3 2-3-1-1-4 2-1-8-4 1-3-4-3-5-1 2-5z" fill="#141516"/>
<path transform="translate(575,761)" d="m0 0h2v2h3l-1 4-2-2-3 4-10 2-3 1v2h3v2h-4v-2l-7 2v2l-7 2-1 2 1-4 2-1-3-2 1-2 5-1 8-4h6v-2z" fill="#959BA4"/>
<path transform="translate(1982,733)" d="m0 0 21 1 28 3 17 2v2h-13l-26-3-17-1-10-3z" fill="#606A77"/>
<path transform="translate(340,362)" d="m0 0h6l1 5 2-3 1-2h4l-3 10-1 10h-6l-2-11-2-5z" fill="#B1392F"/>
<path transform="translate(284,852)" d="m0 0 12 2 28 7v1l-9 1-25-5-21-3v-1h16z" fill="#343B4A"/>
<path transform="translate(439,936)" d="m0 0 1 4-8 19-5 15-7 19-2 4-1-5 5-16 6-14 5-15z" fill="#5A6472"/>
<path transform="translate(280,362)" d="m0 0h14v4h-4v16h-6v-16h-4z" fill="#B83427"/>
<path transform="translate(1934,653)" d="m0 0v3l-25 25-17 16-11 11-2-1 22-22 4-5 8-7 17-17z" fill="#3D465A"/>
<path transform="translate(1821,879)" d="m0 0h8l1 2 6 2 2 6-14 4-4-1-2-7 6 1 2 1v2h5v-2h-2l-5-5z" fill="#F0F0F1"/>
<path transform="translate(677,707)" d="m0 0 4 1 2 2v7l-5 8-11 11-9 7-2-1 9-8 4-4 5-8h2v-5h3l-1-5-2-1z" fill="#262B35"/>
<path transform="translate(2e3 672)" d="m0 0h17l3 1v2h10l22 3-1 2-23-2-13-2-25-2v-1z" fill="#656F7C"/>
<path transform="translate(395,890)" d="m0 0 5 3 8 3 10 7 16 11 9 6 1 3-4-2-21-14-18-10-6-4z" fill="#3A414D"/>
<path transform="translate(1783,986)" d="m0 0 3 3 7 14 3 4v4l3 1v3l4 1 2 6 5 8 5 9 2 3-1 3-7-11-5-8-9-14-4-8-6-10-2-5z" fill="#333B4E"/>
<path transform="translate(371,1020)" d="m0 0 2 2 9 36 3 13v4l-3-1-9-42-3-8z" fill="#E3E4E6"/>
<path transform="translate(253,362)" d="m0 0h6v19l-5 1-1-1z" fill="#AF3A30"/>
<path transform="translate(1649,1013)" d="m0 0 4 2 3 8 4 1v2h-2l2 6-6-1-5-8-2-3v-6z" fill="#F9F9F9"/>
<path transform="translate(388,362)" d="m0 0h5l1 1v18l-1 1h-5z" fill="#B1382E"/>
<path transform="translate(1620,1028)" d="m0 0 7 2 2 1v3l-4 4h-10l-5-1 5-5z" fill="#252C3C"/>
<path transform="translate(352,979)" d="m0 0 2 1v2h2l9 22 1 9-4-3-7-20-3-7z" fill="#454B5A"/>
<path transform="translate(129,822)" d="m0 0 1 2 6 2 3 8 20 9 6 2-4 1-22-9-8-6-3-3v-5z" fill="#3D4451"/>
<path transform="translate(269,240)" d="m0 0h5l2 3-7 5-7 2-5-1 1-4 8-4z" fill="#344478"/>
<path transform="translate(1787,986)" d="m0 0h2l6 11 8 11 6 10 6 11v3l-7-9-3-7-4-4-1-4-3-3-2-6h-3l-5-10z" fill="#5E6876"/>
<path transform="translate(362,875)" d="m0 0 5 1 13 7-1 4-11 12h-2l2-4 8-8 1-2-12-4v-3h-2z" fill="#2F3643"/>
<path transform="translate(313,240)" d="m0 0 10 1 8 5-1 3-9-1-9-5z" fill="#354578"/>
<path transform="translate(1759,924)" d="m0 0 7 1 3 4-2 1 3 1v2l-6 1-5-2-3 1-1 2-1-5 1-2 4-2z" fill="#F9F9F9"/>
<path transform="translate(1652,1010)" d="m0 0h6l7 10 2 5-1 4-5-5-5-8-4-4z" fill="#FDFDFD"/>
<path transform="translate(1655,1038)" d="m0 0 4 1v3h2l2 6h2l1 4-2 3h-2l-3-6-5-4-1-5z" fill="#343C4E"/>
<path transform="translate(1629,1032)" d="m0 0 2 2-1 1 3 3-8 2-2 3h-3v-2l-5-1-5 2-3-2 3-3h15l2-3h2z" fill="#1E232C"/>
<path transform="translate(1707,880)" d="m0 0 2 1-28 28-5 6-4 3-2-1 33-33z" fill="#2B375F"/>
<path transform="translate(1816,1032)" d="m0 0 4 4 13 21 4 6-1 2-12-16v-2h-2l-3-7-3-5z" fill="#5A6472"/>
<path transform="translate(558,769)" d="m0 0 2 1 1 4h3v2h-4v-2l-7 2v2l-7 2-1 2 1-4 2-1-3-2 1-2 5-1z" fill="#69737F"/>
<path transform="translate(1953,632)" d="m0 0 2 1-2 4-17 17-6 2 6-7 10-9z" fill="#3C4865"/>
<path transform="translate(2e3 667)" d="m0 0 7 3 1 2h-26l-3-1v-2h14z" fill="#535D6B"/>
<path transform="translate(1543,1044)" d="m0 0v3l-17 17-4 5-7 6-2-1 17-17 2-4 10-8z" fill="#374054"/>
<path transform="translate(368,914)" d="m0 0m-2 1h2l-2 5-4 4-1 4-10 11h-2l2-5 3-5 5-4 5-8z" fill="#616B78"/>
<path transform="translate(1771,817)" d="m0 0v3l-15 15-8 6v-3l15-15 5-3z" fill="#2D3754"/>
<path transform="translate(544,785)" d="m0 0 1 3-12 5-14 8-5 1 5-4h2v-2l16-8z" fill="#2F3643"/>
<path transform="translate(1806,1021)" d="m0 0 6 5 6 10v4l-4-1-5-9-3-7z" fill="#282F41"/>
<path transform="translate(363,1009)" d="m0 0 4 4 3 8 2 9v6h-2l-7-22z" fill="#3A404D"/>
<path transform="translate(1794,855)" d="m0 0 7 1 6 2 1 2-1 3-15-1v-2l3-2-2-2z" fill="#F6F6F7"/>
<path transform="translate(1669,994)" d="m0 0h9v2l3 1-14 3 1 2-8 1 2-1v-3h4l1-3h2z" fill="#242A37"/>
<path transform="translate(633,714)" d="m0 0h5l-4 3-21 9-5-1 3-2 17-7z" fill="#31353E"/>
<path transform="translate(1931,728)" d="m0 0h13l4 2 12 1v1h-20l-14-1 3-2z" fill="#5D6774"/>
<path transform="translate(2046,600)" d="m0 0h2v13l-6-2-2-4z" fill="#3C4454"/>
<path transform="translate(1739,847)" d="m0 0v3l-9 10-4 4h-2l-2 4-7 6 2-4 7-8 5-5z" fill="#394255"/>
<path transform="translate(422,890)" d="m0 0 6 2 16 11 10 8 1 2-4-2-20-14-9-6z" fill="#E3E4E6"/>
<path transform="translate(424,972)" d="m0 0h2l-1 7-6 18-2-3 3-13z" fill="#57606E"/>
<path transform="translate(417,904)" d="m0 0 4 1 13 9 9 6 1 3-4-2-21-14z" fill="#2E343E"/>
<path transform="translate(324,861)" d="m0 0 7 1 20 7 6 2-4 1-29-9z" fill="#495261"/>
<path transform="translate(301,856)" d="m0 0 15 3 8 2v1l-9 1-13-3z" fill="#313847"/>
<path transform="translate(1944,728)" d="m0 0h12l16 3v1h-12l-18-1z" fill="#E3E4E6"/>
<path transform="translate(677,707)" d="m0 0 4 1 2 2v7l-3 4-3-1v-3h2l-1-5-2-1z" fill="#2C3443"/>
<path transform="translate(403,1049)" d="m0 0 1 3-4 22-3 1 2-19 2 1z" fill="#646E7B"/>
<path transform="translate(370,1024)" d="m0 0 2 2 4 16 1 10-6-12v-10z" fill="#4D5665"/>
<path transform="translate(1691,986)" d="m0 0h6v3l-9 1-1 3-7 1 2-4z" fill="#262D3B"/>
<path transform="translate(468,828)" d="m0 0 2 1-2 4-13 9-7 5-2-1 1-2 7-4 3-3h2v-2l3-1 5-5z" fill="#434C5C"/>
<path transform="translate(556,774)" d="m0 0h4v2l-5 4v3l-9 1v-4l4-2h3v-2z" fill="#3D4555"/>
<path transform="translate(1658,1038)" d="m0 0h3l2 4 3 5 5 9 5 6-1 4-2-2-2-4-5-7-1-5h-2l-2-6h-2z" fill="#606A77"/>
<path transform="translate(1643 1e3)" d="m0 0h3 1l1 10-1 6-3-1-1-2z" fill="#4E5766"/>
<path transform="translate(359,992)" d="m0 0 3 4 4 13-1 4-3-3-3-11z" fill="#4F5867"/>
<path transform="translate(606,725)" d="m0 0h5v2l-14 8-2-1 1-4z" fill="#2F333B"/>
<path transform="translate(343,286)" d="m0 0h21l2 3h-22z" fill="#E3E4E6"/>
<path transform="translate(1801,1019)" d="m0 0 5 5 4 6 5 9 2 3-1 3-7-11-5-8-3-5z" fill="#3D4554"/>
<path transform="translate(1775,933)" d="m0 0h2v2l4 1 2 5h2v6l-3-1 1-1-2-1v-3h-4z" fill="#515B6A"/>
<path transform="translate(318,862)" d="m0 0 10 1 9 3-1 2-9-1-9-3z" fill="#292E38"/>
<path transform="translate(376,1057)" d="m0 0h2l3 13v5h-3l-2-9z" fill="#22242A"/>
<path transform="translate(1638,1010)" d="m0 0 2 3-2 5h-5l-1 3h-1v-6z" fill="#3C4455"/>
<path transform="translate(1630,1016)" d="m0 0 2 4 1-2 3 1v6l2 5-4-1-1-3 1-2h-4l-1-7z" fill="#2D3549"/>
<path transform="translate(1982,733)" d="m0 0h9l15 3v1h-14l-10-3z" fill="#3C4452"/>
<path transform="translate(220,841)" d="m0 0h9l13 2 4 1v1h-10l-15-2z" fill="#68717E"/>
<path transform="translate(207,838)" d="m0 0 7 1 1 4 3 2-2 4-5-5v-2l-4-2z" fill="#252A34"/>
<path transform="translate(542,770)" d="m0 0 3 2-1 7-4-1-4-2 5-5z" fill="#FBFBFB"/>
<path transform="translate(1663,1009)" d="m0 0 3 1 9 13 3 5-1 2-3-5-3-2-3-5-5-8z" fill="#505A69"/>
<path transform="translate(537,756)" d="m0 0h2l3 12-1 4-3 1v-6l-2-5z" fill="#4F5968"/>
<path transform="translate(365 1e3)" d="m0 0h2l5 13-1 3h-2l-4-12z" fill="#DDDEE1"/>
<path transform="translate(417,994)" d="m0 0h1l-1 10-3 7-2 1 1-8z" fill="#4B5463"/>
<path transform="translate(260,852)" d="m0 0h24l2 3-19-1-7-1z" fill="#232936"/>
<path transform="translate(304,366)" d="m0 0 3 1v11l-4-1v-9z" fill="#F2F2F3"/>
<path transform="translate(1849,1055)" d="m0 0 3 3 10 16h-3l-6-8-4-9z" fill="#656F7C"/>
<path transform="translate(403,1039)" d="m0 0h2l-1 10-3 11h-1v-9z" fill="#434C5C"/>
<path transform="translate(1782,983)" d="m0 0 3 1v2h2l6 13v2h-2l-7-13v-2h-2z" fill="#282F40"/>
<path transform="translate(1865,872)" d="m0 0h7l-2 2-9 4h-4l1-4z" fill="#333A4C"/>
<path transform="translate(336,867)" d="m0 0 7 1 7 3v2l-10-2-8-2z" fill="#323946"/>
<path transform="translate(1964,621)" d="m0 0h3l-2 4-6 7-5 2 3-5z" fill="#333B4F"/>
<path transform="translate(1796,870)" d="m0 0h5l7 3v2l2 1-9-1-3-1v-2h-2z" fill="#F9F9FA"/>
<path transform="translate(1887,863)" d="m0 0 3 1-7 2v2l-11 4h-5l4-3 11-4z" fill="#283042"/>
<path transform="translate(348,966)" d="m0 0 3 4 4 9-1 3-1-2-2 1-3-11z" fill="#56606E"/>
<path transform="translate(1764,953)" d="m0 0 2 2-5 3-7 3-4 1 1-3 7-4h6z" fill="#232936"/>
<path transform="translate(1818,885)" d="m0 0 6 1 2 1v2l3 1-7 2-3-4z" fill="#FDFDFD"/>
<path transform="translate(1810,872)" d="m0 0 14 1 2 4-1 1h-5v-2l-10-3z" fill="#FCFCFC"/>
<path transform="translate(1686,901)" d="m0 0v3l-10 11-4 3-2-1z" fill="#2A3246"/>
<path transform="translate(485,819)" d="m0 0 2 1-5 4-11 7-3-1 2-3 7-3z" fill="#373F4D"/>
<path transform="translate(1917,728)" d="m0 0h14l-2 2-3 1h-11z" fill="#333B4C"/>
<path transform="translate(411,1010)" d="m0 0 3 1-2 10-3 3v-7z" fill="#4F5967"/>
<path transform="translate(367,1021)" d="m0 0 3 2 2 7v6h-2l-3-10z" fill="#2B3039"/>
<path transform="translate(1810,1026)" d="m0 0h2l6 10v4l-2-1-6-10z" fill="#222833"/>
<path transform="translate(1761,825)" d="m0 0v3l-11 12-3 1 2-4z" fill="#40495A"/>
<path transform="translate(544,785)" d="m0 0 1 3-13 5-1-2 9-5z" fill="#373F4F"/>
<path transform="translate(1627,1038)" d="m0 0h6l1 3-1 1h-11z" fill="#282F41"/>
<path transform="translate(377,885)" d="m0 0 3 1-12 13h-2l2-4 8-8z" fill="#636D7A"/>
<path transform="translate(625,704)" d="m0 0 4 1-18 6-3-1 5-3z" fill="#E3E4E6"/>
<path transform="translate(285,277)" d="m0 0 2 1-4 4-8 2-1-3z" fill="#EEEFF0"/>
<path transform="translate(619,720)" d="m0 0h6l-3 2-9 4-5-1 3-2z" fill="#383E49"/>
<path transform="translate(1526,1061)" d="m0 0 2 1-6 7-7 6-2-1z" fill="#293144"/>
<path transform="translate(343,959)" d="m0 0 4 2 2 10h-2l-4-8z" fill="#3B4351"/>
<path transform="translate(129,822)" d="m0 0 1 2 6 2 1 6-1-2h-2v-2l-4-1-2 1v-5z" fill="#414958"/>
<path transform="translate(507,804)" d="m0 0h3l-1 3-10 6-3-1 4-3h2v-2l5-1z" fill="#2E333E"/>
<path transform="translate(670,728)" d="m0 0 1 4-8 7-5 4-2-1 9-8 4-4z" fill="#4C535E"/>
<path transform="translate(1662,1046)" d="m0 0 1 2h2l1 4-2 3h-2l-3-7h2z" fill="#333B4D"/>
<path transform="translate(405,1032)" d="m0 0h2v10l-2 7h-1v-13z" fill="#4F5867"/>
<path transform="translate(1824,874)" d="m0 0 6 2v2l5 2-3 2-3-1v-2l-5 1 1-4z" fill="#E3E4E6"/>
<path transform="translate(518,797)" d="m0 0 3 1-6 4-4 3-4-2z" fill="#4A5362"/>
<path transform="translate(594,731)" d="m0 0 3 1-2 4-9 2 1-3z" fill="#272B31"/>
<path transform="translate(445,923)" d="m0 0 1 3-5 12-2-3 4-11z" fill="#636D7A"/>
<path transform="translate(437,914)" d="m0 0 5 2 2 4h2l1 3h-2l-1 2-2-5-5-4z" fill="#5F6976"/>
<path transform="translate(2011,573)" d="m0 0 3 1-13 13-2-1 10-10z" fill="#354061"/>
<path transform="translate(1634,1029)" d="m0 0 6 2 1 6-6-3z" fill="#262C3C"/>
<path transform="translate(665,711)" d="m0 0h10l2 4-1 7h-1l-1-7-3-2-6-1z" fill="#4D5664"/>
<path transform="translate(1588,1060)" d="m0 0h13l6 1-4 2-3-1h-8l-6 1z" fill="#1F242E"/>
<path transform="translate(1610,1037)" d="m0 0h5v3l-5 2-3-2z" fill="#1F242D"/>
<path transform="translate(341,950)" d="m0 0 2 2 3 9h-3l-2-3-2-6h2z" fill="#525B6A"/>
<path transform="translate(362,875)" d="m0 0 5 1 10 5-3 1-11-4z" fill="#323A4D"/>
<path transform="translate(1835,880)" d="m0 0 2 2 7 1-3 4h-3v-3l-6-2z" fill="#3F4859"/>
<path transform="translate(186,827)" d="m0 0h10l3 2-9 1-4-1z" fill="#262B33"/>
<path transform="translate(590,754)" d="m0 0 5 2 6 2v1h-9l-2-2z" fill="#2F3540"/>
<path transform="translate(273,244)" d="m0 0 2 1v2l-8 4-5-1 4-2z" fill="#EDEEEF"/>
<path transform="translate(335,939)" d="m0 0 4 3 2 5-1 3-4-6v-2h-2z" fill="#616B79"/>
<path transform="translate(1820,892)" d="m0 0h8v3l-6 2-2-3z" fill="#5E6875"/>
<path transform="translate(2018,736)" d="m0 0 8 1v2l-17-1v-1z" fill="#535C6A"/>
</svg>
