<?xml version="1.0" encoding="UTF-8"?>
<svg version="1.1" viewBox="0 0 2048 1365" width="750" height="500" xmlns="http://www.w3.org/2000/svg">
<path transform="translate(0)" d="m0 0h2048v1365h-2048z" fill="#F5F5F5"/>
<path transform="translate(1222,316)" d="m0 0 5 1 28 11 233 94 97 39 39 16 2 1 1 3v302h59l1 1v7l-2 2h-1320l-2-1v-8l1-1h59v-213l4-3 53-17 57-18 675-213z" fill="#1F1C23"/>
<path transform="translate(1228,330)" d="m0 0 7 1 114 46 107 43 29 12 80 32 29 12 21 8 1 1v298h-387l-1-1z" fill="#F5F5F5"/>
<path transform="translate(1214,329)" d="m0 0h4l1 2v451l-1 1h-70l-1-1-1-276-1-1h-7l-264 55-221 46-169 35-7 1v140l-1 1h-42v-207l8-3 69-22 64-20 72-23 64-20 66-21 190-60 114-36 124-39z" fill="#F5F5F5"/>
<path transform="translate(1130,516)" d="m0 0h7v267h-369l-1-1v-113l1-77 16-4 327-68z" fill="#F5F5F5"/>
<path transform="translate(751,595)" d="m0 0h6l1 1v185l-1 2h-270l-1-1v-39l1-92 9-3 201-42z" fill="#F5F5F5"/>
<path transform="translate(1325,543)" d="m0 0 28 5 184 35 3 1v83h-51l-129-2-35-1-1-1v-119z" fill="#F5F5F5"/>
<path transform="translate(1134,418)" d="m0 0h3v47l-9 3-126 29-322 74-187 43h-6v-16l24-7 86-24 72-20 299-83 87-24z" fill="#F5F5F5"/>
<path transform="translate(1140,406)" d="m0 0h5l2 2v65l-8 3-322 74-313 72-18 4h-8l-1-1v-34l9-4 599-166zm-6 12-83 23-400 111-144 40-20 6v16l10-1 91-21 514-118 34-8 1-1v-47z" fill="#1F1C23"/>
<path transform="translate(1316,532)" d="m0 0 12 1 210 40 11 3 1 1v98l-1 2h-54l-176-3-4-1-1-2v-135zm9 11-1 1v119l1 1 35 1 129 2h51v-83l-25-5-188-36z" fill="#1F1C23"/>
<path transform="translate(1208,875)" d="m0 0 14 2 12 6 9 8 5 8 3 9 1 6v8l-3 13-6 10-8 8-10 5-12 3h-9l-12-3-8-4-10-9-6-10-3-11v-12l4-13 6-9 10-9 9-4z" fill="#F5F5F5"/>
<path transform="translate(726,867)" d="m0 0h46l13 3 10 6 6 7 4 9 1 12-2 11-6 10-8 6-6 3 2 5 13 18 8 11v1h-12l-14-19-8-12h-36l-1 31h-10z" fill="#1F1C23"/>
<path transform="translate(370,867)" d="m0 0h11l14 41 14 42 2 2 16-47 11-31 3-7h10l4 10 15 45 11 31 4-10 25-74 1-2h10l-2 9-12 36-19 56-1 1h-12l-16-47-13-37-2 3-12 34-10 29-6 17-1 1h-11l-6-16-19-57-9-26z" fill="#1F1C23"/>
<path transform="translate(612,867)" d="m0 0h11l3 5 15 33 18 39 10 22v3h-11l-11-25-1-1h-57l-11 25-1 1h-11l2-6 18-39 15-33 9-20z" fill="#1F1C23"/>
<path transform="translate(1201,866)" d="m0 0h15l13 3 13 7 7 6 7 10 5 12 1 5v18l-4 14-7 11-10 9-14 7-9 2h-18l-12-3-12-6-10-9-7-11-4-13v-20l4-12 5-9 7-8 10-7 14-5zm7 9-14 2-10 5-10 9-6 10-3 11v12l4 13 6 9 9 8 10 5 10 2h9l12-3 10-5 9-9 6-12 2-10v-8l-3-12-4-8-8-9-10-6-9-3z" fill="#1F1C23"/>
<path transform="translate(1297,784)" d="m0 0h312l1 4 7 1 1 1 17-1 11-2v-3h41v7l-1 1h-418l-1-2 9-2 11-1v-2z" fill="#0C0A0D"/>
<path transform="translate(1007,867)" d="m0 0h10v46h64v-46h11v102h-11v-47h-64v47h-11v-98z" fill="#1F1C23"/>
<path transform="translate(737,876)" d="m0 0h32l10 2 9 5 6 9 1 5v10l-3 9-7 7-10 4-9 1h-29l-1-1v-50z" fill="#F5F5F5"/>
<path transform="translate(1608,867)" d="m0 0h70v9h-59v37h53v9h-53v38h61l1 2-1 7h-72z" fill="#1F1C23"/>
<path transform="translate(870,867)" d="m0 0h63l7 1v7l-1 1h-58v36l52 1v9l-52 1v36l61 1v9h-72z" fill="#1F1C23"/>
<path transform="translate(1325,867)" d="m0 0h10l1 66 3 12 4 6 6 5 7 3 6 1h8l12-3 8-6 5-9 2-12 1-63h10v69l-3 12-5 8-8 8-8 4-8 2h-19l-13-4-9-7-6-8-4-11-1-9v-63z" fill="#1F1C23"/>
<path transform="translate(1501,866)" d="m0 0h17l15 4 9 5-3 8-5-1-9-4-9-2h-13l-10 3-6 4-3 6v10l3 5 12 6 25 7 12 5 7 7 3 8v10l-4 10-9 8-10 4-5 1h-19l-16-4-8-4-5-4 1-5 3-4 14 8 12 3h17l11-4 5-6 1-2v-10l-4-6-10-5-29-8-9-5-5-5-4-6-1-4v-9l3-9 7-8 10-5z" fill="#1F1C23"/>
<path transform="translate(816,784)" d="m0 0h253l11 4 9 1 1 2-16 1h-280l-6-1 4-2 12-2 3-2z" fill="#0C0A0D"/>
<path transform="translate(506,784)" d="m0 0h220l6 1v2l16 2 2 2-4 1h-256l3-3 6-1v-3z" fill="#0C0A0D"/>
<path transform="translate(1549,638)" d="m0 0h1v37l-1 2h-54l-125-2-17-1 1-4 5-1 4-2-11-1v-1h63l74 1 26 1-1 3h6l9 2h18v-18l1-2z" fill="#0E0C0F"/>
<path transform="translate(617,880)" d="m0 0h2l19 42 4 9v2h-48l1-5 12-27 9-20z" fill="#F5F5F5"/>
<path transform="translate(576,1014)" d="m0 0h11l6 4 4 6 1 8-3 8-6 5-3 1h-10l-8-5-3-6v-10l3-6 5-4z" fill="#F5F5F5"/>
<path transform="translate(1184,1014)" d="m0 0h11l7 4 4 8v7l-3 7-6 5-3 1h-10l-6-4-4-5-1-3v-8l3-6 6-5z" fill="#F5F5F5"/>
<path transform="translate(684,1011)" d="m0 0h21l5 3 3 3 1 3v8l-6 7h-2l5 9 3 5-2 1-5-5-5-7-14-1v12h-4z" fill="#110E12"/>
<path transform="translate(1460,1011)" d="m0 0h21l5 3 3 4 1 9-3 5-3 3h-2l5 9 3 5-5-1-7-10-14-1v12h-4z" fill="#131115"/>
<path transform="translate(812,1010)" d="m0 0 4 2 10 23 6 13-2 2-3-3-3-7-23-1-3 9-4 1 3-9 13-28z" fill="#141116"/>
<path transform="translate(1608,867)" d="m0 0h70l-1 8h-43l-9-3-4-2h-8l-4 1z" fill="#0F0C10"/>
<path transform="translate(1622,961)" d="m0 0h59l-1 8h-72v-1l24-1-3-3-7-2z" fill="#0C0A0D"/>
<path transform="translate(1186,1010)" d="m0 0h7l10 4 6 9 1 10-3 8-7 6-4 2h-13l-6-3-6-7-2-6 1-10 5-8 7-4zm-2 4-6 4-4 5-1 3v8l3 6 6 5 2 1h10l6-3 5-6 1-4v-7l-4-8-7-4z" fill="#110F13"/>
<path transform="translate(578,1010)" d="m0 0 11 1 6 4 5 6 1 3v12l-4 7-5 4-5 2h-13l-8-5-4-6-1-3v-10l4-8 6-5zm-2 4-7 4-3 4-1 3v10l4 7 7 4h10l7-4 4-6 1-8-3-8-6-5-2-1z" fill="#110F13"/>
<path transform="translate(990,1010)" d="m0 0 4 2 11 13 12 16 1-30h3l1 10v28l-5-1-12-15-10-13-1 7-1 22-4-1z" fill="#151318"/>
<path transform="translate(688,1014)" d="m0 0h15l5 3 2 3v8l-5 5-6 1h-11z" fill="#F5F5F5"/>
<path transform="translate(1464,1014)" d="m0 0h15l5 3 2 3v7l-5 6-7 1h-10l-1-18z" fill="#F5F5F5"/>
<path transform="translate(1349,1011)" d="m0 0h3l1 16h23l1-16h4v32l-1 6h-3l-1-17h-23l-1 17h-4v-25z" fill="#1D1A21"/>
<path transform="translate(1537,1010)" d="m0 0 4 2-1 2h-22v14h21l-1 3-19 1v13l22 1 1 3h-28v-38z" fill="#18151A"/>
<path transform="translate(867,1010)" d="m0 0h7l8 3 3 4-2 1-7-3h-11l-6 4-3 4-1 3v7l3 7 5 4 3 1h10l4-2 1-13h3l1 4v8l-3 5-5 2h-13l-6-3-6-7-2-5v-8l4-9 9-6z" fill="#121014"/>
<path transform="translate(1049,1011)" d="m0 0h27l-1 3h-22v14h20v3l-19 1-1 14h23v3h-27z" fill="#1D1A21"/>
<path transform="translate(1408,1011)" d="m0 0h26v3h-22v14h20v3h-20v15h23v3h-27z" fill="#1E1C22"/>
<path transform="translate(1129,1010)" d="m0 0h7l9 4 1 4-8-3h-12l-7 5-2 4v11l4 7 6 3h11l4-1 1-14h3v14l-4 4-3 1h-14l-8-5-4-6-1-3v-10l4-8 6-5z" fill="#110E12"/>
<path transform="translate(625,1011)" d="m0 0h4l1 27 4 6 3 1h8l5-3 2-5 1-26h4v24l-3 9-5 4-2 1h-12l-5-3-4-5-1-4z" fill="#131116"/>
<path transform="translate(1234,1011)" d="m0 0h27l-1 3-22 1v13h20v3h-20v14l23 1v3h-27z" fill="#0E0C0F"/>
<path transform="translate(1293,1010)" d="m0 0h7l8 3 1 3-7-1h-11l-4 4 1 5 2 2 16 5 4 4v8l-5 5-3 1h-13l-6-3-1-4 6 2 2 1h11l4-2 1-5-4-4-15-5-4-4-1-5 2-5 5-4z" fill="#110E12"/>
<path transform="translate(509,1010)" d="m0 0 4 1 10 16 2 4 2 1 2-5 10-16h4l-8 14-6 10-1 6v7l-4 1-1-13-9-16-5-8z" fill="#121014"/>
<path transform="translate(887,868)" d="m0 0h53v7h-19l-12-2-6-2v-2h-16z" fill="#0C0A0D"/>
<path transform="translate(1636,914)" d="m0 0h36l-1 7h-31l-2-6z" fill="#0C0A0D"/>
<path transform="translate(911,1011)" d="m0 0h4v35h22v3h-26z" fill="#161419"/>
<path transform="translate(746,1011)" d="m0 0h32v3h-13l-1 35-4-1v-33l-13-1z" fill="#201D24"/>
<path transform="translate(812,1015)" d="m0 0 3 3 7 16v2h-18l1-5z" fill="#F5F5F5"/>
<path transform="translate(684,1011)" d="m0 0h8l9 2v1h-13l1 21 14 1-1 2-14-1v12h-4z" fill="#1B181E"/>
<path transform="translate(1517,1023)" d="m0 0h1v5h21l-1 3-19 1v13l22 1 1 3h-27v-7h2z" fill="#0C0A0D"/>
<path transform="translate(1129,1010)" d="m0 0h7l9 4 1 4-8-3h-12l-7 5-2 4-1 9-3 1-1-1v-8l4-8 6-5z" fill="#110F13"/>
<path transform="translate(1349,1011)" d="m0 0h3l1 16 17 1v1h-18v20h-4v-25z" fill="#0F0D10"/>
<path transform="translate(1018,1011)" d="m0 0h3l1 10v28l-5-1-3-4v-3h3z" fill="#17151A"/>
<path transform="translate(958,1011)" d="m0 0h4v38h-4z" fill="#161318"/>
<path transform="translate(1473,949)" d="m0 0 11 6 8 4-3 1-7-3h-5l10 6 3 4-7-1-8-4-5-4 1-5z" fill="#0F0D11"/>
<path transform="translate(1293,1010)" d="m0 0h7l8 3 1 3-7-1h-11l-5 5-1 3-3-1 2-7 5-4z" fill="#131115"/>
<path transform="translate(991,1016)" d="m0 0 4 2-1 9-1 22-4-1 1-30z" fill="#18151A"/>
<path transform="translate(1531,871)" d="m0 0 6 1 5 3-3 8-5-1-10-5 3-1h3l2-1z" fill="#0F0D10"/>
<path transform="translate(1409,1011)" d="m0 0h25v3h-23l-1 16h-1z" fill="#1B181E"/>
<path transform="translate(1409,1035)" d="m0 0h1l1 11h24v3h-26z" fill="#0C0A0D"/>
<path transform="translate(1050,1040)" d="m0 0 2 4 1 1 23 1v3h-26z" fill="#141216"/>
<path transform="translate(453,788)" d="m0 0h15l6 2-2 2h-26l3-3z" fill="#0C0A0D"/>
<path transform="translate(1349,1011)" d="m0 0h3v16l-2 3-1 19h-1v-25z" fill="#1F1C23"/>
<path transform="translate(801,1033)" d="m0 0 2 1 1 2h17v1l-19 2-5 10h-3l3-9z" fill="#0F0C10"/>
<path transform="translate(1018,1011)" d="m0 0h3v30h-1l-1-6h-1z" fill="#0D0B0F"/>
<path transform="translate(761,1014)" d="m0 0 3 1v34l-4-1z" fill="#0C0A0D"/>
<path transform="translate(810,1015)" d="m0 0 1 4-6 14-1 4-2-1-1-5 7-15z" fill="#121014"/>
<path transform="translate(1238,1011)" d="m0 0h23l-1 3h-22z" fill="#1C191F"/>
<path transform="translate(1537,1010)" d="m0 0 4 2-1 2h-22l2-3z" fill="#19171C"/>
<path transform="translate(1460,1011)" d="m0 0h9l-4 2-1 3-1 16-3 1z" fill="#0C0A0E"/>
<path transform="translate(1518,1028)" d="m0 0h21l-1 3-20 1z" fill="#18151B"/>
<path transform="translate(930,961)" d="m0 0h12v8h-36v-1l34-1-1-2-1-3h-8z" fill="#0C0A0D"/>
<path transform="translate(1238,1028)" d="m0 0h20v3h-20z" fill="#1B181E"/>
<path transform="translate(364,783)" d="m0 0 5 1v5l6 2v1h-12v-8z" fill="#0E0C10"/>
<path transform="translate(1239,1046)" d="m0 0h22v3h-17v-1l-5-1z" fill="#161318"/>
<path transform="translate(1520,1046)" d="m0 0h21l1 3h-18z" fill="#121014"/>
<path transform="translate(1370,1028)" d="m0 0h5l1 2-2 1-22 1v-3z" fill="#201D24"/>
<path transform="translate(746,1011)" d="m0 0h17v3l-3 1-13-1z" fill="#1A171D"/>
<path transform="translate(990,1010)" d="m0 0 4 2 6 7-1 2-4-1-3-3-2 1z" fill="#100E11"/>
<path transform="translate(1413,1046)" d="m0 0h22v3h-17v-1l-5-1z" fill="#1C1A20"/>
<path transform="translate(1481,1039)" d="m0 0 5 3 4 7-5-1-5-7z" fill="#151217"/>
<path transform="translate(1349,1011)" d="m0 0h3v15h-3z" fill="#0C0A0D"/>
<path transform="translate(686,1036)" d="m0 0h2v13h-4v-6h1z" fill="#121014"/>
<path transform="translate(1615,475)" d="m0 0 7 1 4 2-1 4-6-3-3-1z" fill="#100D11"/>
<path transform="translate(1409,1011)" d="m0 0h4l-2 10-1 9h-1z" fill="#0C0A0D"/>
<path transform="translate(1430,562)" d="m0 0 14 1 6 2v1l-13-1-7-2z" fill="#120F13"/>
<path transform="translate(1112,1025)" d="m0 0 4 1v7l-3 1-1-1z" fill="#151217"/>
<path transform="translate(1006,1030)" d="m0 0 4 2 6 8-2 1-1 2-2-5-3-5z" fill="#121014"/>
<path transform="translate(930,914)" d="m0 0h3v7h-7l4-6z" fill="#0C0A0D"/>
<path transform="translate(688,1011)" d="m0 0 10 1 3 2h-13z" fill="#201D24"/>
<path transform="translate(914,1038)" d="m0 0h1v8l-4 3v-7h2z" fill="#1E1B22"/>
<path transform="translate(997,1019)" d="m0 0 5 5 3 5h-3l-6-8z" fill="#1A171D"/>
<path transform="translate(1541,575)" d="m0 0h6l2 1v4l-6-2z" fill="#0E0C0F"/>
</svg>
