<?xml version="1.0" encoding="UTF-8"?>
<svg version="1.1" viewBox="0 0 800 800" width="200" height="200" xmlns="http://www.w3.org/2000/svg">
<path transform="translate(0)" d="m0 0h800v800h-800z" fill="#F9F9F9"/>
<path transform="translate(152,248)" d="m0 0h133v15l-6 12-10 16-24 39-9 15-10 16-9 14-3 5 11-6 6-2 9-2 11-5 9-2 4-2h7v-2l12-3 23-8 8-3 12-3 11-5 15-41 15-42 2-5h29l4 10 13 41 3 12 19-6 8-3 16-4 4 1-8 4-3 1-10 4h-6l-2 4-12 4h-2l-1 2-5-1-1 5-5 1-1-2-7 1-18 5h-4v2l-15 4-12 5h-2l-3 10-2 6 7-3 16-5 20-6 7-3 7-2 5-3-1-4 1-1 11-1v2h4l-1-9 6 4 3 1 1-7 1-2h2l1 8 4-2 1-8 2 1 1 6 2-1-1-7-1-2 4 2 4 4v2l4-2 1-9h2l4 5 3 1-1-8h3l3 5 3 1-1-11v-1l-3 1-4-2 1-3 11-4 11-3 1-1h5l-1-17-8-5-11-2-1-1v-13h81l2 1v12l-17 4-6 4-1 4 15-6 21-5 2-4-1-1v-8l1-1h70l1 1 1 10-3 3-12 4-15 8-10 9-15 16-8 8-1 6 9 17 8 16 14 27 15 28 9 11 4 3v2l5 2 13 4v13l-1 1h-81l-1-1v-12l12-3 4-3-1-7-10-19-12-22-15-28-4 2-14 13v55l2 6h2l2 3 13 2v14h-75l-2-2v-12l13-2 5-3 2-3 1-27v-71l12-5 24-6v33h3l2-5 15-15 2-3h2l2-4 13-14 1-3-11 1v2l-8 3h-8l-1-1h-12l-13 4-11 4-9 2-43 14-36 12-8 4-7 2 2 1v2l8-1 5-3 8-1 6 17 13 41 5 13 4 6 5 4 8 3v12l-1 1h-78l-1-1 1-13 2-1 11-1 7-4v-7l-11-35v-2h-18l-39-1-5-1-3 11-7 22v7l4 6 3 3 15 3v14h-60v-15l10-2 10-8 6-14 7-20-13 1-9 6h-7l-5 2h-4v49h-137v-14l4-10 1-2 3 1 1 3 10-2 16-5 6-2 32-10 22-8 20-6 6-3 12-3 26-9 4-2 9-2 10-5 6-15-26 8-12 4-26 9-2 3-15 2-13 5-5 1-26 9-30 10-13 4-9 4-3 1 1-5 9-7 16-26 11-18 14-24 14-25 13-23 9-15-42 1-10 4-10 9-7 10-5 11-7 21-2 1h-6l-1-1z" fill="#9F1B37"/>
<path transform="translate(146,462)" d="m0 0h510v90h-510v-43l2-7h14l1-1h12l10-1 5 2 4 1v-11l4-5 5-3h9l7 3 5 5v6l-4-1-8-7h-7l-5 5 1 6 4 2 13 3 6 4 2 3 9-3h44l3 2 1-22h-14l-1-5h36v5h-14v11h55l3 1 1-13 1-4h29l-1 5-22 1-1 13h23l7-3 16-1h13l10 1 2 1 1-16 1-1h29v5h-24v14l24-1 17-2h27l4 1v-17h5l1 1 1 31 13-2h57l3 5 4 2h10l3-2 1-7-17-4-7-6-1-3v-8l5-6 4-2h11l6 4 4 4v6l-4-2-8-6h-7l-5 5v5l5 3 13 1 10-2h28l11-3 3-1-1-25-5-1v11l-4 6-3 2h-9l-4-3-1-3v-7h2l2 9 1 1h6l4-1 2-11h-4v6l-3 2-5-1v-6l5-3 4-1v-2h-10l-3 2-10 1h-426l-11 1-6-1v10l-4 5-4 2h-7l-5-3-1-5 4 2 4 3 5-1 4-2-1-2v-6l-4-2 1 2v6l-1 1h-5l-2-3v-5l3-2h4l-2-3-10-1v3l-5 1-2-2z" fill="#898A8B"/>
<path transform="translate(146,468)" d="m0 0 2 4 3 1h3v-3h10l2 4-6 2 1 7h5v-8l4 1 1 1v6 3l-5 3-6-1-6-5 2 5 4 2h7l5-3 2-3v-11l8 1 18-1h423l6-2 2-1h8l2 1v2l-8 4v6l6-1 1-6h4v8l-4 4-2 1h-6l-2-2-1-9h-2l2 10 3 2h9l5-5 1-2 1-11h5l1 1 1 23-4 4-12 3h-31l-2 2h-11l-8-2-4-3 1-7 5-4h7l12 9-2-7-6-5-2-1h-11l-6 4-2 3v8l3 5 4 3 13 3 4 2v7l-4 3h-10l-6-4-1-3h-60l-10 2-1-1-1-31-5-1v17h-31l-17 2h-24v-14h24v-5l-29 1-1 19-1-3-13-1h-14l-14 1-8 3-22-1v-13l1-1h22l1-5h-29l-1 18-10-1h-47l-2-1v-11h14v-5h-36l1 5h14v23l-4-2h-44l-8 1-1 4-3-6-5-3-15-4-4-4 1-6 5-4h7l8 7 4 2-2-7-6-5-4-1h-9l-7 5-1 2-1 11h-5l-4-2-17 1h-5l-2 1h-13l-1 6h-1z" fill="#E2E4E4"/>
<path transform="translate(571,250)" d="m0 0h70l1 1 1 10-3 3-12 4-15 8-10 9-15 16-8 8-1 6 9 17 8 16 14 27 15 28 9 11 4 3v2l5 2 13 4v13l-1 1h-81l-1-1v-12l12-3 4-3-1-7-10-19-12-22-15-28-4 2-14 13v55l2 6h2l2 3 13 2v14h-75l-2-2v-12l13-2 5-3 2-3 1-27v-71l12-5 24-6v33h3l2-5 15-15 2-3h2l2-4 13-14 2-4 9-6 6-2 3-3v-7h-3v-2l3-2-1-6-5-4-5 1-10 4-3 1h-8v-3l10-3 2-4-1-1v-8z" fill="#9F1A37"/>
<path transform="translate(152,248)" d="m0 0h133v15l-6 12-10 16-24 39-9 15-10 16-9 14-4 6-9 3h-3v2l-11 4-10 2h-4l-1 2-5 2h-8l7-11 12-19 11-18 14-24 14-25 13-23 9-15-42 1-10 4-10 9-7 10-5 11-7 21-2 1h-6l-1-1z" fill="#9F1A37"/>
<path transform="translate(146,462)" d="m0 0h510l-1 15-2-4-5-1v11l-4 6-3 2h-9l-4-3-1-3v-7h2l2 9 1 1h6l4-1 2-11h-4v6l-3 2-5-1v-6l5-3 4-1v-2h-10l-3 2-10 1h-426l-11 1-6-1v10l-4 5-4 2h-7l-5-3-1-5 4 2 4 3 5-1 4-2-1-2v-6l-4-2 1 2v6l-1 1h-5l-2-3v-5l3-2h4l-2-3-10-1v3l-5 1-2-2z" fill="#7E8081"/>
<path transform="translate(203,484)" d="m0 0h9l7 3 5 5v6l-4-1-8-7h-7l-5 5 1 6 4 2 13 3 6 4 2 3 9-3h44l3 2 1-22h-14l-1-5h36v5h-14v11h55l3 1 1-13 1-4h29l-1 5-22 1-1 13h21l-1 5h-18l-1 8v6h23l1 4-3 3h-93l-33 1-12 1h-16l-5-4-3 1-15 1-9 3h-16l-7-1-4 4-6-1v-5l7-6h2v-2l-9 1-5 5-2 1-4-2v-6l4-3h7l2-1 15-1h17l1-1h6l2 5 4 2h10l3-2 1-5-5-3-14-4-6-7v-9l4-5z" fill="#7B7E7F"/>
<path transform="translate(587,484)" d="m0 0h11l6 4 4 4v6l-4-2-8-6h-7l-5 5v5l5 3 13 3 6 4 2 4-1 8-5 5-4 2-18 1-7 2h-22l-18-2-27-1-2-1v2l-25 1-20-1-5-1-28-1-1-6 1-37h29v5h-24v14l24-1 17-2h27l4 1v-17h5l1 1 1 31 13-2h57l3 5 4 2h10l3-2 1-7-17-4-7-6-1-3v-8l5-6z" fill="#797C7D"/>
<path transform="translate(283,389)" d="m0 0h1v49h-137v-14l4-10 1-2 3 1 2 6 5 1v2h9l1-3 11-3h3l-1 4-4 3 6-2 1-1 11-2 10-5h8l2-2 10-4 12-1v-2h3v-2l5-2 15-2 1-3 7-3h7v-2z" fill="#9F1A37"/>
<path transform="translate(474,250)" d="m0 0h81l2 1v12l-17 4-6 4-1 4 15-6 11-2v3l11-2 10-4 5-1 6 5 1 6-5 3-30 10-22 7-12 4-4-1-2-5-2 5-7-1v5l-4 1-6-1-4 2-2-4h-2l1 7-4 1-2-3-5 2-3 3-3-10-4 2-4-2 1-3 11-4 11-3 1-1h5l-1-17-8-5-11-2-1-1z" fill="#9F1B38"/>
<path transform="translate(333,344)" d="m0 0h2l-1 6-5 10-10 5-12 3-9 4-18 6-12 3-12 5-14 4-28 10-17 5-9 3-29 9-4-1-1-5h2l1-6h-3l1-3v2l6-4 14-5 14-4 15-5 29-10 6-2 11-3 8-3 11-1 2-3 26-9 28-9z" fill="#DCDEDE"/>
<path transform="translate(587,276)" d="m0 0 1 2h3l1 7-5 5-6 2-6 4h-2l-1 2h-11v2l-8 3h-8l-1-1h-12l-13 4-11 4-9 2-43 14-36 12-8 4-7 2 2 1 1 4-12 3-2 7h-6l-9-3h-2v2h-15l-3-1-13 1 1-4 22-7 20-6 7-3 7-2 5-3-1-4 1-1 11-1v2h4l-1-9 6 4 3 1 1-7 1-2h2l1 8 4-2 1-8 2 1 1 6 2-1-1-7-1-2 4 2 4 4v2l4-2 1-9h2l4 5 3 1-1-8h3l3 5 3 1-1-10h3l2 6 3-4 4-1 2 3h3l-1-8 4 1 1 3 6-2 7 1 1-5 7 1 2-6 2 2 1 4 9-2 15-5 13-4 9-3z" fill="#9A1D38"/>
<path transform="translate(146,462)" d="m0 0h510v1h-509v4h4l25 1 112 1h172v2l64-1h103l3-1h7v1l-8 2-7 2h-430l-11 1-6-1v10l-4 5-4 2h-7l-5-3-1-5 4 2 4 3 5-1 4-2-1-2v-6l-4-2 1 2v6l-1 1h-5l-2-3v-5l3-2h4l-2-3-10-1v3l-5 1-2-2z" fill="#A6AAAA"/>
<path transform="translate(328,360)" d="m0 0 1 3-6 16-14 2-9 6h-7l-10 3h-4v2l-11 2-4 4-7 2-13 2v2h-3v2l-15 3-8 4-1 1h-8l-13 6-8 1-2 2-7 1 4-4 2-1 1-3-14 4-3 3-7-1v-2l-5-1v-2l25-8 6-2 32-10 22-8 20-6 6-3 12-3 26-9 4-2 9-2z" fill="#1F191B"/>
<path transform="translate(175,476)" d="m0 0h443l7 1 1 5-9-1h-41l-85 1h-10l-18-1h-29l-23 1h-23l-15-1-20 1-8 1-18-1h-23l-22-1-18 1-41-1h-48z" fill="#CBCDCD"/>
<path transform="translate(654,545)" d="m0 0h1v7h-507l-1-3 48-1h453l5-1z" fill="#474649"/>
<path transform="translate(587,484)" d="m0 0h11l6 4 4 4v6l-4-2-8-6h-7l-5 5v5l5 3 13 3 6 4 2 4-1 8-5 5-4 2-18 1-7 2h-22l-18-2-27-1-2-1v-43l5 1 1 31 13-2h57l3 5 4 2h10l3-2 1-7-17-4-7-6-1-3v-8l5-6z" fill="#7B7E7F"/>
<path transform="translate(427,486)" d="m0 0h1v42h28v1l-70 2-7-3v-5h-23l-1-11 2-4h18l2-4 8-3 16-1h13l10 1 2 1z" fill="#7B7E7F"/>
<path transform="translate(350,485)" d="m0 0h29l-1 5-22 1-1 13h21l-1 5h-18l-1 8v6h23l1 4-3 3h-71l-19-1 2-1v-21l1 4 13-1h36l9 1 1-22z" fill="#7B7E7F"/>
<path transform="translate(655,469)" d="m0 0h1v83h-1l-1-5-7 2h-143l-31-1v-1l64-1h50l61-1 3-1v-7l-5-2-2-4h-2l-1-3 1-4-1-1h-8l-5 3-1 2-12 2-9-1-2-3 4-4 1-8-3-5-7-3 1-2h6l4-2h30l11-3 3-1v-21z" fill="#7B7E7F"/>
<path transform="translate(563,297)" d="m0 0h9l-1 4-14 15-7 8-12 12-3 5h-3v-33l-15 5-11 3-10 3v2l-12 3-36 12-10 3-8 3-12 3-7 3h-5l1-3-3-1 3-2 9-3 12-5 37-12 36-12 9-2 11-4 11-3h12l1 1h8l8-2v-2z" fill="#7B7E7F"/>
<path transform="translate(463,297)" d="m0 0 4 1 4 2h2l1-2v3 11l-4-1-3-5-1 2v6l-4-1-3-3v-2h-2v9l-2 2h-3l-6-7 1 3v5l-3 1-2-6-1 8-5 1-1-8h-2l-1 9h-4l-5-4v8h-4v-2l-11 2v4l3 1-8 3-7 2-16 6-11 3-16 5-8 3 1-5 5-12 7-3 13-5 9-1v-2l15-4 9-3h5l2 2 4-1 1-4h5l5-3 10-3 2-4h6l20-8h-6l2-2z" fill="#D0D1D1"/>
<path transform="translate(582,263)" d="m0 0 5 1 5 6-1 5-12 5-20 6-11 4-16 5-9 3-4-1-2-5-2 5-7-1v5l-4 1-6-1-4 2-2-4h-2l1 7-4 1-2-3-5 2-3 3-2-8 3-3 10-3 1-1h10l1-4-2-1 8-2-1-2 5-1 3 1 11-5 16-4 8-3 11-2 17-5z" fill="#C5C7C7"/>
<path transform="translate(147,465)" d="m0 0 18 1h23l74 1h300l66-2h9l6 1 7 1 4 1v5l-6-1v11l-4 6-3 2h-9l-4-3-1-3v-7h2l2 9 1 1h6l4-1 2-11h-4v6l-3 2-5-1v-6l5-3 4-1v-2l-4-1h-7l-4 1h-166v-2l-34 1h-156l-94-1-23-1-2-1-1 2-3-2z" fill="#898A8B"/>
<path transform="translate(631,470)" d="m0 0h8l2 1v2l-8 4v6l6-1 1-6h4v8l-4 4-2 1h-6l-2-2-1-9h-2v7h-1l-1-7-10-1h-437l-3-1-1-3 8 1 18-1h423l6-2z" fill="#B9BCBD"/>
<path transform="translate(205,489)" d="m0 0h7l8 7 4 2 1-4 12-1h35l9 1 2 1v18l-4-2h-44l-8 1-1 4-3-6-5-3-15-4-4-4 1-6z" fill="#A3A7A7"/>
<path transform="translate(203,484)" d="m0 0h9l7 3 5 5v6l-4-1-8-7h-7l-5 5 1 6 4 2 13 3 6 4 2 3v6l-4 6-4 3-3 1-15 1-9 3h-16l-7-1-4 4-6-1v-5l7-6h2v-2l-9 1-5 5-2 1-4-2v-6l4-3h7l2-1 15-1h17l1-1h6l2 5 4 2h10l3-2 1-5-5-3-14-4-6-7v-9l4-5z" fill="#7B7E7F"/>
<path transform="translate(511,499)" d="m0 0 1 3 16-1 34-1h17l3 5 4 3 13 3 4 2v7l-4 3h-10l-6-4-1-3h-60l-10 2-1-1z" fill="#969999"/>
<path transform="translate(480,315)" d="m0 0 4 2-32 10-35 12-5 3-7 2 2 1 1 4-12 3-2 7h-6l-9-3h-2v2h-15l-3-1-13 1 1-4 22-7 20-6 7-3 13-2 11-3 18-7 5-2 8-2 15-5 9-1z" fill="#3B2E32"/>
<path transform="translate(261,398)" d="m0 0h3l-1 5-9 11-7 6-9 4-5 1h-47l1-4 1-1 11-2 10-5h8l2-2 10-4 12-1v-2h3v-2l5-2z" fill="#F2F3F3"/>
<path transform="translate(587,276)" d="m0 0 1 2h3l1 7-5 5-6 2-6 4h-2l-1 2h-11v2l-8 3h-8l-1-1h-12l-7 2-8-1 5-5 7-3 15-5 13-4 9-3z" fill="#3D2F34"/>
<path transform="translate(433,490)" d="m0 0h23l1 2 21 1h20l7-1v10h-31l-17 2h-24z" fill="#C9C7C7"/>
<path transform="translate(563,297)" d="m0 0h9l-1 4-14 15-7 8-12 12-3 5h-3v-32l8-4 14-2 5-3h2v-2z" fill="#F4F4F4"/>
<path transform="translate(248,396)" d="m0 0h2v2l-6 3-8 3-3 1-1 2-13 5-2 2h-8l-13 6-8 1-2 2-7 1 4-4 2-1 1-3-14 4-3 3-7-1v-2l-5-1v-2l25-8 21-7 4 1-14 6 19-3 8-4 10-2 7-3z" fill="#30292B"/>
<path transform="translate(326,356)" d="m0 0h5l-3 5-12 5-9 2-9 4-18 6-12 3-12 5-14 4-28 10-17 5-9 3-13 4-5 2-4-1h3v-3l5-1 8-5 7-2 3-1 5 2v-3l6-4h6l6-3 6-2 12-3 7-2 4-4 10-1 10-5 13-3 10-4 10-2 7-2h4v-2l5-1 7-2z" fill="#9B9F9F"/>
<path transform="translate(356,490)" d="m0 0h22l1 2 47 1 1 1v11l-1-3-13-1h-14l-14 1-8 3-22-1v-13z" fill="#CAC9C9"/>
<path transform="translate(648,472)" d="m0 0h5l1 1 1 23-4 4-12 3h-31l-2 2h-11l-8-2-4-3 1-7 5-4h7l12 9 1-4 2 2 4-2h27l7-1 3-1 1-12-5 2z" fill="#B6B9BA"/>
<path transform="translate(175,476)" d="m0 0h207l1 2-6 1-7-1-25 1h-73l10 1v1l-18 1-41-1h-48z" fill="#CAC8C8"/>
<path transform="translate(332,339)" d="m0 0 4 1-2 4-30 10-13 4-20 7-2 3-15 2-13 5-5 1-26 9-30 10-13 4-9 4-3 1 1-5 4-3 13-2 9-4 10-2 9-2v-2l9-3 4-2 4-1 7-4 6-2 9-2 11-5 9-2 4-2h7v-2l12-3 23-8 8-3 12-3z" fill="#474548"/>
<path transform="translate(385,476)" d="m0 0h233l7 1 1 5-9-1h-41l-85 1h-10l-14-1 1-2h36l-49-1h-12l-13 1h-42l-4-2z" fill="#CAC8C8"/>
<path transform="translate(369,285)" d="m0 0h2l11 34v5l-13 4-13 5-3-1 12-37z" fill="#F3F3F3"/>
<path transform="translate(240,384)" d="m0 0v3l-10 3-9 2-12 5h-6l-4 3h-2v3l-6-1-3 2-8 2-7 5-4-1v3h-3v2l-10 2-2-6h2l1-6h-3l1-3v2l6-4 14-5 14-4 15-5 6-1-2 3-7 2-4 1v2l-7 2v2l11-2 9-2 13-5 10-2z" fill="#E0E2E2"/>
<path transform="translate(203,484)" d="m0 0h9l7 3 5 5v6l-4-1-8-7h-7l-5 5 1 6 4 2 13 3 6 4 2 3v6l-4 6-4 3-3 1h-12l-7-4-3-5v-5h6l2 5 4 2h10l3-2 1-5-5-3-14-4-6-7v-9l4-5z" fill="#221D20"/>
<path transform="translate(587,484)" d="m0 0h11l6 4 4 4v6l-4-2-8-6h-7l-5 5v5l5 3 13 3 6 4 2 4-1 8-5 5-4 2h-12l-8-4-3-5v-5h5l3 5 4 2h10l3-2 1-7-17-4-7-6-1-3v-8l5-6z" fill="#231E21"/>
<path transform="translate(582,263)" d="m0 0 5 1 3 5-1 4-10 2-13 4h-7l-7 4-10 3h-6l-8 4-5 2-4-1v-5l1-1h5l1-4 14-3 2-3 6-2 11-2 17-5z" fill="#DFE1E2"/>
<path transform="translate(289,491)" d="m0 0h1v10h55l4 2v10l-1-2-6 1-3-1h-49l-1-4z" fill="#A3A7A7"/>
<path transform="translate(350,485)" d="m0 0h29l-1 5-22 1-1 13h21l-1 5h-18l-1 8v6h23l1 4-1 1h-29l-1-4z" fill="#221E20"/>
<path transform="translate(428,485)" d="m0 0h29v5h-24v14h20l1 3-2 2h-19v14h23l1 5h-29l-1-6z" fill="#231E20"/>
<path transform="translate(307,487)" d="m0 0m-1 1m-2-3 2 4-2 4 14-1 31 1v10l-10-1h-47l-2-1v-11h14z" fill="#CACCCC"/>
<path transform="translate(616,468)" d="m0 0h38v5l-6-1v11l-4 6-3 2h-9l-4-3-1-3v-7h2l2 9 1 1h6l4-1 2-11h-4v6l-3 2-5-1v-6l5-3 4-1v-2l-4-1h-7l-4 1h-166v-2h48z" fill="#96999A"/>
<path transform="translate(511,489)" d="m0 0 2 4 35-1 26 1 4 1v6l-3 1h-14l-41 1-4 1-4-1-1-3z" fill="#CBCBCB"/>
<path transform="translate(655,469)" d="m0 0h1v37h-2l-1 3-9 3h-34l-8-5-3-2 3-1 10-2h28l11-3 3-1v-21z" fill="#A2A6A6"/>
<path transform="translate(535,509)" d="m0 0h30l12 1 2 1v3l13-1 8 1 2 3 1 3-4 3h-10l-6-4-1-3h-60l-10 2-1-1v-7l1 3 10-3z" fill="#898A8B"/>
<path transform="translate(401,324)" d="m0 0h5v6l-2 2-13 1-4 3-7 3-3 2-8 1-5 3-9 2-6 1 1-7 4-4 17-6 9-1v-2l17-3z" fill="#DBDDDD"/>
<path transform="translate(231,493)" d="m0 0h41l9 1 2 1v7l-7 1v-2l-3 1h-4-44l-1-7z" fill="#B9BCBD"/>
<path transform="translate(399,500)" d="m0 0h15l10 1 2 1 1 3v8l-1-2h-49l-1-1v-6l9-3z" fill="#A3A7A7"/>
<path transform="translate(147,546)" d="m0 0 1 2 44-1 20-1h97l144 1v2h-306z" fill="#7B7E7F"/>
<path transform="translate(323,369)" d="m0 0h3l-1 5-2 5-14 2-9 6h-7l-10 3h-4v2l-11 2h-11l2-5 14-1 3-1 3-3h2v-3l16-2 5-2h3v-2l7-1 5-4z" fill="#535255"/>
<path transform="translate(474,501)" d="m0 0h27l4 1v10l-16-1h-35l-1-7 9-2z" fill="#A4A7A8"/>
<path transform="translate(181,510)" d="m0 0h11l2 3 22 1 1 6h-2v3h-10l-5-3-1-5-8 2h-20l-12 1-5 1-4 1-3 1v-9l1-1h18z" fill="#898A8B"/>
<path transform="translate(333,344)" d="m0 0h2l-1 6-3 6-6 2-7 4-7 2-3-1v2l-13 4-11 2-9 4-11 2-10 5-10 1-3 1v-2l9-2 9-4 7-2 8-1 1-3 9-3 5-1h5l4-1-1-3 7-2 5-3h2v2h-2l1 2 15-5-1-4h-3l-1 2-7 1-1 2v-2l-15 1 2-2 13-4z" fill="#C3C5C5"/>
<path transform="translate(268,485)" d="m0 0h36v5l-14 1-1 37h-6v-37l-14-1z" fill="#201B1D"/>
<path transform="translate(540,276)" d="m0 0 2 1-5 3-13 3-6 3-1 1h-6l-1 3-2 2 3 4h-3v5l-4 1-6-1-4 2-2-4h-2l1 7-4 1-2-3-5 2-3 3-2-8 3-3 10-3 1-1h10l1-4-2-1 8-2-1-2 5-1 3 1 11-5z" fill="#BBBCBC"/>
<path transform="translate(181,493)" d="m0 0h9l4 1v9h-5l-4-2-17 1h-5l-2 1h-13l-1 6h-1v-14l2-1h20z" fill="#B7BABB"/>
<path transform="translate(443,477)" d="m0 0h19l43 1h70l-2 2h-105l-7 1-28-1-17 1-27-1 4-2h37z" fill="#CDD0D0"/>
<path transform="translate(248,396)" d="m0 0h2v2l-6 3-8 3-3 1-1 2-13 5-2 2h-8l-3 1-4-1-10 1v-2l8-5 12-2 8-4 10-2 7-3z" fill="#454447"/>
<path transform="translate(283,491)" d="m0 0h1v28h-2v-3h-34l-19 1-3 3 1-8 11-2h41l3 2z" fill="#87898A"/>
<path transform="translate(511,499)" d="m0 0 1 3 16-1 34-1h17l3 5v3l-11-2h-31l-7 1h-16l-5-1z" fill="#A3A7A7"/>
<path transform="translate(182,500)" d="m0 0 6 1 6 2 1-2 5 6 14 4 1 2h-15l1-2-3-1-1-2-17-1h-10l-12 1-4-1h-7l1-5h14l1-1h12z" fill="#A3A7A7"/>
<path transform="translate(349,489)" d="m0 0h1v28h-3l-12-1h-28l-15 1-2 1-1-2v-9l1 4 13-1h36l9 1z" fill="#88898A"/>
<path transform="translate(506,485)" d="m0 0 5 1v37h21l1 4-1 1h-26z" fill="#221E20"/>
<path transform="translate(356,490)" d="m0 0h22l-4 2-14 1-3 1 1 5-1 3 19 1 1-4 5-3h31l12 2 2 1v6l-1-3-13-1h-14l-14 1-8 3-22-1v-13z" fill="#B9BCBD"/>
<path transform="translate(654,506)" d="m0 0h2v7l-4 2-7 3-3 3-5-1-3-1-11-1-2-1-1 2-10 2-1-10h35l9-3z" fill="#88898A"/>
<path transform="translate(154,506)" d="m0 0 5 1 12-1h14l12 1 6 4v1h14l3 3-2 6-3 1 1-8h-23l-1-3h-11l-22 1h-11l-1 33h-1v-36l1-2z" fill="#96999A"/>
<path transform="translate(463,297)" d="m0 0 4 1 4 2h2l1-2v3 11l-4-1-3-5-1 2v6l-4-1-3-3v-2h-2v9l-2 2h-3l-6-7-5-1-4-1 1-2h6l20-8h-6l2-2z" fill="#8A8689"/>
<path transform="translate(328,360)" d="m0 0 1 3-3 6-9 2-5 4h-7v2l-8 3-16 1v2l-3-1 4-4 13-5h3v-2l12-5 9-2z" fill="#2D2629"/>
<path transform="translate(240,384)" d="m0 0v3l-10 3-9 2-12 5h-6l-4 3h-2v3l-6-1-3 2-8 2-7 5-4-1v3h-3v2l-10 2-2-6 5-3 10-2 9-3 13-4 13-5 6-1 13-5 10-2z" fill="#C8C9C9"/>
<path transform="translate(205,489)" d="m0 0h7l8 7 4 5-3 5h-7l-11-3-4-4 1-6z" fill="#C7C5C5"/>
<path transform="translate(453,510)" d="m0 0h44l8 2v6l-10-2h-40l-2-3z" fill="#898A8B"/>
<path transform="translate(586,477)" d="m0 0h22l8 1h8l2 1-1 3-8-1h-41l-85 1h-10l-14-1 1-2h105l2-1z" fill="#CCCECE"/>
<path transform="translate(590,280)" d="m0 0h2v5l-5 5-6 2-6 4h-2l-1 2h-11v2l-4-2h-8l1-3 5-1v-2l16-1 1-4 9-3z" fill="#424043"/>
<path transform="translate(577,494)" d="m0 0h1v6l-3 1h-14l-41 1-4 1-4-1-1-7 1 2h59l6 2z" fill="#B8BBBC"/>
<path transform="translate(291,506)" d="m0 0h48l9 1 1 1v5l-1-2-6 1-3-1h-49z" fill="#96999A"/>
<path transform="translate(320,496)" d="m0 0 5 1h22l2-1v7l-10-1h-47l-2-1v-4z" fill="#B9BCBD"/>
<path transform="translate(146,468)" d="m0 0 2 4 3 1h3v-3h10l2 4-6 2 1 7h5v-8l4 1 1 1v6 3l-5 3-6-1-6-5 1 4-2-1-1-3-4-2-2-5z" fill="#BDBFC0"/>
<path transform="translate(433,495)" d="m0 0h1v8h21v-5l1-1h42l7 1v4h-31l-17 2h-24z" fill="#B5B8B9"/>
<path transform="translate(326,356)" d="m0 0h5l-3 5-12 5-9 2-6 3h-10l-3-1v2l-5 2-12 5-7-1v2l-5 3-7 2-8 1-1-3 2-1 9-1 10-5 13-3 10-4 10-2 7-2h4v-2l5-1 7-2z" fill="#9DA1A1"/>
<path transform="translate(375,510)" d="m0 0h47l4 1 1 7-6-2-32-1-9 1-5-1z" fill="#898A8B"/>
<path transform="translate(235,506)" d="m0 0h46l2 1v6l-4-2h-44l-8 1-1 4-1-7 3-2z" fill="#959899"/>
<path transform="translate(433,316)" d="m0 0h2l1 8h3l-1 3-20 8-13 3-3-1 6-4-1-4 1-1 11-1v2h4l-1-9 6 4 3 1 1-7z" fill="#A01A37"/>
<path transform="translate(648,472)" d="m0 0h5l1 1v20l-3 3-6 2-19 1h-10l-6 1-1-4 6-2h27l7-1 3-1 1-12-5 2z" fill="#CAC8C8"/>
<path transform="translate(223,381)" d="m0 0h7l-1 5-7 1-6 5-10 3-8 2h-8v-2l7-2v-2l6-3 6-2 1-1 8-1z" fill="#E4E6E6"/>
<path transform="translate(231,493)" d="m0 0h41l9 1 2 1v3l-8-1-34 1-15 1-2-4z" fill="#CBCDCD"/>
<path transform="translate(655,501)" d="m0 0h1v5h-2l-1 3-9 3h-34l-8-5 3-1 5 3v-2l5-1 7 1h19l9-2h4z" fill="#959899"/>
<path transform="translate(175,476)" d="m0 0h3v2l7-1h43l26 1 1 2-70 1h-10z" fill="#CCCFCF"/>
<path transform="translate(332,339)" d="m0 0 4 1-2 4-30 10-13 4-7 1 1-4 21-7 8-3 12-3z" fill="#383335"/>
<path transform="translate(146,463)" d="m0 0 1 4h4l25 1 94 1v1l-11 1h-72l-16-1h-17v3l-5 1-2-2z" fill="#96999A"/>
<path transform="translate(229,395)" d="m0 0h10l-2 1v2l-11 4-9 2-5 3-17 3-3-1 12-6h3v-2l15-5z" fill="#383134"/>
<path transform="translate(294,372)" d="m0 0 4 1-16 6-3 1v2l2 2-4 1-1 3-3-1 3-3-5-1-8 2-12 5-5 1-2 2 2 1v2l2 1h-11l-2-1h-10l3-2 16-6 18-5 6-3 12-3z" fill="#424043"/>
<path transform="translate(633,522)" d="m0 0h6l1 3-6 3-4 6h14l-1 7-3 3-9-3-3-3-2-5 1-7z" fill="#999C9C"/>
<path transform="translate(309,357)" d="m0 0h2v2h-2l-1 6-13 4-11 2-9 4-11 2-10 5-10 1-3 1v-2l9-2 9-4 7-2 8-1 1-3 9-3 5-1h5l4-1-1-3 7-2z" fill="#C6C7C7"/>
<path transform="translate(582,276)" d="m0 0h5l-3 2-27 9-22 7-12 4-4-1 1-3 9-2 6-3 13-3 12-5 15-1v-2z" fill="#848787"/>
<path transform="translate(407,330)" d="m0 0 1 3 3 1-8 3-7 2-16 6-11 3-16 5-8 3 1-5 2-2 6-1 4 1 10-4 3-3h3v2l8-2 2-4 7-1 4-1 3 1v-3l4-1 4 1z" fill="#8F9192"/>
<path transform="translate(441,310)" d="m0 0h3l3 5v5l-3 1-2-6-1 8-5 1-1-8h-2l-1 9h-4l-5-4 1-5 12-4z" fill="#D2D3D3"/>
<path transform="translate(403,505)" d="m0 0 23 1 1 7-1-2h-49l-1-2 11-3h12z" fill="#96999A"/>
<path transform="translate(642,472)" d="m0 0h5v13l-6 6h-9l-4-3-1-3v-7h2l2 9 1 1h6l4-1 2-11h-4v6l-3 2-5-1v-6l5-3z" fill="#727375"/>
<path transform="translate(381,345)" d="m0 0 5 1v2l-7 2v3l-3 1-12 1-5 2-13 1 1-4 10-3 11-2 4-2z" fill="#342B2E"/>
<path transform="translate(496,505)" d="m0 0 9 1v6l-16-1h-35l1-3 8-1 28-1z" fill="#96999A"/>
<path transform="translate(381,349)" d="m0 0h9l5 1-1 9h-6l-9-3h-2v2h-15l-1-3 3-1 15-1v-3z" fill="#434245"/>
<path transform="translate(292,381)" d="m0 0h5v2l-12 5h-3v2h-3v2l-11 2h-11l2-5 14-1 3-1 3-3 3-2h9z" fill="#454447"/>
<path transform="translate(443,477)" d="m0 0h19l15 1v1l-16 2-28-1-17 1-27-1 4-2h37z" fill="#CDD0D0"/>
<path transform="translate(217,403)" d="m0 0 3 1-4 1v2h-3v3l5-1 2-2h7l-4 4-5 2-1 1h-8l-3 1-4-1-10 1v-2l8-5 12-2z" fill="#48474A"/>
<path transform="translate(585,513)" d="m0 0 15 1 2 3 1 3-4 3h-10l-6-4-1-3-5-1v-1z" fill="#7B7E7F"/>
<path transform="translate(288,370)" d="m0 0 10 1-4 2-20 7-7 2-27 9-7 1 3-2h3v-2h3l2-4v2l6-2 8-1 3-3h3v-2h7l6-3 6-2 5-1z" fill="#838586"/>
<path transform="translate(158,522)" d="m0 0h9v2l-8 6-1 5 10 1-1 4h-11v-2h-3v-11z" fill="#D4D6D6"/>
<path transform="translate(589,489)" d="m0 0h7l6 4-1 4-6 2-4 2-7-2v-6z" fill="#CCCFCF"/>
<path transform="translate(461,299)" d="m0 0 4 1-8 4-3 1-10 4h-6l-2 4-8 2v-2l-2-1h3l-1-3 10-4 17-5z" fill="#834352"/>
<path transform="translate(433,490)" d="m0 0h23l2 4-8 3-7-1-7 2-2 2z" fill="#C6C9C9"/>
<path transform="translate(194,514)" d="m0 0h22l1 6h-2v3h-10l-5-3-1-5h-5z" fill="#7B7E7F"/>
<path transform="translate(589,267)" d="m0 0 3 3-1 5-1 1-15 2v2l-3 1-12 1-12 5h-5l4-1v-2l9-4 5-2 7-1 13-4 8-1z" fill="#C1C3C3"/>
<path transform="translate(257,390)" d="m0 0 1 2-1 2h10l-3 4-7 2-13 2v2h-3v2l-9 1 1-3 10-3 5-3h2v-2l-2-1 8-4z" fill="#49484B"/>
<path transform="translate(468,479)" d="m0 0h107l1 2-85 1h-10l-14-1z" fill="#CAC8C8"/>
<path transform="translate(283,356)" d="m0 0h2l1 4-15 5-2 3h-9v-2l-7 1-2-2 9-2 4-2h7v-2z" fill="#4C484B"/>
<path transform="translate(434,331)" d="m0 0 3 1-20 7-5 3-7 2 2 1 1 4-13 3v-2h-13l1-2 4-2 4 1 5 1 5-1 2-5 10-4z" fill="#464548"/>
<path transform="translate(551,293)" d="m0 0 4 1-5 2-1 2 10-1 1 2-3 3-4 1h-8l-1-1h-16v-2l6-2 10-2z" fill="#362E31"/>
<path transform="translate(413,314)" d="m0 0 4 1 3 3h-4l-1 5-5 1-1-2-7 1-13 4-4-1 5-4 12-3z" fill="#49484B"/>
<path transform="translate(181,493)" d="m0 0h9l3 2v4l-9-2-9 1-26-1-2-1v6h-1v-7l2-1h20z" fill="#CBCBCB"/>
<path transform="translate(631,472)" d="m0 0h7l-5 5v6l6-1 1-6h4v8l-4 4-2 1h-6l-2-2-1-13z" fill="#D4D6D6"/>
<path transform="translate(249,366)" d="m0 0h11v2l-19 7-5 1-9 1v-3l4-2 9-2z" fill="#434042"/>
<path transform="translate(401,324)" d="m0 0h5v6l-2 2-10 1h-10l1-3h3l1-3z" fill="#F3F3F3"/>
<path transform="translate(590,280)" d="m0 0h2v5l-5 5-6 2-4 1-5-2 2-4z" fill="#7F8283"/>
<path transform="translate(317,494)" d="m0 0 30 1 2-1-2 4h-23l-4-1h-30v-2z" fill="#CAC8C8"/>
<path transform="translate(540,276)" d="m0 0 2 1-5 3-13 3-6 3-1 1h-6l-1 3-2 2 3 4h-3l-1 3-2-8h-2l-3 3v-4l-2-1 8-2-1-2 5-1 3 1 11-5z" fill="#888A8B"/>
<path transform="translate(240,384)" d="m0 0v3l-10 3-9 2-12 5h-6l-4 3h-2v3l-5-1v-2l3-3 11-3 10-3 7-3 10-2z" fill="#C4C5C5"/>
<path transform="translate(326,356)" d="m0 0h5l-3 5-12 5-9 2-6 3-3-1 3-4 7-1v-2l5-1 7-2z" fill="#868889"/>
<path transform="translate(503,290)" d="m0 0 3 1 2 10-4 1-6-1-4 2-2-6-3-1 4-1 7 1z" fill="#C4C3C3"/>
<path transform="translate(328,360)" d="m0 0 1 3-3 6-9 2-5 3-1-2 3-2-6-1-4 1 3-3 12-3z" fill="#393235"/>
<path transform="translate(191,401)" d="m0 0 9 2-3 2-9 3-13 4-5 2-4-1h3v-3l5-1 8-5 7-2z" fill="#909393"/>
<path transform="translate(557,267)" d="m0 0h2v3l4 1-7 2-11 2-8 3h-5l5-5 11-4z" fill="#383235"/>
<path transform="translate(192,411)" d="m0 0 3 1-3 1v2l11-2 3 2-10 5-8 1-2 2-7 1 4-4 2-1 1-3h3v-2h2z" fill="#4C393F"/>
<path transform="translate(648,472)" d="m0 0h5l1 1v20l-1 2-11 2h-13v-1l20-3 3-1 1-12-5 2z" fill="#CBCCCC"/>
<path transform="translate(564,285)" d="m0 0m-2 1 7 1-3 3-10 2-12 5-5-1 2-4 13-3z" fill="#292124"/>
<path transform="translate(276,494)" d="m0 0 7 1v3l-8-1-34 1-15 1-1-2 3-1 41-1z" fill="#CAC8C8"/>
<path transform="translate(512,495)" d="m0 0h50l2 2-37 1h-11l-4-1z" fill="#CAC8C8"/>
<path transform="translate(183,416)" d="m0 0h3l-1 4-5 3-6 2-2 1h-8l-2-4h9l1-3z" fill="#8C8F8F"/>
<path transform="translate(383,336)" d="m0 0 4 1h-3l-2 5-5 2h-3v-2l-5 1-1 3-10 4-5-1-5 1v-5l2 2 7-2 7-1 5-3 10-2z" fill="#BEC0C1"/>
<path transform="translate(208,385)" d="m0 0 2 1-5 3-4 1-7 3-9 2-12 3-5 2h-3v2h-6l2-2 14-5 14-4 15-5z" fill="#9EA0A1"/>
<path transform="translate(305,379)" d="m0 0m-8 0 1 2 7-1v2l2 1-7 4h-7l-10 3-1-2 13-5h2v-2l-8 2h-8v-2z" fill="#454245"/>
<path transform="translate(560,281)" d="m0 0h8l-4 2-17 6-11 2-8 4h-3v2l-6 1 1-4 9-2 6-3 13-3z" fill="#9C9FA0"/>
<path transform="translate(169,473)" d="m0 0 5 2v7l-3-2-2-4-3-1 1 2v6l-1 1h-5l-2-3v-5l3-2z" fill="#3E393C"/>
<path transform="translate(203,402)" d="m0 0 4 1-14 6 7-1-3 3-5 1-1 2h-2l1 3h-3l-4-2 5-2v-2l-4-1-1 2-4-2 9-3z" fill="#3D3236"/>
<path transform="translate(485,290)" d="m0 0 4 1v2h-2v2l-7 1-3 2h-4v2l-3 1-4-2 1-3 11-4z" fill="#705E64"/>
<path transform="translate(504,492)" d="m0 0 1 4h-38l-8-1v-1l19-1h20z" fill="#CCCDCD"/>
<path transform="translate(374,491)" d="m0 0 5 1-4 4h-8l-10 4v-6l3-2z" fill="#CDD0D0"/>
<path transform="translate(602,494)" d="m0 0 4 3v3l-11 3h-8l-4-3v-5l1 4 7 1 2-2 1 1 3-2 4-1z" fill="#BFBEBE"/>
<path transform="translate(166,475)" d="m0 0 4 1 1 1v6 3l-5 3-6-1-3-3v-2h9z" fill="#B5B6B7"/>
<path transform="translate(539,293)" d="m0 0m-3 1h3l2 4-9 2h-4l-2 4-9-1 5-5 5-1z" fill="#382C30"/>
<path transform="translate(205,489)" d="m0 0h7l7 6-1 2-7-1-2-2-4 1-5 3v-5z" fill="#D9DBDB"/>
<path transform="translate(268,485)" d="m0 0h36v5h-13l1-4h-24z" fill="#353033"/>
<path transform="translate(292,374)" d="m0 0h5l2 4h-2v2l-16 1v2l-3-1 4-4z" fill="#1A1517"/>
<path transform="translate(453,307)" d="m0 0h4v10l-2 2h-3l-6-7 1-3z" fill="#D2D3D3"/>
<path transform="translate(444,477)" d="m0 0h18l15 1v1l-16 2-19-1z" fill="#CCCECE"/>
<path transform="translate(308,480)" d="m0 0h43l2 2-8 1-18-1h-19z" fill="#CAC8C8"/>
<path transform="translate(207,402)" d="m0 0h10v2l-5 3-17 3-3-1 8-4z" fill="#1D1719"/>
<path transform="translate(406,324)" d="m0 0 2 1v2h7v1l-7 1-2 5h-8v3h-6l-4 1-4-1h3l1-3 3-2 13-1z" fill="#BEBFBF"/>
<path transform="translate(633,522)" d="m0 0h6l1 3-6 3-3 4h-2v2l-3-1 1-7z" fill="#DADBDB"/>
<path transform="translate(223,381)" d="m0 0h7l-1 5-8 1-7 3-4 1 2-5 9-4z" fill="#F4F4F4"/>
<path transform="translate(332,339)" d="m0 0 4 1-2 4-9 3-6 1-8-2 15-4z" fill="#493F43"/>
<path transform="translate(288,370)" d="m0 0 10 1-4 2-20 7-10 2 1-3 9-2 3-2 6-2 5-1z" fill="#828485"/>
<path transform="translate(175,476)" d="m0 0h3v2l7-1 16 1v2l-3 1h-23z" fill="#CCCDCD"/>
<path transform="translate(469,495)" d="m0 0h28l8 1v2h-32l-5-1z" fill="#CAC8C8"/>
<path transform="translate(174,476)" d="m0 0h1v8l-4 5-4 2h-7l-5-3-1-5 4 2 4 3 5-1 4-2-1-2 2-3 1 1z" fill="#888A8B"/>
<path transform="translate(199,409)" d="m0 0h9l4 2v2l-6 2-4-1-10 1v-2z" fill="#7D8081"/>
<path transform="translate(569,282)" d="m0 0h2v2l-20 7-12 3-12 4h-2v-2l19-6 13-4 9-3z" fill="#454447"/>
<path transform="translate(648,463)" d="m0 0h8l-1 14h-1v-9l-3 1-4-2h-8l-2-1v-2z" fill="#76797A"/>
<path transform="translate(292,381)" d="m0 0h5v2l-12 5h-3l-1 2-4-2 5-6h9z" fill="#7F8182"/>
<path transform="translate(220,403)" d="m0 0h11l-1 2 2 2-5 1h-7l-3 3-4-1v-3h3v-2z" fill="#848788"/>
<path transform="translate(356,508)" d="m0 0 11 1-1 3-5 3h-2l-1 5 1 2h-3l-1-10z" fill="#88898A"/>
<path transform="translate(225,374)" d="m0 0 2 1 3 3-20 7h-5l3-1v-2l6-3 4-1z" fill="#413E41"/>
<path transform="translate(164,525)" d="m0 0h3l-1 10-6 1-2-1v-5z" fill="#48474A"/>
<path transform="translate(206,493)" d="m0 0 4 1 2 3h-3l-1 4 1 2h-6l-4-4 1-4 1 2z" fill="#C4C4C4"/>
<path transform="translate(407,330)" d="m0 0 1 3 3 1-8 3-1 1-10 1-7 3h-3l2-4 7-1 4-1 3 1v-3l4-1 4 1z" fill="#9A9D9E"/>
<path transform="translate(272,478)" d="m0 0h21l19 1-4 2-4 1-34-2z" fill="#CCCFCF"/>
<path transform="translate(170,407)" d="m0 0m-1 1m-5 1h5v4h-3v2l-10 2-2-5h5l1-2z" fill="#ABAEAF"/>
<path transform="translate(386,349)" d="m0 0 9 1-1 9h-6v-3h3v-4l-3 1h-7l1-3z" fill="#989A9B"/>
<path transform="translate(637,474)" d="m0 0h4l-1 8-3 2-5-1v-6z" fill="#3D393C"/>
<path transform="translate(555,293)" d="m0 0h6l2 2 10 1-1 2h-11v2l-4-2h-8l1-3z" fill="#878A8B"/>
<path transform="translate(157,532)" d="m0 0 1 3 10 1-1 4h-11v-2h-3v-3z" fill="#ADB0B1"/>
<path transform="translate(294,372)" d="m0 0 4 1-16 6-3 1v2l2 2-4 1-1 3-3-1 3-3-5-1-3-1 10-2v-2z" fill="#393437"/>
<path transform="translate(264,374)" d="m0 0h11v1l-11 2-10 5-10 1-3 1v-2l9-2 9-4z" fill="#C2C3C4"/>
<path transform="translate(381,345)" d="m0 0 5 1v2l-7 2v3l-9-1 1-4 7-2z" fill="#292224"/>
<path transform="translate(309,357)" d="m0 0h2v2h-2l-1 6-7 2h-5l-1-2h3l-1-3 7-2z" fill="#C8C9C9"/>
<path transform="translate(635,526)" d="m0 0 5 1v7l-1 1-9-1 2-4z" fill="#3F3B3E"/>
<path transform="translate(177,416)" d="m0 0h6l-3 2-8 2-3 3-7-1v-2l-5-1v-2l5 1h7z" fill="#454447"/>
<path transform="translate(318,348)" d="m0 0 2 1-3 1-1 5h-3l-1 2v-2l-15 1 2-2 13-4z" fill="#B7B9B9"/>
<path transform="translate(318,493)" d="m0 0h31l-2 3-29-1z" fill="#CCCDCD"/>
<path transform="translate(229,395)" d="m0 0h10l-2 1v2l-4 2-11 1 1-4z" fill="#1E181A"/>
<path transform="translate(640,476)" d="m0 0h4v8l-4 4-2 1h-6l-2-2 1-3 3 3 5-1z" fill="#B0B1B1"/>
<path transform="translate(264,376)" d="m0 0h5l-2 2h-3v2l-5 3-7 2-8 1-1-3 2-1 9-1z" fill="#9EA1A2"/>
<path transform="translate(173,394)" d="m0 0m-3 1 3 1-12 5-4 3h-2l1-5 4-3z" fill="#41373B"/>
<path transform="translate(326,356)" d="m0 0h5l-3 5-4 2-12 1 1-2 7-2z" fill="#9EA1A2"/>
<path transform="translate(473,298)" d="m0 0 2 2-1 5v7l-4-1-2-4v-5l5-2z" fill="#CCCDCD"/>
<path transform="translate(511,288)" d="m0 0h5v7l-1 2h-4l-4-6z" fill="#D9D9D9"/>
<path transform="translate(181,493)" d="m0 0h9l3 2v4l-9-2-9 1 1-3 5-1z" fill="#CAC9C9"/>
<path transform="translate(365,329)" d="m0 0 4 2-1 2-10 4h-4v-3h2v-2z" fill="#5A3D45"/>
<path transform="translate(416,493)" d="m0 0h10l1 1v5l-14-2v-2h3z" fill="#CACACA"/>
<path transform="translate(441,310)" d="m0 0h3l3 5v5l-3 1-2-6-1 6h-1v-9l-4 1 1-2z" fill="#C2C2C2"/>
<path transform="translate(534,298)" d="m0 0h12l3 5-5-1h-16v-2z" fill="#494146"/>
<path transform="translate(197,506)" d="m0 0 10 3 7 2 1 2h-15l1-2-3-1z" fill="#9FA2A3"/>
<path transform="translate(249,493)" d="m0 0h23l4 2-7 1h-21z" fill="#CCCECE"/>
<path transform="translate(356,490)" d="m0 0h22l-4 2-14 1-3 1 1 5-2 1z" fill="#BDBDBD"/>
<path transform="translate(652,468)" d="m0 0h2v5l-6-1v11h-1v-11l-6 1v-2l-2-1z" fill="#989B9C"/>
<path transform="translate(438,312)" d="m0 0h2l1 11-5 1-1-3v-7z" fill="#E4E4E4"/>
<path transform="translate(461,304)" d="m0 0 4 1 1 9-4-1-3-3-1-4z" fill="#DADADA"/>
<path transform="translate(540,276)" d="m0 0 2 1-5 3-13 3-6 3-5 1v-2l11-5z" fill="#8F9192"/>
<path transform="translate(245,389)" d="m0 0 3 1-4 3 2 1v2l2 1h-11l-2-1-3-2z" fill="#352E31"/>
<path transform="translate(256,387)" d="m0 0m-2 1h2l-1 3-4 4-5 1v-2h-6l4-2 5-3z" fill="#1A1517"/>
<path transform="translate(641,534)" d="m0 0h3v5l-13-1-1-3z" fill="#B0B3B3"/>
<path transform="translate(648,472)" d="m0 0h5l1 1v7l-6 2z" fill="#BFC1C1"/>
<path transform="translate(220,499)" d="m0 0h3l1 3-4 4-9-1 1-3 5-1z" fill="#B4B6B7"/>
<path transform="translate(392,494)" d="m0 0 21 1-1 2h-27v-2z" fill="#CAC8C8"/>
<path transform="translate(589,489)" d="m0 0h7l6 4v3l-7-1-6-3z" fill="#D5D7D7"/>
<path transform="translate(291,353)" d="m0 0h7l-1 3-8 3h-5l1-4z" fill="#2D282B"/>
<path transform="translate(156,471)" d="m0 0h7l3 1v2l-6 2-1 2-4 1v-6z" fill="#CDCDCE"/>
<path transform="translate(146,463)" d="m0 0 1 4 3 1 14 1v1h-10v3l-5 1-2-2z" fill="#A1A5A5"/>
<path transform="translate(434,331)" d="m0 0 3 1-20 7-5 3h-5l3-3z" fill="#454447"/>
<path transform="translate(260,390)" d="m0 0 14 1-2 2-4 1h-11l1-3z" fill="#858889"/>
<path transform="translate(201,391)" d="m0 0 4 1-4 2v2l-3 1h-8v-2z" fill="#F7F7F7"/>
<path transform="translate(264,361)" d="m0 0 4 1-5 3-1 1 8-1-1 3h-9v-2l-7 1-2-2 9-2z" fill="#8A8B8C"/>
<path transform="translate(361,487)" d="m0 0h9l6 2v1h-19l1-2z" fill="#3A3437"/>
<path transform="translate(225,392)" d="m0 0h8l-2 2-17 6-4-1 14-6z" fill="#818384"/>
<path transform="translate(592,510)" d="m0 0 7 1 4 2-1 5-2-1v-3h-8l-2-2z" fill="#8E9091"/>
<path transform="translate(615,478)" d="m0 0h9l2 1-1 3-8-1h-15v-1l11-1z" fill="#CBCCCC"/>
<path transform="translate(560,281)" d="m0 0h8l-4 2-14 5h-8v-1l7-2z" fill="#9EA2A2"/>
<path transform="translate(557,267)" d="m0 0h2v3l4 1-7 2h-4v-2l-4-1v-1z" fill="#6E6367"/>
<path transform="translate(215,512)" d="m0 0 4 2 1 3-3 5h-2l1-8h-14v-1z" fill="#8A8C8D"/>
<path transform="translate(355,491)" d="m0 0h1l1 11 19 1v1h-21z" fill="#A7AAAA"/>
<path transform="translate(587,490)" d="m0 0h2v2l5 1 1 2h-5l-4 2v2h-2v-6z" fill="#C7C7C7"/>
<path transform="translate(486,298)" d="m0 0h2l1 4h2l-1 5-4-1-1-4h-2l1-3z" fill="#DADADA"/>
<path transform="translate(546,291)" d="m0 0 4 1 1 2-7 3-5-1 2-4z" fill="#261F21"/>
<path transform="translate(208,385)" d="m0 0 2 1-5 3-4 1-7 3-4-1 3-1 1-2z" fill="#AFB2B2"/>
<path transform="translate(405,324)" d="m0 0h1v6l-2 2-10 1-3-2 7-2 7-1z" fill="#E3E5E5"/>
<path transform="translate(461,299)" d="m0 0 4 1-8 4-3 1h-3v-2l-2-1z" fill="#584B51"/>
<path transform="translate(413,314)" d="m0 0 4 1 3 3h-4l-1 4-2-4-11 2 1-2z" fill="#838586"/>
<path transform="translate(439,487)" d="m0 0h13v3h-17z" fill="#3A3437"/>
<path transform="translate(169,473)" d="m0 0 5 2v7l-3-2-2-4-5 1-4-2z" fill="#474548"/>
<path transform="translate(192,411)" d="m0 0 3 1-3 1v2l11-2 3 2-4 2-4-2-1 2h-7l-1-3h2z" fill="#464548"/>
<path transform="translate(292,374)" d="m0 0 3 1-8 3 2 3h-8v2l-3-1 4-4z" fill="#2A2225"/>
<path transform="translate(182,404)" d="m0 0 3 1-7 5h-3v2l-5 2-4-1h3v-3l5-1z" fill="#989B9C"/>
<path transform="translate(248,396)" d="m0 0h2v2l-7 3h-8l4-4z" fill="#828485"/>
<path transform="translate(227,378)" d="m0 0 3 1h-2v2l-9 3-1 1h-8l2-2z" fill="#A2A5A5"/>
<path transform="translate(305,376)" d="m0 0h8l-1 2-8 3h-6v-2z" fill="#969999"/>
<path transform="translate(277,375)" d="m0 0h5v2l-8 3-10 2 1-3 9-2z" fill="#7F8283"/>
<path transform="translate(365,355)" d="m0 0h8l4 1v2h-15l-1-2z" fill="#828485"/>
<path transform="translate(392,342)" d="m0 0h9l-4 4-5 1-3-3z" fill="#181315"/>
<path transform="translate(580,261)" d="m0 0 4 2-10 5-7 2-4-1 14-5z" fill="#8B8E8F"/>
<path transform="translate(153,477)" d="m0 0 1 2 5-1 1 5-4 1-2-1 1 4-2-1z" fill="#ADAFAF"/>
<path transform="translate(241,384)" d="m0 0h2l-1 4h-3v2l-8 2-2-2 6-3 5-1z" fill="#A0A4A4"/>
<path transform="translate(577,276)" d="m0 0h5l-4 2h-3v2l-3 1-15 1 2-2 12-2z" fill="#B3B6B7"/>
<path transform="translate(627,478)" d="m0 0h2l2 9 4 2v2l-5-1-3-5z" fill="#929495"/>
<path transform="translate(157,483)" d="m0 0 5 1 5 2-1 3-6-1-3-3z" fill="#D8DADA"/>
<path transform="translate(221,384)" d="m0 0m-6 1h6l-1 3-10 3 2-5z" fill="#FAFAFA"/>
<path transform="translate(225,374)" d="m0 0 2 1 3 3-9 3-3-1 5-5z" fill="#454144"/>
<path transform="translate(277,373)" d="m0 0h6l-1 2-6 2-7 2-2-2 3-2z" fill="#9A9E9E"/>
<path transform="translate(524,282)" d="m0 0 2 1-1 2-5 1-1 7-3-1v-4h-5v-1l7-2z" fill="#AFB1B2"/>
<path transform="translate(154,483)" d="m0 0 4 2 8 5v1h-6l-5-3z" fill="#818485"/>
<path transform="translate(182,390)" d="m0 0 4 1v2l-11 3-2-1 3-3z" fill="#555457"/>
<path transform="translate(542,289)" d="m0 0 4 1-17 6-4-1 11-5z" fill="#838485"/>
<path transform="translate(198,396)" d="m0 0h5l-4 4h-2v3l-5-1v-2l3-3z" fill="#BABDBE"/>
<path transform="translate(219,391)" d="m0 0 2 1-12 5-8-1 3-2 6-1z" fill="#C1C3C3"/>
<path transform="translate(453,307)" d="m0 0h4v4h-2l-1 4-2-3-3 1 2-4z" fill="#ECECEC"/>
<path transform="translate(551,293)" d="m0 0 4 1-5 2-1 2 10-1 1 2-1 2h-2v-2h-9l-1-4z" fill="#49484B"/>
<path transform="translate(300,479)" d="m0 0h12l-4 2-4 1-14-1v-1z" fill="#CBCCCC"/>
<path transform="translate(198,415)" d="m0 0 4 1-3 3-7 1-2-1v-2l7-1z" fill="#342D30"/>
<path transform="translate(285,366)" d="m0 0h11l1 2-13 3-2-1z" fill="#C1C2C2"/>
<path transform="translate(388,352)" d="m0 0h3v4l-8 1-1-2 1-2z" fill="#464548"/>
<path transform="translate(404,321)" d="m0 0h5l-3 1v2l-12 3h-5l3-2z" fill="#949697"/>
<path transform="translate(450,305)" d="m0 0h2v2l-6 4h-8v-3h6z" fill="#847F81"/>
<path transform="translate(239,402)" d="m0 0h4v2h-2v2l-9 1 1-3z" fill="#3B3538"/>
<path transform="translate(229,373)" d="m0 0h7v3l-9 1v-3z" fill="#332C2F"/>
<path transform="translate(631,470)" d="m0 0h8l2 1v2l-6 2 1-2h-5l-2 1v-3z" fill="#BFC1C2"/>
<path transform="translate(220,403)" d="m0 0h11l-1 2 2 2-5 1-4-2z" fill="#787B7C"/>
<path transform="translate(413,317)" d="m0 0 2 1v5l-5 1-2-4 1-2z" fill="#9A1C38"/>
<path transform="translate(501,293)" d="m0 0h4l-2 5-3 1h-6l2-1v-2h4z" fill="#EDEEEE"/>
<path transform="translate(489,294)" d="m0 0h12l-1 3-10-1 2 2-2 1-1 3-1-5-3-1z" fill="#A8AAAA"/>
<path transform="translate(164,536)" d="m0 0h4l-1 4-9-1v-2z" fill="#CCCDCD"/>
<path transform="translate(223,390)" d="m0 0h6l2 2-7 2-4 2h-4v-2l6-2z" fill="#989B9C"/>
<path transform="translate(304,349)" d="m0 0 2 1-1 1 2 2-9 2v-2l-3-1z" fill="#4A4749"/>
<path transform="translate(563,287)" d="m0 0h6l-3 3-2 1h-8l1-2z" fill="#181315"/>
<path transform="translate(434,509)" d="m0 0h12v1l-8 1-2 4-2 1z" fill="#898A8B"/>
<path transform="translate(265,362)" d="m0 0 7 1-1 2-6 2-4-1z" fill="#2E272A"/>
<path transform="translate(179,404)" d="m0 0 3 1-9 6-4-2 4-2z" fill="#B9BCBD"/>
<path transform="translate(615,494)" d="m0 0h10v2l-5 1h-7l2-1z" fill="#CBCCCC"/>
<path transform="translate(347,349)" d="m0 0 3 1v2l7-1-4 2-8 3 1-5z" fill="#838586"/>
<path transform="translate(348,345)" d="m0 0 2 2 7-2 5 1-4 2-10 2z" fill="#C6C8C8"/>
<path transform="translate(383,336)" d="m0 0 4 1h-3l-2 5-5 1v-3z" fill="#C2C4C4"/>
<path transform="translate(407,330)" d="m0 0 1 3 3 1-6 2h-7v-2l4-1 4 1z" fill="#A3A6A7"/>
<path transform="translate(641,476)" d="m0 0h3v8l-3 1z" fill="#C5C5C5"/>
<path transform="translate(199,409)" d="m0 0h5v2l2 1-10 1 1-3z" fill="#8E9192"/>
<path transform="translate(257,395)" d="m0 0h6v2h-2v2h-7v-2h3z" fill="#322A2D"/>
<path transform="translate(321,375)" d="m0 0 3 1-1 3-7 1v-3z" fill="#322B2E"/>
<path transform="translate(432,310)" d="m0 0 5 1-1 2-8 2v-2l-2-1z" fill="#7F8283"/>
<path transform="translate(525,293)" d="m0 0 4 1-4 1v2l-6 1 1-4z" fill="#949798"/>
</svg>
