<?xml version="1.0" encoding="UTF-8"?>
<svg version="1.1" viewBox="0 0 800 800" width="200" height="200" xmlns="http://www.w3.org/2000/svg">
<path transform="translate(196,248)" d="m0 0h88l1 5v10l-8 14-16 27-12 19-11 18-12 20-4 10 17-1 13-4 10-2 6-3 12-2 9-5 9-2 5-1 3-3 8-3 9-2 14-7 3-5 22-62 6-15 5-5 4-1h13l7 3 4 9 10 31 6 18v4l17-5 49-16 11-4h2l-1-15-2-5-8-3-10-2-1-2v-8l1-2 17-1h24l40 1 4 8 7-1 4-7h33l36 1 1 1v8l-9 4-16 8-9 7-13 13-7 8-9 11 1 4 13 27 12 22 14 26 8 14 7 9 8 7 7 3 7 2v10l-2 2-76-1-2-1v-8l7-3 6-3 2-4-5-11-18-34-7-12-8-16-3-1-11 9-4 3h-2v57l3 7 8 5 8 2 1 8-1 1-15 1-59 1-2-3v-8l1-2 11-1 5-3 2-4 1-7 1-91-23 7-36 13-10 2 5 12 11 33 8 26 4 6 1 3 5 2 7 3 1 4v7l-1 1-52 1h-20l-6-1v-13l16-3 4-5-6-21-6-20-13-2-18-1h-29l-4 10-5 16-2 12 3 8 3 3 6 2 9 1 1 1v11l-1 1h-58l-1-1v-11l7-2 7-4 6-5 6-14 5-16v-5h-7l-7 3-5 4h-10l-6 3-1 46-1 1-110 1h-24l-1-1v-17l6-11 2-10 9-8 11-16 8-13 9-15 40-70 9-16-2-1h-14l-25 1-12 5-10 9-7 11-6 14-5 16-2 2h-5l-1-1-1-27 1-29 8-1 7-5 4-6zm173 35-4 10-10 32-1 8 8-1 12-6 9-2-2-9-9-29zm195 15-11 4-15 2-7 2v37l4-2 7-7 7-8 9-9v-2h2l10-14v-3zm-314 101-7 3-3 3-9 1h-5l-6 5-5 3-9-1-8 6-10 2-1 4 2 1h40l11-2 8-4 8-7 8-11v-3z" fill="#A02A42"/>
<path transform="translate(171,461)" d="m0 0h138l43 1h32l115-1h29l21 1 106 1 1 87-1 1-136 1h-252l-121-1 1-39 2-15 2-3-1-10-4-18 2-3 6-1z" fill="#848686"/>
<path transform="translate(171,461)" d="m0 0h138l43 1h32l115-1h29l21 1 106 1v37l-2 4-17 1h-19l-12-2-10 1-9-3-2-2v-7l5-4h7l6 4 5 4-3-7-6-3h-11l-6 4-3 6v8l-62 1-3-1-3-18h-4l-2 17-7 1-29 1h-14l-1-1-19-1-1-10 1-2 21-1 2-5h-29l1 3-1 2-1 12-13 2h-12l-20 1h-6l-1-1-19-1v-12l22-1 1-4-29-1-1 13-2 4-5 2-33 1-14-1-5-5v-8l14-1v-5h-36l1 4 13 2 1 1v8l-1 3-4 1h-52l-5-2-7 1h-8l-6-4-1-6 4-4 2-1 9 1 9 7-3-6-6-4h-10l-8 4-2 5v8l-11 1h-13l-16 1-4 2-2 3v-9l3-7-1-10-4-18 2-3 6-1z" fill="#D9D9DA"/>
<path transform="translate(571,251)" d="m0 0h33l36 1 1 1v8l-9 4-16 8-9 7-13 13-7 8-9 11 1 4 13 27 12 22 14 26 8 14 7 9 8 7 7 3 7 2v10l-2 2-76-1-2-1v-8l7-3 6-3 2-4-5-11-18-34-7-12-8-16-3-1-11 9-4 3h-2v57l3 7 8 5 8 2 1 8-1 1-15 1-59 1-2-3v-8l1-2 11-1 5-3 2-4 1-7 1-79 1-12 27-9 7-1v34l8-7 11-12 7-7 1-2h2l2-4 7-10h2l2-4 8-7 6-4 3-1v-8l1-1v-8l-5-4-6-1-7 2h-5v-2l2-1v-10z" fill="#9F2841"/>
<path transform="translate(196,248)" d="m0 0h88l1 5v10l-8 14-16 27-12 19-11 18-12 20-3 6-8 11-14 7-9 4-5 1-9 2-3 1v2l-7 1-2-3 1-5 9-13 8-13 9-15 40-70 9-16-2-1h-14l-25 1-12 5-10 9-7 11-6 14-5 16-2 2h-5l-1-1-1-27 1-29 8-1 7-5 4-6z" fill="#9F2841"/>
<path transform="translate(333,344)" d="m0 0 1 4-5 13-3 4v6l-4 11-2-2h-7l-7 3-5 4h-10l-6 3-1 46-1 1-110 1h-24l-1-1v-17l6-11 1-8 1 2 30-10 43-14 16-5 20-7 10-3 12-4 8-3 7-3 13-4 9-3 8-2zm-83 55-7 3-3 3-9 1h-5l-6 5-5 3-9-1-8 6-10 2-1 4 2 1h40l11-2 8-4 8-7 8-11v-3z" fill="#848686"/>
<path transform="translate(172,462)" d="m0 0h97l68 1h318v14l-2-3h-4l-2 9-3 5-5 2h-3v-2l6-2 1-8h-2v3h-2l-1 3-4 1-3-2v-5l5-4h2v-3l-6-1-3 2-28 1h-350l-74 1-3 12-2 3h-6l-2-2v-2l-6-1 1-7 4-3v-4l-5 1h-10v-6l7-2z" fill="#838585"/>
<path transform="translate(171,461)" d="m0 0h138l43 1h32l115-1h29l21 1 67 1v1h-279l-77-1h-88l-17 1-7 1v6l15-1 1 4-5 5-1 5h9l-2 1 1 3 6 1 3-9 2-7 86-1h340l26-1 3-2 4 1 2 1v3l-6 4v5l4 1 3-3h2v-3l3-1-2 9-3 2h-3v2l8-3 3-7 2-7 5 1 1 3v23l-2 4-17 1h-19l-12-2-10 1-9-3-2-2v-7l5-4h7l6 4 5 4 1-3 2 2h20l18-1 4-1 1-9-5 1-5 6-9 1-5-2-3-3-2-6-2-1h-10l-10-1h-104l-55 1h-91l-17-1h-16l-14 1h-128l-3 9-7 3h-14l-3-8-4-18 2-3 6-1z" fill="#C1C2C2"/>
<path transform="translate(580,264)" d="m0 0h8l4 4v8l-1 3-1 6-14 10-5 6-1-3-9 2-8 3-15 2-7 1v3l-23 7-8 3h-3v12h-1v-12l-23 7-36 13-10 2 1 3-11 2-11 4-9 3-4 7-6-1-1-1-8 1-16-2 1-2 4-1 6 1h10v-2h-2l-1-3 4-2 4-1h15v-5l13-5 13-4 11-3 13-4 12-5 11-4 5-4 11-2 20-5 13-5 13-3 2-1v2l6-1 2-6-15 5-15 3-10 3-7 1v-2h-5l-3-2v2l-24 8-5 2h-7v2h-2v2h-8l-6 3-2 2-5-1-2 2-11 4h-4v2l-9 1-6 5-17 5-6 3-17 5-5 2h-9l1-6 1-3 5-3 24-7 10-3 20-5 7-1v-2l17-5 7-3 9-3 17-6 11-1 10-4 13-4 30-13 31-10z" fill="#858686"/>
<path transform="translate(282,390)" d="m0 0h1l1 5v41l-1 1-110 1h-24l-1-1v-17l3-3 8 1v1l9 3 21 3h40l11-2 8-4 7-6 8-11 2-6 11-4z" fill="#9F2942"/>
<path transform="translate(580,264)" d="m0 0h8l2 2v7l-6 3-26 7-18 6-16 5h-8l-11 5-10 2-2-1v2l-24 8-5 2h-7v2h-2v2h-8l-6 3-2 2-5-1-2 2-11 4h-4v2l-9 1-6 5-17 5-6 3-17 5-5 2h-9l1-6 1-3 5-3 24-7 10-3 20-5 7-1v-2l17-5 7-3 9-3 17-6 11-1 10-4 13-4 30-13 31-10z" fill="#C2C2C3"/>
<path transform="translate(333,344)" d="m0 0 1 4-4 8-9 5-20 6-16 5-15 5-7 2-14 5-16 5-33 11-4 2-12 3-16 6-9 4-6-2 2-12 1 2 30-10 43-14 16-5 20-7 10-3 12-4 8-3 7-3 13-4 9-3 8-2z" fill="#D7D8D8"/>
<path transform="translate(492,250)" d="m0 0h24l40 1 1 1 1 10-8 3-12 2-5 4-3 7-12 5-10 3-5 2h-5l-2-2-1-13-2-5-8-3-10-2-1-2v-8l1-2z" fill="#A02A43"/>
<path transform="translate(543,292)" d="m0 0h5v5l-4 3-5-2-6 2-8 2-16 6-15 3-5 2-7 1-4 3-9 4-12 4-8 3-17 5-3 1-17 5-3 1v-2h-5l-9 3-16 6-10 3-9 3-13 1-1-4 1-1 10-1 17-6 9-3 11-4 8-2 6-5h9v-2l15-5 3-2 4 1 3-3 5-2 8 1v-2h2v-2l9-1 1-2 8-2 16-5h2v-2l9 1-1 3 17-5 15-3z" fill="#9F2841"/>
<path transform="translate(569,254)" d="m0 0 2 4-1 5h-2v2l14-3 4 2-12 3-38 12-16 6-20 9-15 5-10 3-9 1-19 7-12 4-14 5h-5v2l-5 2-18 4-12 3-22 7-8 3 2-8 9-1 12-6 9-2 1-1h11l11-3 6-1v-2h-5l3-2 15-3 64-21 7-2v-2h5l2 1h4l1-2 21-7 4-8 5-4 16-3 3-1v-7l3 4 7-1z" fill="#858283"/>
<path transform="translate(334,338)" d="m0 0h2l-2 6-4 3-13 3-10 4-9 3-10 3-8 3-10 4-17 5-8 3-16 5-36 12-29 9-5 2h-3l1-5 8-7h2l1 4h7v-2l9-4h6l10-4 8-5 7-3 7-10 1 2-1 2 17-1 13-4 10-2 6-3 12-2 9-5 9-2 5-1 3-3 8-3 9-2z" fill="#848686"/>
<path transform="translate(205,488)" d="m0 0 9 1 9 7-1-5h2l1 2 4 1h38l7-2v-1h8l1 1v8l-1 3-4 1h-52l-5-2-7 1h-8l-6-4-1-6 4-4z" fill="#BDBEBE"/>
<path transform="translate(580,264)" d="m0 0h8l2 2v7l-6 3-26 7-18 6-16 5h-4l-2-3v-4l6-2 10-5h2v-2l25-8z" fill="#DADADB"/>
<path transform="translate(504,486)" d="m0 0h1v10l-1 7-7 1-29 1h-14l-1-1-19-1-1-10 1-2 21-1 2-1v5l32 1 13-1 1-1z" fill="#C1C2C2"/>
<path transform="translate(653,487)" d="m0 0h2v13l-2 4-17 1h-19l-12-2-10 1-9-3-2-2v-7l5-4h7l6 4 5 4 1-3 2 2h20l18-1 4-1z" fill="#BDBEBE"/>
<path transform="translate(356,491)" d="m0 0h22l2 3h41l5-1 1 1v8l-13 2h-12l-20 1h-6l-1-1-19-1z" fill="#C1C2C2"/>
<path transform="translate(543,292)" d="m0 0h5v5l-4 3-5-2-6 2-8 2-16 6-15 3-5 2h-10l-10 3h-6l-3 3-7 2-6 1-4 3h-4v-2l-8 1-9 3h-5l4-2 12-5h3l4-1 5-3 7-1 3 1v-2h2v-2l9-1 1-2 8-2 16-5h2v-2l9 1-1 3 17-5 15-3z" fill="#8D666E"/>
<path transform="translate(333,344)" d="m0 0 1 4-4 8-9 5-20 6-16 5-15 5-7 2-14 5-16 5-33 11-4 2-12 3-16 6-9 4-6-2v-2l16-5 10-3 16-5 5-2 17-5 7-3 13-4 8-2 1-2 10-2 12-4 14-4 5-2 10-2 10-4 16-5 2-2-1-2-8 1-14 3-12 5-14 4-3-1 22-8 7-3 13-4 9-3 8-2z" fill="#C1C2C2"/>
<path transform="translate(302,490)" d="m0 0 2 1v2l27 1h8l7-1 3-3v8l-2 4-5 2-33 1-14-1-5-5v-8z" fill="#C1C2C2"/>
<path transform="translate(512,492)" d="m0 0 4 3h60l2 3v6l-62 1-3-1-1-3z" fill="#C1C2C2"/>
<path transform="translate(184,493)" d="m0 0h10v10l-11 1h-13l-16 1-4 2-2 3v-9l2-6 3-1h18z" fill="#C1C2C2"/>
<path transform="translate(313,367)" d="m0 0h7l-3 3-1 3-18 6-5 2-11 2-7 5-4 1h-8l-8 2v2l-4 2-12 1-10 5h-10v-2l14-5 5-1 8-3 12-3 9-4 16-5 24-8 2 1 1-3z" fill="#1C1A1D"/>
<path transform="translate(587,485)" d="m0 0h11l7 4 3 7h-3l-7-6-2-1h-7l-5 4-1 6 4 4 15 4 6 4 1 9-3 5-5 3h-14l-7-4-3-6v-2l4 1 6 5 2 1h11l3-3v-6l-5-3-12-3-7-6v-10l4-5z" fill="#1F1A1E"/>
<path transform="translate(204,485)" d="m0 0h10l6 4 3 4v3l-4-2-5-4-9-1-5 2-1 7 3 5 16 4 5 3 2 3v7l-6 7-3 1h-13l-8-6-2-3v-3l4 1 7 6h12l3-3v-7l-12-4-7-2-5-5v-10l2-4z" fill="#201B1E"/>
<path transform="translate(423,327)" d="m0 0m-15 1h15v2l2 1-14 5-16 5-16 6-10 3-9 3-13 1-1-4 1-1 10-1 17-6 9-3 11-4 8-2z" fill="#858082"/>
<path transform="translate(428,486)" d="m0 0h28l-1 3-22 1v15h20l-1 3-19 1-1 14 24 1v3l-4 1h-23l-1-1z" fill="#231A1F"/>
<path transform="translate(397,325)" d="m0 0h9l-1 5-9 4-9 3-18 4-9 4-7-1-1-5 7-3 22-7z" fill="#DADADB"/>
<path transform="translate(437,312)" d="m0 0 2 1-3 1 1 5 2 2-5-1-2 2-11 4h-4v2l-9 1-6 5-17 5-6 3-17 5-5 2h-9l1-6 1-3h2l2 3 7 1 8-4 21-5 15-6 1-4h-6v-1l12-2 4-1v-2l17-5z" fill="#C0C1C1"/>
<path transform="translate(351,486)" d="m0 0h27l-1 3-21 1-1 9v6h20l-1 3h-19l1 15 23 1v3l-10 1h-16l-3-2v-19z" fill="#1B1A1D"/>
<path transform="translate(406,319)" d="m0 0m-2 1h2v2l3 1-28 7-22 7-8 3 2-8 9-1 12-6 9-2 1-1h11z" fill="#858787"/>
<path transform="translate(580,264)" d="m0 0h8l2 2v7l-6 3-26 7-18 6-16 5-4-1 9-4 25-8 22-7 11-5v-4l-7 2-30 9h-5l3-2z" fill="#BFC0C0"/>
<path transform="translate(543,292)" d="m0 0h5v5l-4 3-5-2-6 2-8 2-16 6-15 3-5 2h-7v-2l7-2h5v-2l7-1 5-3 9-3 16-4 5-1z" fill="#A02841"/>
<path transform="translate(269,486)" d="m0 0h34v3l-15 1v37h-4l-1-37-14-1z" fill="#1D1A1D"/>
<path transform="translate(507,486)" d="m0 0h3v13l1 22 1 2 20 1 1 3-3 1h-22l-2-1v-26z" fill="#1E1A1E"/>
<path transform="translate(404,337)" d="m0 0h7l-2 1-1 3-5 1v5l-6 1h-10l-6 2-3 3h-11l2-1v-3l14-4 12-5z" fill="#2C1B21"/>
<path transform="translate(333,344)" d="m0 0 1 4-4 8-9 5-3-1 7-5-1-2-8 1-14 3-12 5-14 4-3-1 22-8 7-3 13-4 9-3 8-2z" fill="#BFC0C0"/>
<path transform="translate(569,254)" d="m0 0 2 4-1 5-15 5-19 5h-3v-3l5-4 16-3 3-1v-7l3 4 7-1z" fill="#D0D1D1"/>
<path transform="translate(352,505)" d="m0 0 2 1 1 1 1 16 23 1v3l-10 1h-16l-3-2v-19h2z" fill="#251B1F"/>
<path transform="translate(210,401)" d="m0 0h8l-3 3-7 3-10 2h-4v2l-2 2h-3l-1 3h-15l-8 3h-5l-1-2 24-7 26-8z" fill="#311C23"/>
<path transform="translate(493,300)" d="m0 0 9 1-1 3 2 1-2 2h-7v2l-7 2h-5l-1 2-10 1 1-3 5-1v-2l8-4 8-2z" fill="#87797C"/>
<path transform="translate(578,281)" d="m0 0 2 1-3 5-4 2-1 3-8 2-9-1h-5v-2l8-4 16-5z" fill="#1B1A1D"/>
<path transform="translate(381,337)" d="m0 0h4v2l-6 3-17 5-5 2h-9l1-6 1-3h2l2 3 7 1 8-4z" fill="#BEBFBF"/>
<path transform="translate(165,391)" d="m0 0h2l1 4 5 1v2l-14 5h-3l1-5z" fill="#878384"/>
<path transform="translate(447,315)" d="m0 0h5l1 2-12 4h2l4 1-4 3h-4v-2l-8 1-9 3h-5l4-2 12-5h3l4-1 5-3z" fill="#848383"/>
<path transform="translate(434,322)" d="m0 0 5 1v3l-4 1-7 3h-5v-2l-11 1v-1l16-4z" fill="#93515F"/>
<path transform="translate(159,522)" d="m0 0h7l-9 12-5-1 2-6z" fill="#C1C2C2"/>
<path transform="translate(543,292)" d="m0 0h5v5l-4 3-5-2-4 1-1-3z" fill="#201A1E"/>
<path transform="translate(533,279)" d="m0 0 3 1-10 5-6 2h-2l2 6h-7l-1-3 4-4z" fill="#CACBCB"/>
<path transform="translate(634,522)" d="m0 0 5 1v2l-8 2v2l4-1-3 3-3 2h-3v-5l5-5z" fill="#CECFCF"/>
<path transform="translate(580,264)" d="m0 0v3l-30 9h-5l3-2z" fill="#C1C2C2"/>
<path transform="translate(384,328)" d="m0 0h5l-3 2-11 4-19 5-2-1 8-3 19-6z" fill="#C1C2C2"/>
<path transform="translate(222,367)" d="m0 0 1 2-1 2h14v1l-15 4-6 3 2-5z" fill="#D7D8D8"/>
<path transform="translate(493,300)" d="m0 0 9 1-1 3 2 1-2 2h-9z" fill="#8B6C73"/>
<path transform="translate(302,354)" d="m0 0m-2 1h2l-1 3-11 4-14 4-3-1 22-8z" fill="#C1C2C2"/>
<path transform="translate(481,305)" d="m0 0m-3 1 3 1-4 1v2l-3 3-6 1-6-1 4-2 1-2 8-2z" fill="#8E646D"/>
<path transform="translate(437,505)" d="m0 0h16l-1 3h-17z" fill="#1B1A1D"/>
<path transform="translate(634,476)" d="m0 0h1v6l4-1-1 3-4 1-3-2 1-5z" fill="#848686"/>
<path transform="translate(536,287)" d="m0 0m-3 1h3v2l-12 4-4-1 9-4z" fill="#C1C2C2"/>
<path transform="translate(533,279)" d="m0 0 3 1-10 5-6 2-2-1 5-3z" fill="#C1C2C2"/>
<path transform="translate(630,534)" d="m0 0 10 1v3h-8z" fill="#C1C2C2"/>
<path transform="translate(447,315)" d="m0 0h5l1 2-8 3-4-1z" fill="#848686"/>
<path transform="translate(229,364)" d="m0 0 3 1-3 1z" fill="#E3E3E4"/>
</svg>
